<svg width="279" height="216" viewBox="0 0 279 216" fill="none" xmlns="http://www.w3.org/2000/svg">
<g clip-path="url(#clip0_32_39)">
<path d="M136.488 56.8151L132.026 52.6068L128.015 46.7767L123.825 37.4242L118.885 22.7346L115.644 15.1683L111.312 8.47371L107.807 4.90134L103.909 2.46496L100.569 1.70766L97.7135 1.65044L95.4436 2.42928L92.7954 4.35833L90.5612 7.10904L89.9473 8.95244L89.4547 8.23797L88.1984 6.80902L86.9207 5.66579L84.1083 3.80817L81.7742 2.73646L77.5841 1.46467L72.3376 0.628793L65.385 0.264404H60.1029L54.6136 1.05746L48.7461 2.65073L44.8916 4.44406L41.2511 6.95188L37.7463 10.4457L35.1124 14.1681L33.442 17.3903L31.786 22.0987L31.0151 26.0712L30.7724 29.7222L31.1079 34.4735L31.7218 37.6671L33.1494 42.1469L34.9482 46.1123L36.904 49.6847C36.904 49.6847 36.954 50.0918 36.076 49.8775C35.198 49.6631 34.527 49.5775 34.527 49.5775L31.5647 49.3131L28.4168 49.3702L25.7686 49.6917L22.8062 50.3419L17.8738 52.1281L13.2198 54.7574L8.67281 58.4941L5.73903 61.895L3.1836 66.0604L1.75598 69.5113L0.720946 73.7982L0.371185 78.5708L0.735236 82.9863L1.92016 87.9376L3.40488 91.9958L5.87466 96.0326L8.30161 99.162L13.1056 103.306L15.7038 105.064L18.916 106.228L22.0353 107.457L24.498 108.3L26.982 108.622L29.1235 109.257H30.8366L29.4447 110.858L28.9308 111.572L28.1384 112.758L26.9392 115.281C26.463 116.2 26.0596 117.156 25.7329 118.138C24.5995 121.67 24.3906 125.434 25.1261 129.07C26.4681 136.1 30.908 140.444 32.771 142.266C35.9047 145.251 39.6068 147.574 43.6567 149.097C45.6553 149.911 47.9966 150.526 52.6792 151.783C55.8842 152.64 57.369 152.948 62.5013 154.184C64.7712 154.727 68.0547 155.527 72.0449 156.527L72.6802 156.734C72.4113 157.647 72.0452 158.529 71.5881 159.364C71.2334 159.908 70.9907 160.518 70.8743 161.157L69.3396 167.144L68.9969 171.731L69.4324 176.968L70.6815 181.841L72.2376 185.499L73.7366 188.078L77.1701 192.408L79.1116 194.266L81.61 196.452L84.5295 198.088L89.0336 200.139L93.0452 201.26L97.2424 201.918C97.2424 201.918 100.726 201.618 101.311 201.618C101.896 201.618 104.88 201.153 104.994 201.125C105.109 201.096 109.456 199.946 109.456 199.946L114.452 198.024L119.156 195.666L121.476 194.323L125.045 192.029L127.665 190.136L130.192 188.143L131.698 186.871L132.812 185.871L133.682 185.092L138.065 57.8082L136.488 56.8151ZM108.064 60.6232C107.825 60.8454 107.567 61.0462 107.293 61.2234L107.55 61.402C108.521 62.1164 107.935 62.8952 107.186 63.3954C107.107 72.7693 97.1924 78.5851 89.4976 81.5716C88.0699 82.136 85.8643 82.4718 84.4438 81.5716C83.3874 80.8571 82.9662 79.6211 84.4438 79.0424C86.0264 78.4325 87.5773 77.7434 89.0907 76.9776C87.5988 77.0704 85.593 76.8204 85.229 75.6701C84.4506 73.3837 84.3124 70.9276 84.8293 68.5682C84.8257 68.5087 84.8257 68.449 84.8293 68.3896C85.4717 64.0598 87.5061 61.0091 90.5397 59.0443C91.3104 58.4709 92.1718 58.0313 93.088 57.7439C94.4028 57.2224 95.7691 56.8417 97.1639 56.6079C98.7115 56.3132 100.306 56.3768 101.825 56.7936C104.066 56.7682 106.253 57.4812 108.05 58.8227C108.195 58.9231 108.314 59.057 108.396 59.213C108.479 59.3691 108.523 59.5427 108.524 59.7193C108.525 59.8959 108.484 60.0702 108.404 60.2275C108.324 60.3848 108.207 60.5206 108.064 60.6232Z" fill="white"/>
<path d="M96.8641 31.3297C96.5969 31.0671 96.3577 30.7774 96.1503 30.4652C95.722 29.8865 95.0938 29.0363 94.3158 27.886C93.3716 26.506 92.5042 25.0749 91.7175 23.5992C90.6563 21.636 89.8663 19.5376 89.3691 17.3617C88.7334 14.697 88.7826 11.9145 89.5119 9.2739C89.9543 7.7538 90.6972 6.33812 91.6965 5.11081C92.6958 3.88351 93.9312 2.86957 95.3294 2.12916C96.0927 1.74865 96.9045 1.47459 97.7421 1.31464C98.6019 1.16335 99.4774 1.12251 100.347 1.19315C102.127 1.38376 103.846 1.94607 105.394 2.84363C106.984 3.75492 108.44 4.88259 109.72 6.19448C111.031 7.53294 112.225 8.98153 113.289 10.5242C115.327 13.5801 117.02 16.8535 118.336 20.284C119.642 23.5777 120.684 26.8357 121.669 29.9222C122.654 33.0088 123.582 35.9524 124.603 38.6388C125.534 41.1329 126.619 43.5668 127.851 45.9265C128.868 47.8714 130.045 49.7282 131.37 51.4779C132.376 52.7935 133.488 54.0242 134.696 55.1574C135.181 55.6433 135.667 56.0006 136.067 56.3507C136.402 56.6403 136.752 56.9122 137.116 57.1652C137.425 57.377 137.714 57.6161 137.98 57.8796C137.645 57.7227 137.325 57.5362 137.023 57.3223C136.642 57.0886 136.275 56.8333 135.924 56.5579C135.51 56.2292 135.003 55.8791 134.496 55.4075C133.235 54.3002 132.074 53.0833 131.027 51.7708C129.65 50.0278 128.427 48.1678 127.372 46.2122C126.095 43.8462 124.972 41.4 124.01 38.8888C122.954 36.1953 121.997 33.2517 120.998 30.1651C119.999 27.0786 118.942 23.8492 117.636 20.5912C116.329 17.2137 114.653 13.991 112.639 10.9815C110.498 7.95928 108.042 5.21565 105.023 3.52235C103.567 2.67348 101.95 2.13588 100.276 1.94339C99.4732 1.87957 98.6655 1.91317 97.8706 2.04342C97.0974 2.18124 96.3461 2.42151 95.6363 2.7579C94.3127 3.45064 93.1412 4.40183 92.1911 5.55536C91.2409 6.70888 90.5314 8.04136 90.1043 9.47398C89.3811 12.0108 89.3075 14.689 89.8902 17.2618C90.3483 19.4028 91.0876 21.4737 92.0887 23.4205C92.8385 24.8907 93.6628 26.3215 94.5585 27.7074L96.2716 30.3581C96.4968 30.6642 96.695 30.9893 96.8641 31.3297Z" fill="#6E6E6D"/>
<path d="M70.8243 70.3471C70.706 70.3645 70.5857 70.3645 70.4674 70.3471L69.4181 70.1757C68.4973 70.0113 67.1553 69.7327 65.435 69.2897C60.5761 68.0273 55.9071 66.1219 51.5514 63.6239C48.5388 61.8901 45.7261 59.8296 43.1641 57.4794C41.7495 56.1564 40.4215 54.7436 39.1882 53.2498C37.8777 51.6549 36.6849 49.9666 35.6191 48.1984C33.3412 44.3988 31.7511 40.2266 30.9223 35.8737C30.0366 31.178 30.2344 26.3418 31.5004 21.7343C32.7405 17.1157 35.0655 12.8607 38.2816 9.32383C41.2953 6.04402 45.0928 3.58536 49.3172 2.17908C53.1157 0.938438 57.0725 0.25029 61.0665 0.135697C64.5279 0.00467166 67.9942 0.0882564 71.4453 0.385833C74.3014 0.612722 77.1251 1.14443 79.8683 1.97195C81.9478 2.59544 83.9212 3.53006 85.7215 4.74411C86.8547 5.51351 87.8839 6.426 88.7837 7.45906L89.4262 8.30933C89.5046 8.40099 89.5717 8.50169 89.6261 8.60936C88.4413 7.22176 87.0723 6.00303 85.5573 4.98701C83.7793 3.81979 81.8413 2.91727 79.804 2.30773C77.0794 1.54365 74.283 1.06476 71.4596 0.878779C68.0325 0.617334 64.5925 0.567254 61.1593 0.728767C57.2284 0.867109 53.3372 1.56469 49.6027 2.80067C45.4996 4.19818 41.8163 6.61179 38.8955 9.81686C35.7655 13.2856 33.5025 17.4483 32.2928 21.9629C31.0622 26.4616 30.8645 31.1806 31.7146 35.7665C32.5237 40.0359 34.0696 44.1315 36.283 47.8698C37.3163 49.614 38.4683 51.2851 39.7307 52.8711C40.9389 54.3466 42.2382 55.7449 43.621 57.0579C46.134 59.3983 48.8936 61.4586 51.8512 63.2024C56.1496 65.6925 60.7448 67.6297 65.5278 68.9683C67.2267 69.447 68.5615 69.7756 69.4609 69.9899L70.4959 70.2328C70.6103 70.255 70.7208 70.2935 70.8243 70.3471Z" fill="#6E6E6D"/>
<path d="M74.7074 120.518C74.7074 120.518 74.6004 120.446 74.4148 120.268L73.6224 119.496C72.5886 118.518 71.4787 117.625 70.3032 116.824C68.4246 115.588 66.4134 114.567 64.3072 113.78C61.5162 112.745 58.627 111.998 55.6844 111.551C52.1114 110.996 48.5062 110.673 44.8916 110.586C40.987 110.436 36.8041 110.372 32.407 109.986C27.7671 109.681 23.1972 108.694 18.8446 107.057C14.1817 105.201 10.0932 102.142 6.99535 98.1902C6.19474 97.1932 5.45575 96.1481 4.78253 95.0608C4.4399 94.525 4.16153 93.9606 3.85459 93.4104L3.39774 92.5816C3.25498 92.303 3.14078 92.0101 3.0123 91.7315L2.24851 90.0167L1.64177 88.2663L1.34196 87.3945L1.11356 86.5086C0.963656 85.9156 0.806622 85.3297 0.670998 84.7367C0.535374 84.1437 0.463983 83.5435 0.371188 82.9505C0.321221 82.6576 0.264107 82.3647 0.228417 82.0646L0.157053 81.1715L0.0142822 79.4068C0.0142822 78.8114 0.0142822 78.2254 0.0142822 77.6491V76.7775L0.099936 75.913C0.157041 75.3342 0.214139 74.7698 0.271244 74.1982C0.328348 73.6266 0.485395 73.0837 0.592467 72.5264C0.688019 71.9737 0.816744 71.4273 0.977931 70.8902C2.12727 66.8184 4.1737 63.0561 6.96679 59.8801C9.39701 57.1191 12.2972 54.8114 15.5325 53.0641C18.1848 51.6173 21.0276 50.5518 23.9769 49.8989L25.8614 49.5202L27.6316 49.3274L28.4596 49.2416H29.2591H30.7367C32.1749 49.2625 33.6084 49.4131 35.0196 49.6917L36.1117 49.9204C36.2375 49.9347 36.3602 49.9685 36.4757 50.0204C36.3504 50.0409 36.2227 50.0409 36.0974 50.0204L34.991 49.8703C33.5853 49.6587 32.1653 49.556 30.7438 49.5631L29.2805 49.6203H28.4953L27.6744 49.7275L25.9327 49.949L24.0768 50.349C21.1861 51.0397 18.4028 52.1214 15.8038 53.5642C12.6557 55.3154 9.83873 57.6054 7.48074 60.3302C4.77403 63.4495 2.7942 67.1323 1.6846 71.1117C1.53051 71.6348 1.40892 72.1669 1.32055 72.705C1.22061 73.248 1.09927 73.7839 1.01361 74.334C0.927955 74.8842 0.906555 75.4486 0.84945 76.0059L0.77092 76.8489V77.6992C0.77092 78.2707 0.77092 78.8423 0.77092 79.4139L0.906546 81.1429L0.977931 82.0146C1.01362 82.3004 1.07785 82.5862 1.12068 82.8791L1.42049 84.6224C1.56325 85.194 1.71314 85.7656 1.8559 86.3443L2.08433 87.2159L2.37699 88.0662C2.57686 88.6378 2.76959 89.2022 2.97659 89.7738L3.6904 91.4456C3.81175 91.7243 3.92596 92.0101 4.06872 92.2816L4.51128 93.089C4.81822 93.6248 5.08948 94.182 5.41783 94.7036C6.07 95.7602 6.7851 96.7766 7.55927 97.7473C10.5898 101.59 14.5816 104.563 19.1301 106.364C23.407 107.982 27.8963 108.969 32.457 109.293C36.8184 109.693 41.0227 109.779 44.9058 109.958C48.5415 110.074 52.1659 110.427 55.7558 111.015C58.7283 111.501 61.6421 112.296 64.45 113.387C66.5709 114.214 68.5881 115.285 70.4603 116.581C71.6272 117.414 72.7166 118.352 73.7152 119.382L74.429 120.218C74.5328 120.307 74.6261 120.407 74.7074 120.518Z" fill="#6E6E6D"/>
<path d="M96.343 176.768C96.2502 176.768 95.9147 175.268 94.637 172.803C92.7603 169.35 90.145 166.354 86.9778 164.029C84.8172 162.405 82.4973 161.004 80.0538 159.849C77.2296 158.551 74.3024 157.49 71.3025 156.677C64.9782 154.862 57.7829 153.776 50.4093 151.676C43.0356 149.575 36.2687 146.303 31.5147 141.545C29.2468 139.319 27.4355 136.671 26.1826 133.75C24.9157 130.612 24.3476 127.236 24.5177 123.856C24.6878 120.476 25.5921 117.174 27.1676 114.18C27.4547 113.626 27.7741 113.089 28.1241 112.573C28.3656 112.185 28.6302 111.813 28.9164 111.458C29.1266 111.152 29.3656 110.868 29.6302 110.608C29.7088 110.658 28.6666 111.837 27.4174 114.316C25.6898 117.843 24.8656 121.744 25.019 125.669C25.1318 128.37 25.7189 131.031 26.7536 133.528C27.9967 136.358 29.7759 138.92 31.993 141.073C36.6541 145.681 43.3283 148.932 50.602 150.968C57.8757 153.005 65.1138 154.126 71.481 155.97C74.5122 156.809 77.4662 157.906 80.3108 159.249C82.7814 160.43 85.1212 161.866 87.2919 163.536C90.4838 165.933 93.0824 169.033 94.8868 172.596C95.1636 173.15 95.4021 173.723 95.6006 174.31L95.8647 175.025L96.036 175.618C96.1781 175.99 96.281 176.375 96.343 176.768Z" fill="#6E6E6D"/>
<path d="M133.604 185.12C133.39 185.381 133.151 185.621 132.89 185.835C132.405 186.299 131.691 186.985 130.749 187.807C128.03 190.173 125.13 192.323 122.076 194.237C119.969 195.567 117.788 196.777 115.545 197.859C112.952 199.079 110.267 200.09 107.514 200.882C104.45 201.742 101.281 202.173 98.099 202.161C97.685 202.161 97.2638 202.161 96.8498 202.161L95.5935 202.039C95.1724 201.996 94.7512 201.968 94.3301 201.903L93.0738 201.675C91.3673 201.336 89.6949 200.843 88.0771 200.203C81.8743 197.781 76.6174 193.421 73.0871 187.771C71.5671 185.319 70.4287 182.65 69.7107 179.855C69.0719 177.429 68.7339 174.933 68.7043 172.424C68.6522 168.797 69.2543 165.191 70.4817 161.778C70.8134 160.854 71.2044 159.952 71.6523 159.078C71.7891 158.764 71.9565 158.465 72.152 158.185C72.2305 158.185 71.5667 159.471 70.7244 161.871C69.6218 165.274 69.1076 168.841 69.2039 172.417C69.3249 177.724 70.8575 182.904 73.6438 187.421C77.1398 192.917 82.2996 197.15 88.3698 199.503C89.9447 200.122 91.5715 200.6 93.2308 200.932L94.4514 201.16C94.8583 201.225 95.2723 201.246 95.6792 201.296L96.8998 201.418C97.3067 201.46 97.7135 201.418 98.1133 201.418C101.228 201.444 104.332 201.037 107.336 200.21C110.057 199.445 112.716 198.47 115.288 197.295C117.522 196.244 119.697 195.073 121.805 193.787C124.859 191.917 127.787 189.847 130.57 187.592C131.562 186.806 132.305 186.163 132.819 185.728C133.065 185.506 133.327 185.303 133.604 185.12Z" fill="#6E6E6D"/>
<path d="M100.719 111.579C100.556 110.479 100.271 109.401 99.8692 108.364C98.6634 105.569 96.6814 103.179 94.1588 101.477C91.0537 99.1834 86.6138 97.7544 81.6385 96.7756C79.1473 96.2612 76.4991 95.8539 73.7866 95.2181L71.738 94.7465L69.6751 94.1963C68.2831 93.8391 66.9126 93.3604 65.4993 92.9317C60.2484 91.1623 55.1749 88.9043 50.3451 86.1871C46.4117 83.9473 42.6577 81.4057 39.1168 78.5851C36.7355 76.6843 34.4598 74.6545 32.3 72.5049L30.5868 70.7044L30.1514 70.2258C30.0976 70.1741 30.0497 70.1165 30.0086 70.0542C30.0624 70.1059 30.1103 70.1635 30.1514 70.2258L30.6153 70.6758L32.3713 72.4263C33.956 73.891 36.2045 76.0487 39.2525 78.4065C47.1479 84.6151 56.0534 89.4152 65.5778 92.5959C67.0054 93.0246 68.3545 93.5033 69.7393 93.8605L71.7879 94.4107L73.8294 94.8893C76.5205 95.5181 79.1616 95.9397 81.6814 96.4612C84.0575 96.9179 86.3959 97.5531 88.6767 98.3617C89.7084 98.7422 90.7166 99.1836 91.6961 99.6835C92.5955 100.157 93.4612 100.692 94.2873 101.284C96.8382 103.026 98.8234 105.477 99.9977 108.336C100.302 109.111 100.515 109.919 100.633 110.744L100.697 111.387C100.71 111.45 100.718 111.515 100.719 111.579Z" fill="#6E6E6D"/>
<path d="M97.3066 144.488C97.1346 144.473 96.9646 144.44 96.7998 144.388L95.3722 144.024L90.1043 142.595C85.6644 141.373 79.5042 139.737 72.7944 137.594C67.0514 135.824 61.441 133.649 56.0056 131.085C53.9355 130.063 52.2938 129.177 51.1802 128.527L49.9096 127.762C49.7551 127.682 49.6092 127.586 49.4742 127.477C49.6393 127.532 49.7974 127.606 49.9453 127.698L51.2516 128.413C52.3866 129.02 54.0426 129.842 56.1269 130.856C61.5768 133.359 67.1823 135.506 72.9086 137.286C79.6113 139.43 85.7572 141.059 90.1757 142.352L95.4151 143.874L96.8427 144.31C97.0015 144.358 97.1565 144.417 97.3066 144.488Z" fill="#6E6E6D"/>
<path d="M125.645 166.687C125.603 166.889 125.545 167.087 125.474 167.28C125.352 167.666 125.152 168.223 124.888 168.945C124.13 170.982 123.245 172.969 122.24 174.896C120.75 177.765 118.885 180.423 116.694 182.798C113.994 185.723 110.647 187.975 106.922 189.371C103.185 190.812 99.0887 191.027 95.2223 189.986C92.0922 189.046 89.3135 187.193 87.2419 184.663C85.8361 182.975 84.8567 180.973 84.3867 178.826L84.2296 177.811C84.194 177.518 84.194 177.261 84.1868 177.061C84.171 176.857 84.171 176.651 84.1868 176.447C84.2325 176.646 84.2588 176.849 84.2653 177.054C84.2653 177.254 84.301 177.504 84.351 177.768L84.5366 178.762C85.0355 180.862 86.0127 182.818 87.3918 184.477C89.4472 186.93 92.1777 188.724 95.2437 189.636C99.039 190.637 103.053 190.414 106.715 189C110.385 187.628 113.69 185.428 116.373 182.57C118.553 180.224 120.422 177.607 121.933 174.782C122.954 172.876 123.869 170.916 124.674 168.909L125.331 167.266C125.417 167.063 125.522 166.869 125.645 166.687Z" fill="#6E6E6D"/>
<path d="M141.02 60.8947L145.396 188.178L146.267 188.95L147.388 189.957L148.894 191.229L151.421 193.222L154.04 195.116L157.609 197.409L159.922 198.753L164.626 201.11L169.623 203.025C169.623 203.025 173.97 204.19 174.091 204.211C174.213 204.233 177.182 204.704 177.767 204.704C178.353 204.704 181.843 205.004 181.843 205.004L186.04 204.347L190.045 203.225L194.549 201.175L197.469 199.531L199.974 197.388L201.908 195.53L205.342 191.201L206.841 188.621L208.404 184.963L209.653 180.09L210.089 174.853L209.718 170.209L208.176 164.222C208.058 163.583 207.816 162.973 207.462 162.429C207.004 161.593 206.636 160.712 206.363 159.799L207.005 159.592C210.995 158.585 214.272 157.792 216.549 157.249C221.681 156.013 223.159 155.705 226.364 154.848C231.053 153.605 233.395 152.976 235.386 152.162C239.437 150.642 243.14 148.319 246.272 145.331C248.142 143.509 252.582 139.165 253.924 132.135C254.656 128.499 254.447 124.736 253.317 121.203C252.987 120.222 252.584 119.267 252.111 118.346L250.904 115.823L250.119 114.637L249.605 113.923L248.178 112.323H249.884L252.025 111.687L254.502 111.365L256.965 110.522L260.084 109.293L263.296 108.129L265.894 106.371L270.706 102.227L273.133 99.0976L275.602 95.0608L277.087 91.0026L278.272 86.0513L278.636 81.6359L278.286 76.8631L277.244 72.5763L275.816 69.1254L273.261 64.96L270.32 61.5592L265.78 57.8224L261.126 55.1932L256.194 53.407L253.224 52.7568L250.583 52.4353L247.428 52.3781L244.466 52.6424C244.466 52.6424 243.809 52.7282 242.924 52.9425C242.039 53.1569 242.096 52.7496 242.096 52.7496L244.052 49.1773L245.844 45.2048L247.271 40.7322L247.885 37.5385L248.221 32.7872L247.978 29.1363L247.2 25.1638L245.544 20.4554L243.881 17.2331L241.247 13.5107L237.742 10.0169L234.101 7.50913L230.247 5.71579L224.372 4.12252L218.89 3.32947H213.608L206.655 3.69377L201.409 4.52974L197.212 5.80152L194.885 6.87323L192.072 8.73085L190.794 9.87399L189.538 11.3029L189.038 12.0174L188.432 10.1741L186.19 7.42339L183.549 5.49426L181.279 4.71551L178.424 4.77263L175.083 5.53002L171.179 7.9664L167.674 11.5388L163.341 18.2334L160.101 25.7782L155.168 40.4678L150.971 49.8203L146.959 55.6504L142.498 59.8587L141.02 60.8947ZM170.936 61.8806C172.736 60.5398 174.924 59.8247 177.168 59.8444C178.686 59.4332 180.277 59.3721 181.822 59.6658C183.219 59.8996 184.588 60.2804 185.905 60.8018C186.82 61.0871 187.679 61.5269 188.446 62.1021C191.501 64.0669 193.535 67.1035 194.157 71.4475C194.16 71.5069 194.16 71.5666 194.157 71.6261C194.674 73.9859 194.534 76.4428 193.75 78.7279C193.386 79.8782 191.387 80.1569 189.888 80.0355C191.458 80.8357 193.05 81.5216 194.535 82.1003C196.02 82.679 195.598 83.9507 194.535 84.6295C193.107 85.5297 190.966 85.1939 189.488 84.6295C181.808 81.643 171.871 75.8272 171.793 66.4533C171.079 65.9532 170.465 65.1815 171.436 64.4599L171.686 64.2813C171.413 64.1023 171.155 63.9016 170.915 63.6811C170.773 63.5769 170.658 63.4404 170.58 63.2829C170.501 63.1254 170.461 62.9514 170.463 62.7754C170.466 62.5994 170.51 62.4264 170.592 62.2708C170.674 62.1152 170.792 61.9814 170.936 61.8806Z" fill="white"/>
<path d="M182.143 34.3877C182.3 34.0537 182.489 33.7354 182.707 33.4373L184.42 30.7867C185.134 29.6292 186.019 28.1931 186.89 26.4998C187.891 24.553 188.63 22.4821 189.088 20.3411C189.664 17.7673 189.588 15.0901 188.867 12.5533C188.443 11.1204 187.735 9.78758 186.786 8.63386C185.837 7.48014 184.666 6.52903 183.342 5.83719C182.632 5.5008 181.881 5.26053 181.108 5.12271C180.311 4.98907 179.501 4.95554 178.695 5.02276C177.022 5.21087 175.408 5.7488 173.956 6.60172C170.929 8.29503 168.445 11.0386 166.332 14.0608C164.315 17.0685 162.64 20.2916 161.335 23.6705C160.029 26.9285 158.98 30.1651 157.973 33.2445C156.967 36.3239 156.018 39.2747 154.961 41.9682C153.996 44.4781 152.874 46.9241 151.599 49.2916C150.539 51.2442 149.317 53.1037 147.944 54.8502C146.896 56.161 145.735 57.3778 144.475 58.4869C143.976 58.9584 143.462 59.3014 143.048 59.6372C142.697 59.9143 142.33 60.1696 141.948 60.4017C141.65 60.6161 141.332 60.8026 140.999 60.9589C141.265 60.6954 141.554 60.4563 141.863 60.2445C142.226 59.9915 142.577 59.7196 142.912 59.4299C143.305 59.0798 143.797 58.7155 144.275 58.2368C145.485 57.1039 146.6 55.8732 147.609 54.5573C148.931 52.8073 150.106 50.9504 151.121 49.0058C152.359 46.6489 153.444 44.2147 154.369 41.7182C155.397 39.0317 156.325 36.0952 157.31 33.0015C158.295 29.9079 159.33 26.657 160.643 23.3633C161.953 19.9302 163.646 16.6562 165.69 13.6036C166.754 12.0609 167.948 10.6123 169.259 9.27385C170.536 7.95874 171.992 6.8307 173.584 5.92301C175.13 5.02463 176.847 4.46223 178.624 4.27253C179.494 4.20165 180.37 4.2425 181.229 4.39402C182.067 4.55327 182.879 4.82736 183.642 5.20853C185.042 5.94754 186.279 6.96092 187.28 8.18836C188.281 9.4158 189.024 10.8322 189.467 12.3533C190.192 14.9944 190.241 17.7759 189.61 20.4411C189.108 22.6158 188.318 24.7135 187.261 26.6784C186.475 28.1559 185.605 29.5872 184.656 30.9653C183.885 32.1085 183.228 32.9658 182.828 33.5445C182.626 33.8458 182.397 34.1281 182.143 34.3877Z" fill="#6E6E6D"/>
<path d="M208.176 73.4051C208.287 73.3512 208.404 73.3127 208.526 73.2908L209.553 73.0479C210.46 72.8336 211.795 72.5049 213.494 72.0262C218.285 70.6626 222.885 68.699 227.185 66.1818C230.14 64.4378 232.897 62.3776 235.408 60.0373C236.792 58.7261 238.092 57.3276 239.298 55.8504C240.565 54.2679 241.717 52.5965 242.746 50.8491C244.965 47.1137 246.511 43.0171 247.314 38.746C248.171 34.1605 247.973 29.44 246.736 24.9424C245.531 20.4271 243.271 16.2637 240.14 12.7963C237.219 9.59121 233.536 7.1776 229.433 5.78009C225.698 4.54534 221.807 3.84534 217.876 3.70095C214.443 3.54513 211.003 3.59769 207.576 3.8582C204.753 4.04357 201.956 4.52246 199.232 5.28715C197.177 5.87084 195.217 6.74916 193.414 7.89491C191.9 8.90944 190.533 10.1285 189.353 11.5173C189.353 11.5173 189.41 11.4101 189.545 11.2172L190.195 10.3671C191.092 9.33378 192.119 8.42115 193.25 7.65201C195.051 6.43929 197.024 5.50477 199.103 4.87985C201.849 4.05242 204.675 3.52071 207.533 3.29373C210.982 2.99614 214.446 2.91264 217.905 3.04369C221.901 3.15878 225.86 3.8469 229.661 5.08707C233.886 6.49335 237.683 8.95201 240.697 12.2318C243.91 15.7712 246.234 20.0253 247.478 24.6422C248.742 29.2502 248.94 34.0858 248.056 38.7817C247.221 43.1328 245.631 47.3039 243.359 51.1064C242.291 52.873 241.099 54.561 239.79 56.1577C238.553 57.6499 237.222 59.0626 235.807 60.3874C233.249 62.739 230.439 64.7997 227.427 66.5319C223.087 69.0722 218.428 71.0209 213.572 72.3263C211.852 72.7693 210.503 73.0407 209.582 73.2122L208.54 73.3837C208.42 73.4084 208.298 73.4157 208.176 73.4051Z" fill="#6E6E6D"/>
<path d="M204.3 123.576C204.3 123.576 204.364 123.468 204.528 123.276L205.242 122.44C206.239 121.408 207.328 120.471 208.497 119.639C210.367 118.34 212.385 117.268 214.507 116.445C217.313 115.355 220.224 114.56 223.194 114.073C226.787 113.485 230.413 113.132 234.051 113.016C237.963 112.837 242.139 112.751 246.5 112.351C251.059 112.027 255.545 111.04 259.82 109.422C264.376 107.613 268.371 104.628 271.398 100.77C272.172 99.7991 272.887 98.7827 273.539 97.7259C273.875 97.2044 274.146 96.6471 274.453 96.1112L274.896 95.3039C275.031 95.0324 275.145 94.7465 275.274 94.4679C275.524 93.9106 275.774 93.3533 275.988 92.796L276.587 91.0884L276.88 90.2382L277.101 89.3665C277.251 88.7878 277.401 88.2162 277.544 87.6446L277.844 85.9013C277.886 85.6084 277.944 85.3227 277.979 85.0369L278.051 84.1651C278.101 83.5864 278.143 83.0077 278.193 82.4362C278.243 81.8646 278.193 81.293 278.193 80.7214V79.8712L278.108 79.0281L277.944 77.3563C277.865 76.8061 277.737 76.2702 277.637 75.7272C277.555 75.1878 277.433 74.6552 277.273 74.134C276.168 70.1539 274.19 66.4705 271.484 63.3525C269.151 60.6438 266.367 58.3616 263.253 56.6079C260.654 55.1664 257.871 54.0848 254.98 53.3927L253.124 52.9926L251.375 52.7712L250.562 52.664H249.769L248.306 52.6068C246.885 52.6004 245.465 52.703 244.059 52.914L242.96 53.0641C242.834 53.08 242.707 53.08 242.581 53.0641C242.581 53.0641 242.696 53.0141 242.945 52.9641L244.038 52.7354C245.449 52.4567 246.882 52.3061 248.32 52.2853H249.798H250.597L251.433 52.371L253.203 52.5639L255.087 52.9426C258.033 53.5961 260.873 54.6591 263.525 56.1006C266.76 57.8512 269.66 60.1612 272.09 62.9238C274.886 66.0994 276.934 69.8616 278.086 73.9339C278.249 74.4703 278.375 75.0169 278.465 75.5701C278.572 76.1274 278.7 76.6775 278.786 77.2419C278.871 77.8064 278.907 78.3779 278.964 78.9567L279.05 79.8212V80.6928C279.05 81.2715 279.05 81.8575 279.05 82.4505C279.05 83.0435 278.957 83.6222 278.914 84.2152L278.843 85.1083C278.843 85.4084 278.75 85.7013 278.7 85.9942L278.4 87.7804C278.265 88.3734 278.101 88.9593 277.958 89.5523L277.729 90.4382L277.43 91.3099L276.816 93.0604L276.059 94.7752C275.931 95.0538 275.816 95.3467 275.666 95.6253L275.217 96.4542C274.91 97.0043 274.624 97.5687 274.289 98.1045C273.615 99.189 272.876 100.232 272.076 101.227C268.966 105.185 264.862 108.247 260.184 110.101C255.831 111.738 251.261 112.725 246.622 113.03C242.224 113.416 238.056 113.48 234.137 113.63C230.522 113.717 226.917 114.039 223.344 114.595C220.399 115.047 217.507 115.798 214.714 116.838C212.609 117.626 210.598 118.647 208.718 119.882C207.547 120.683 206.44 121.574 205.406 122.547L204.614 123.326C204.521 123.423 204.415 123.507 204.3 123.576Z" fill="#6E6E6D"/>
<path d="M182.664 179.826C182.716 179.454 182.805 179.088 182.928 178.733C182.978 178.554 183.035 178.354 183.092 178.14C183.15 177.926 183.264 177.69 183.364 177.426C183.565 176.839 183.803 176.267 184.077 175.711C185.891 172.144 188.496 169.04 191.694 166.637C193.867 164.967 196.209 163.53 198.682 162.35C201.526 161.006 204.48 159.909 207.512 159.071C213.879 157.199 221.074 156.091 228.384 154.069C235.693 152.047 242.339 148.782 246.993 144.174C249.212 142.022 250.993 139.459 252.239 136.629C253.274 134.132 253.861 131.471 253.974 128.77C254.13 124.844 253.303 120.941 251.568 117.417C250.319 114.938 249.284 113.759 249.363 113.709C249.625 113.971 249.863 114.255 250.076 114.559C250.36 114.916 250.625 115.288 250.869 115.674C251.216 116.19 251.533 116.727 251.818 117.281C253.398 120.274 254.305 123.576 254.475 126.957C254.646 130.337 254.075 133.714 252.803 136.851C251.55 139.772 249.739 142.42 247.471 144.645C242.717 149.404 235.929 152.712 228.576 154.777C221.224 156.842 214.008 157.935 207.683 159.778C204.686 160.591 201.761 161.652 198.939 162.95C196.492 164.104 194.17 165.504 192.008 167.13C188.843 169.457 186.228 172.452 184.349 175.904C183.721 177.182 183.159 178.491 182.664 179.826Z" fill="#6E6E6D"/>
<path d="M145.396 188.178C145.689 188.359 145.961 188.57 146.21 188.807C146.724 189.236 147.466 189.886 148.465 190.672C151.247 192.928 154.176 194.998 157.231 196.866C159.338 198.153 161.514 199.324 163.748 200.374C166.319 201.551 168.978 202.526 171.7 203.289C174.704 204.117 177.807 204.523 180.922 204.497C181.327 204.518 181.732 204.518 182.136 204.497L183.349 204.375C183.756 204.333 184.17 204.311 184.577 204.247L185.805 204.018C187.462 203.687 189.086 203.208 190.659 202.589C196.707 200.22 201.842 195.983 205.32 190.493C208.108 185.977 209.638 180.797 209.753 175.489C209.852 171.915 209.338 168.351 208.233 164.951C207.433 162.55 206.805 161.3 206.841 161.264C207.044 161.541 207.214 161.841 207.348 162.157C207.793 163.032 208.181 163.934 208.511 164.858C209.743 168.269 210.345 171.877 210.289 175.504C210.262 178.012 209.926 180.508 209.289 182.934C208.571 185.729 207.433 188.398 205.913 190.85C202.38 196.498 197.124 200.857 190.923 203.282C189.305 203.923 187.633 204.416 185.926 204.754L184.663 204.983C184.249 205.047 183.821 205.076 183.407 205.118L182.15 205.24C181.736 205.29 181.315 205.24 180.901 205.24C177.719 205.253 174.55 204.822 171.486 203.961C168.731 203.169 166.043 202.158 163.448 200.939C161.207 199.852 159.026 198.643 156.917 197.316C153.867 195.397 150.968 193.247 148.244 190.886C147.273 190.064 146.56 189.379 146.103 188.914C145.845 188.691 145.609 188.445 145.396 188.178Z" fill="#6E6E6D"/>
<path d="M178.31 114.637C178.298 114.564 178.298 114.489 178.31 114.416L178.374 113.773C178.499 112.95 178.712 112.143 179.009 111.365C180.185 108.507 182.17 106.056 184.72 104.313C185.545 103.723 186.408 103.188 187.304 102.713C188.284 102.214 189.292 101.773 190.323 101.391C192.607 100.583 194.948 99.9482 197.326 99.4906C199.824 98.9691 202.465 98.5475 205.178 97.9187L207.212 97.4401L209.268 96.8828C210.653 96.5327 212.023 96.054 213.422 95.6253C222.93 92.4406 231.818 87.6406 239.698 81.4358C242.738 79.0781 244.994 76.9204 246.572 75.4557L248.335 73.7053L248.799 73.2551L248.963 73.1122C248.963 73.1122 248.92 73.1765 248.827 73.2836C248.734 73.3908 248.577 73.548 248.392 73.7624L246.679 75.5629C244.515 77.7089 242.24 79.7385 239.862 81.6431C236.323 84.463 232.571 87.0046 228.641 89.2451C223.81 91.9607 218.737 94.2187 213.486 95.9897C212.059 96.4184 210.703 96.8971 209.311 97.2472L207.248 97.8045L205.199 98.276C202.494 98.9118 199.846 99.3191 197.347 99.8336C192.351 100.812 187.932 102.241 184.827 104.535C182.307 106.237 180.326 108.624 179.117 111.415C178.726 112.455 178.456 113.536 178.31 114.637Z" fill="#6E6E6D"/>
<path d="M181.701 147.575C181.857 147.504 182.02 147.447 182.186 147.403L183.614 146.967L188.853 145.446C193.271 144.152 199.417 142.495 206.113 140.38C211.841 138.599 217.449 136.451 222.902 133.95C224.979 132.964 226.635 132.114 227.77 131.506C228.341 131.206 228.783 130.97 229.076 130.792C229.225 130.702 229.383 130.627 229.547 130.57C229.414 130.679 229.271 130.775 229.119 130.856L227.841 131.621C226.728 132.271 225.086 133.157 223.016 134.178C217.581 136.745 211.971 138.92 206.227 140.687C199.517 142.831 193.378 144.431 188.924 145.689L183.656 147.118L182.229 147.482C182.057 147.532 181.879 147.563 181.701 147.575Z" fill="#6E6E6D"/>
<path d="M153.362 169.745C153.456 169.927 153.537 170.116 153.605 170.309C153.755 170.681 153.976 171.238 154.254 171.953C155.063 173.959 155.98 175.92 157.003 177.826C158.513 180.65 160.382 183.268 162.563 185.613C165.242 188.473 168.545 190.674 172.214 192.044C175.876 193.458 179.89 193.68 183.685 192.679C186.752 191.77 189.483 189.975 191.537 187.521C192.935 185.869 193.925 183.911 194.428 181.805C194.499 181.434 194.563 181.091 194.62 180.812C194.678 180.533 194.678 180.269 194.699 180.098C194.715 179.894 194.741 179.691 194.777 179.49C194.796 179.695 194.796 179.9 194.777 180.105C194.777 180.305 194.777 180.562 194.735 180.855C194.692 181.148 194.635 181.484 194.57 181.869C194.107 184.019 193.127 186.022 191.715 187.707C189.646 190.235 186.869 192.089 183.742 193.03C179.876 194.071 175.779 193.855 172.043 192.415C168.316 191.017 164.967 188.766 162.263 185.842C160.076 183.465 158.214 180.807 156.724 177.94C155.716 176.014 154.831 174.027 154.076 171.988C153.812 171.274 153.612 170.709 153.491 170.324C153.43 170.135 153.387 169.941 153.362 169.745Z" fill="#6E6E6D"/>
<path d="M221.231 125.397C220.771 120.981 219.197 116.755 216.656 113.116C216.329 112.702 216.104 112.218 216 111.701C215.896 111.185 215.915 110.651 216.056 110.143C216.883 106.89 217.263 103.539 217.184 100.184C217.171 99.8892 217.193 99.5942 217.248 99.3048C217.177 97.2328 216.984 95.1394 216.898 93.0675C216.832 92.8338 216.787 92.5947 216.763 92.353C216.484 89.7835 215.939 87.2501 215.135 84.7938C214.16 83.2586 213.079 81.7929 211.902 80.407C211.531 80.9643 211.124 81.5072 210.71 82.0431C210.81 82.186 210.902 82.3288 211.002 82.4646C211.209 82.6854 211.433 82.8886 211.673 83.072L211.752 83.1219C212.02 83.2238 212.257 83.393 212.441 83.6132C212.625 83.8335 212.749 84.0973 212.801 84.3794C212.851 84.9867 212.202 85.394 211.752 85.6441C211.621 85.7134 211.485 85.7731 211.345 85.8227C211.274 86.1013 211.195 86.3728 211.117 86.6515L211.474 86.2942C212.651 85.7012 213.208 86.2943 213.465 87.3731C213.9 89.1807 214.222 91.0169 214.586 92.8388C215.478 97.2971 214.807 101.77 214.936 106.235C214.936 107.321 214.343 107.557 213.465 107.593C213.261 107.561 213.062 107.503 212.873 107.421C211.98 106.978 211.11 106.864 210.439 107.757C209.768 108.65 210.296 109.357 210.745 110.065C211.195 110.772 211.773 111.551 212.323 112.265C216.12 114.287 217.377 117.981 218.49 121.739C218.562 121.997 218.262 122.232 218.048 122.454C215.078 122.547 212.801 121.132 210.91 119.01C210.503 118.553 210.331 117.881 209.632 117.724C207.605 118.088 207.176 118.674 207.933 120.325C208.353 121.457 208.849 122.56 209.418 123.626C211.459 125.633 212.13 128.177 212.209 130.935C212.28 133.078 211.859 135.35 213.279 137.293C214.322 137.108 214.043 136.215 214.122 135.593C214.515 132.252 214.199 128.865 213.194 125.655C213.037 125.126 212.523 124.511 212.958 124.069C213.394 123.626 214.165 124.068 214.729 124.261C216.406 124.859 218.012 125.64 219.518 126.591C219.932 126.833 220.346 127.234 220.882 126.926C221.417 126.619 221.296 125.948 221.231 125.397Z" fill="#0F0F0F"/>
<path d="M156.567 206.69C157.409 205.976 157.766 204.961 158.323 204.068C159.273 202.525 159.472 200.124 160.993 199.446C161.168 198.416 161.645 197.461 162.363 196.702C162.806 196.266 163.441 196.03 163.841 195.545C164.241 195.059 164.498 194.273 164.89 193.723C164.98 193.6 165.085 193.489 165.204 193.394C165.204 192.744 165.761 191.901 166.746 190.672C167.01 190.282 167.197 189.846 167.296 189.386C167.481 186.607 167.624 183.827 167.902 181.048C168.231 177.776 168.709 174.468 168.331 171.145C167.296 168.645 166.453 166.065 164.976 163.765C164.383 162.836 163.705 162.107 162.563 162.614C161.421 163.122 161.35 164.229 161.771 165.337C161.952 165.803 162.159 166.259 162.392 166.701C165.012 171.703 165.247 177.083 164.383 182.534C163.106 190.508 159.058 197.352 155.275 204.297C153.905 205.011 153.227 204.597 152.177 202.539C151.506 201.239 151.335 200.11 153.127 199.631C153.4 199.576 153.653 199.444 153.856 199.252C154.059 199.06 154.204 198.816 154.276 198.545C154.376 196.316 152.748 196.166 151.249 196.266C144.168 196.716 137.08 196.566 129.999 196.695C129.354 196.648 128.712 196.822 128.179 197.188C127.337 198.131 127.708 198.881 128.564 199.517C128.875 199.696 129.12 199.969 129.266 200.296C129.412 200.623 129.452 200.988 129.378 201.339C129.04 202.575 128.468 203.734 127.694 204.754C127.619 204.878 127.517 204.984 127.396 205.062C127.275 205.14 127.137 205.19 126.993 205.206C126.85 205.223 126.704 205.206 126.568 205.157C126.432 205.109 126.309 205.029 126.209 204.926C125.739 204.6 125.356 204.163 125.095 203.654C123.204 200.232 121.362 196.788 119.756 193.23C118.851 192.38 118.247 191.259 118.036 190.036C117.607 189.322 117.5 188.271 116.365 188.164C115.652 188.879 115.944 189.636 116.194 190.408C118.012 195.876 120.55 201.078 123.739 205.876C124.331 206.512 125.338 207.026 124.76 208.134C123.875 209.827 124.903 209.856 126.13 209.898C128.379 209.97 130.634 209.663 132.869 210.077C138.715 210.256 144.561 210.27 150.407 210.077C152.634 209.677 154.883 209.998 157.124 209.891C157.684 209.93 158.247 209.903 158.801 209.813C159.38 209.663 159.915 209.341 159.829 208.677C159.744 208.012 159.115 208.248 158.637 208.184C157.923 208.077 157.095 208.412 156.389 207.941C155.682 207.469 156.289 206.933 156.567 206.69Z" fill="#0E0E0E"/>
<path d="M97.6493 151.883C97.3373 151.667 97.1201 151.34 97.0426 150.969L96.9569 151.011C95.672 151.54 94.8155 150.676 93.8875 150.054C92.7097 149.34 91.4249 148.882 90.4255 147.911C89.555 147.464 88.7176 146.956 87.9201 146.389C87.3847 146.046 86.8565 145.61 87.4489 144.867C88.0414 144.124 88.6696 143.438 88.0842 142.502C87.4989 141.566 86.5281 141.487 85.5288 141.838C85.3289 141.909 85.1219 141.938 84.9221 141.988C82.9948 142.916 81.4172 144.367 79.6042 145.474C78.926 145.881 78.3907 146.517 77.5198 145.981C76.8371 145.637 76.2916 145.07 75.9726 144.374C75.6535 143.678 75.58 142.895 75.7639 142.152C75.8184 141.551 75.792 140.945 75.6854 140.351C75.357 138.058 75.5354 135.865 77.3913 134.157C77.5555 132.499 76.5062 132.156 75.1714 132.092C73.4083 132.006 71.9807 133.064 70.3675 133.485C69.1468 133.578 69.1254 132.907 69.1754 131.921C69.3967 127.977 69.8892 124.169 73.3012 121.525C73.6296 120.611 74.2506 119.682 73.3655 118.767C73.0822 118.443 72.6881 118.235 72.2602 118.186C71.8324 118.138 71.4018 118.25 71.0527 118.503C69.7536 121.246 66.8412 121.425 64.5642 122.59C64.4408 122.664 64.3026 122.71 64.1594 122.725C64.0162 122.74 63.8715 122.724 63.7354 122.677C63.5993 122.63 63.4752 122.553 63.3717 122.453C63.2682 122.353 63.188 122.231 63.1366 122.097C62.9275 121.39 62.9704 120.632 63.2579 119.953C63.9717 117.774 65.2708 115.902 66.3987 113.944C67.4093 112.097 68.9579 110.602 70.8386 109.658C71.5524 108.865 71.7023 108 70.9314 107.207C70.032 106.285 69.1183 106.9 68.2403 107.364C67.2838 107.521 67.1339 106.985 66.934 106.164C66.1631 102.977 66.7913 99.7336 66.4701 96.5542C66.2059 93.8606 67.0554 91.3385 67.6835 88.795C67.9262 87.809 68.4687 87.4375 69.1897 87.6947C68.863 87.4335 68.6036 87.0979 68.433 86.7158C68.2172 86.4849 68.095 86.1818 68.0904 85.8656C68.1158 84.5235 68.6225 83.2353 69.518 82.2361C69.2396 81.7645 68.9612 81.293 68.69 80.8071C67.8905 82.0003 67.1339 83.222 66.3987 84.4581C63.3443 92.4628 63.0131 101.252 65.4564 109.465C65.617 110.001 65.6356 110.571 65.5105 111.117C65.3854 111.663 65.1208 112.167 64.7426 112.58C62.1422 116.199 60.7937 120.569 60.9023 125.026C60.9023 126.612 61.4234 127.219 62.9295 126.176C64.1667 125.328 65.5303 124.682 66.9697 124.261C67.3552 124.147 67.9191 124.004 68.1832 124.19C68.6971 124.554 68.2688 125.126 68.1118 125.54C67.012 128.506 66.7116 131.71 67.241 134.829C67.6692 137.686 67.8905 137.744 70.3032 136.379C70.6744 136.165 71.017 135.943 71.4239 135.757C73.5653 134.729 73.7081 134.807 73.4939 137.086C73.0948 141.226 73.7301 145.4 75.3427 149.232C75.8924 150.561 76.4777 150.868 77.634 149.725C78.7904 148.582 80.0753 147.775 81.2459 146.739C82.4166 145.703 83.3874 145.889 84.6365 146.739C89.055 149.733 93.5235 152.655 98.5487 154.598C98.8 154.513 99.0309 154.377 99.2268 154.198C99.555 153.927 99.802 153.571 99.9406 153.169C98.7271 152.948 97.9634 152.455 97.6493 151.883Z" fill="#111111"/>
<path d="M169.951 163.15C169.13 161.007 169.501 160.071 171.564 159.649C175.412 158.863 179.088 157.556 182.828 156.42C182.921 156.42 182.992 156.341 183.085 156.334C183.178 156.327 183.221 156.334 183.278 156.248C183.885 155.927 186.133 155.584 187.011 154.234C187.005 154.115 186.985 153.998 186.954 153.884C186.804 153.305 187.175 153.012 187.568 152.726C187.961 152.44 188.61 152.455 188.91 151.933C188.988 151.827 189.043 151.706 189.07 151.577C189.098 151.448 189.097 151.315 189.069 151.186C189.04 151.057 188.985 150.936 188.906 150.831C188.827 150.726 188.726 150.639 188.61 150.575C187.183 149.861 186.14 150.833 185.041 151.361C179.502 153.984 173.63 155.835 167.588 156.863C155.696 159.006 143.676 159.264 131.641 158.892C129.164 158.821 126.644 158.535 124.203 158.249C116.911 157.483 109.71 156.021 102.696 153.884C100.555 154.834 100.554 155.413 102.796 157.384C104.84 158.214 106.958 158.85 109.12 159.285C109.713 159.414 110.598 159.364 110.683 160.128C110.769 160.893 109.97 161.121 109.449 161.471C107.093 163.057 104.695 164.586 102.382 166.244C101.497 166.88 100.69 167.566 100.683 168.78C100.728 169.005 100.824 169.216 100.964 169.397C101.104 169.578 101.284 169.724 101.49 169.823C101.704 169.909 101.937 169.937 102.166 169.906C102.395 169.874 102.612 169.785 102.796 169.645C106.161 167.856 109.402 165.841 112.497 163.615C114.923 161.793 117.386 160.914 120.348 161.793C123.239 161.428 126.123 161.793 129.021 161.836C133.525 161.936 138.022 162.271 142.541 162.179C148.109 162.064 153.655 161.786 159.187 161.171C160.907 160.978 162.756 160.692 164.348 161.757C164.854 161.924 165.313 162.21 165.686 162.592C166.058 162.974 166.334 163.44 166.489 163.95C167.57 166.429 168.421 169.003 169.03 171.638C169.994 176.437 170.115 181.366 169.387 186.206C168.657 187.454 167.751 188.59 166.696 189.579C166.539 189.886 166.389 190.193 166.239 190.5C166.375 192.036 167.517 191.822 168.459 191.658C171.265 191.158 172.085 188.864 172.664 186.564C173.692 182.505 173.499 178.361 173.035 174.26C172.599 170.395 171.307 166.751 169.951 163.15Z" fill="#0C0C0C"/>
<path d="M136.195 44.4617C135.545 43.4686 134.889 43.9187 134.239 44.4617C129.742 51.5421 123.211 54.8073 114.966 55.1788C109.549 55.4289 104.052 56.1433 99.184 58.5368C97.9797 59.1679 96.6517 59.5265 95.2937 59.5872L95.0225 59.7515C93.7733 60.4231 92.4956 61.0161 91.2036 61.5948C92.3466 62.1513 93.5949 62.4582 94.8654 62.495C95.8005 61.7806 97.0069 62.4022 97.942 61.8734C98.3049 61.4496 98.7621 61.1168 99.2768 60.9018C104.731 59.0717 110.393 57.9293 116.13 57.5009C125.017 56.7864 131.834 53.0139 136.281 45.1333C136.312 44.9058 136.283 44.674 136.195 44.4617Z" fill="#1F1F1F"/>
<path d="M188.91 151.933L188.446 151.018C187.968 150.097 188.446 149.547 189.16 149.097C190.131 148.511 190.966 147.725 191.972 147.182C193.2 146.517 194.071 145.803 193.821 144.031C193.571 142.259 194.913 141.945 196.412 142.245C198.889 143.388 201.073 145.103 203.672 145.946C203.866 145.845 204.033 145.698 204.157 145.517C206.42 143.559 205.677 140.952 205.692 138.515C205.692 137.158 204.393 136.872 203.693 136.086C202.722 133.564 203.536 132.392 206.191 132.556C207.817 132.728 209.429 133.007 211.017 133.392C211.923 133.45 212.144 132.928 212.202 132.135C212.252 131.542 211.966 130.756 212.858 130.484C213.636 132.721 213.065 135.036 213.237 137.308C212.002 136.772 210.781 136.186 209.525 135.729C207.59 135.014 207.341 135.236 207.726 137.222C208.499 141.388 207.866 145.694 205.927 149.461C205.213 150.89 204.542 151.19 203.565 149.725C203.27 149.323 202.943 148.945 202.587 148.596C199.639 145.46 199.11 145.417 195.577 147.796C193.436 149.261 191.387 150.918 188.91 151.933Z" fill="#141414"/>
<path d="M98.0847 176.704H99.7122C100.041 176.485 100.376 176.27 100.719 176.061C100.876 175.97 101.041 175.894 101.211 175.832C101.429 175.624 101.668 175.439 101.925 175.282C102.303 175.032 102.346 174.26 102.539 173.732C102.746 173.359 103.081 173.075 103.481 172.931C104.702 172.374 104.652 171.703 103.66 170.938C103.268 170.642 102.817 170.436 102.337 170.334C101.857 170.231 101.361 170.235 100.883 170.345C100.654 170.485 100.459 170.672 100.308 170.894C100.158 171.116 100.057 171.367 100.012 171.631C100.036 172.339 99.8439 173.038 99.4614 173.634C99.0788 174.23 98.5239 174.695 97.8706 174.968C97.4923 175.346 97.1568 175.732 97.4138 176.332C97.6584 176.414 97.8859 176.54 98.0847 176.704Z" fill="#0C0C0C"/>
<path d="M102.51 173.732C102.275 172.81 104.43 172.831 103.36 171.588C103.01 170.688 103.61 170.374 104.273 170.102C105.937 169.395 107.478 168.431 108.842 167.244C111.614 166.131 114.317 164.852 116.936 163.415C118.05 162.793 119.149 162.129 120.163 163.415C121.176 164.701 120.206 165.651 119.449 166.587C119.132 166.873 118.84 167.186 118.578 167.523C115.68 172.724 115.723 178.304 116.437 183.956C116.454 184.093 116.454 184.233 116.437 184.37C116.237 186.256 116.094 186.385 114.959 185.72C114.609 184.399 114.131 183.091 114.502 181.691C114.188 179.109 114.188 176.499 114.502 173.917C114.295 171.488 115.709 169.409 116.201 166.651L102.51 173.732Z" fill="#151515"/>
<path d="M101.654 169.438L101.183 168.473C101.183 168.059 101.183 167.652 101.233 167.244C101.026 167.449 100.784 167.616 100.519 167.737C100.15 168.089 99.6943 168.336 99.1983 168.452C99.1413 168.51 99.0792 168.562 99.0127 168.609C98.9774 168.676 98.9369 168.741 98.8913 168.802C98.8342 169.516 98.2846 169.666 97.7421 169.995C94.7727 171.817 94.6585 174.103 97.3424 176.332L98.2204 175.446C97.8706 173.389 99.0412 172.467 100.797 171.981C100.933 171.56 101.076 171.138 101.211 170.724C101.654 170.388 102.011 170.038 101.654 169.438Z" fill="#0F0F0F"/>
<path d="M114.916 185.699C115.987 185.699 115.687 184.835 115.837 184.27C117.201 185.399 117.593 186.714 116.615 188.293C116.269 188.951 116.123 189.696 116.194 190.436C115.514 188.937 115.082 187.337 114.916 185.699Z" fill="#161616"/>
<path d="M135.881 44.4618H134.246C134.599 43.6139 135.138 42.8567 135.824 42.2469L136.63 43.5616C137.28 44.0474 137.344 44.7333 136.795 45.1691C136.081 45.6978 136.138 44.769 135.881 44.4618Z" fill="#1F1F1F"/>
<path d="M114.46 173.896V181.641C113.928 179.087 113.928 176.45 114.46 173.896Z" fill="#161616"/>
<path d="M217.42 118.474C216.513 115.873 214.564 113.88 213.294 111.479C212.899 111.095 212.527 110.687 212.18 110.258C211.716 109.629 210.646 108.829 211.245 108.229C211.959 107.514 212.551 108.807 213.265 109.086C213.865 109.443 214.186 109.143 214.4 108.6C214.746 107.489 214.934 106.334 214.957 105.171C215.448 99.4565 215.002 93.7005 213.636 88.1304C213.372 87.023 213.044 85.8798 211.838 85.6083L211.752 85.6584C211.621 85.7278 211.485 85.7875 211.345 85.837C210.924 87.5732 210.289 89.2308 209.76 90.9312C209.568 91.5242 208.647 91.8243 208.119 91.9958C207.224 92.2545 206.284 92.3154 205.363 92.1744C204.228 92.0458 202.422 91.417 202.872 89.9809C203.322 88.5448 203.864 87.2445 204.207 85.837C204.274 85.5679 204.399 85.3166 204.572 85.1006C204.746 84.8847 204.965 84.7093 205.213 84.5867C204.589 84.022 204.046 83.3726 203.6 82.6575C203.279 82.1503 203.6 81.643 203.964 81.2858C204.579 80.802 205.325 80.5155 206.106 80.4641C207.024 80.3266 207.961 80.3875 208.854 80.6427C209.51 80.7949 210.092 81.1745 210.496 81.7145C210.653 81.9717 210.831 82.2146 211.01 82.4289C211.151 82.574 211.301 82.71 211.459 82.8361C211.873 82.3217 212.28 81.8073 212.658 81.2715C208.997 76.6917 204.407 72.9764 199.474 69.6255C198.061 72.2926 196.515 74.887 194.842 77.399C193.771 79.0637 192.529 80.3569 190.466 80.607C190.344 80.7655 190.263 80.9522 190.231 81.15C190.138 81.2357 190.409 81.4644 190.116 81.4501C190.116 81.4501 190.059 81.3144 190.009 81.2858C186.883 79.5353 184.513 76.9989 182.379 74.141C181.515 72.4335 179.994 71.1116 179.523 69.1897C179.031 67.8751 178.624 66.5176 178.031 65.2529C177.439 63.9883 177.882 63.3739 179.188 63.0166C180.54 62.6294 181.86 62.1374 183.135 61.5449C184.02 61.1519 183.849 60.7589 182.95 60.6017L182.086 60.2088C175.237 58.4716 168.143 57.9158 161.107 58.5655C160.087 58.6199 159.094 58.911 158.206 59.4156C157.317 59.9203 156.559 60.6248 155.989 61.4734C155.527 62.0853 155.021 62.6631 154.476 63.2024C153.762 63.7883 153.084 65.2958 152.227 64.4742C151.249 63.5311 153.084 63.0452 153.376 62.2236C154.19 60.6303 154.947 59.0085 155.789 57.4295C157.798 52.8545 158.371 47.7765 157.431 42.8685C157.346 42.6312 157.32 42.3764 157.358 42.127C157.395 41.8775 157.494 41.6413 157.645 41.4395C157.402 40.5464 156.931 40.4106 156.446 41.218C156.117 41.8159 155.826 42.434 155.575 43.0686C152.299 49.9132 147.295 55.0289 140.285 58.0725C138.584 58.7378 136.967 59.6011 135.467 60.6446C134.482 60.8947 133.782 62.1593 132.298 61.5377C132.862 60.8232 133.383 60.1945 133.333 59.3943C135.559 57.0115 137.047 54.0332 137.616 50.8206C138.087 48.5557 137.387 46.2979 137.972 44.083C137.815 43.2828 137.708 42.3826 136.695 43.5044C136.566 43.9116 137.144 44.9333 135.938 44.4046V44.8261C134.461 48.9915 131.427 51.9066 127.829 54.1143C123.796 56.6078 119.056 57.2437 114.502 58.2583C112.218 58.7727 109.863 59.0156 107.628 59.6872C106.408 60.0659 104.894 60.2373 104.509 61.8806C104.623 62.5951 104.259 63.3739 104.509 64.1169C105.416 66.1103 103.724 67.5179 103.367 69.2255C103.924 70.783 103.067 71.7904 102.161 72.9407C100.133 75.5414 98.2346 78.2207 95.1795 79.7425C94.798 79.9809 94.4287 80.2384 94.0731 80.5141C94.5085 79.9139 95.8433 79.7997 95.7934 78.435C95.5757 77.757 95.129 77.1759 94.5299 76.7917C91.018 73.8838 88.2769 70.3186 85.5074 66.7033C85.0749 66.1338 84.6791 65.5371 84.3224 64.9172C83.5983 65.3563 82.8979 65.8333 82.2238 66.3461C78.4842 69.25 75.084 72.5671 72.0877 76.2344C70.9314 77.6634 69.8464 79.1637 68.8185 80.6927C69.0754 81.1786 69.3467 81.6573 69.6251 82.1217C69.8967 81.7951 70.1875 81.485 70.4959 81.1929C71.7522 79.9997 77.891 79.7639 77.0202 82.5646C76.7297 83.3251 76.3435 84.0454 75.8709 84.7081C75.6878 84.9862 75.5459 85.2894 75.4498 85.6083C75.4498 85.7012 75.4498 85.7655 75.4498 85.8227L75.5854 85.937C76.1988 86.3342 76.7538 86.8152 77.2343 87.366C77.7462 88.251 78.0399 89.2454 78.0909 90.2667C78.2836 92.6673 71.1598 92.8174 70.9528 90.2667C70.9672 89.8076 70.8598 89.3529 70.6417 88.9488C70.4235 88.5447 70.1023 88.2056 69.7107 87.9661C69.5165 87.822 69.3306 87.6669 69.154 87.5017C68.3259 88.0804 68.1475 89.2307 67.8191 90.181C66.2559 94.7322 66.4343 99.4692 66.7342 104.156C66.8198 105.585 66.3844 107.636 68.326 108.579C69.0398 108.293 69.5251 107.093 70.4317 107.664C71.1455 108.093 70.2532 108.572 70.0462 109.022C67.6997 111.775 65.7025 114.808 64.1002 118.053C63.315 119.732 62.3085 121.368 63.0866 123.347C65.9304 122.277 68.6728 120.955 71.2811 119.396C71.7951 119.217 72.4161 118.781 72.8158 119.396C73.3654 120.175 72.2947 120.56 72.152 121.203C70.8528 124.061 69.4895 126.919 69.2967 130.099C69.2111 131.699 68.4116 133.457 70.0105 134.836C71.4382 134.321 72.7659 133.714 74.1863 133.328C75.2499 133.035 76.5133 132.707 76.8488 134.407C76.2461 135.245 75.89 136.235 75.821 137.265C75.3142 140.494 75.8923 143.695 76.2064 146.867C76.2064 147.539 76.3064 148.096 77.1558 147.682C77.6055 147.46 77.8696 147.003 78.2765 146.703C80.2823 145.181 82.2024 143.495 84.9078 143.374C85.1719 143.295 85.4431 143.238 85.7072 143.145C86.314 142.945 87.092 142.209 87.4703 143.145C87.7844 143.924 86.6138 143.817 86.264 144.281C86.0641 145.095 86.6994 145.488 87.1706 145.903C88.2555 146.867 89.519 147.603 90.6754 148.475C91.8888 149.139 92.9667 150.018 94.1944 150.618C95.0439 151.097 96.1574 151.219 96.5215 152.347C98.72 153.19 99.0412 153.019 99.0626 150.776C99.0626 146.596 99.0626 142.409 99.0626 138.222C98.9627 137.308 98.2703 137.236 97.5565 137.136C95.9562 137.038 94.4243 136.452 93.1666 135.457C92.517 134.9 92.674 134.321 92.7811 133.521C93.2308 130.149 93.7376 126.755 92.9167 123.34C92.4313 121.325 93.5377 120.003 95.0581 118.896C95.9802 118.186 97.0603 117.71 98.2061 117.51C98.5891 117.506 98.9563 117.357 99.2324 117.091C99.5085 116.825 99.6725 116.464 99.6908 116.081C99.8906 116.859 100.505 117.324 101.59 117.51C103.574 117.867 105.337 118.717 105.987 120.903C106.19 121.434 106.31 121.993 106.343 122.561C106.386 126.541 106.186 130.527 106.85 134.478C106.879 134.841 106.78 135.202 106.57 135.498C106.36 135.794 106.052 136.008 105.701 136.1C104.566 136.579 103.417 137.193 102.132 137.129C100.419 137.036 99.8193 137.772 99.8407 139.437C99.8978 143.767 99.8407 148.096 99.8407 152.426C99.8407 152.99 99.7336 153.583 100.276 153.991L102.418 154.884C114.795 158.885 127.529 160.192 140.471 160.035C145.51 159.978 150.578 160.235 155.582 159.535C161.55 158.692 167.567 158.285 173.427 156.677C178.54 155.188 183.527 153.294 188.339 151.011C190.659 149.375 192.986 147.753 195.299 146.11C196.012 145.603 196.683 145.06 195.299 144.503C194.892 144.338 194.428 144.06 194.585 143.588C194.87 142.802 195.563 143.366 196.069 143.295C197.576 143.145 198.789 143.924 200.081 144.503C201.973 145.338 203.193 147.067 204.964 148.075C204.964 147.639 204.999 147.203 205.014 146.767C205.278 145.824 205.432 144.853 205.47 143.874C205.72 141.087 205.984 138.258 204.557 135.643C203.75 133.943 204.043 133.364 205.82 133.6C207.712 133.857 209.575 134.364 211.452 134.764C212.123 134.307 211.959 133.585 212.03 132.942C212.409 129.47 211.316 126.276 210.153 123.104C209.83 122.05 209.369 121.043 208.782 120.11C207.933 118.953 208.433 118.51 209.689 118.539C211.765 120.274 214.099 121.674 216.606 122.69C217.184 122.947 217.52 123.897 218.39 123.311C219.054 121.482 217.962 120.039 217.42 118.474Z" fill="#FFE8C0"/>
<path d="M215.043 90.4596C214.979 88.8157 214.575 87.2028 213.858 85.7227C213.315 84.6938 213.037 84.1579 212.716 84.0936C212.759 84.1888 212.788 84.29 212.801 84.3937C212.851 85.001 212.202 85.4083 211.752 85.6584C211.624 85.7271 211.49 85.7844 211.352 85.8298C212.211 87.0697 212.806 88.4728 213.101 89.9524C214.379 95.7468 215.043 101.57 214.122 107.486C214.022 108.15 213.922 108.75 213.265 109.086C213.929 109.593 214.25 110.029 214.943 108.807C216.035 106.9 215.093 104.999 215.507 103.192C216.484 98.8832 215.428 94.6893 215.043 90.4596Z" fill="#C6B397"/>
<path d="M218.426 123.204C217.527 119.953 216.125 116.862 214.272 114.044C213.801 113.33 212.723 112.666 213.294 111.479C216.863 114.652 218.576 118.803 219.618 123.311C219.732 123.79 220.132 124.74 218.861 124.483C218.689 124.322 218.559 124.121 218.483 123.898C218.407 123.675 218.388 123.437 218.426 123.204Z" fill="#959595"/>
<path d="M218.426 123.204C218.576 123.625 218.719 124.054 218.861 124.483C217.553 123.645 216.101 123.056 214.579 122.747C212.095 122.254 210.71 120.71 209.81 118.524C213.165 119.224 215.778 121.246 218.426 123.204Z" fill="#C6B397"/>
<path d="M211.602 134.75C211.893 131.266 211.425 127.761 210.231 124.476C210.095 124.267 210.029 124.02 210.042 123.771C210.055 123.522 210.146 123.284 210.303 123.09C212.23 125.176 212.401 127.884 212.894 130.485C212.894 131.678 212.951 132.878 212.894 134.057C212.873 134.979 212.523 135.472 211.602 134.75Z" fill="#969696"/>
<path d="M117.872 166.773C117.875 166.417 117.984 166.07 118.183 165.775C118.382 165.48 118.664 165.251 118.992 165.115C119.449 164.901 119.97 164.586 119.606 164.001C119.242 163.415 118.628 163.629 118.114 163.943C115.317 165.59 112.384 166.996 109.349 168.144C107.739 168.97 106.031 169.589 104.266 169.988C103.467 170.231 102.567 170.266 102.496 169.009C106.629 166.251 110.791 163.55 114.866 160.728C116.472 159.614 118.036 160.592 119.613 160.45C124.814 161.263 130.057 161.781 135.317 162C142.495 162.261 149.683 162.075 156.838 161.443C159.437 161.25 161.999 160.814 164.569 160.407C164.983 160.335 165.397 160.149 165.804 160.407C168.04 163.981 169.529 167.972 170.18 172.138C171.029 177.054 171.486 182.034 170.065 186.964C168.495 187.678 167.81 187.228 167.617 185.449C167.492 184.472 167.492 183.483 167.617 182.505C168.163 178.715 167.971 174.855 167.053 171.138C166.366 168.895 165.425 166.737 164.248 164.708C163.898 164.165 163.734 163.015 162.877 163.436C162.021 163.858 162.692 164.815 162.963 165.479C163.391 166.537 163.962 167.53 164.391 168.587C166.568 174.203 166.168 179.898 164.833 185.599C163.163 192.744 159.308 198.967 155.946 205.39C154.09 206.104 153.555 204.54 152.955 203.461C152.106 201.953 152.035 200.353 153.369 198.967C153.933 197.338 152.763 197.395 151.756 197.302C149.322 197.074 146.938 197.695 144.518 197.688C139.964 197.688 135.41 197.688 130.856 197.688C129.934 197.568 128.997 197.717 128.158 198.117C129.364 200.096 128.986 202.089 128.158 204.047C127.686 205.104 126.973 205.954 125.616 205.833C123.653 204.161 122.961 201.675 121.683 199.574C120.584 197.752 119.727 195.795 118.764 193.894C118.63 192.078 118.104 190.313 117.222 188.721C116.629 184.434 115.794 180.148 116.137 175.746C116.406 173.484 116.838 171.245 117.429 169.045C117.579 168.294 118.029 167.594 117.872 166.773Z" fill="#FFE8C0"/>
<path d="M117.872 166.773C119.42 166.33 118.4 167.359 118.314 167.637C116.223 174.632 116.487 181.677 117.872 188.743C118.157 189.371 118.507 190.007 117.522 190.365C117.058 189.748 116.748 189.031 116.615 188.271C116.521 186.904 116.26 185.553 115.837 184.249C114.916 178.24 115.081 172.353 117.872 166.773Z" fill="#C6B397"/>
<path d="M167.082 171.152C168.452 174.468 168.359 177.968 168.367 181.455C168.367 182.598 168.367 183.741 168.367 184.877C168.367 186.013 168.752 186.857 170.03 186.978C169.209 188.243 168.645 189.836 166.632 189.55C166.232 188.721 165.818 187.964 166.082 186.935C167.533 181.805 167.873 176.425 167.082 171.152Z" fill="#C6B397"/>
<path d="M153.384 198.96C153.284 201.482 153.448 203.904 155.96 205.39C154.619 206.819 153.591 206.705 152.491 204.997C151.685 203.747 150.971 202.468 150.243 201.182C149.336 199.581 149.615 199.103 151.478 198.988C152.113 198.945 152.748 198.967 153.384 198.96Z" fill="#FFE8C0"/>
<path d="M125.595 205.833C127.893 203.74 127.922 200.889 128.172 198.117C128.379 198.302 128.55 198.567 128.793 198.667C131.363 199.781 131.391 199.781 130.22 202.461C129.785 203.418 129.214 204.311 128.693 205.226C127.872 206.647 126.916 206.962 125.595 205.833Z" fill="#FFE8C0"/>
<path d="M117.522 190.365C117.8 189.872 117.922 189.306 117.872 188.743C118.507 190.4 119.528 191.994 118.742 193.894C118.121 192.803 117.708 191.606 117.522 190.365Z" fill="#C6B397"/>
<path d="M70.1604 81.6144C69.8963 81.05 69.6394 80.4856 69.3824 79.9211C68.9684 80.5142 68.5686 81.1143 68.1689 81.7216C68.4544 82.136 68.7542 82.5504 69.054 82.9577C69.3782 82.4749 69.7487 82.025 70.1604 81.6144Z" fill="#C2C2C2"/>
<path d="M67.7549 95.6181C68.1404 93.0746 68.4045 90.4167 69.7893 88.1376L69.675 88.0518C69.1553 87.7259 68.7373 87.2605 68.4687 86.7086C68.2529 86.4777 68.1307 86.1745 68.1261 85.8583C68.1257 85.6338 68.14 85.4095 68.1689 85.1868C67.8763 85.3368 67.6193 85.9012 67.1624 86.9801C64.5785 92.9031 65.6349 99.0833 65.9561 105.199C66.0868 106.187 66.2799 107.165 66.5343 108.129C66.7841 109.443 67.4265 109.415 68.2903 108.664C67.2185 104.399 67.0363 99.9575 67.7549 95.6181Z" fill="#C6B397"/>
<path d="M70.0106 109.107C70.239 110.022 69.5109 110.536 69.104 111.151C66.6771 114.952 64.0716 118.667 63.108 123.204C62.9438 123.533 62.6369 123.84 62.3371 123.583C62.2469 123.506 62.1744 123.411 62.1247 123.304C62.075 123.196 62.0492 123.079 62.0492 122.961C62.0492 122.843 62.075 122.726 62.1247 122.619C62.1744 122.511 62.2469 122.416 62.3371 122.34C62.7297 116.667 65.8847 112.608 70.0106 109.107Z" fill="#A8A8A8"/>
<path d="M72.1663 121.139C72.5232 121.725 72.1663 122.247 71.9521 122.74C70.3246 126.598 69.9963 130.649 70.0106 134.771C68.2831 135.715 68.4973 134.235 68.4187 133.392C68.0027 128.973 69.3499 124.568 72.1663 121.139Z" fill="#A1A1A1"/>
<path d="M76.8488 134.343C76.2136 138.773 76.4134 143.224 76.4563 147.675C76.5477 147.769 76.6017 147.894 76.6083 148.025C76.6148 148.157 76.5735 148.286 76.4919 148.389C75.2071 144.531 74.4076 140.616 75.1571 136.529C75.3499 135.536 75.6996 134.636 76.8488 134.343Z" fill="#C6B397"/>
<path d="M62.3513 122.34C62.5012 122.718 62.2871 123.418 63.108 123.204C65.6491 121.518 67.9833 119.403 71.2954 119.367C71.0034 120.09 70.537 120.73 69.9378 121.229C69.3387 121.727 68.6255 122.07 67.862 122.225C66.5239 122.664 65.221 123.204 63.9646 123.84C63.4078 124.083 62.8439 124.669 62.2443 124.097C61.6447 123.526 61.9587 122.897 62.3513 122.34Z" fill="#C6B397"/>
<path d="M76.4919 148.425C76.4919 148.175 76.4919 147.918 76.4562 147.668C78.1856 145.731 80.3511 144.234 82.7735 143.302C83.4873 143.052 84.2011 142.588 84.9149 143.302C81.7242 144.381 79.34 146.782 76.4919 148.425Z" fill="#8F8F8F"/>
<path d="M86.264 144.217L90.8967 148.089C90.8967 148.868 90.4541 148.668 90.0115 148.525L85.8928 145.881C84.4866 144.981 85.0505 144.524 86.264 144.217Z" fill="#C6B397"/>
<path d="M90.0115 148.525L90.8966 148.089C92.2315 148.489 93.1309 149.597 94.3515 150.19C94.3515 150.904 94.0017 150.904 93.5092 150.618L90.0115 148.525Z" fill="#C6B397"/>
<path d="M93.5092 150.618L94.3515 150.19C95.2921 150.456 96.1543 150.946 96.8641 151.619C97.4851 152.133 96.9641 152.24 96.5215 152.333L93.5092 150.618Z" fill="#C6B397"/>
<path d="M165.804 160.421C156.251 162.64 146.42 163.413 136.638 162.714C131.391 162.336 126.137 162.25 121.012 160.928C120.534 160.8 120.077 160.607 119.585 160.45C125.809 160.821 132.026 161.364 138.258 161.514C142.998 161.636 147.752 161.343 152.491 161.064C156.239 160.85 159.972 160.35 163.712 160.05C164.431 159.943 165.165 160.074 165.804 160.421Z" fill="#1F1F1F"/>
<path d="M102.496 169.009C104.916 169.788 107.057 168.373 109.349 168.145C107.693 169.888 105.066 169.966 103.36 171.574C102.403 171.903 101.854 171.202 101.218 170.724C101.361 170.295 101.504 169.866 101.654 169.438L102.496 169.009Z" fill="#C6B397"/>
<path d="M155.539 43.1685C155.932 45.5262 154.554 47.3053 153.327 48.9486C148.801 55.0074 143.048 59.3013 135.431 60.7088C136.523 58.9655 137.623 57.2365 138.693 55.4861C139.032 54.7789 139.626 54.2271 140.357 53.9428C146.138 52.1209 150.714 48.5699 154.583 43.9973C154.878 43.6948 155.198 43.4176 155.539 43.1685Z" fill="#C6B397"/>
<path d="M182.05 60.2875C176.176 60.1303 170.329 59.1443 164.441 59.4729C161.514 59.6373 158.416 59.3872 155.953 61.5521C156.717 60.0374 157.517 58.537 158.252 57.008C158.461 56.5143 158.836 56.1092 159.311 55.8626C159.787 55.6161 160.334 55.5436 160.857 55.6577C167.075 56.2507 173.113 57.9083 179.281 58.7728C180.341 58.9721 181.31 59.5024 182.05 60.2875Z" fill="#C6B397"/>
<path d="M155.061 57.6653C156.489 52.7282 157.709 47.7769 156.896 42.5684C156.824 42.1254 156.51 41.2681 157.609 41.5396C158.716 45.8693 159.08 50.1776 157.716 54.543C157.109 56.4281 156.215 58.2088 155.068 59.823C154.519 59.3872 154.519 59.3871 155.061 57.6653Z" fill="#B7B7B7"/>
<path d="M133.297 59.4657C135.884 55.0166 137.207 49.9445 137.123 44.7976C137.123 44.3046 137.323 43.9616 137.915 44.1688C139.343 49.4702 138.829 54.3573 134.86 58.5155C134.425 58.9371 134.054 59.4657 133.297 59.4657Z" fill="#AEAEAE"/>
<path d="M155.061 57.6653C155.175 58.3798 154.69 59.0942 155.061 59.8087C154.975 60.9733 153.912 61.4591 153.334 62.2879C153.327 60.5303 154.362 59.1657 155.061 57.6653Z" fill="#8D8D8D"/>
<path d="M102.332 62.981C100.904 62.8024 99.548 62.4737 98.1561 62.2665C97.2495 62.1236 96.1717 61.7307 95.3651 62.6238C95.2366 62.7738 95.101 62.9167 94.9653 63.0596C95.0399 62.8893 95.064 62.7011 95.0349 62.5174C95.0058 62.3338 94.9247 62.1624 94.8012 62.0235C94.0142 61.7291 93.2444 61.3904 92.4956 61.009C89.419 62.438 86.2497 63.674 83.423 65.5602C86.6994 70.5616 90.3184 75.2199 95.2509 78.7137C95.3519 78.8506 95.4845 78.9611 95.6374 79.0357C95.7902 79.1104 95.9588 79.147 96.1289 79.1424C96.8427 79.0352 97.1567 78.3422 97.7207 78.0349C98.7057 76.2345 99.9263 74.5912 100.99 72.855C101.211 70.1114 102.732 67.8537 103.674 65.3387C104.202 63.924 103.831 63.1668 102.332 62.981Z" fill="#C6B397"/>
<path d="M135.86 44.8761C135.86 48.5985 133.268 50.7634 130.863 52.8854C126.245 56.9151 120.441 58.1797 114.659 59.4086C112.518 59.8658 110.327 60.2088 108.185 60.7232C107.036 60.9947 105.787 61.2233 105.116 62.4165C104.873 62.7737 104.588 63.131 104.116 63.0667C101.832 62.8095 99.4481 63.0024 97.428 61.5592C97.5898 61.2003 97.8294 60.8819 98.1294 60.6273C98.4295 60.3727 98.7824 60.1883 99.1626 60.0873C102.504 58.6724 106.026 57.732 109.627 57.2937C114.417 56.6864 119.206 55.9791 123.946 55.0431C127.272 54.3787 129.707 52.0423 131.969 49.656C133.34 48.1556 134.56 46.4765 135.86 44.8761Z" fill="#C6B397"/>
<path d="M186.04 78.3921C186.647 79.0637 188.26 79.2209 187.611 80.4212C187.846 81.9645 189.11 81.3643 190.602 81.3143C190.602 81.1428 190.602 80.9785 190.602 80.8071C191.037 78.6636 192.579 77.1776 193.928 75.5557C195.622 73.506 197.124 71.3058 198.418 68.9825C194.763 66.5604 190.952 64.317 187.204 62.0593C187.274 62.6625 187.57 63.2167 188.032 63.6097C189.695 65.3602 185.748 60.2302 185.891 62.7523C184.991 61.4877 182.743 61.9235 181.815 60.7089C179.138 57.208 180.894 61.1519 176.711 62.3022C174.57 62.8952 176.797 65.5816 177.924 67.5535" fill="#C6B397"/>
<path d="M187.918 79.1995C188.724 80.014 189.445 80.9357 190.602 81.3429C190.88 81.9574 191.708 82.2145 191.751 83.2005C187.878 81.0769 184.554 78.0774 182.043 74.4411C181.765 73.9695 181.708 73.6051 182.443 73.6408C184.249 75.4913 185.541 77.8706 187.918 79.1995Z" fill="#C6B397"/>
<path d="M182.443 73.6124C182.307 73.8767 182.172 74.1482 182.043 74.4126C181.194 72.6978 179.188 71.5546 179.488 69.2683C180.681 70.5625 181.677 72.0264 182.443 73.6124Z" fill="#C6B397"/>
<path d="M205.163 146.753C205.265 143.039 205.112 139.322 204.707 135.629C206.206 136.014 206.284 137.343 206.37 138.487C206.584 141.294 206.627 144.145 205.163 146.753Z" fill="#C6B397"/>
<path d="M196.219 143.302C197.733 142.502 199.025 143.417 200.224 144.017C202.17 144.924 203.853 146.314 205.113 148.053C204.514 148.625 204.086 148.196 203.686 147.782C201.624 145.67 199.052 144.127 196.219 143.302Z" fill="#828282"/>
<path d="M98.2275 175.446C97.2781 174.511 96.1574 173.625 97.321 172.103C98.4845 170.581 99.6123 171.224 100.804 171.981C101.347 174.382 100.847 175.046 98.2275 175.446Z" fill="#940000"/>
<path d="M197.583 68.411C195.705 71.7196 193.395 74.7637 190.716 77.4634C189.374 78.8209 189.288 79.6497 190.637 80.8071C192.065 82.3004 193.214 82.2861 194.128 80.3142C194.274 80.0639 194.438 79.825 194.62 79.5997C196.747 76.6179 198.674 73.4983 200.388 70.2615C199.446 69.6542 198.504 69.0255 197.583 68.411Z" fill="#C6B397"/>
<path d="M100.255 72.6836C102.176 70.0172 103.787 67.1408 105.059 64.1099C106.044 64.5028 105.715 65.1958 105.466 65.8674L104.195 69.2327C103.253 72.605 100.883 74.9485 98.4844 77.2777C97.9634 77.7778 97.4994 77.9921 96.8926 77.4777L100.255 72.6836Z" fill="#FFE8C0"/>
<path d="M96.8926 77.4776C98.8842 76.7632 99.9478 75.0627 101.176 73.5695C102.296 72.2191 103.196 70.7116 104.195 69.2327C104.348 69.7757 104.363 70.3486 104.239 70.8989C104.114 71.4493 103.853 71.9597 103.481 72.3834C101.497 74.8412 99.6908 77.4562 97.2281 79.5282C96.6428 80.014 96.2002 80.7499 95.258 80.4356C94.8226 79.4925 95.8648 79.221 96.1074 78.5923L96.8926 77.4776Z" fill="#FFE8C0"/>
<path d="M108.892 82.7147C112.354 80.8642 115.437 82.2646 118.507 83.8507C115.327 83.2797 112.117 82.9003 108.892 82.7147Z" fill="#181818"/>
<path d="M163.056 84.2723C164.531 83.3798 166.182 82.8186 167.895 82.6274C169.608 82.4362 171.342 82.6196 172.978 83.1649C169.644 83.2792 166.368 83.8293 163.056 84.2723Z" fill="#181818"/>
<path d="M96.0932 78.5636C96.0055 79.2507 95.7089 79.8942 95.2438 80.407L91.7675 82.8791L91.5748 82.6362L95.2509 78.6994L96.0932 78.5636Z" fill="#FFE8C0"/>
<path d="M196.112 85.4655C194.778 85.6512 194.192 85.0939 193.421 84.1222C194.785 83.9794 195.363 84.5438 196.112 85.4655Z" fill="#FFE8C0"/>
<path d="M67.7335 83.7578C67.7335 83.7578 77.8839 63.381 95.2009 60.8947" stroke="#1F1F1F" stroke-width="2" stroke-miterlimit="10"/>
<path d="M98.4559 60.9948C98.4559 60.9948 94.1373 61.7092 93.8375 62.9309C93.5377 64.1527 100.79 72.755 100.79 72.755L103.374 69.0111L105.166 65.0958L104.68 61.895L98.4559 60.9948Z" fill="#C6B397"/>
<path d="M72.4232 78.0421C70.0218 80.5362 68.3929 83.6727 67.7335 87.0731C67.7335 87.0731 69.0326 87.3017 70.1604 89.4451C70.9587 90.8781 71.9668 92.1835 73.1513 93.3176C73.1513 93.3176 78.2979 92.4531 78.3479 92.3173C78.3978 92.1816 79.6184 90.1239 79.3972 89.538C79.1759 88.9521 78.6833 82.8291 78.6191 82.6504C78.5549 82.4718 72.4232 78.0421 72.4232 78.0421Z" fill="#FFE8C0"/>
<path d="M212.923 82.5647C212.923 82.5647 191.094 55.7719 158.901 56.7436" stroke="#0C0C0C" stroke-width="3" stroke-miterlimit="10"/>
<path d="M186.797 104.185C186.704 104.292 185.427 103.07 182.978 101.705C179.799 99.9026 176.264 98.8198 172.621 98.5332C168.989 98.1992 165.331 98.7762 161.978 100.212C159.444 101.391 158.323 102.82 158.223 102.713C158.408 102.335 158.668 102 158.987 101.727C159.799 100.924 160.728 100.25 161.742 99.7263C165.146 98.0947 168.928 97.4205 172.685 97.7758C176.434 98.0607 180.059 99.2496 183.249 101.241C183.863 101.613 184.377 102.006 184.841 102.334C185.305 102.663 185.662 102.999 185.955 103.27C186.533 103.82 186.833 104.142 186.797 104.185Z" fill="#222222"/>
<path d="M125.966 104.185C125.873 104.292 124.589 103.07 122.14 101.706C118.964 99.9022 115.43 98.8193 111.79 98.5333C108.16 98.1925 104.502 98.7621 101.147 100.191C98.6058 101.37 97.4923 102.799 97.3923 102.691C97.5769 102.314 97.8368 101.978 98.1561 101.706C98.9651 100.899 99.8947 100.224 100.911 99.7049C104.312 98.0742 108.093 97.4 111.847 97.7544C115.598 98.0393 119.225 99.2282 122.419 101.22C123.032 101.591 123.546 101.984 124.003 102.313C124.46 102.641 124.831 102.977 125.124 103.249C125.702 103.82 126.002 104.142 125.966 104.185Z" fill="#222222"/>
<path d="M169.594 123.769C169.658 124.054 166.603 125.083 161.514 126.183C158.973 126.734 155.918 127.269 152.506 127.741C149.094 128.213 145.325 128.57 141.349 128.784C137.373 128.998 133.59 129.006 130.149 128.92C126.709 128.834 123.618 128.598 121.027 128.313C115.851 127.755 112.704 127.055 112.739 126.762C112.818 126.048 125.588 127.377 141.235 126.512C156.881 125.648 169.444 123.125 169.594 123.769Z" fill="#222222"/>
<path d="M171.315 126.105C171.25 126.176 170.915 126.048 170.472 125.676C169.904 125.185 169.441 124.585 169.108 123.911C168.776 123.237 168.582 122.504 168.538 121.754C168.538 121.175 168.616 120.825 168.716 120.825C168.938 120.825 169.073 122.147 169.794 123.576C170.515 125.004 171.45 125.912 171.315 126.105Z" fill="#222222"/>
<path d="M206.056 79.2281L201.502 80.7785L200.788 87.9233L201.245 92.1601L207.169 93.3962L210.81 91.3885L211.588 87.5589C212.167 86.7401 212.431 85.739 212.33 84.7407C212.229 83.7425 211.77 82.8146 211.038 82.1289C208.383 79.2281 206.056 79.2281 206.056 79.2281Z" fill="#FFE8C0"/>
<path d="M96.8498 121.253C112.485 121.253 125.16 119.776 125.16 117.953C125.16 116.13 112.485 114.652 96.8498 114.652C81.2148 114.652 68.5401 116.13 68.5401 117.953C68.5401 119.776 81.2148 121.253 96.8498 121.253Z" stroke="#FCCC00" stroke-miterlimit="10"/>
<path d="M96.8498 121.103C112.485 121.103 125.16 119.626 125.16 117.803C125.16 115.98 112.485 114.502 96.8498 114.502C81.2148 114.502 68.5401 115.98 68.5401 117.803C68.5401 119.626 81.2148 121.103 96.8498 121.103Z" fill="#444444"/>
<path d="M98.8199 216C114.455 216 127.13 214.522 127.13 212.699C127.13 210.876 114.455 209.398 98.8199 209.398C83.1849 209.398 70.5102 210.876 70.5102 212.699C70.5102 214.522 83.1849 216 98.8199 216Z" fill="#444444"/>
<path d="M103.46 211.835C103.46 212.313 101.268 212.699 98.5701 212.699C95.8719 212.699 93.6877 212.313 93.6877 211.835C93.6877 211.356 95.8719 210.977 98.5701 210.977C101.268 210.977 103.46 211.363 103.46 211.835Z" fill="url(#paint0_linear_32_39)"/>
<path d="M125.695 117.953C101.425 131.528 100.59 158.435 100.59 158.435V211.306H96.5358V159.149C91.9174 129.42 67.3766 118.003 67.3766 118.003C67.3766 118.003 69.3324 119.832 76.392 120.396C83.4516 120.961 87.0992 121.111 87.0992 121.111L102.211 121.289L113.096 120.703L122.276 119.539L125.695 117.953Z" fill="url(#paint1_linear_32_39)"/>
<path d="M97.1925 169.452H94.3158V170.638H97.1925V171.96H95.4079L95.4579 172.781H97.1925V174.146H95.7506V175.382H97.1925" fill="url(#paint2_linear_32_39)"/>
<path d="M100.026 169.452H102.903V170.638H100.026V171.96H101.804L101.761 172.781H100.026V174.146H101.461V175.382H100.026" fill="url(#paint3_linear_32_39)"/>
<path d="M97.4423 177.233H99.0769C99.4052 177.011 99.7407 176.79 100.083 176.59C100.239 176.5 100.402 176.421 100.569 176.354C100.79 176.15 101.029 175.966 101.283 175.804C101.661 175.561 101.697 174.789 101.896 174.26C102.103 173.89 102.434 173.606 102.832 173.46C104.059 172.903 104.009 172.231 103.017 171.467C102.626 171.171 102.174 170.965 101.694 170.863C101.215 170.76 100.718 170.764 100.24 170.874C100.011 171.013 99.8151 171.2 99.6648 171.422C99.5145 171.644 99.4138 171.895 99.3696 172.16C99.3907 172.872 99.1934 173.574 98.8042 174.17C98.4149 174.767 97.8524 175.23 97.1924 175.496C96.8141 175.875 96.4786 176.261 96.7356 176.861C96.9923 176.94 97.232 177.066 97.4423 177.233Z" fill="#0C0C0C"/>
<path d="M101.068 169.866C100.919 169.545 100.762 169.223 100.604 168.895C100.604 168.487 100.604 168.08 100.654 167.673C100.449 167.878 100.207 168.043 99.9406 168.159C99.5748 168.514 99.1177 168.762 98.6201 168.873C98.5631 168.931 98.501 168.984 98.4345 169.03C98.3993 169.098 98.3587 169.162 98.3131 169.223C98.256 169.938 97.7064 170.081 97.1639 170.416C94.1945 172.238 94.0803 174.525 96.7642 176.754L97.6422 175.868C97.2924 173.81 98.4631 172.889 100.212 172.403C100.355 171.981 100.497 171.56 100.633 171.145C101.076 170.817 101.433 170.459 101.068 169.866Z" fill="#0F0F0F"/>
<path d="M97.585 175.975C96.6357 175.039 95.5079 174.153 96.6785 172.631C97.8492 171.11 98.9698 171.753 100.155 172.51C100.697 174.911 100.205 175.575 97.585 175.975Z" fill="#C6B397"/>
<path d="M109.349 162.043C109.349 162.043 114.617 181.112 122.633 183.663C130.649 186.213 137.944 185.706 138.401 188.743C138.858 191.779 157.895 194.88 157.895 194.88C157.895 194.88 162.363 198.167 163.455 197.159C164.748 196.079 165.652 194.607 166.032 192.965C166.202 191.555 166.124 190.126 165.804 188.743C165.804 188.743 165.804 186.599 165.804 185.027C165.804 183.456 166.917 180.369 166.917 180.369C166.917 180.369 168.088 175.875 166.917 174.903C165.747 173.932 165.804 170.767 165.804 170.767C165.804 170.767 135.296 164.579 133.383 162.45C131.47 160.321 122.447 160.185 122.447 160.185L115.93 158.942H111.547C111.547 158.942 109.192 159.735 109.349 162.043Z" fill="white"/>
<path d="M109.349 162.043C109.349 162.043 114.617 181.112 122.633 183.663C130.649 186.213 137.944 185.706 138.401 188.743C138.858 191.779 157.895 194.88 157.895 194.88C157.895 194.88 162.363 198.167 163.455 197.159C164.748 196.079 165.652 194.607 166.032 192.965C166.202 191.555 166.124 190.126 165.804 188.743C165.804 188.743 165.804 186.599 165.804 185.027C165.804 183.456 166.917 180.369 166.917 180.369C166.917 180.369 168.088 175.875 166.917 174.903C165.747 173.932 165.804 170.767 165.804 170.767C165.804 170.767 135.296 164.579 133.383 162.45C131.47 160.321 122.447 160.185 122.447 160.185L115.93 158.942H111.547C111.547 158.942 109.192 159.735 109.349 162.043Z" stroke="#0C0C0C" stroke-miterlimit="10"/>
<path d="M131.47 168.43C130.856 168.566 130.226 168.614 129.599 168.573C126.557 168.541 123.569 167.761 120.898 166.301C120.332 166.03 119.808 165.679 119.342 165.258C123.06 167.309 127.231 168.4 131.477 168.43H131.47Z" fill="#404040"/>
<path d="M162.156 183.42C162.156 183.42 161.764 183.056 160.943 182.57C159.758 181.934 158.451 181.556 157.11 181.462C155.108 181.371 153.103 181.445 151.114 181.684C149.927 181.796 148.732 181.796 147.545 181.684C146.262 181.512 145.013 181.145 143.84 180.598C141.42 179.512 139.343 178.119 137.244 177.29C135.394 176.528 133.461 175.988 131.484 175.682C130.149 175.478 128.801 175.375 127.451 175.375C126.487 175.375 125.959 175.418 125.959 175.375C126.081 175.336 126.209 175.314 126.337 175.311C126.594 175.311 126.965 175.246 127.444 175.225C128.805 175.162 130.169 175.225 131.52 175.411C133.527 175.685 135.493 176.206 137.373 176.961C139.514 177.783 141.656 179.183 143.99 180.248C145.132 180.779 146.347 181.135 147.595 181.305C148.763 181.438 149.942 181.457 151.114 181.362C153.121 181.137 155.144 181.091 157.16 181.227C158.532 181.343 159.86 181.771 161.043 182.477C161.359 182.684 161.653 182.924 161.921 183.191C162.078 183.313 162.171 183.413 162.156 183.42Z" fill="#404040"/>
<path d="M162.478 179.755C161.666 179.235 160.797 178.812 159.886 178.497C158.188 177.926 155.696 177.783 152.962 177.968C151.585 178.033 150.264 178.083 149.065 178.026C147.998 177.983 146.94 177.82 145.91 177.54C145.214 177.346 144.547 177.06 143.926 176.69C143.694 176.565 143.482 176.406 143.297 176.218C144.153 176.664 145.052 177.018 145.981 177.275C147.709 177.747 150.2 177.754 152.941 177.59C154.239 177.504 155.541 177.504 156.838 177.59C157.906 177.667 158.959 177.881 159.972 178.226C160.654 178.464 161.298 178.798 161.885 179.219C162.112 179.362 162.312 179.543 162.478 179.755Z" fill="#404040"/>
<path d="M112.19 161.993C112.19 161.993 112.34 162.514 112.704 163.422C113.237 164.684 113.909 165.882 114.709 166.994C115.702 168.423 117.001 170.074 118.385 171.931L120.57 174.839C121.317 175.892 122.151 176.881 123.061 177.797C123.961 178.707 125.072 179.379 126.295 179.755C127.468 180.059 128.66 180.283 129.864 180.426C131.902 180.751 133.9 181.292 135.824 182.041C137.12 182.547 138.375 183.151 139.579 183.849C140 184.099 140.292 184.299 140.542 184.442C140.654 184.51 140.759 184.589 140.856 184.677C140.395 184.463 139.944 184.224 139.507 183.963C138.285 183.323 137.023 182.76 135.731 182.277C133.815 181.572 131.832 181.062 129.814 180.755C128.609 180.621 127.416 180.399 126.245 180.09C124.965 179.704 123.8 179.007 122.854 178.061C121.93 177.128 121.085 176.119 120.327 175.046L118.186 172.124C116.815 170.252 115.545 168.595 114.567 167.123C113.775 165.975 113.128 164.735 112.639 163.429C112.482 162.957 112.382 162.593 112.325 162.336C112.265 162.228 112.22 162.112 112.19 161.993Z" fill="#404040"/>
<path d="M115.495 163.686C114.033 162.912 112.922 161.609 112.389 160.042C112.489 159.992 113.025 160.921 113.881 161.921C114.738 162.922 115.587 163.6 115.495 163.686Z" fill="#404040"/>
<path d="M119.428 162.836C118.388 162.763 117.378 162.45 116.48 161.921C115.522 161.51 114.671 160.888 113.988 160.099C114.06 160.007 115.152 160.814 116.644 161.586C118.136 162.357 119.456 162.729 119.428 162.836Z" fill="#404040"/>
<path d="M163.82 174.361C163.784 174.432 162.485 173.646 160.179 172.853C158.827 172.413 157.432 172.12 156.018 171.981C154.419 171.838 152.648 171.981 150.764 171.931C148.988 171.891 147.233 171.536 145.582 170.881C144.054 170.309 142.726 169.745 141.591 169.266C140.693 168.896 139.822 168.461 138.986 167.966C138.673 167.794 138.382 167.583 138.122 167.337C138.447 167.484 138.761 167.651 139.065 167.837C139.919 168.277 140.796 168.673 141.691 169.023C142.826 169.459 144.19 170.002 145.696 170.552C147.32 171.174 149.039 171.512 150.778 171.553C152.627 171.595 154.419 171.467 156.046 171.631C157.484 171.791 158.9 172.115 160.265 172.596C161.182 172.918 162.07 173.318 162.92 173.789C163.241 173.944 163.543 174.135 163.82 174.361Z" fill="#404040"/>
<path d="M164.034 190.643C164.034 190.643 164.148 190.786 164.205 191.101C164.275 191.554 164.213 192.018 164.027 192.437C163.883 192.752 163.674 193.032 163.413 193.259C163.152 193.485 162.845 193.653 162.513 193.751C162.117 193.867 161.698 193.887 161.293 193.808C160.867 193.709 160.468 193.519 160.122 193.251C159.55 192.714 158.926 192.235 158.259 191.822C157.701 191.536 157.097 191.35 156.474 191.272C155.89 191.235 155.303 191.235 154.718 191.272C154.718 191.272 154.868 191.172 155.175 191.101C155.608 191 156.053 190.964 156.496 190.993C157.163 191.032 157.815 191.202 158.416 191.494C159.109 191.9 159.758 192.379 160.35 192.923C160.632 193.159 160.966 193.325 161.325 193.407C161.684 193.489 162.057 193.485 162.413 193.394C162.705 193.316 162.977 193.179 163.213 192.991C163.448 192.802 163.643 192.568 163.784 192.301C164.018 191.782 164.104 191.208 164.034 190.643Z" fill="#404040"/>
<path d="M113.617 160.7C114.76 160.7 115.687 160.457 115.687 160.157C115.687 159.857 114.76 159.614 113.617 159.614C112.474 159.614 111.547 159.857 111.547 160.157C111.547 160.457 112.474 160.7 113.617 160.7Z" fill="#F4F421"/>
<path d="M143.048 29.1006C171.452 29.1006 194.478 25.9849 194.478 22.1416C194.478 18.2983 171.452 15.1826 143.048 15.1826C114.644 15.1826 91.6176 18.2983 91.6176 22.1416C91.6176 25.9849 114.644 29.1006 143.048 29.1006Z" stroke="#FFF35F" stroke-width="9.43" stroke-miterlimit="10"/>
</g>
<defs>
<linearGradient id="paint0_linear_32_39" x1="93.6877" y1="211.842" x2="103.46" y2="211.842" gradientUnits="userSpaceOnUse">
<stop stop-color="#FCCC00"/>
<stop offset="0.48" stop-color="#AD8E0A"/>
</linearGradient>
<linearGradient id="paint1_linear_32_39" x1="83.4944" y1="142.459" x2="129.033" y2="178.927" gradientUnits="userSpaceOnUse">
<stop stop-color="#FCCC00"/>
<stop offset="0.48" stop-color="#AD8E0A"/>
</linearGradient>
<linearGradient id="paint2_linear_32_39" x1="94.3158" y1="172.417" x2="97.1853" y2="172.417" gradientUnits="userSpaceOnUse">
<stop stop-color="#FCCC00"/>
<stop offset="0.48" stop-color="#AD8E0A"/>
</linearGradient>
<linearGradient id="paint3_linear_32_39" x1="102.896" y1="172.417" x2="100.026" y2="172.417" gradientUnits="userSpaceOnUse">
<stop stop-color="#FCCC00"/>
<stop offset="0.48" stop-color="#AD8E0A"/>
</linearGradient>
<clipPath id="clip0_32_39">
<rect width="279" height="216" fill="white"/>
</clipPath>
</defs>
</svg>
