<svg xmlns="http://www.w3.org/2000/svg" viewBox="0 0 405 297.19"><defs><style>.cls-1{fill:#fff;}.cls-2{fill:#6e6e6d;}.cls-3{fill:#090909;}.cls-4{fill:#0a0a0a;}.cls-5{fill:#121212;}.cls-6{fill:#131313;}.cls-7{fill:#0c0c0c;}.cls-8{fill:#080808;}.cls-9{fill:#171717;}.cls-10{fill:#0b0b0b;}.cls-11{fill:#191919;}.cls-12{fill:#1b1b1b;}.cls-13{fill:#575757;}.cls-14{fill:#202020;}.cls-15{fill:#ffe8c0;}.cls-16{fill:#fdfdfd;}.cls-17{fill:#050505;}.cls-18{fill:#d9d9d9;}.cls-19{fill:#d7d7d7;}.cls-20{fill:#1f1f1f;}.cls-21{fill:#c2c2c2;}.cls-22{fill:#222;}.cls-23{fill:#1c1c1c;}.cls-24{fill:#c6b397;}.cls-25{fill:#070707;}.cls-26{fill:#060606;}.cls-27{fill:#0d0d0d;}.cls-28{fill:#040404;}.cls-29{fill:#151515;}.cls-30{fill:#181818;}.cls-31{fill:#2d2d2d;}.cls-32{fill:#3f3f3f;}.cls-33{fill:#525252;}.cls-34{fill:#1e1e1e;}.cls-35{fill:#f6f6f6;}.cls-36{fill:#d8d8d8;}.cls-37{fill:#f4f4f4;}.cls-38,.cls-39,.cls-40{fill:none;stroke-miterlimit:10;}.cls-38{stroke:#090909;stroke-width:3px;}.cls-39{stroke:#e1ff2e;stroke-width:9.43px;}.cls-40{stroke:#080808;stroke-width:2px;}</style></defs><g id="Capa_2" data-name="Capa 2"><g id="Capa_1-2" data-name="Capa 1"><path class="cls-1" d="M191.23,79.6,185,73.71l-5.62-8.17-5.88-13.09-6.91-20.56L162,21.34,156,12l-4.91-5-5.47-3.41L140.9,2.5l-4-.09-3.18,1.1L130,6.21l-3.14,3.85L126,12.64l-.7-1-1.76-2-1.79-1.61-3.94-2.59L114.59,4l-5.88-1.79L101.36,1,91.62.5h-7.4L76.54,1.6,68.31,3.84l-5.4,2.5-5.1,3.51-4.91,4.9L49.21,20l-2.33,4.51-2.32,6.6-1.09,5.56-.34,5.11.47,6.65.86,4.47,2,6.26,2.51,5.56,2.74,5s.08.58-1.16.28-2.16-.42-2.16-.42l-4.15-.38-4.42.09-3.7.45-4.16.91L25,73.1,18.5,76.77,12.14,82,8,86.76,4.44,92.6l-2,4.83-1.46,6L.5,110.08,1,116.27l1.66,6.92,2.08,5.69,3.46,5.65,3.4,4.38,6.74,5.8L22,147.17l4.5,1.63,4.37,1.72,3.45,1.18,3.47.45,3,.89h2.39l-2,2.24-.72,1-1.1,1.67-1.69,3.52a29.06,29.06,0,0,0-1.69,4,30.46,30.46,0,0,0-.85,15.3c1.88,9.84,8.1,15.92,10.72,18.47a45.21,45.21,0,0,0,15.25,9.56c2.79,1.14,6.07,2,12.64,3.76,4.49,1.2,6.56,1.63,13.75,3.35,3.19.77,7.78,1.88,13.37,3.29l.9.29a18.73,18.73,0,0,1-1.54,3.67,7,7,0,0,0-1,2.52l-2.16,8.38-.48,6.42.61,7.33L99,254.63l2.19,5.11,2.1,3.62,4.81,6.06,2.71,2.6,3.51,3.05,4.09,2.3,6.31,2.86,5.61,1.58,5.88.92s4.88-.43,5.71-.42,5-.65,5.15-.69l6.26-1.66,7-2.68,6.59-3.3,3.24-1.88,5-3.22,3.67-2.65,3.54-2.78,2.11-1.78,1.57-1.41,1.22-1.08L193.32,81Zm-39.82,5.33a9.5,9.5,0,0,1-1.08.84l.35.25c1.36,1,.55,2.08-.5,2.78-.11,13.13-14,21.27-24.79,25.44-2,.79-5.09,1.27-7.07,0-1.49-.95-2.08-2.73,0-3.53s4.31-1.77,6.51-2.89c-2.1.13-4.9-.23-5.41-1.83a18.43,18.43,0,0,1-.57-9.94,2.26,2.26,0,0,1,0-.26c.9-6.05,3.75-10.32,8-13.08a12,12,0,0,1,3.56-1.81,27.57,27.57,0,0,1,5.72-1.59,14.56,14.56,0,0,1,6.52.25,14.4,14.4,0,0,1,8.73,2.84A1.56,1.56,0,0,1,151.41,84.93Z" transform="translate(-0.02 -0.08)"/><path class="cls-2" d="M135.71,43.93a9.18,9.18,0,0,1-1-1.21c-.6-.81-1.48-2-2.56-3.61a61.45,61.45,0,0,1-3.65-6,35,35,0,0,1-3.29-8.73,22.82,22.82,0,0,1,.2-11.32A16.5,16.5,0,0,1,133.6,3,13.35,13.35,0,0,1,137,1.89a15.32,15.32,0,0,1,3.65-.17A18,18,0,0,1,147.69,4a27.53,27.53,0,0,1,6.06,4.68,47.23,47.23,0,0,1,5,6.06,68.36,68.36,0,0,1,7.07,13.67c1.84,4.61,3.29,9.17,4.67,13.49s2.68,8.43,4.12,12.19a87.67,87.67,0,0,0,4.55,10.21,56,56,0,0,0,4.92,7.77,43.1,43.1,0,0,0,4.67,5.15c.67.68,1.36,1.18,1.91,1.66a18.18,18.18,0,0,0,1.47,1.15,8.76,8.76,0,0,1,1.21,1,8.13,8.13,0,0,1-1.33-.79,13.79,13.79,0,0,1-1.54-1.07,24.78,24.78,0,0,1-2-1.61,40.32,40.32,0,0,1-4.86-5.08,56.42,56.42,0,0,1-5.12-7.78,89.71,89.71,0,0,1-4.71-10.25c-1.48-3.77-2.82-7.89-4.22-12.21s-2.88-8.84-4.71-13.41a68,68,0,0,0-7-13.44c-3-4.24-6.44-8.07-10.68-10.44a17,17,0,0,0-6.64-2.22,14.1,14.1,0,0,0-3.38.14,12.41,12.41,0,0,0-3.13,1,15.62,15.62,0,0,0-7.74,9.39A22.18,22.18,0,0,0,126,24.22a34.88,34.88,0,0,0,3.08,8.62c1.22,2.42,2.44,4.42,3.46,6l2.4,3.72A7.66,7.66,0,0,1,135.71,43.93Z" transform="translate(-0.02 -0.08)"/><path class="cls-2" d="M99.24,98.53a1.52,1.52,0,0,1-.51,0l-1.46-.24C96,98,94.09,97.62,91.68,97a79,79,0,0,1-19.45-7.92,66.89,66.89,0,0,1-11.74-8.6,64.79,64.79,0,0,1-5.58-5.93A60.31,60.31,0,0,1,50,67.49a53.2,53.2,0,0,1-6.58-17.26,44,44,0,0,1,.81-19.78,42.16,42.16,0,0,1,9.5-17.37A36.77,36.77,0,0,1,69.15,3,58.58,58.58,0,0,1,85.62.17a113.67,113.67,0,0,1,14.53.35A56.45,56.45,0,0,1,112,2.74a30.62,30.62,0,0,1,8.2,3.87,22.5,22.5,0,0,1,4.28,3.81c.4.52.7.92.91,1.18s.29.42.27.43A27.37,27.37,0,0,0,119.93,7a31,31,0,0,0-8.15-3.66,57.15,57.15,0,0,0-11.69-2,119.35,119.35,0,0,0-14.43-.21A58.43,58.43,0,0,0,69.47,4a36.06,36.06,0,0,0-15,9.83,41.14,41.14,0,0,0-9.24,17,43,43,0,0,0-.81,19.32A52,52,0,0,0,50.81,67a58.45,58.45,0,0,0,4.83,7,62.81,62.81,0,0,0,5.45,5.87,66.35,66.35,0,0,0,11.52,8.6A82.77,82.77,0,0,0,91.79,96.6c2.38.68,4.25,1.14,5.52,1.44l1.44.34A2.25,2.25,0,0,1,99.24,98.53Z" transform="translate(-0.02 -0.08)"/><path class="cls-2" d="M104.67,168.76a2.65,2.65,0,0,1-.41-.35l-1.11-1.09a38.24,38.24,0,0,0-4.64-3.74,42.39,42.39,0,0,0-8.4-4.25A61.32,61.32,0,0,0,78,156.2a118.75,118.75,0,0,0-15.12-1.34c-5.46-.22-11.33-.3-17.49-.84a66.39,66.39,0,0,1-19-4.11A39.74,39.74,0,0,1,9.79,137.5a45.51,45.51,0,0,1-3.1-4.37c-.47-.75-.87-1.55-1.3-2.31l-.63-1.16c-.21-.39-.37-.8-.55-1.2-.36-.8-.71-1.6-1.06-2.39l-.86-2.45-.42-1.22-.32-1.25c-.2-.83-.43-1.65-.62-2.47l-.42-2.5c-.07-.41-.15-.83-.2-1.24l-.1-1.25C.15,112.86.08,112,0,111.21s0-1.64,0-2.46v-1.22l.12-1.21c.08-.8.17-1.6.25-2.39s.3-1.57.45-2.34A17.7,17.7,0,0,1,1.4,99.3,39.58,39.58,0,0,1,9.8,83.89a43.46,43.46,0,0,1,12-9.55,45.71,45.71,0,0,1,11.82-4.43l2.64-.52,2.48-.27L39.87,69,41,69l2.07,0a33.32,33.32,0,0,1,6,.64l1.53.31a1.59,1.59,0,0,1,.51.15,3,3,0,0,1-.53,0L49,69.79a38.93,38.93,0,0,0-5.95-.43L41,69.43l-1.11,0-1.14.14-2.45.31-2.6.56A45.66,45.66,0,0,0,22.12,75a43.17,43.17,0,0,0-11.66,9.47A38.72,38.72,0,0,0,2.35,99.56a15,15,0,0,0-.51,2.23c-.14.75-.32,1.51-.43,2.28s-.16,1.55-.23,2.34l-.12,1.18v1.19c0,.79,0,1.59,0,2.4s.13,1.61.2,2.42l.1,1.21c0,.41.13.81.19,1.21L2,118.46c.2.8.41,1.61.62,2.42l.31,1.22.41,1.19.84,2.39c.34.78.69,1.55,1,2.34.18.38.34.78.53,1.16l.62,1.14c.43.74.81,1.52,1.28,2.25a44.58,44.58,0,0,0,3,4.27A38.91,38.91,0,0,0,26.84,149,65.63,65.63,0,0,0,45.5,153c6.11.57,12,.68,17.44.93a117.53,117.53,0,0,1,15.21,1.49,60.15,60.15,0,0,1,12.17,3.32,40.86,40.86,0,0,1,8.42,4.46,33.39,33.39,0,0,1,4.56,3.93l1,1.17C104.58,168.6,104.69,168.75,104.67,168.76Z" transform="translate(-0.02 -0.08)"/><path class="cls-2" d="M135,247.49a59.42,59.42,0,0,0-2.38-5.56,37.59,37.59,0,0,0-10.73-12.27,55.6,55.6,0,0,0-9.71-5.85,78.42,78.42,0,0,0-12.25-4.45c-8.86-2.54-19-4.05-29.27-7s-19.81-7.52-26.47-14.18a34.14,34.14,0,0,1-7.47-10.91,32.49,32.49,0,0,1,1.38-27.39,22.38,22.38,0,0,1,1.33-2.25,17.79,17.79,0,0,1,1.11-1.56,10.86,10.86,0,0,1,1-1.2c.11.08-1.34,1.72-3.09,5.2A33,33,0,0,0,35.08,176a32.17,32.17,0,0,0,2.43,11,33.31,33.31,0,0,0,7.35,10.56c6.52,6.46,15.88,11,26.07,13.85s20.32,4.43,29.24,7A78,78,0,0,1,112.54,223a55.44,55.44,0,0,1,9.79,6.05A36.8,36.8,0,0,1,133,241.75a20.25,20.25,0,0,1,1,2.39l.38,1c.08.31.16.59.23.84A7.81,7.81,0,0,1,135,247.49Z" transform="translate(-0.02 -0.08)"/><path class="cls-2" d="M187.19,259.18a7.47,7.47,0,0,1-1,1c-.67.65-1.67,1.62-3,2.77A99.46,99.46,0,0,1,171,272a91.22,91.22,0,0,1-9.15,5.07,75.63,75.63,0,0,1-11.26,4.23,47.72,47.72,0,0,1-13.19,1.79c-.58,0-1.17,0-1.75,0l-1.76-.17c-.58-.07-1.18-.1-1.76-.19l-1.77-.32a41.19,41.19,0,0,1-7-2.06,43.39,43.39,0,0,1-21-17.41,39.83,39.83,0,0,1-4.73-11.08,42.61,42.61,0,0,1-1.4-10.39,42,42,0,0,1,2.49-14.91,31.92,31.92,0,0,1,1.63-3.77,6.13,6.13,0,0,1,.71-1.25c.1.05-.83,1.79-2,5.16A43.76,43.76,0,0,0,97,241.39a41.7,41.7,0,0,0,6.21,21,42.79,42.79,0,0,0,20.54,16.93,40,40,0,0,0,6.8,2l1.72.31c.57.1,1.15.13,1.72.19l1.7.17c.57.07,1.14,0,1.7,0a47.56,47.56,0,0,0,12.92-1.69,76.4,76.4,0,0,0,11.14-4.09,95.64,95.64,0,0,0,9.13-4.91,110.67,110.67,0,0,0,12.28-8.67c1.4-1.1,2.44-2,3.16-2.61A6.39,6.39,0,0,1,187.19,259.18Z" transform="translate(-0.02 -0.08)"/><path class="cls-2" d="M141.11,156.25a20.49,20.49,0,0,0-1.18-4.51,22.36,22.36,0,0,0-8-9.64c-4.35-3.2-10.57-5.21-17.54-6.57-3.48-.72-7.19-1.29-11-2.18l-2.87-.66-2.89-.78c-2-.49-3.88-1.16-5.85-1.77a123.86,123.86,0,0,1-21.23-9.44,122.86,122.86,0,0,1-15.72-10.63,116.63,116.63,0,0,1-9.55-8.52L42.89,99l-.61-.66a1.41,1.41,0,0,1-.19-.24l.23.2L43,99l2.47,2.44c2.21,2,5.37,5.08,9.63,8.38A122.9,122.9,0,0,0,92,129.64c2,.6,3.88,1.27,5.82,1.76l2.88.78,2.85.66c3.77.89,7.47,1.47,11,2.21a66.67,66.67,0,0,1,9.81,2.66,36.21,36.21,0,0,1,4.23,1.85,31.77,31.77,0,0,1,3.62,2.24,22.13,22.13,0,0,1,8,9.87A16.17,16.17,0,0,1,141,155q.06.59.09.9A1,1,0,0,1,141.11,156.25Z" transform="translate(-0.02 -0.08)"/><path class="cls-2" d="M136.33,202.35a3.44,3.44,0,0,1-.71-.14l-2-.51-7.38-2c-6.22-1.7-14.84-4-24.24-6.94a175.35,175.35,0,0,1-23.52-9.12c-2.9-1.42-5.2-2.66-6.76-3.57L69.91,179a4.74,4.74,0,0,1-.6-.4,3.47,3.47,0,0,1,.66.31l1.83,1c1.59.85,3.91,2,6.82,3.41a192.79,192.79,0,0,0,23.52,9c9.38,3,18,5.29,24.18,7.09l7.34,2.14,2,.6A3.62,3.62,0,0,1,136.33,202.35Z" transform="translate(-0.02 -0.08)"/><path class="cls-2" d="M176,233.37a4.22,4.22,0,0,1-.24.83c-.17.54-.45,1.33-.82,2.34a71.5,71.5,0,0,1-3.71,8.32,51.23,51.23,0,0,1-7.76,11.07,35.77,35.77,0,0,1-13.7,9.19,26.4,26.4,0,0,1-16.39.86,23.06,23.06,0,0,1-11.17-7.44,19,19,0,0,1-4-8.18c-.09-.53-.16-1-.23-1.41s0-.77-.06-1a4.8,4.8,0,0,1,0-.87s.05.3.11.86c0,.28,0,.63.11,1l.27,1.4a19.34,19.34,0,0,0,4,8,22.86,22.86,0,0,0,11,7.21,26.14,26.14,0,0,0,16.07-.89,35.45,35.45,0,0,0,13.52-9,52.08,52.08,0,0,0,7.79-10.9,82.87,82.87,0,0,0,3.85-8.23l.91-2.29A8.26,8.26,0,0,1,176,233.37Z" transform="translate(-0.02 -0.08)"/><path class="cls-1" d="M404,108.82l-1.45-6-2-4.83L397,92.18l-4.11-4.76-6.37-5.23L380,78.51l-6.9-2.5L369,75.1l-3.71-.45-4.41-.09-4.15.38s-.93.12-2.16.42-1.16-.27-1.16-.27l2.73-5,2.52-5.56,2-6.26.87-4.47.46-6.65L361.56,42l-1.08-5.56-2.32-6.59-2.34-4.51-3.69-5.21-4.9-4.89-5.11-3.51-5.39-2.51L328.5,7l-7.68-1.11h-7.41l-9.74.51-7.35,1.17-5.87,1.78-3.27,1.5-3.93,2.59-1.79,1.61-1.77,2-.69,1-.85-2.58L275,11.62l-3.71-2.7-3.18-1.1-4,.09L259.45,9,254,12.38l-4.91,5L243,26.75,238.47,37.3l-6.92,20.57L225.68,71l-5.62,8.16L213.81,85l-2.09,1.43,6.13,178.15,1.22,1.08,1.56,1.41,2.11,1.78,3.55,2.79,3.67,2.64,5,3.22,3.24,1.88,6.59,3.3,7,2.68S257.8,287,258,287s4.34.69,5.16.69,5.71.42,5.71.42l5.88-.92,5.61-1.57,6.31-2.87,4.09-2.3,3.5-3.05,2.72-2.6,4.81-6.06,2.1-3.61L306,260l1.76-6.82.61-7.33-.49-6.42-2.15-8.38a6.9,6.9,0,0,0-1-2.51,19,19,0,0,1-1.54-3.68l.89-.29c5.6-1.41,10.19-2.52,13.38-3.29,7.19-1.72,9.26-2.15,13.75-3.35,6.56-1.75,9.85-2.62,12.64-3.76a45.14,45.14,0,0,0,15.25-9.56c2.61-2.55,8.83-8.63,10.72-18.47a30.38,30.38,0,0,0-.86-15.3,27.69,27.69,0,0,0-1.69-4l-1.68-3.53-1.11-1.66-.72-1-1.94-2.24h2.39l3-.89,3.48-.45,3.45-1.18,4.37-1.72,4.5-1.63,3.64-2.46,6.73-5.8,3.4-4.38,3.46-5.65,2.09-5.69,1.65-6.92.52-6.19ZM279.8,99.16c2,3.09,4,6.55,6.71,8.48,1.94,1.39-.51,3-1.79,3.42a8.07,8.07,0,0,1-6.84-.9c-3.42-2.45-5.21-6.68-7.71-10-3.22-4.24-6.2-8.83-10-12.55a8.25,8.25,0,0,1-1.16-1c-1.54-1.61.17-3,1.8-3.42l.47-.11c.48-1.29,3.08-2.19,4.77-2.1a24.13,24.13,0,0,1,11.18,2.87c2.07,0,4.28.48,5.06,1.26a6.4,6.4,0,0,1,1.31,1.68,10.33,10.33,0,0,1,4.64,5c.49,1.36-.42,2.19-1.71,2.66a23.76,23.76,0,0,1,2.22,2.62C290.53,99.67,282.74,101,279.8,99.16Z" transform="translate(-0.02 -0.08)"/><path class="cls-2" d="M269.33,49.34a8.13,8.13,0,0,1,.79-1.33l2.39-3.71c1-1.63,2.25-3.63,3.46-6a34.87,34.87,0,0,0,3.09-8.62,22.14,22.14,0,0,0-.31-10.9A15.68,15.68,0,0,0,271,9.33a12.25,12.25,0,0,0-3.13-1,13.61,13.61,0,0,0-3.38-.14,16.93,16.93,0,0,0-6.65,2.21c-4.23,2.37-7.71,6.21-10.67,10.44a68.89,68.89,0,0,0-7,13.45c-1.83,4.56-3.3,9.09-4.7,13.4s-2.74,8.44-4.23,12.21a85.67,85.67,0,0,1-4.71,10.25,54.65,54.65,0,0,1-5.12,7.78A40.48,40.48,0,0,1,216.59,83c-.7.66-1.42,1.14-2,1.61a16.51,16.51,0,0,1-1.54,1.07,9,9,0,0,1-1.33.78,8.76,8.76,0,0,1,1.21-1c.4-.3.91-.65,1.47-1.14s1.24-1,1.91-1.67A42.33,42.33,0,0,0,221,77.52a56.38,56.38,0,0,0,4.92-7.77,90.36,90.36,0,0,0,4.55-10.21c1.44-3.76,2.74-7.86,4.11-12.19s2.84-8.88,4.68-13.49A68.76,68.76,0,0,1,246.3,20.2a46.7,46.7,0,0,1,5-6.06,27.74,27.74,0,0,1,6.06-4.69,17.91,17.91,0,0,1,7.07-2.31,14.82,14.82,0,0,1,3.65.16,13.35,13.35,0,0,1,3.38,1.15,16.53,16.53,0,0,1,8.16,10,22.81,22.81,0,0,1,.19,11.32,34.66,34.66,0,0,1-3.29,8.73,61.59,61.59,0,0,1-3.64,6c-1.08,1.59-2,2.8-2.57,3.61A8.76,8.76,0,0,1,269.33,49.34Z" transform="translate(-0.02 -0.08)"/><path class="cls-2" d="M305.8,104a1.89,1.89,0,0,1,.48-.16l1.45-.34c1.27-.3,3.13-.76,5.51-1.43a82.93,82.93,0,0,0,19.19-8.18A66.73,66.73,0,0,0,344,85.24a64,64,0,0,0,5.45-5.86,59.4,59.4,0,0,0,4.83-7,52.37,52.37,0,0,0,6.4-16.94,43.26,43.26,0,0,0-.81-19.32,41.28,41.28,0,0,0-9.25-16.95,36,36,0,0,0-15-9.82,58.52,58.52,0,0,0-16.19-2.91A119.2,119.2,0,0,0,305,6.68a57.15,57.15,0,0,0-11.69,2,30.69,30.69,0,0,0-8.15,3.65,27.65,27.65,0,0,0-5.7,5.07,2.11,2.11,0,0,1,.28-.42l.9-1.19A22.63,22.63,0,0,1,284.88,12a30.62,30.62,0,0,1,8.2-3.87,56.34,56.34,0,0,1,11.8-2.22,117.62,117.62,0,0,1,14.54-.35,58.58,58.58,0,0,1,16.47,2.86,36.65,36.65,0,0,1,15.45,10,42,42,0,0,1,9.5,17.37,44,44,0,0,1,.82,19.79,53,53,0,0,1-6.59,17.25A61.6,61.6,0,0,1,350.13,80a64.64,64.64,0,0,1-5.58,5.92,66.62,66.62,0,0,1-11.74,8.6,78.79,78.79,0,0,1-19.46,7.92c-2.4.62-4.29,1-5.58,1.25l-1.47.24A2.36,2.36,0,0,1,305.8,104Z" transform="translate(-0.02 -0.08)"/><path class="cls-2" d="M300.36,174.17a2.56,2.56,0,0,1,.33-.42c.24-.26.59-.65,1-1.17a33.6,33.6,0,0,1,4.57-3.93,41,41,0,0,1,8.41-4.46,60.73,60.73,0,0,1,12.18-3.32,117.44,117.44,0,0,1,15.21-1.48c5.47-.25,11.33-.37,17.44-.93a66.07,66.07,0,0,0,18.66-4.1,38.86,38.86,0,0,0,16.21-12.11,44.55,44.55,0,0,0,3-4.26c.47-.74.85-1.51,1.27-2.26l.62-1.13c.2-.38.36-.78.54-1.17.34-.78.69-1.56,1-2.34l.84-2.39.41-1.19.31-1.22.62-2.42c.14-.81.27-1.62.41-2.43.07-.41.15-.81.2-1.21l.1-1.22c.07-.81.13-1.62.2-2.42s0-1.6,0-2.4V113l-.11-1.18c-.08-.78-.15-1.56-.23-2.34s-.29-1.52-.43-2.28a18.49,18.49,0,0,0-.51-2.23,39,39,0,0,0-8.11-15.09,43.36,43.36,0,0,0-11.67-9.47,45.78,45.78,0,0,0-11.58-4.5l-2.61-.57L366.28,75l-1.15-.14-1.1,0-2-.08a38.82,38.82,0,0,0-6,.43l-1.54.21a2.19,2.19,0,0,1-.54,0,1.72,1.72,0,0,1,.51-.14L356,75a33.39,33.39,0,0,1,6-.63l2.07,0,1.12,0,1.16.12,2.48.27,2.65.53a45.3,45.3,0,0,1,11.82,4.42,43.8,43.8,0,0,1,12,9.55,39.63,39.63,0,0,1,8.39,15.41,16.21,16.21,0,0,1,.54,2.29c.15.78.33,1.55.45,2.34l.24,2.4.12,1.2,0,1.23c0,.81,0,1.63,0,2.46s-.13,1.64-.19,2.47l-.1,1.25c-.05.42-.14.83-.2,1.24l-.42,2.5c-.2.82-.42,1.65-.63,2.48l-.32,1.24-.42,1.22c-.28.81-.57,1.63-.85,2.45s-.71,1.59-1.06,2.39c-.19.4-.35.81-.55,1.2l-.63,1.16c-.44.77-.83,1.56-1.3,2.31a44.29,44.29,0,0,1-3.1,4.37,39.74,39.74,0,0,1-16.66,12.41,66,66,0,0,1-19,4.11c-6.16.54-12,.63-17.49.84A117,117,0,0,0,327,161.62a61.24,61.24,0,0,0-12.08,3.12,41.84,41.84,0,0,0-8.4,4.26,38.63,38.63,0,0,0-4.65,3.73l-1.11,1.09C300.52,174.07,300.38,174.18,300.36,174.17Z" transform="translate(-0.02 -0.08)"/><path class="cls-2" d="M270.05,252.9a9.13,9.13,0,0,1,.37-1.53l.24-.84.37-1a20.53,20.53,0,0,1,1-2.4,36.47,36.47,0,0,1,10.64-12.68,54.19,54.19,0,0,1,9.78-6,77.73,77.73,0,0,1,12.37-4.6c8.92-2.61,19-4.16,29.25-7s19.54-7.4,26.07-13.85a33.69,33.69,0,0,0,7.35-10.56,32.2,32.2,0,0,0,2.42-11,33,33,0,0,0-3.36-15.89,58.44,58.44,0,0,0-3.1-5.19,7.72,7.72,0,0,1,1,1.19,17.94,17.94,0,0,1,1.1,1.56,22.3,22.3,0,0,1,1.34,2.25,32.48,32.48,0,0,1,1.38,27.39,34.14,34.14,0,0,1-7.47,10.91c-6.66,6.66-16.17,11.29-26.47,14.18s-20.41,4.42-29.27,7a78.55,78.55,0,0,0-12.26,4.44,55.87,55.87,0,0,0-9.7,5.85,37.39,37.39,0,0,0-10.73,12.28C270.65,250.8,270.18,252.94,270.05,252.9Z" transform="translate(-0.02 -0.08)"/><path class="cls-2" d="M217.85,264.59a6.88,6.88,0,0,1,1.14.88c.72.59,1.76,1.51,3.16,2.6a110.88,110.88,0,0,0,12.28,8.68,94.21,94.21,0,0,0,9.12,4.91,78,78,0,0,0,11.14,4.08,47.22,47.22,0,0,0,12.92,1.69,16,16,0,0,0,1.7,0l1.71-.17c.57-.06,1.15-.09,1.72-.18l1.72-.32a40,40,0,0,0,6.8-2,42.76,42.76,0,0,0,20.53-16.93,41.72,41.72,0,0,0,6.22-21,43.76,43.76,0,0,0-2.13-14.75c-1.12-3.36-2.06-5.11-1.95-5.16a7.28,7.28,0,0,1,.7,1.25,31.93,31.93,0,0,1,1.64,3.78,41.93,41.93,0,0,1,2.49,14.9,43.11,43.11,0,0,1-1.4,10.39,40.06,40.06,0,0,1-4.73,11.09,43.42,43.42,0,0,1-21,17.4,41,41,0,0,1-7,2.06l-1.76.32c-.59.09-1.18.12-1.77.19l-1.76.17a16.84,16.84,0,0,1-1.74,0,47.66,47.66,0,0,1-13.19-1.78,75.63,75.63,0,0,1-11.26-4.23,94.19,94.19,0,0,1-9.15-5.07,98.56,98.56,0,0,1-12.15-9c-1.36-1.15-2.36-2.11-3-2.77A7.68,7.68,0,0,1,217.85,264.59Z" transform="translate(-0.02 -0.08)"/><path class="cls-2" d="M263.93,161.66a1,1,0,0,1,0-.31l.09-.9a16.17,16.17,0,0,1,.89-3.37,22.18,22.18,0,0,1,8-9.87,30.91,30.91,0,0,1,3.62-2.24,39.92,39.92,0,0,1,4.23-1.85,67.79,67.79,0,0,1,9.8-2.66c3.5-.73,7.2-1.32,11-2.2l2.85-.67,2.88-.78c1.94-.49,3.86-1.16,5.82-1.76a126.45,126.45,0,0,0,21.16-9.36A126.45,126.45,0,0,0,350,115.19c4.27-3.3,7.43-6.33,9.64-8.37l2.46-2.45.65-.63c.15-.14.23-.21.24-.2s-.06.09-.2.24l-.61.67-2.4,2.51a116.17,116.17,0,0,1-9.54,8.52,121.83,121.83,0,0,1-15.72,10.63,125,125,0,0,1-21.23,9.45c-2,.6-3.9,1.27-5.85,1.76l-2.89.78-2.87.66c-3.79.89-7.5,1.46-11,2.18-7,1.36-13.19,3.37-17.53,6.58a22.34,22.34,0,0,0-8,9.63A20.49,20.49,0,0,0,263.93,161.66Z" transform="translate(-0.02 -0.08)"/><path class="cls-2" d="M268.7,207.76a4,4,0,0,1,.69-.24l2-.61,7.33-2.14c6.2-1.8,14.81-4.12,24.19-7.08a196.16,196.16,0,0,0,23.52-8.95c2.91-1.38,5.23-2.57,6.82-3.42l1.83-1a3.16,3.16,0,0,1,.66-.31,3.68,3.68,0,0,1-.6.4l-1.79,1.07c-1.56.91-3.86,2.15-6.76,3.58a176.85,176.85,0,0,1-23.52,9.11c-9.4,3-18,5.24-24.25,6.95l-7.38,2-2,.51A3.45,3.45,0,0,1,268.7,207.76Z" transform="translate(-0.02 -0.08)"/><path class="cls-2" d="M229,238.78a5.09,5.09,0,0,1,.35.8c.2.52.51,1.3.91,2.3a85.88,85.88,0,0,0,3.84,8.22,52.16,52.16,0,0,0,7.8,10.9,35.58,35.58,0,0,0,13.52,9,26.14,26.14,0,0,0,16.07.89,22.87,22.87,0,0,0,11-7.22,19.47,19.47,0,0,0,4.05-8c.1-.52.19-1,.27-1.39s.07-.76.11-1a4.66,4.66,0,0,1,.11-.86,4.8,4.8,0,0,1,0,.87c0,.28,0,.64-.07,1.05s-.13.88-.22,1.42a19.17,19.17,0,0,1-4,8.17,23,23,0,0,1-11.17,7.45,26.47,26.47,0,0,1-16.39-.86,35.78,35.78,0,0,1-13.7-9.2,51.27,51.27,0,0,1-7.77-11.06,72.87,72.87,0,0,1-3.7-8.33c-.38-1-.65-1.8-.83-2.34A5,5,0,0,1,229,238.78Z" transform="translate(-0.02 -0.08)"/><path class="cls-3" d="M308.63,220c-.64-.53-1.42-.82-2.07-1.31a24.89,24.89,0,0,0-8.41-5.58c-2-.78-3.89-1-5.65.51C284.1,221,274,225.1,263.44,228.05c-7.5,2.09-15.17,3.43-22.85,4.78-2.11.37-5.05-.2-5.9,3,2.3,4,6,.9,9,1.7-.25.69-.75,1.1-1,1.68-.3,1.8-.26,3.69-1.42,5.25-3.5,3.59-7.67,3.64-12.08,2.2-4-1.32-7.76-3.4-11.59-5.19s-5-1.33-7.07,2.45c-.88,1.61-1.83,3.46-4.25,2-.86-1.51-1.28-3.63-3.85-2.85-3.47,4.3-5.5,4.09-7.82-.81-2-.85-4-.76-6.09-.82-1.94,1-1,2.81-.77,4.55a3.11,3.11,0,0,1-1.25-1.45c-1.85-4.06-2.66-4.43-6.88-2.9-3.17,1.15-6.2,2.63-9.31,3.91-4.05,1.66-8.15,3.15-12.66,2.12a9.61,9.61,0,0,1-4-7.5c-1.66-2.11-3.45-3.63-6.12-1.45,0,.19-.11.37-.17.55,3.45,8.13,4.49,16.83,6.08,25.41a52.18,52.18,0,0,0,2.87,10.1c1.41,3.46,3.33,6.88,6.94,8,5.85,1.83,7.54,7.45,12,10.87-2.05.89-4,.11-5.29,2l14.47.88c13.94.59,27.89.11,41.84.24.66,0,1.25-.12,1.19-1-2.21-.67-4.69.59-6.92-.79,1.16-1.18,2.11-2.61,2.3-2.74a3.42,3.42,0,0,0,.17-.92,6.6,6.6,0,0,1,2.71-4.68,14.52,14.52,0,0,1,6.94-2.91,17.91,17.91,0,0,1,4.45-.05,12.73,12.73,0,0,0,2.7.26,9.43,9.43,0,0,1,2.39-.07l2.12-1.09a16.6,16.6,0,0,0,4.16-2.95h0c0-2.3-.11-4.61.09-6.89.55-6.24,5.17-16.07,1.64-22-2.17-3.61-8.27-5.65-3.84-10.74,3.64-4.18,11.29-5,16.32-6.08a77.18,77.18,0,0,0,12.74-3.31c2.2-.89,4.14-2.06,6.24-3a.87.87,0,0,1,0-.22c.82-2.1,4.53-3.1,7-4.52,8.88-5.11,8.89-5.12,16.89,1.48,1.36,1.13,2.51,1.72,3.46-.37A4.11,4.11,0,0,0,308.63,220Z" transform="translate(-0.02 -0.08)"/><path class="cls-4" d="M127.42,223.67c-.17-.46.11-1,.09-1.46-.45-2.78-3.09-3.4-4.87-4.84s-3.77-2.73-4.4-5.34c-.83-3.42-2.37-4.15-5.81-3.3a33.19,33.19,0,0,0-6.91,2.88c-3.35,1.7-3.88,1.4-4.68-2.37A21.2,21.2,0,0,1,102,197.46c.77-2.14,1.69-4-.27-5.79s-3.94-1.09-5.92,0c-1.71.66-3.55,1-4.9,2.43-.53,2.6,1.45,2,2.8,2.18,2.45.29,2.45.27,1.71,2.74-1.74,5.87.12,11.61,1,18l-.09,0a.22.22,0,0,1,0,.08,1.76,1.76,0,0,1,.09.2,19.5,19.5,0,0,0,.88,3.54,8,8,0,0,0,.53.94c5.71-2,11.62-2.8,17.88-.43,4.12,1.56,7.76,4.05,11.72,5.93A3.8,3.8,0,0,0,127.42,223.67Z" transform="translate(-0.02 -0.08)"/><path class="cls-3" d="M270.17,100.2c-3-3.93-5.76-8.17-9.2-11.73A67.74,67.74,0,0,0,272.74,104C271.91,102.72,271.09,101.4,270.17,100.2Z" transform="translate(-0.02 -0.08)"/><path class="cls-3" d="M267.23,80.32a2.17,2.17,0,0,1-.61.76,23.47,23.47,0,0,1,10.58,2.83,10.49,10.49,0,0,1,4.24.74c-.14-1.26.52-1.93,2.39-3.33l-5-3.08a3.77,3.77,0,0,1-.39-.26,5.55,5.55,0,0,1-3.27-.48C263.83,72.71,251.81,71,239.66,70c-2.92-.23-3.58-1.24-2.33-3.75.79-2.53-.89-2.42-2.52-2.36-1.26.47-1.3,1.54-1.61,2.68-1,3.71-1.83,7.61-5.69,9.68a19,19,0,0,1-3.84,4.88c-.19.31-.37.64-.59.94-1.28,1.73-2.11,3.59-.14,5.26s3.9.56,5.54-1c1.45-1.36,2.84-2.76,4.27-4.14a3.33,3.33,0,0,0,.84-1.23c1.9-5.25,4-6.37,9.26-5.69,5.45.71,10.82,1.85,16.3,2.46C261.78,78.07,265.09,77.73,267.23,80.32Z" transform="translate(-0.02 -0.08)"/><path class="cls-3" d="M192.22,58a7.39,7.39,0,0,1-2.45,1.51c-7.63,6.15-16.8,8.12-26.15,9.65-8.65,1.42-17.47,2.27-25.17,7a2.39,2.39,0,0,1-2.24.25c-3.36,2.19-7.32,3.65-11,5.47-.08.16-.15.32-.24.49-.54,1.09-1.13,2.17-1.68,3.26A17.24,17.24,0,0,1,127,82.65a12.55,12.55,0,0,1,3.5-1.77,28.55,28.55,0,0,1,5.69-1.57,14.56,14.56,0,0,1,6.52.25,14.63,14.63,0,0,1,5.47,1c-.41-2.82.21-3.3,3.76-4.15,4.13-1,8.35-1.54,12.54-2.22,8.37-1.34,16.85-2.35,23.91-7.72,2.71-2.06,5.67-3.92,6.55-7.56C194.47,57.29,193.48,57.09,192.22,58Z" transform="translate(-0.02 -0.08)"/><path class="cls-5" d="M327.11,165c-1.91-2.72-2.19-5.33-1.92-8.43.68-7.75,1.41-15.51,1.12-23.3-.2-5.12-.56-10.26-2.27-15.11a17.06,17.06,0,0,1-2.56-1.89,10.88,10.88,0,0,0,.35,6c1.5,3.67,1.64,7.53,2.2,11.33.84,5.74-1.52,11.25-1.21,17,0,.19-.32.35-.5.51-2.44,1.1-3.77,3.48-5.59,5.26-1.37,1.34-1,3.29.44,4.74a38.69,38.69,0,0,1,3.54,4.84c1.69.8,3.53,1.43,4,3.59a21.83,21.83,0,0,1,2.82,6.56c.31,1.08.85,2.08-.61,2.71a7.66,7.66,0,0,1-1.41.43c-3.62,0-7.42-.38-9.14,4,.33,3.35,2.13,6.29,2.57,9.63.23,1.72.46,3-1.78,3.05-2.83-.33-5.49-1.65-8.43-1.43-3.34.25-4.77,2-4,5.21a17.84,17.84,0,0,1,.77,5.52c1.6,3.56,2.47,7.21,1.45,11.1-.13,1.57-.85,3.19.43,4.63a6.22,6.22,0,0,1,1.71,3.26c3.2-6.18,3.3-12.72,2.34-19.42-.21-1.52-1.63-3.49-.2-4.51,1.26-.9,3.05.52,4.55,1.1a10.57,10.57,0,0,1,1.33.71c4.58,2.66,5.52,2.24,6-3.13A34.52,34.52,0,0,0,323,191a85.93,85.93,0,0,0-2.16-8.7,33.22,33.22,0,0,1,9.36,3.82c1,.58,1.88,1.48,3.05.62.94-.7.65-1.82.56-2.8A37.8,37.8,0,0,0,327.11,165Z" transform="translate(-0.02 -0.08)"/><path class="cls-6" d="M90.82,106.73c-1,1-2,2-2.95,3a32.24,32.24,0,0,1-2.27,4.36,13.31,13.31,0,0,1-1.51,3.52,9.88,9.88,0,0,1-.34,1.88c.3,1-.69,2.53,1,2.65,1.39.1,1.47-1.53,1.68-2.55.76-3.87,3.28-6.87,5-10.28A19,19,0,0,0,90.82,106.73Z" transform="translate(-0.02 -0.08)"/><path class="cls-7" d="M194.23,54.83a55.89,55.89,0,0,0,4.09-5.19c1.86-2.69,3.13-2.48,4.46.46a24.52,24.52,0,0,1,2.09,12.09c-.16,2.08.43,2.64,2.54,2.08a44.18,44.18,0,0,0,13.08-6.34c2.06-.24,3-2,4.33-3.19,1.12-1,2.17-1.8,3.21.07a30.5,30.5,0,0,1-.48,3.28,3.57,3.57,0,0,1-1.34,1.81,7,7,0,0,0-2.88,1.45c-4.38,4.86-10.12,7-16.23,8.59a3.38,3.38,0,0,0-2.41,1.67c-1.71,3.8-5.16,6.26-7.26,9.76a9.55,9.55,0,0,1-2.65,1.33,3.16,3.16,0,0,1-3.89-1.34,2.84,2.84,0,0,1,.21-3.77c1.65-1.71,2.63-3.89,4.26-5.59,4.85-2.51,6.86-10.23,3.92-15.18-1.21-1.66-2.42.44-3.62,0C194.66,56.54,193.86,56.1,194.23,54.83Z" transform="translate(-0.02 -0.08)"/><path class="cls-8" d="M100.32,121.18a16.5,16.5,0,0,1-1.69-2.9c-1.67-2.37-4.51-3.68-5.74-6.43-.74-.95-1.21-2.19-2.57-2.52-3.27,3.11-4.37,7.32-5.68,11.65l-.89-1.47a5.41,5.41,0,0,1-.49,1.2A3.81,3.81,0,0,1,83,121a15,15,0,0,0-.47,2.09c-1.68,12-.34,23.89.82,35.8-.22.34-.05.94.12.87,2.11-.79,4.25.11,6.35-.21,4.35-3.56,4.32-4.63-.35-7.81a4.13,4.13,0,0,1-1.83-3.48c-.09-1.87-.42-3.73-.51-5.58-.41-7.83-1-15.69,1.37-23.38,1.27-1.54,2.19-1.18,3,.48.61,1.22.33,2.73,1.37,3.78a18.85,18.85,0,0,0,2.65,2,3.23,3.23,0,0,0,4.43-.11C101.39,124.26,101.41,122.72,100.32,121.18Z" transform="translate(-0.02 -0.08)"/><path class="cls-9" d="M227.52,54.93c-1.74-.64-2.46.83-3.43,1.7s-2,2-3.6,1.3a43.45,43.45,0,0,0,9.87-12.21c.52-1,1.09-2,2.44-2s1.82,1.2,2.26,2.2c2.91,6.55,4.26,13.29,2.27,20.39-.47-1.18-1.68-1.12-2.59-1.57-1.59-3.13-.41-6.76-1.78-9.92-.64-1.51-1.55-1.64-2.74-.56C229.45,54.92,228.75,56,227.52,54.93Z" transform="translate(-0.02 -0.08)"/><path class="cls-10" d="M87.21,178.81a28.61,28.61,0,0,0-8.66,3.2c-3,1.6-3.59,1.11-3.5-2.6,1.42-1.69.81-3.89,1.44-5.81s1.42-2.76,3.31-1.41c.24.43.43.89.68,1.31a3.32,3.32,0,0,0,1.43,1.14A7.65,7.65,0,0,0,90.26,171a3.63,3.63,0,0,1,1.24-1.37,3.29,3.29,0,0,1,4.38.72c1.18,1.3.88,2.72.14,4.15s-1.08,2.78-1.86,4.06a8.61,8.61,0,0,1-3.34,2.57C88.78,181.65,88.34,179.68,87.21,178.81Z" transform="translate(-0.02 -0.08)"/><path class="cls-11" d="M87.21,178.81c1.51-.5,2.09,1.08,3.21,1.45,1.55,1.14.51,2.44.2,3.67a31.14,31.14,0,0,0-1.41,6.54c0,1.31-.06,2.56,1.36,3.23a2,2,0,0,1,.48,1,6.1,6.1,0,0,0,3.52.75c1.86.07,2.33,1.7,2.34,3.21,0,1.31-.85.79-1.5.37.26-2.65-1.15-2.46-3-1.88-8,2.5-7.94,2.48-7.58-6.17C85,186.74,86.68,182.9,87.21,178.81Z" transform="translate(-0.02 -0.08)"/><path class="cls-12" d="M79,172.7c-1.47-.47-1.39.59-1.78,1.54-.7,1.72-.08,4-2.14,5.17.14-7.9,4-14.28,8.32-20.49,1.56-.47.39-2.06,1.47-3.13-.32,3.57,2.25,2.05,3.77,2.48,1.94,3.1-1.29,4.44-2.22,6.57-2.12,1.24-3.24,3.27-4.37,5.35C81.38,171.36,81,173.16,79,172.7Z" transform="translate(-0.02 -0.08)"/><path class="cls-10" d="M144.65,233.69c-1.17,0-2.34-.07-3.51-.14,1.45.82,2.9,1.67,4.38,2.56,1.18.71,1.51,1.38,1.31,2a1.75,1.75,0,0,1,.16.77,3.41,3.41,0,0,1,.41.36l.3-.33C148.62,235.4,147.82,233.74,144.65,233.69Z" transform="translate(-0.02 -0.08)"/><path class="cls-13" d="M184.42,296.44c10.48,0,21,0,31.46-.12,3.86,0,7.75.19,11.57-.64.56-.05,1.15.19.58.7a3.48,3.48,0,0,1-2.09.55C212.09,297.35,198.25,297.56,184.42,296.44Z" transform="translate(-0.02 -0.08)"/><path class="cls-14" d="M194.23,54.83l2.44,1c1.17,2.15,0,2.94-1.92,3.25l-.52-.33c-1.69-.92-2.74,1.82-4.46.8Z" transform="translate(-0.02 -0.08)"/><path class="cls-15" d="M327.76,176.55c-.66-2-1.4-3.91-2.05-5.89A15.86,15.86,0,0,0,321.8,165a7.26,7.26,0,0,0-2.76-4.65c-.86-.7-1.68-1.56-1.12-2.85.46-1.06,1.31-.87,2.2-.66,1.52.37,1.59-.76,1.67-1.76a7.7,7.7,0,0,1,.75-3.57,2,2,0,0,0,.67-1.31c.14-7.67,1.94-15.34.06-23-1-3-3.35-3.11-5.79-2.47a8.49,8.49,0,0,1-3.27.62c-2.6.58-1-1.28-1.24-2.08.16-2.29,1.65-4,2.68-5.86.55-1,.94-2.14,1.44-3.2.28-.6.55-1.2.82-1.8-2.37-3-4.45-6.45-6.69-9.22a80.87,80.87,0,0,0-16.36-14.64A78.55,78.55,0,0,1,289,98a1.49,1.49,0,0,1-.82,1.09c-1,1.3-2.06,2.58-3.18,3.82-.51.56-1,1.12-1.51,1.73a15.41,15.41,0,0,0,3,3c1.94,1.39-.51,3-1.79,3.42a8.07,8.07,0,0,1-6.84-.9c-3.42-2.45-5.21-6.68-7.71-10-3.22-4.24-6.2-8.83-10-12.55a8.25,8.25,0,0,1-1.16-1c-1.54-1.61.17-3,1.8-3.42l.47-.11c.48-1.29,3.08-2.19,4.77-2.1a35.26,35.26,0,0,1,4.58.51l.62-.14c0-1.52-1.21-1.35-2.09-1.56a100.52,100.52,0,0,0-19-3.11c-6.52-.3-13.3-.89-18.82,4-1.25,1.35-2.43,2.76-3.75,4-1,1-2.24,2.64-3.69,1.34s.83-2.16,1.14-3.34c.09-.35.2-.7.31-1,1.23-4.07,2.67-8,5.88-11a2.39,2.39,0,0,0,.36-1.09c-.25-3.83.75-7.57.84-11.38.06-2.1-.66-3.4-3-3.15a7.46,7.46,0,0,0-3.31,2.2c-.3.52-.6,1-.89,1.56a46.81,46.81,0,0,1-9.35,9.56c-6,4.55-13,7.49-19.25,11.57-.91.39-1.8.85-2.74,1.15a1.41,1.41,0,0,1-1.87-.75,1.35,1.35,0,0,1,.71-1.88c2.6-.73,2.75-3.25,3.95-5,3.42-5.6,5.15-11.57,4-18.17-1.4-1.2-2.33-.08-3,.85-.77,1.1-1.71,2-2.46,3.16-3.93,6.45-10.16,10-16.82,12.76-8.05,3.33-16.75,4-25.29,5.33-2.39.36-4.48,1-5.61,3a14.15,14.15,0,0,1,3.88,2,1.56,1.56,0,0,1,0,2.53,7.92,7.92,0,0,1-1.09.84l.36.25c1.36,1,.55,2.08-.5,2.78-.11,13.13-14,21.27-24.79,25.44-2,.79-5.09,1.27-7.07,0-1.49-.95-2.08-2.73,0-3.53s4.31-1.77,6.51-2.89c-2.1.13-4.9-.23-5.41-1.83a18.39,18.39,0,0,1-.57-9.93,2.43,2.43,0,0,1,0-.27,24.52,24.52,0,0,1,.63-2.89c-1.11-2-2.2-4.1-3.24-6.18a106,106,0,0,0-9.38,5.36c-5.17,3.42-9.09,8.11-13.62,12.27-.87.8-1.7,1.64-2.53,2.49.29,1.08.59,2.15.9,3.23,1.71,2.91,4.15,5.43,4.76,8.92.18.32.38.63.53,1,.66,1.5,3.82,2.45,1.93,4.32-1.72,1.7-3-1.07-4.54-1.86a2,2,0,0,1-.26-.25c-.87-1.47-2.37-2.36-3.34-3.78-.74-1.07-2-1.86-3.43-.75A33.47,33.47,0,0,0,85,129.34c-.28,7.4.63,14.74.77,22.12,0,2.35.28,4.17,3.35,2.71a1.53,1.53,0,0,1,2,.41c.6,1-.14,1.62-.81,2.22s-1.13,1-1.7,1.47l-3.6,5.2c-2.4,3.31-3.44,7.38-6,10.61-.09,1.29,0,2.51,1.43,3.08,3.59-2.36,8.09-3,11.34-6,1-.41,2.18-1,3,.2.6.84-.12,1.62-.49,2.4-.64,1.34-1.19,2.72-1.79,4.09-1.94,4.66-3.36,9.43-3.23,14.55.56,1.37,1.57,1.11,2.74.94,1.38-.2,2.7-1.19,4.18-.44a16.65,16.65,0,0,1,3.34-.36c1.35.12,2.14,1.1,1.43,2.39-3.24,5.88-2.58,12-1.48,18.24.7,3.91,1.31,4.18,4.41,1.83a26.86,26.86,0,0,1,9.39-4.59c1.34-.36,3.4-.55,2.74,1.56-.82,2.61.75,3.39,2.22,4.48,2.72,2,5.47,4,8.21,5.95.67,2.27,2.5,3.36,4.43,4.32,6,3,12.48,5.22,18.23,8.63,7.63,4.54,14.71,4.54,22.45.58,3.25-1.65,6.21-3.07,8.41-6.22,4-5.74,9.81-6.93,16-3.7,1.5.79,2.7,1,4.16,0,4.71-3.19,9-3.15,12.7,1.13,4.56,5.32,10.45,8,16.65,10.5,2.48,1,4.23.61,5.59-1.65a26.71,26.71,0,0,1,2.88-.79,249.34,249.34,0,0,0,28.76-6,86.07,86.07,0,0,0,24.72-11.8c4.91-3.36,4.78-3.74,9.9-.52,1.59,1,3,2.22,4.55,3.33,2.24-1.56,1.19-4.15,1.95-6.17,1-3.05.05-6-.34-9a12,12,0,0,0-.72-5.11c-1.25-3,.24-4.09,2.93-3.67s5.52,1.37,8.28,2.09c2-1.64,1.08-3.85,1-5.8-.23-3.46-1.8-6.67-2.24-10.13,1-1.56-.8-3.13,0-4.7,3.31-1.09,5.63,1.36,8.36,2.39l.49.13,1.61-.05C328.54,179.14,328.21,177.89,327.76,176.55Z" transform="translate(-0.02 -0.08)"/><path class="cls-16" d="M219.16,277.51A198.89,198.89,0,0,1,168,257.84c-1-1.94.34-2.58,1.73-3.34,3.18-1.73,6.52-.92,9.83-.77a6.77,6.77,0,0,0,3.28-.24,117.87,117.87,0,0,1,13.55.65c7,.49,13.82-.77,20.68-1.45,8-.78,15.31,1.84,22.92,3,2.08.32,3.38,2.05,3.47,4.36.08,2.05-.38,3.75-2.71,4.26a9.18,9.18,0,0,1-1.15.28c-2.72-.09-5.09-1.65-7.41-1.76,1.29.52,3.17.4,4.77,1.31a12,12,0,0,0,2.57.5c2.1,0,2.92,1.09,2.8,3.07a32.54,32.54,0,0,1-.55,5.2c-1.43,6.1-4.45,7.94-10.6,6.85C227.15,279,223.15,278.32,219.16,277.51Z" transform="translate(-0.02 -0.08)"/><path class="cls-17" d="M248.25,235.14c-.93-.89-2.1-.53-3.19-.3a36.11,36.11,0,0,1-10,1.16c-2.91.47-5.49-.25-8.33-1.25-5.33-1.87-9.22-5.32-13.1-9.12-4.17-4.1-9.14-4.48-14-1.4a2.92,2.92,0,0,1-3.1.24c-8-3.39-12.81-2.27-18.08,4.58a13.09,13.09,0,0,1-6.84,4.92,60.44,60.44,0,0,0-7.71,3,7.23,7.23,0,0,1-6.44-.09c-10.47-4.57-20.93-9.14-31-14.5a21.3,21.3,0,0,1-1.06,3.81,38.39,38.39,0,0,0,4.93,2.24,78.34,78.34,0,0,1,13.85,6.87,4.33,4.33,0,0,1,3.49,3.55l5.18,1.62c.17,1.85,1.6,2.17,3,2.65s3.17,0,4.69.52c4.27-1,8.09-3.23,12.28-4.47,4-1.18,7.49-3,9.69-7.06,1.4-2.54,3.83-4.52,7.51-3.42-.5,1.38-1.59,1.89-2.29,2.73-2.89,3.51-2.6,8.86.58,10.58l6,1.49c2.75,2.29,5.1,2.31,8.22,0,1.68.3,1,2.43,2.36,3,1.7.7,2.9,0,3.79-1.42,2.85-4.69,4-10.31-1.32-14.84-.62-.52-1.54-.93-1.44-2.24a4.78,4.78,0,0,1,4.86,1.94c5.14,6.56,12.7,9,19.93,12,1.56.66,3,1.95,4.89,1.5a8.23,8.23,0,0,1,3.87-1.25c1.82-.13,3.24-.65,3.86-2.5.47-.11,1-.45,1.39-.29,3.06,1.36,1.27-2.71,3.15-2.79C248.39,236.65,248.81,235.68,248.25,235.14Z" transform="translate(-0.02 -0.08)"/><path class="cls-15" d="M224.58,284.27a58.28,58.28,0,0,1-3.57,5.29c-3.31,3.94-7,3.53-8.83-1.32-1-2.72-2.45-3.26-5-3.3-6.76-.1-13.51-.46-20.27-.62-1.9,0-4-.1-3,3.07.59,1.95-1.19,2.87-2.49,3.77a3.13,3.13,0,0,1-3.87-.18,13.11,13.11,0,0,1-2.46-2.3,40.09,40.09,0,0,0-10.93-9.42c-6.34-3.93-6.64-11-7.52-17.63,1.19-1.65,2.62-.89,4-.41,3.59,1.22,6.61,3.57,10.07,5,16.89,7,33.84,13.84,52.19,16.13C224.14,282.51,225.35,282.49,224.58,284.27Z" transform="translate(-0.02 -0.08)"/><path class="cls-15" d="M204.93,246.56c6.37-6,5.78-12.12-1.59-16.3-1-.57-2.11-1.09-1.85-2.49s1.4-2,2.71-2.23c2.53-.41,5.17.18,6.62,2,6.29,8,15.87,10.19,24.26,14.48,1.26.81,2.73.45,4,.51,1.9.1,3,.77,3.48,2.51-2.79,4-6.73,5-11.26,4.1-5.24-1.06-9.82-3.76-14.56-6.06-2.15-1-4.06-1.78-4.26,2-.1,1.94-6,5-7.68,4.23C203,248.42,204.77,247.48,204.93,246.56Z" transform="translate(-0.02 -0.08)"/><path class="cls-15" d="M161.17,242c4-2.69,8.75-3.72,13.2-5.39a11.41,11.41,0,0,0,6.19-5.08c2.69-4.52,6.69-6.19,11.48-5.29,1.13.21,2.37.42,2.62,1.75s-.83,1.68-1.69,2.22c-5.57,3.54-6.28,5.39-4.6,11.78.48,2.15,2,3.7,3.11,5.52.91,1.55.29,2.18-1.27,1.86-2.63-.55-5.37-1.42-5.78-4.49-.37-2.76-1.57-2.68-3.54-1.87-4.74,2-9.39,4.18-14.27,5.7-3.16,1-6.66,2.7-10,.08-1.58-2.83-.3-4.55,2.26-5.71A13.68,13.68,0,0,0,161.17,242Z" transform="translate(-0.02 -0.08)"/><path class="cls-18" d="M239.46,263.79c1.53-.84,2.66-1.88,2.21-3.87s-1.83-2.37-3.52-2.83c-10.79-2.91-21.67-3-32.69-1.67a54.76,54.76,0,0,1-10.86-.08c-3.24-.25-6.42-1.12-9.5.72a2.49,2.49,0,0,1-2.8-.48c-1.62-2-4-1.72-6.2-2.05-1.51-.63-3-1.29-2.2-3.4,3.31-2.58,6.47-3.8,10-.13,2.15,2.2,5.22,2.93,8.33,2.88,4.88-.06,9.76.27,14.62-.66a14.13,14.13,0,0,0,7.4-3.4c1.77-1.7,3.26-1.58,5.32-.61,7,3.28,14.06,6.25,21.93,2.56.65-.31,1.68.21,2.53.34,3.73.3,5,1.44,4.65,5-.31,3.28-.94,6.6-3.86,8.82C242.91,265.29,240.86,266.05,239.46,263.79Z" transform="translate(-0.02 -0.08)"/><path class="cls-14" d="M224.58,284.27a2.64,2.64,0,0,0-2.09-1.42c-22.62-2.13-43.41-10-63.39-20.33a18.58,18.58,0,0,0-2.47-.89,16.63,16.63,0,0,1-1.16-7.11c2.54,1.59,4.57,3,6.73,4.19,18.58,10.13,37.94,18.25,58.69,22.86C222.23,281.87,225.29,280.8,224.58,284.27Z" transform="translate(-0.02 -0.08)"/><path class="cls-11" d="M244.1,263.89c1.18-1.18,1.51-2.79,2.18-4.22,1.61-3.45,1.4-6.44-2.2-8.56l1.58-2.33c4.75,2.38,6.16,4.76,4.42,9.62A37,37,0,0,0,247.94,273c.28,5.75-2,8.4-6.83,9.69a2.42,2.42,0,0,1-1.75-2.39c-.14-.48-.26-1.07.09-1.41,3.29-3.11,4-6.9,3.17-11.18A3.9,3.9,0,0,1,244.1,263.89Z" transform="translate(-0.02 -0.08)"/><path class="cls-19" d="M244.1,263.89c.24,2.47.49,4.95.71,7.43.39,4.33-1.06,7.57-5.45,9-6.88.13-13.68-.35-20.2-2.83,4.19-.13,8.14,1.35,12.26,1.75,4.34.42,6.64-.82,8-4.89a22.24,22.24,0,0,0,.63-2.56c1.12-5.65,1.11-5.65-4.24-7,.76-1.36,2.09-.74,3.19-.94l.47-.08C241,264.65,242.55,264,244.1,263.89Z" transform="translate(-0.02 -0.08)"/><path class="cls-19" d="M173.9,250.13l3,2.28c.72,1.12,3.19.2,2.9,2.49-4.22-.05-8.48-.29-11.88,2.94a21.81,21.81,0,0,1-7.16-4.59C165.8,252.84,169.65,250.81,173.9,250.13Z" transform="translate(-0.02 -0.08)"/><path class="cls-20" d="M161.17,242c-1.49,2.28-4.1,3.81-4.55,6.79-2.22-1.3-3.24-3.55-4.44-5.65-.65-1.13-.64-2.07.7-2.68C155.61,241.15,158.3,242.11,161.17,242Z" transform="translate(-0.02 -0.08)"/><path class="cls-21" d="M194.35,243.52l8.22,0c.06,3-2.38,4.57-4.37,5.3s-3-2.06-4.24-3.47C193.36,244.72,193.64,244,194.35,243.52Z" transform="translate(-0.02 -0.08)"/><path class="cls-14" d="M242.6,245.05c-2.58-.81-5.33-1.22-7.52-3l8.29-2.29C246,241.93,243.52,243.38,242.6,245.05Z" transform="translate(-0.02 -0.08)"/><path class="cls-22" d="M196.59,294.16a51.65,51.65,0,0,1,10.83.56c-6.8.06-13.58,1.45-21.24.54C190.15,294.26,193.51,295.53,196.59,294.16Z" transform="translate(-0.02 -0.08)"/><path class="cls-23" d="M201.67,251.63H191.54v-.35h10.13Z" transform="translate(-0.02 -0.08)"/><path class="cls-24" d="M305.89,220.2l1.47-6.25c1,.57.13,1.75.82,2.41-.27,1.5-.55,3-.82,4.5Z" transform="translate(-0.02 -0.08)"/><path class="cls-24" d="M90.3,193c4.31-1.36,4.4-1.36,5.93-.09l-5.18,1.74-.82-.17A1,1,0,0,1,90.3,193Z" transform="translate(-0.02 -0.08)"/><path class="cls-15" d="M281.88,80.11c-.26.15-.53.31-.8.45-2.07,1.11-3,2-2.79,3.39a7,7,0,0,1,4,1.22,6.4,6.4,0,0,1,1.31,1.68,10.33,10.33,0,0,1,4.64,5c.49,1.36-.42,2.19-1.71,2.66a23.76,23.76,0,0,1,2.22,2.62c1.81,2.5-6,3.83-8.92,2a46.78,46.78,0,0,0,4.89,6.86c.36-.44.76-.9,1.19-1.36a75.17,75.17,0,0,0,10.59-15C291.73,86.22,286.74,83.1,281.88,80.11Z" transform="translate(-0.02 -0.08)"/><path class="cls-15" d="M283.16,111.38l2.27,1.68,1.45-.47a10.6,10.6,0,0,1-2.32-1.49A9.13,9.13,0,0,1,283.16,111.38Z" transform="translate(-0.02 -0.08)"/><path class="cls-24" d="M271.22,81.41c-13.26-2.56-26.52-4.63-39.88-.7,2.58-7.22,7.29-8.94,14.7-7,8.08,2.13,16.55,2.74,24.49,5.58C272.53,80,272.52,80.07,271.22,81.41Z" transform="translate(-0.02 -0.08)"/><path class="cls-24" d="M234.24,53.62a28.39,28.39,0,0,1,.5,11.09c-1,4.8-1.62,9.76-6.47,12.56-1.09-3,.82-5,2.38-7.09h0c.45-3,.83-5.9,1.51-8.81.48-1.7.17-3.44.32-5.15C232.57,55.05,232.35,53.6,234.24,53.62Z" transform="translate(-0.02 -0.08)"/><path class="cls-15" d="M230.65,70.18c0,2.64-2.43,4.44-2.38,7.09a7.89,7.89,0,0,1-2.92,4.42C224.68,77.7,227.26,72.07,230.65,70.18Z" transform="translate(-0.02 -0.08)"/><path class="cls-15" d="M127,82.62l.1-.07c.39-.62.79-1.24,1.21-1.84.07-.09.11-.18.17-.27-1.62.74-3.24,1.48-4.76,2.32-3,1.69-6.15,3.25-9.23,4.88,1.36,2.75,2.83,5.45,4.36,8.1C119.78,89.65,122.68,85.37,127,82.62Z" transform="translate(-0.02 -0.08)"/><path class="cls-24" d="M195.72,59.46a2.59,2.59,0,0,0-1.26-.6l-.22-.12a25.6,25.6,0,0,1-8,7.24c-6.91,4.07-14.6,5.11-22.26,6.4-6.17,1.05-12.45,1.58-18.3,4.09-.9.38-2.18.57-2.41,1.6-.3,1.33,1,1.33,1.86,1.69a14.29,14.29,0,0,1,3.53,1,12.06,12.06,0,0,1,4.2-1.5c4.94-.85,9.88-1.67,14.84-2.34a42.63,42.63,0,0,0,26.68-14C195.26,62,196.72,61.17,195.72,59.46Z" transform="translate(-0.02 -0.08)"/><path class="cls-7" d="M322.57,117.17a25.24,25.24,0,0,1-4.36-4.4,6.13,6.13,0,0,0-1.1,1.55c-.86,1.4-1.3,3.05-2.53,4.24a12.72,12.72,0,0,1-3.33,4.42c-.2.71-.41,1.41-.58,2.12-.37,1.55-3.38,2.67-1.61,4.29s2.86-1.44,4.46-2c.81-.54,1.69-1,2.47-1.55,3.43-2.56,3.44-2.56,6.57.8l0,24.83c.27,1.4-.5,3,.81,4.36,1.38-.79,1.39-2,1.16-3.24a24.28,24.28,0,0,1,.66-10.73,25.78,25.78,0,0,0-.08-11.94C324.18,125.71,322.93,121.53,322.57,117.17Z" transform="translate(-0.02 -0.08)"/><path class="cls-25" d="M315,181.74c.21-1.5-.57-2.58-1.41-3.72-1.26-1.71-.62-2.76,1.4-3.09,3,2.9,7.66,2.29,10.58,5.25l0,0c.86,1.1.4,2.47-.69,1.57-3.36-2.76-5.21-.07-7.48,1.43C316.3,183.23,315.74,182.36,315,181.74Z" transform="translate(-0.02 -0.08)"/><path class="cls-24" d="M315,181.74c1.17-.12,1.78.66,2.38,1.47,1.61,4.17,3,8.42,2.73,12.95-.05,1,.56,3.47-2.15,2.16C318.61,192.5,317.14,187.06,315,181.74Z" transform="translate(-0.02 -0.08)"/><path class="cls-24" d="M327.19,180.16c-.06-3.39-1.81-6.34-2.52-9.57-.24-.92-.42-1.79,1-1.76a31.67,31.67,0,0,1,4.08,10.3c.2.79.76,1.84-.21,2.33C328.4,182.05,327.86,180.84,327.19,180.16Z" transform="translate(-0.02 -0.08)"/><path class="cls-24" d="M308.18,216.36l-.82-2.4c.05-3,.09-6,.14-9C309.72,208.68,308.76,212.53,308.18,216.36Z" transform="translate(-0.02 -0.08)"/><path class="cls-24" d="M325.68,168.83l-1,1.76c-1-1.86-2.4-3.48-2.87-5.59C324.37,165,324.82,167.11,325.68,168.83Z" transform="translate(-0.02 -0.08)"/><path class="cls-24" d="M91.75,105.8c-.68.67-1.34,1.34-2,2l.57,1.5,1.58,3c2.41.54,1.87-.79,1.34-2.11A13.16,13.16,0,0,1,91.75,105.8Z" transform="translate(-0.02 -0.08)"/><path class="cls-24" d="M225.21,58.78c.46,3.11-1.8,5-3.56,6.74-7.05,7-15.15,12.28-25,14.39a38.69,38.69,0,0,0,6-9,4.36,4.36,0,0,1,3.24-2.85,32.29,32.29,0,0,0,16.65-8A10.64,10.64,0,0,1,225.21,58.78Z" transform="translate(-0.02 -0.08)"/><path class="cls-24" d="M196.66,73.43c-.8-.88-.12-1.67.25-2.38a33.21,33.21,0,0,0,3.31-15.95.53.53,0,0,1,.82,0C202.66,61.94,202.11,68.27,196.66,73.43Z" transform="translate(-0.02 -0.08)"/><path class="cls-24" d="M234.24,53.62c-1.38,2.62,0,5.65-1.28,8.29-1.67-1.21-.82-3-.85-4.45,0-2.63-1.21-2.6-3-1.64-1,.54-1.74,1.47-3,1.4a3,3,0,0,1,1.42-2.29c2.14-1.38,2.86-4,4.91-5.62A5.79,5.79,0,0,1,234.24,53.62Z" transform="translate(-0.02 -0.08)"/><path class="cls-24" d="M201,55.09h-.82l-4.5,4.36-1.26-.6a5.34,5.34,0,0,0,2.21-3c.7-.65,1.41-1.31,2.12-2C200.67,52.18,201,53.47,201,55.09Z" transform="translate(-0.02 -0.08)"/><path class="cls-24" d="M94,122.16c-2.69-.87-4-3.81-6.77-4.53,1.16-2.64,2.42-3.48,4.08-.32C92.2,118.94,93.59,120.29,94,122.16Z" transform="translate(-0.02 -0.08)"/><path class="cls-24" d="M91.94,112.28a2.08,2.08,0,0,0,1.37-2.08c1.59,2.74,3.45,5.39,3,8.83Z" transform="translate(-0.02 -0.08)"/><path class="cls-24" d="M317,111.15c-.84,2.15-1.75,4.3-2.74,6.43-.5,1-.4,1.71.95,1.69l3.67-5.72C318.2,112.78,317.58,112,317,111.15Z" transform="translate(-0.02 -0.08)"/><path class="cls-24" d="M90.3,193c0,.49,0,1-.07,1.48-2.49,1-2.37-.7-2.35-2.27.06-4.15,1.5-8,2.54-12,.63-.87.88-2.08,2.12-2.4C92.12,183,90.26,187.84,90.3,193Z" transform="translate(-0.02 -0.08)"/><path class="cls-14" d="M80.45,177.16c3-3.44,7-5.09,11.34-6C89.56,176.11,84.66,176,80.45,177.16Z" transform="translate(-0.02 -0.08)"/><path class="cls-24" d="M85,163.47c-1.47,3.83-2.32,8-6,10.61l0-1.38C81.46,169.93,81.48,165.55,85,163.47Z" transform="translate(-0.02 -0.08)"/><path class="cls-26" d="M240.41,145.58c8.6.77,13.08,5.85,11.32,12.83a10.38,10.38,0,0,1-13,7.77c-5.75-1.53-8.81-7.23-7.1-13.35a19.7,19.7,0,0,1,1.2-2.76c2.83-.51,3.39,1.73,4.31,3.53,1,1.54,2.35,2.63,4,1.22,1.79-1.57.77-3.1-.8-4.3C237,147.93,237,147.53,240.41,145.58Z" transform="translate(-0.02 -0.08)"/><path class="cls-27" d="M161.21,160.61c-2.11,4.82-5.73,6.69-11.57,6-4-.49-7.79-4.4-8.55-8.85-.72-4.16,1.89-8.45,6.5-10.71,2.28.28,5.4-.81,5.38,3.26-.68,1.62-2.05,1.91-3.64,2a2.55,2.55,0,0,0-2.69,2.57,1.93,1.93,0,0,0,2.15,2.08c1.66,0,2.42-1.18,2.58-2.68.12-1.13.12-2.25,1.11-3,2-1.56,4-.72,4.44,1.23C157.63,155.68,160.13,157.74,161.21,160.61Z" transform="translate(-0.02 -0.08)"/><path class="cls-28" d="M161.21,160.61c-2.28-1.72-6.51-1.57-5.59-6.34.32-1.7-1.22-2.59-3-2.63A.72.72,0,0,1,152,151c.09-3.07-2.77-2.87-4.44-4,4.32-1.44,8.49-1.42,11.77,2.17C162.38,152.5,163.38,156.36,161.21,160.61Z" transform="translate(-0.02 -0.08)"/><path class="cls-20" d="M313.52,127.43c1.7-2.3,3.39-4.61,5.11-6.89.43-.57.78-1.42,1.68-1.19.72.18.63,1,.77,1.55.49,1.93,1,3.86,1.48,5.78C319.37,124.85,316.53,127.12,313.52,127.43Z" transform="translate(-0.02 -0.08)"/><path class="cls-15" d="M229.08,55.82l3-4.11.83.19v10c-.56,2.81-.76,5.73-2.32,8.27-.76-3.25.14-6.4.5-9.59C231.36,58.67,232,56.44,229.08,55.82Z" transform="translate(-0.02 -0.08)"/><path class="cls-9" d="M150.11,114.6c7.37-2.95,13.55-2.77,19.5,1-3.06-.42-6.07-1.27-9.23-1.07S154.18,114.6,150.11,114.6Z" transform="translate(-0.02 -0.08)"/><path class="cls-29" d="M189.49,199.55c9.48,2.93,10.66,2,16.79-.35C203.4,204.51,195.58,204.94,189.49,199.55Z" transform="translate(-0.02 -0.08)"/><path class="cls-30" d="M257.07,115.46c-5.19.58-10.39.69-15.51,1.76C246.43,113.76,251.76,114.52,257.07,115.46Z" transform="translate(-0.02 -0.08)"/><path class="cls-9" d="M240.41,145.58c-1.94,2.18.47,2.22,1.46,3a41,41,0,0,0-6.78,6.78c-1.35-1.49-.28-4-2.26-5.25A9.51,9.51,0,0,1,240.41,145.58Z" transform="translate(-0.02 -0.08)"/><path class="cls-14" d="M325.6,180.18c-3.63-1.53-8.21-1.16-10.58-5.25C318.74,176.3,323.24,176.1,325.6,180.18Z" transform="translate(-0.02 -0.08)"/><path class="cls-24" d="M314.23,117.58l.95,1.69c-.77,1.81-1.53,3.63-3.93,3.71C311.66,120.86,313,119.26,314.23,117.58Z" transform="translate(-0.02 -0.08)"/><path class="cls-31" d="M239,263.87c-.79,1.24-2.15.56-3.19.94l-10.19-3,.24-1C230.25,261.74,234.85,261.62,239,263.87Z" transform="translate(-0.02 -0.08)"/><path class="cls-32" d="M220.25,271.16a25.36,25.36,0,0,1-13.05-3.35C212.53,267.26,216.38,269.23,220.25,271.16Z" transform="translate(-0.02 -0.08)"/><path class="cls-33" d="M179.85,254.9c-.75-1.09-2.49-1-2.9-2.49,2.28-.43,4.06.86,5.84,1.9,1.27.73.17,1-.49,1.27C181.44,255.49,180.51,255.67,179.85,254.9Z" transform="translate(-0.02 -0.08)"/><path class="cls-34" d="M198,240.5c-1.38,0-2.77.08-4.15,0-3.09-.21-4.42-2.73-2.56-5.2a8.15,8.15,0,0,1,6.82-3.42,8.75,8.75,0,0,1,7,3.92c1.47,2.27.16,4.48-2.6,4.69C201.06,240.59,199.55,240.5,198,240.5Z" transform="translate(-0.02 -0.08)"/><path class="cls-35" d="M235.09,155.32c-.42-5.47,1.38-7.27,6.78-6.78,1.58,1.59,3.19,3.08,2.53,5.77C243.6,157.58,238.6,160.13,235.09,155.32Z" transform="translate(-0.02 -0.08)"/><path class="cls-36" d="M246.59,161.12c-.08,1.29-.72,2.18-2,2.15a1.93,1.93,0,0,1-2-2.22,1.83,1.83,0,0,1,1.83-1.94A1.93,1.93,0,0,1,246.59,161.12Z" transform="translate(-0.02 -0.08)"/><path class="cls-37" d="M152,151l.62.62c1.42,2.75,1.49,5.28-1.31,7.24a4.14,4.14,0,0,1-5.49-.32c-1.93-1.64-2.67-3.64-1.25-5.95C146.48,149.54,149.11,149.48,152,151Z" transform="translate(-0.02 -0.08)"/><path class="cls-19" d="M155.51,159.52a2.05,2.05,0,0,1,2.16,2.09,2,2,0,0,1-2.1,2.13,1.92,1.92,0,0,1-2-1.87A2.1,2.1,0,0,1,155.51,159.52Z" transform="translate(-0.02 -0.08)"/><path class="cls-38" d="M274.79,79s32.07,8,46.29,39" transform="translate(-0.02 -0.08)"/><ellipse class="cls-39" cx="213.71" cy="24.24" rx="72.05" ry="9.74"/><path class="cls-15" d="M152.58,81s-14.16-8.22-31.08,4.13-7,30.11-7,30.11,10.3,3.51,11.12,3.76,16.32-9.44,16.83-9.7,12.6-17.2,12.6-18S152.58,81,152.58,81Z" transform="translate(-0.02 -0.08)"/><path class="cls-15" d="M258.38,80.8,256,86.44l22.28,34.37,15.17-11.48-6.06-22.89-8.11-4.23L279,82s-7.56-.67-8.68-.58a6.54,6.54,0,0,1-2.54-.52L261,80Z" transform="translate(-0.02 -0.08)"/><path class="cls-40" d="M88.49,110.56c-1-1.18,27.07-31,52.69-33.44" transform="translate(-0.02 -0.08)"/></g></g></svg>