<svg xmlns="http://www.w3.org/2000/svg" viewBox="0 0 312.19 227.31"><defs><style>.cls-1{fill:#a50202;}.cls-2{fill:#0c0c0c;}.cls-3{fill:#0a0a0a;}.cls-4{fill:#0d0d0d;}.cls-5{fill:#0f0f0f;}.cls-6{fill:#0e0e0e;}.cls-7{fill:#090909;}.cls-8{fill:#191919;}.cls-9{fill:#161616;}.cls-10{fill:#1a1a1a;}.cls-11{fill:#1b1b1b;}.cls-12{fill:#1e1e1e;}.cls-13{fill:#202020;}.cls-14{fill:#b9b9b9;}.cls-15{fill:#ce0000;}.cls-16{fill:#acacac;}.cls-17{fill:#a1a1a1;}.cls-18{fill:#929292;}.cls-19{fill:#bababa;}.cls-20{fill:#a5a5a5;}.cls-21{fill:#898989;}.cls-22{fill:#9b9b9b;}.cls-23{fill:#040404;}.cls-24{fill:#070707;}.cls-25{fill:#010101;}.cls-26{fill:#030303;}.cls-27{fill:#171717;}.cls-28{fill:#eee;}.cls-29{fill:#ececec;}.cls-30{fill:#fafafa;}.cls-31{fill:#eaeaea;}.cls-32{fill:#ebebeb;}</style></defs><g id="Capa_2" data-name="Capa 2"><g id="Capa_1-2" data-name="Capa 1"><path class="cls-1" d="M172.33,25.21l1.87-6.52c.6-.59.47-1.85,1.71-1.83,2,1,4.32,1.36,5.33,3.67a43,43,0,0,1-1.8,26.25,54.08,54.08,0,0,1-12.53,18.8,20.35,20.35,0,0,1-5.26,3.88,1.63,1.63,0,0,1-1.91-.38c-5.35-5-10.26-10.31-13.52-17-1.64-3.36-1.3-4.23,2.27-5.11,5.73-1.42,7.33-.76,10.67,4.15.81,1.2,1.24,2.55,1.74,3.39a17.3,17.3,0,0,0-4.69-6.86c-1.62-1.52-1.35-2.76.47-3.73a34.92,34.92,0,0,0,10.78-8.88c1.32-1.6,2.67-2,4.52-.75.8.57,1.78.92,2.63,1.47C170,33,170,33,172.2,27.89A3.11,3.11,0,0,0,172.33,25.21Z"/><path class="cls-2" d="M194.14,93.16a58.38,58.38,0,0,1-1.34,12.16,4.71,4.71,0,0,0,.79,3.88,28.2,28.2,0,0,1,4.77,14.89c0,.75.29,1.68-.66,2.1-.8.36-1.28-.32-1.82-.72a17.66,17.66,0,0,0-5.87-2.88c-1.72-.48-2.21,0-1.55,1.73A28.69,28.69,0,0,1,190,137.57c-.21,2.07-.83,2.77-2.76,1.28a9.91,9.91,0,0,0-5.63-2.39c1,5.46,1,10.76-1.29,15.86-1.66,3.73-1.83,3.79-4.63,1l-.64-.63c-3.82-3.55-4.27-3.56-8.57-.75-2.75,1.79-5.53,3.57-8.42,5.13-1.48.8-1.6,1.5-1.08,3,2.9,8.51,8.83,14.45,15.8,19.75,6.66,5.07,10.85,11.74,10.51,20.45-.41,10.25-8.38,18.51-20,20.72-10.31,2-20.43.68-30.41-2.25a3.74,3.74,0,0,1,3.08-2.15c2,.27,4,.65,6,1.11a58.27,58.27,0,0,0,20,.68c9.29-1.3,17.58-8.21,18.48-18.57.39-4.43-1.46-8.16-3.71-11.8-2.4-3.87-6.21-6.26-9.51-9.14-2.1-1.84-4-3.83-6.11-5.67a40,40,0,0,1-5.2-8.78,47,47,0,0,0,4.67,8.2c3.86,4.13,8.56,7.34,12.56,11.25,5.63,5.5,9.28,12,6.34,20.39s-9.09,12.79-17.72,14c-.93-.79-2.23-.93-3.14-1.76-.4-1.76.89-2,2.08-2.22a22.47,22.47,0,0,0,7-2.46c10.1-5.89,10.88-17.7,1.66-25.47-2.21-1.86-4.42-3.74-6.6-5.63a42.39,42.39,0,0,1-10.89-14.83c-1.43-3.16-2.12-3.3-5.4-2.31-4.27,1.3-8.45,3-13.05,2.82-1-.67-2.36-.7-3.07-1.84-.45-2.08,1.18-2.23,2.48-2.58,5.85-1.6,11.79-2.88,17.44-5.21a86.24,86.24,0,0,0,10.11-5.11c1.87-1.08,3.69-2.1,3.62-4.93-.05-1.83,1.64-2.66,3.5-2.15a20.79,20.79,0,0,1,6.52,2.88c1,.68,1.89,1.54,3.23,1.1,1.55-.21,1.58-1.47,1.77-2.58.44-2.58-.36-5.09-.56-7.63-.08-1-1.06-1.31-1.84-1.69-1.45-2.74-.75-4.12,2.17-4.35a15.16,15.16,0,0,1,4.39.66c2.91.62,3.64-.06,3.08-3a26.59,26.59,0,0,0-4.7-10.79c-1.73-2.37-.94-3.81,2.1-4.42a13.84,13.84,0,0,0,8,5.07c.81.16,1.53.35,2.18-.28-.1-3.08-1.64-5.61-3-8.2a6.9,6.9,0,0,1-1.14-2.38c.67-4.65,2.06-9.18,2.06-13.94a2.77,2.77,0,0,1,.92-2.4C193.28,92.17,194.17,91.66,194.14,93.16Z"/><path class="cls-3" d="M158.54,216.19c1.19.1,2.39.18,3.17,1.28-.43,1.19-1.47,1.1-2.45,1.22a56.53,56.53,0,0,1-13.57-.32c-5.45-1.2-11.07-1.72-16.92-4a3.25,3.25,0,0,0,.75.45c2.13.91,4.83.43,6.43,2.64a4.74,4.74,0,0,1-3,1.21h0c-2.47-1.16-5.18-1.6-7.73-2.51-1-.37-1.89-.49-2.43.68-.68,2.72-2.5,4.92-3.56,7.56,1.75.65,3.81-.06,5.3,2.12a410.59,410.59,0,0,1-52-.15c1-1.68,2.64-1,4.05-1.15,1.7-.16,1.71-.11,1.85-1.79l0,0c-.26-.84.16-1.33.87-1.68s1.72.58,2.59,0c3.09-2,3.34-3.52.9-5.86a2.16,2.16,0,0,1-.65-2.63,2,2,0,0,1,1-.87,61.19,61.19,0,0,1,10.12-.69c6.27-.1,12.55.42,18.82-.39,1.57-.2,3.35-.25,4,1.69.62,1.79-.47,2.77-2,3.47a1.79,1.79,0,0,0-1,2.23,2.88,2.88,0,0,0,1.78,2.25,2.06,2.06,0,0,0,2.48-1.19,90.59,90.59,0,0,0,5-10.2,68.83,68.83,0,0,0,6-20.28c.49-4-.55-7.71-1.89-11.38-.62-1.68-1.33-3.33-2-5a2.3,2.3,0,0,1,1.21-3.25c1.41-.61,2.45,0,3.2,1.33a33.12,33.12,0,0,1,4.1,21.6,28,28,0,0,0-.74,6.07c1.52-.61,1.66-1.77,1.94-2.74a26.84,26.84,0,0,0,.45-12.72A50.61,50.61,0,0,0,131.39,173c-1.53-3.65-3-4.64-6.95-4a105.22,105.22,0,0,1-16.61,1.75,171,171,0,0,1-20-.68c-4-.45-8,.35-11.88-.87-2.47-.71-4.81-2.11-7.54-1.3a1.88,1.88,0,0,1-1.77.12c-1-3-.69-3.85,2-4.59a142.64,142.64,0,0,0,16.61,1.78,18.7,18.7,0,0,0,3.52-.4c11.82.43,23.63.67,35.37-1.32,2.07-.35,4.47-1.72,6.35.64a4.84,4.84,0,0,1,3,1.13c1.28,3.22,2.78,6.36,4,9.6a37.37,37.37,0,0,1,1.63,22,25.13,25.13,0,0,1-1.89,5,6,6,0,0,1-5.25,3.83c-1.47.11-2.89.52-3,2.31s1.35,2.06,2.6,2.42a109.7,109.7,0,0,0,23.15,4.34C156.2,214.91,157.73,214.62,158.54,216.19Z"/><path class="cls-3" d="M172.33,25.21c1,.21,2.5.24,1.32,1.86-2.56,3.53-2.67,6.43,1.67,8.63a3,3,0,0,1,1.52,2.77c-1.87-1.16-3.28-2.69-5.28-3.3a3,3,0,0,0-3.46.77c-3.19,3.26-6.2,6.75-10.51,8.69-1.36.61-1.34,1.34-.25,2.45a16.86,16.86,0,0,1,4.55,7.26,7.07,7.07,0,0,1,.07,4.39c-2-3.47-3.19-7-6-9.55-2.24-2-6.33-2.49-8.76-.83-1.25.84-.9,1.88-.38,2.88a53,53,0,0,0,10.39,14.11c1.29,1.23,2.6,2.43,3.91,3.64,2-.46,2.89.33,2.89,2.31-1.51,2.29-2.67,0-4-.3-6.83-5-12.52-10.86-15.6-18.91a15.8,15.8,0,0,0-1.75-2.75c-.67-3.39-.36-3.73,4-4.25,1.75-1.42.19-1.54-.74-1.85A71.61,71.61,0,0,0,131,40c-2-.23-4-.63-6-.7-1.54,0-2.49.41-2.78,2A50.56,50.56,0,0,1,117,48.17a6.83,6.83,0,0,1-3.27,2.48,2.32,2.32,0,0,1-2.64-.9,2,2,0,0,1-.11-2.5,24.4,24.4,0,0,1,2.44-3.36c4.74-2,5.36-6.54,6.48-10.67.89-3.32,1.73-6.78-.63-9.91a1.76,1.76,0,0,0-.59.18,6.44,6.44,0,0,0-3.13,2.24c-3.52,5.21-8.52,8.49-14.16,10.89A9.36,9.36,0,0,0,97,40.43a21.14,21.14,0,0,1-6.66,6.48c-3.39-.28-3.9-1.35-2.33-4.86,4.81-2.71,6-7.33,6.64-12.33.14-1.22.46-2.36-.81-3.14a2.49,2.49,0,0,0-.94,0A6.16,6.16,0,0,0,90,29.13c-4.91,7-12.2,9.47-20.15,10.68a28.81,28.81,0,0,1-4.73.56c-1.09,0-2.37-.08-2.83-1.23-.57-1.44,1.39-1.07,1.72-2,2.06-.36,4.1-.84,6.16-1.07a27.28,27.28,0,0,0,18.6-10.31c1.08-1.31,2.18-2.61,3.24-3.92,2.84-3.5,3.37-3.44,5.08.69a17,17,0,0,1,1.33,8.78c-.33,2.45.54,2.47,2.4,1.6A37.43,37.43,0,0,0,117.5,18.41c.62-1,.93-2.87,2.53-2.56,1.38.27,1.49,2,1.91,3.17A25.47,25.47,0,0,1,123,33.16c-.42,2-.16,2.77,2.13,3,10,.92,19.87,2.12,29,6.6,1.36.66,2.28.09,3.32-.5C164.46,38.33,169.11,32.4,172.33,25.21Z"/><path class="cls-4" d="M303.82,103.06c.57.58,1.23,1.2.71,2.06s-1.24.42-1.91.26c-4.27-1-8.52-2.06-12.8-3-1.83-.4-2.07-1.34-1.2-2.76s.29-2.07-1-2.73c-4.53-2.31-9-4.65-13.49-7.11-1.53-.84-2.22-.44-3,1C268.62,95,269,97.79,272.79,101a67.27,67.27,0,0,0,10,6.5c1.3.75,2.26.75,2.83-.77.91-2.45,2-1.84,3.36-.34,2.92,3.26,5.91,6.47,8.85,9.72.51.56,1.26,1.13.77,2.06-.41.77-1.21.58-1.88.57-4.58-.06-9.16-.16-13.75-.21-2,0-2.62-.87-1.58-2.61s.39-2.73-1.42-3.54a61.81,61.81,0,0,1-11.22-6.23c-6.55-4.77-7.78-9.35-4.67-16.86,2.22-5.34,2.22-5.35-3.3-6.94a79.1,79.1,0,0,0-41.89-.49,46.62,46.62,0,0,0-7.24,2.23c-1,.18-8.5,3.58-9.37,2.67-.41-2,7.76-5.09,9-5.59,10.63-4.27,21.75-5,33-4.69,7.79.19,15.22,2.09,22.58,4.32,3.33,1,3.8,2.71,2.25,5.93-.68,1.41-1.41,2.79-2,4.26-2.2,5.45-1.37,8.16,3.52,12.39,2.87,2.49,6.32,4,9.53,6,2.44,1.46,5.26,2.17,7.1,4.69a2.88,2.88,0,0,0,3.81.41c-.43-2.88-1.32-3.79-3.45-3.52a2.69,2.69,0,0,1-3.28.48,77.59,77.59,0,0,1-13.5-7.89c-6-4.65-6.51-11.31-1.37-16.92,1.36-1.49,2.79-1.57,4.54-.75a86.36,86.36,0,0,1,11.49,6.45c3,2,6.68,2.81,8.49,6.59.79,1.65,3.27,2.09,5.23,2.51A4.84,4.84,0,0,1,303.82,103.06Z"/><path class="cls-3" d="M19.19,3.31c1.15-1,2.25-2,3.46-2.82,1.49-1,2.26-.33,2.25,1.26a16.67,16.67,0,0,1-.49,3,35.4,35.4,0,0,0,17.1,36.63,4.44,4.44,0,0,0,4.43.33c3.47-1.47,7-3,10.81-3.3,1.27.56,1.27.56,0,2.76-1.46,1-3.28,1.25-4.85,2.38,1.65,1.43,4,.15,5.49,1.52a2,2,0,0,1,.77,1.08c.38,2.2-1.77,2.15-2.79,3.11a88.56,88.56,0,0,1-5.55,11.22,42.86,42.86,0,0,1-8,8.7,2.52,2.52,0,0,1-1.32.3c-1.85-1-1.33-2.24-.32-3.39,3.35-3.8,5.87-8.17,8.73-12.31a9,9,0,0,0,1.33-2.94c.56-2-.5-2.68-2.3-2.76a7.19,7.19,0,0,0-2.91.37c-1.79.22-2.54,1.79-3.7,2.83-1.53,2.15-2,5.07-4.71,6.36C34.86,57.22,34.62,56,35,54.44a16,16,0,0,1,3.59-7.14c1.43-1.58,1.2-2.78-.57-3.86A35.06,35.06,0,0,1,31.31,38c-2.43-2.46-3.69-2.45-6.47-.4-1.18.86-2.39,3-3.95,1.4s.16-3.49,1.27-4.36c3.56-2.8,3-5.62,1.11-9-1-1.84-1.74-3.54-4.24-3.43a1.68,1.68,0,0,1-1.43-1,1.9,1.9,0,0,1,.16-1.72c2.42-1.27,3-3.43,2.92-5.95a15.06,15.06,0,0,1,.25-5.27c.26-.83-.25-1.28-.76-1.75a13.85,13.85,0,0,1-1.26-1.16A1.6,1.6,0,0,1,19.19,3.31Z"/><path class="cls-5" d="M68.19,164.2A2.49,2.49,0,0,0,67,167.76c2.17,1.36.56,3,.3,4.48-1.61,2.64-3.41,5.19-3.89,8.35-1.23,4.95-2.15,9.92-.71,15a10.45,10.45,0,0,0,1.57,3.49c.53.73.88.49,1.35.06.59-.93,0-1.75-.22-2.58a38.12,38.12,0,0,1,2.24-23.86c.7-1.63,1.36-3.42,3.73-3.15,1.66.77,2,2.06,1.45,3.69a24.07,24.07,0,0,0-.92,3.14c-3.88,6.14-3.08,12.8-2.1,19.45A27.49,27.49,0,0,0,72.61,205c.63,2.5,2.68,4.59,2.14,7.42a1.23,1.23,0,0,1-1.78.28c-1.14-2.32-2.3-4.62-3.41-6.95-.39-.82-.62-1.68-1.87-1.44-3.6.7-5.32-1.7-6.64-4.35-2.66-5.35-2.15-11-1.36-16.69a49,49,0,0,1,5.2-15.18c1.06-2.08.79-2.81-1.58-3.24A76.57,76.57,0,0,1,41,157.54a26.64,26.64,0,0,1-2.67-1.81A1.41,1.41,0,0,1,39,154c2.42-.74,4.2,1,6.1,1.8a127.64,127.64,0,0,0,21.87,7,2.73,2.73,0,0,1,1.29.55A.67.67,0,0,1,68.19,164.2Z"/><path class="cls-5" d="M200.54,82.75c3.93-2.16,25.11-8.55,29.39-9.1a85.72,85.72,0,0,1,37.18,3.77c1.86.6,2.76.32,3.79-1.39,4.42-7.36,8.4-8.6,16.51-5.46a94.47,94.47,0,0,1,13,6.74c1.34.78,2.22,1.22,3.86-.07,2.5-1.95,2.2,1.23,3,2.31.37,1.55-1,1.11-1.68,1.48a11.58,11.58,0,0,0-1.33.54c-2.08.81-3.67-.5-5.27-1.37-3.68-2-7.18-4.36-11-6.1-7.86-3.59-11.28-2.63-15.12,4.49-2,3.66-1.95,3.4-6,2.07a80,80,0,0,0-27.26-4.42,94.56,94.56,0,0,0-18,1.78c-1.17.25-18.79,7.15-20,6.43C201.21,84.11,200.51,83.3,200.54,82.75Z"/><path class="cls-6" d="M176.08,17.5l-1.88,1.19c.28-5.38.42-10.75-1.51-15.91A1.38,1.38,0,0,1,173.16,1c1-.66,1.68,0,2.42.5A47.09,47.09,0,0,1,196.45,29.5c4,14.37,1.53,27.76-6.5,40.22-1.45,1.47-2.11.34-2.77-.83-.22-1.31.54-2.28,1.15-3.3a43.56,43.56,0,0,0,6.42-22.17c.07-11.6-3.52-22.2-11.64-30.84C181.58,11,180.49,8.75,178.17,8a2,2,0,0,0-.58,1.75,52.5,52.5,0,0,0,.1,5.47A1.78,1.78,0,0,1,176.08,17.5Z"/><path class="cls-1" d="M56.28,40.24c-.42-.77.66-1.17.47-1.88a17.49,17.49,0,0,1,7.3-1.17c.49.77-.64,1.07-.56,1.8,11-.64,21-3.31,27.84-12.88a9.66,9.66,0,0,1,1.51-1.41c1.78,1.87.42,3.63-.49,5.08A39.26,39.26,0,0,1,73.49,45.23c-3.87,1.6-7.9,2-12,2.41-1.52.14-3,0-4.05-1.4l-.59-.57c-1.25-2.11,1-2.78,1.7-4.12C57.7,41.33,56.61,41.43,56.28,40.24Z"/><path class="cls-6" d="M310.22,85.76c.86,1.53,2.68,3.34,1.67,4.76-1.16,1.64-3.24-.15-4.88-.48-2.43-.49-4.8-1.31-7.2-1.93-1.63-.42-2.6-1.17-1.54-2.92,1.22-2,.34-3-1.49-3.86-4.36-2.17-8.55-4.69-13.37-5.8a6.28,6.28,0,0,0-7.72,4.35c-.44,1.23.24,1.64,1,2.13q8,5.44,16.05,10.86c.87-.15,1.56-1.41,2.57-.56.84.71.45,1.54-.09,2.28a7,7,0,0,1-.6.75,2.24,2.24,0,0,1-3.17.38c-6-3.54-11.89-7.26-17.57-11.31-2-1.46-2.34-3.19-1.17-5.29.67-1.23,1.37-2.45,2.14-3.61,1.95-2.93,5.54-4.09,9.4-2.88,6.12,1.92,11.59,5.2,17.06,8.45a3.35,3.35,0,0,1,1.65,2.33,3.64,3.64,0,0,0,3.87,3c.62-.18.81-.82,1.24-1.22C309,84.54,309.61,85.15,310.22,85.76Z"/><path class="cls-7" d="M188.08,69c.46.65,1.23.51,1.87.72a43.71,43.71,0,0,1,3.58,15.18c.31,1.49,1.23,1.2,2.21.77a20.83,20.83,0,0,0,3.7-2.31l1-.69a2.26,2.26,0,0,1,2,.4c.65,1.23-.28,1.58-1.07,2.17-1.15.86-2.48,1.39-3.31,2,1.72-.45,3.15-2.83,5.75-2,1,.94.37,1.52-.47,2a15.43,15.43,0,0,0-3.33,2.27l-5.93,3.71c-1.31-.22-1.25.81-1.23,1.53.12,4.9-1.27,9.6-1.81,14.41-3.23-.16-4.81-2.63-6-5-.87-1.74.47-2.93,2.55-2.69,2.34,1.13,2.47-.66,2.65-2.12a49.21,49.21,0,0,0-.4-16,50,50,0,0,0-1.15-5.8c-.4-1.24-.93-2-2.29-1-1.61,1.18-2.67,3-4.46,4-1.21.67-2.43,1.19-3.52,0s-.5-2.4.46-3.43c2.1-2.27,4.35-4.39,6.28-6.82A2.63,2.63,0,0,1,188.08,69Z"/><path class="cls-4" d="M5.77,106.19c-.48-3-1.47-6-1.72-9.08C3.3,87.62,4.19,78.39,8,69.56c.26-1,.24-2.19,1.67-2.35,1.55.4,2.29,1.88,3.55,2.67,1.66,2.19,3.11,4.55,4.94,6.62.95,1.09,1.23,2.31.13,3.43s-2.1.51-3.2-.14C13.75,79,13,77.7,11.73,76.9c-1.06-.9-2.19-1-2.5.51C7.84,84.16,6.32,90.93,7.18,97.89c.12.94.23,2.28,1.66,2.54.69.29,1.39-.06,2.07,0,2.32.23,3.29,2.19,1.85,4-1,1.3-2,2.74-3.82,3.19a3.52,3.52,0,0,1-1.29.29C6.5,107.91,6.6,106.54,5.77,106.19Z"/><path class="cls-4" d="M16.19,134.3c-1.8,1.24-3.63,2.43-5.39,3.71-2,1.47-2.72,1.26-3-1.21a32.57,32.57,0,0,1,1.5-12.66c.22-.71,1-1.56.32-2.19s-1.7-.08-2.53.18a13.52,13.52,0,0,0-4.35,2.54c-.59.48-1.07,1.33-2,.84S0,124.17.05,123.4c.13-1.18.37-2.34.57-3.51.54-.49,1.15-.3,1.74-.17a4.69,4.69,0,0,0,1.06-.06,5.44,5.44,0,0,0,1.41-.58c3.44-.09,6.47-.94,8.15-4.34,3-.44,4,.7,3.06,3.49a22.89,22.89,0,0,1-.88,2.17c-4,3.43-3.57,8.44-4.57,12.93a.26.26,0,0,0,.12.22.41.41,0,0,0,.3-.08A11.63,11.63,0,0,1,14.7,131c1.72-.61,3.6-1,5,.39a4.16,4.16,0,0,1,.58,5.16,2.21,2.21,0,0,1-.67.69c-1.61.56-2.8.63-2.37-1.72C17.31,135,17.38,134,16.19,134.3Z"/><path class="cls-8" d="M9.56,67.81,8,69.56C5,63.45,2.35,57.26,1.42,50.48.08,40.73,1,31.28,5.06,22.24,6,22,6.53,19.88,7.84,21.7a3.21,3.21,0,0,1-.25,2.59c-5,13.76-3.79,27.27,1.67,40.6C9.64,65.82,10.28,66.75,9.56,67.81Z"/><path class="cls-9" d="M16.19,134.3c1.15-.52,1.35.3,1.49,1.09.11.62-.19,1.48,1,1.29,1.06.87.49,2,.51,3,0,2.5-.62,5.25,2,7,1.22.55,2.09-.29,3-.77a17.74,17.74,0,0,1,5.53-2.09c2.46-.37,3.17.22,3.62,2.91a1.94,1.94,0,0,0,1,2.69c1.2.77,2.37,1.61,3.59,2.35s1.82,1.36,1.11,2.71l-.59,1.17c-2.86-.78-4.85-2.93-7.1-4.61-4.24-3.16-4.54-3.24-8.56,0-3.67,3-3.93,2.91-5.29-1.69A30.87,30.87,0,0,1,16.5,137C16.61,136.12,17.28,135.1,16.19,134.3Z"/><path class="cls-10" d="M7.27,21.9c-.83-.46-1.48.17-2.21.34A47.74,47.74,0,0,1,19.19,3.31L20,5a1.7,1.7,0,0,1-.64,1.83c-3.76,3.85-6.49,8.42-9.28,13C9.44,20.88,9,22.29,7.27,21.9Z"/><path class="cls-10" d="M2.42,122.27l-1.8-2.38c.24-4.07,2.08-7.56,4-11,.46-.86,1.22-1.57,1.2-2.65l2,1.11a3.69,3.69,0,0,1-.53,4.17C4.58,114.66,4,118.68,2.42,122.27Z"/><path class="cls-11" d="M294.07,94.14c.22-.38.88-.75.51-1.18-.49-.59-1.25,0-1.88-.09,1.32-2,2.52-2.16,4,0,2.3,3.46,4.77,6.8,7.16,10.19-1.08-.42-2.14-.88-3.25,0-.36.29-1.09.78-1.14-.36a2.39,2.39,0,0,0-.14-.79A57.53,57.53,0,0,1,294.07,94.14Z"/><path class="cls-12" d="M73,212.73l1.45-.88a1.33,1.33,0,0,1,1.27.6,65.11,65.11,0,0,1,4.15,8.21,1.26,1.26,0,0,1-.31,1.62l-1.12,1.22A47,47,0,0,1,73,212.73Z"/><path class="cls-13" d="M310.22,85.76l-1.83.09a5.14,5.14,0,0,1-3-6.07l1.86-.08A21.8,21.8,0,0,1,310.22,85.76Z"/><path class="cls-2" d="M122.79,216.88c.13-1,.6-1.83,1.72-1.43,2.84,1,6,1.15,8.44,3.26l-7.4-1.82C124.63,216.67,123.71,216,122.79,216.88Z"/><path class="cls-12" d="M78.39,223.47c1.19,1.91-.12,2.2-1.55,2.35s-3-.2-4.35.59a3.63,3.63,0,0,1-3-1c2.57-.28,4.68-.49,6.8-.74C77.15,224.6,78.39,225.07,78.39,223.47Z"/><path class="cls-9" d="M199.44,83.36a7.38,7.38,0,0,1-3.51,2.92c-1.41.61-2.24.2-2.4-1.38.89,1.22,1.65.25,2.47-.11C197.14,84.29,198.09,83.35,199.44,83.36Z"/><path class="cls-14" d="M163.6,71.38a6.46,6.46,0,0,0-2.44-2.4c3.08-3.07,6.41-5.84,9.12-9.31a49,49,0,0,0,10.5-36.88,17.44,17.44,0,0,0-.55-2.3,14.43,14.43,0,0,1-2.94-9.64c.05-.84,0-1.75,1.14-2,3,1.58,3.53,4.68,4.41,7.45,5.43,17.05,1.79,32.81-7.11,47.75a61,61,0,0,1-4.42,6.39,7,7,0,0,1-4,2.9C165.72,73.32,164.21,73.18,163.6,71.38Z"/><path class="cls-1" d="M177.84,11c.45,3.26,2.21,6.2,2.39,9.53-1.26-1.17-3.33-1.21-4.15-3L176.77,9C178.15,9.1,177.21,10.46,177.84,11Z"/><path class="cls-15" d="M167.15,72.63c8.79-8.86,13.62-19.77,15.95-31.82a46.13,46.13,0,0,0-4.31-30.16,6.68,6.68,0,0,1-.38-1.43,4,4,0,0,1-1.61-4.34,45,45,0,0,1,18.34,28c2.64,12.24.38,23.67-6.06,34.33-.36.59-.67,1.22-1,1.83a74.08,74.08,0,0,1-8,8.84c-.52.49-1.55,1.08-.8,1.91s1.48-.09,2.05-.54c1.47-1.18,2.86-2.45,4.28-3.68,1.88-.3,2.44,1.09,2.86,2.42a47.07,47.07,0,0,1,2.09,17.84,28.44,28.44,0,0,1-.63,5.12c-.33,1.27-.89,2.28-2.5,1.59-2.13-.21-1.64.86-.8,1.83,1.41,1.65,2.94,3.19,4.43,4.77a26.05,26.05,0,0,1,4.79,12c.07.31-.12.77-.3.66-3.78-2.26-8.45-2.8-11.73-6-2.75.22-2,1.55-.91,2.92a24.66,24.66,0,0,1,5.15,14.94c.05,2.31-.64,2.84-2.77,1.78a16,16,0,0,0-6.3-1.65c-1.66-.08-2.54.53-1.74,2.33,2,3.41,1.89,7.15,1.54,10.88a13.9,13.9,0,0,1-.94,4.7c-1.57,0-2.41-1.27-3.48-2.07a22.45,22.45,0,0,0-6.92-3.45c-.74-.23-1.66-.6-2.13.32s.47,1.14,1,1.5c1.55,1,.23,1.41-.41,1.86a76.15,76.15,0,0,1-24.18,11.45c-3.74,1-7.5,2-11.26,3A184.63,184.63,0,0,1,92,166.59l-3.57-.12a132.76,132.76,0,0,0-13.6-1.9c-1.45-.18-2.84-.65-4.3-.74-5.08-1.78-10.5-2.32-15.52-4.31-.54-.21-1.06-.46-1.6-.66-1.78-1.32-3.26-3.09-5.6-3.59a2.19,2.19,0,0,1-1.36-1.49c-.59-1.51-.76-3.11-3.12-3.19a7,7,0,0,0-4.47,1,1.49,1.49,0,0,1-.87.15c-2.08-1.37-4.93-1.84-5.68-4.78-.14-1.64-1.12-1.87-2.52-1.56a20.54,20.54,0,0,0-8.19,4.09c-.52.39-.95,1.51-1.88.49-.44-4.44-2.09-8.82-.57-13.34,0-.69.06-1.38.07-2.07,0-2.58-1.43-3.13-3.48-2.31a46.21,46.21,0,0,0-4.95,2.65c-1.62-1.9-.11-3.85.09-5.68a23.23,23.23,0,0,1,2.87-9.31c.38-.88.81-1.75,1.14-2.66.7-1.91-.24-2-1.72-1.5-2.21,2.62-5.91,2.63-8.41,4.75L3.44,121c-.49-4.21,1.5-7.67,3.4-11.15.55-1,1.43-1.87,1.55-3.1,1-.93,2.06-1.81,3-2.78.53-.53,1.26-1.22.42-2-.65-.59-1.26,0-1.79.45l-2.22,1.9c-1.65-8.9-1.34-17.6,2.57-25.95.47-1,.86-2.06,2.2-2.17q1.77,1.33,3.55,2.66c.39.29.85.7,1.29.3.6-.54.14-1.12-.24-1.54-1.89-2.12-3.91-4.14-5.19-6.73C9.42,65.46,6.8,60.06,6.08,54c-2-16.58.74-32,11.59-45.27.75-.91,1.36-2.2,2.94-1.4.12,4.31.48,8.67-2,12.55l-.65,1.21c2,2,1.94,4.76,2,7.24a98.44,98.44,0,0,0,1.1,10c.31,2.4,2.28,5.08,3.28,7.72C27,53.18,31.73,58.92,36.77,64.44c4.21,4.61,4.15,4.94-1,8.45,1.84-1.48,4.07-2.3,5.84-3.83a36.34,36.34,0,0,0,12.7-18c.41-1.22.67-2.12-.41-3,.89-1.15,2.92-.16,3.53-1.86Q78.75,46.72,91,29.33a9.47,9.47,0,0,0,1.83-4.63c.71-.64.47-2.62,2.32-1.66a31.87,31.87,0,0,1-1.57,12c-1,2.75-1.6,5.81-4.34,7.61-.16,1.23-2.81,3.42,1.18,3,8.19-4.58,16.32-9.23,22.46-16.58A33.79,33.79,0,0,0,118,21.7c.92-.34.32-2.84,2.33-1.65a2.87,2.87,0,0,0,0,2c1.46,8.59-.87,16.23-5.86,23.19-.47.65-1,1.27-1.4,1.94s-1.87,1.16-.72,2.1c.8.66,1.74-.15,2.35-.77A42.8,42.8,0,0,0,121,40.25c1.34-1.13,2.9-1.08,4.53-.93a91,91,0,0,1,20.67,4,5.18,5.18,0,0,1,1.6.73c1.33,1,1,1.74-.45,2.22-.58,0-1.15,0-1.72.07-2.39.16-2.33,1.11-.8,2.52-.75,3.43,1.18,6.14,2.74,8.75a38.79,38.79,0,0,0,12.52,12.87C162.23,71.79,164.23,73.69,167.15,72.63Z"/><path class="cls-15" d="M145,217.45c4.23.23,8.44.88,12.69.63a10.83,10.83,0,0,0,4.07-.61c11.5-1.23,19.89-12.21,17.26-22.8-1.15-4.58-4-8.16-7.54-11.26-4-3.46-8.24-6.63-11.51-10.84a.8.8,0,0,1,1.2,0c4.56,4.72,10.45,7.95,14.66,13,5,6.06,7.43,12.87,4.09,20.47-3.51,8-10.19,11.87-18.62,13.18a59.07,59.07,0,0,1-19.27-.6C142.27,216.52,143.67,217.13,145,217.45Z"/><path class="cls-15" d="M145,217.45c-1.14,0-2.25.13-3,1.2l-6-1.16c-3.36,0-6.26-1.82-9.44-2.56-.63-.14-1.57-.36-1.31-1.26s1.2-.53,1.81-.39c4.65,1,9.28,2.12,13.91,3.2C142.27,216.79,143.61,217.12,145,217.45Z"/><path class="cls-1" d="M177.89,151.62c.33-5.21-.52-10.38-.6-15.58a2.37,2.37,0,0,1,2.24,2C180.69,142.77,180.74,147.37,177.89,151.62Z"/><path class="cls-1" d="M183.86,115.72c4.53.61,8,3.7,12,5.36.49,1,.22,1.75-.93,1.1a23.17,23.17,0,0,0-7-2.17C185.59,119.5,184.93,117.43,183.86,115.72Z"/><path class="cls-15" d="M161.12,172.56h-1.2c-2.91-3.69-4.59-8-6-12.46C156.37,164.24,158.57,168.5,161.12,172.56Z"/><path class="cls-15" d="M70.16,175.75c.31-1.85,2.31-3.37,1.12-5.53-1.56-.49-3.5-.74-2-3.17,2.35-.57,4.59,0,6.81.7,3.12,1,6.34.44,9.51.67,10.92.82,21.82,1.32,32.75,0,3.25-.4,6.44-1.14,9.73-1.33,1.42-.08,2.42,0,3,1.2,4.37,9.57,7.8,19.29,4.09,30-.17.47-.3.95-.51,1.4-.69,1.47-1.36,3.13-3.47,2.4s-1.24-2.35-.86-3.76c2.4-8.78,2.35-17.34-2.25-25.49-.47-.84-.5-2.65-2-2-1.15.54-.14,1.76.22,2.63a67.13,67.13,0,0,1,3.06,8.42c1.54,5.86.22,11.53-1.36,17.07a103.28,103.28,0,0,1-9.81,22.73c-2,3.48-3.32,3.39-5.45,0-.42-.67-.76-1.4-1.12-2.11-1.87-3.7-1.87-3.71,2-4.57.68-.15,1.57-.25,1.42-1.17-.19-1.19-1.32-1.13-2.16-1-5.46.81-11,.31-16.43.42-4.38.09-8.77.06-13.15.07a1.76,1.76,0,0,1,.07-2.45c1.58-1.93,2.92-4.35,5.27-5.23s2.63-3.67,4.86-4.53c.42-.17.27-.93-.29-1.19a1,1,0,0,0-1.3.34c-2.66,4.46-6.57,7.75-10.49,11-1.43,1.18-2.7,3.07-5.08,2.32a60.38,60.38,0,0,1-4.64-10.35,45.91,45.91,0,0,1-1.72-24.5A26.61,26.61,0,0,0,70.16,175.75Z"/><path class="cls-15" d="M76.8,213.26c3-2.64,6.2-5.14,9-8,1.28-1.29,2-3.09,3.84-3.91a.81.81,0,0,0,.2-.78c-1.07-1.32-.77-3,.58-3s3.18-.69,4.81.68c2.53,2.14.62,3.67-.7,4.44-2.2,1.29-3.08,3.1-3.52,5.58l-2.55-1.4c0,3.74-4.23,3.77-5.22,6.49-.19.2-.37.4-.56.59-.78,2.29-1.76,4.24-4.75,2.93C77.25,215.74,76,214.82,76.8,213.26Z"/><path class="cls-15" d="M69.48,167.16a3.21,3.21,0,0,0,1.8,3.06c-3.4,2.95-3.89,7.16-4.73,11.16-1.42,6.74-.42,13.4,1.07,20-1.8.44-2.46-.9-3.25-2.06-2.9-4.21-2.49-9-2.25-13.67.05-1,.14-2,.21-3A53.7,53.7,0,0,1,65.89,172c.17-1.44,1.21-2.66,1.07-4.19.26-.41.51-.83.77-1.25A1.15,1.15,0,0,1,69.48,167.16Z"/><path class="cls-15" d="M78.4,216.43c.68-.84,3,.29,2.43-2.25-.21-1,1.2-.21,1.87-.28a2.12,2.12,0,0,0,2.23,1.18c2.59,0,2.56,1.32,1.55,3.06-1.31,2.27-1.78,5.16-4.54,6.42C80.41,222,78.32,219.69,78.4,216.43Z"/><path class="cls-1" d="M78.4,216.43l3.54,8.13c-1.17-.38-1.71-1.41-2.41-2.28q-2.57-5.22-5.11-10.43l-2.6-6.32c.12-.69-.09-1.5.71-1.94q2.14,4.83,4.27,9.67Z"/><path class="cls-1" d="M70.69,163c5.45.84,10.9,1.66,16.34,2.56.51.08,1,.61,1.43.93-6.78-.59-13.61-.69-20.27-2.27a2.44,2.44,0,0,0,0-.54C68.78,162.59,69.88,163.33,70.69,163Z"/><ellipse class="cls-10" cx="98.53" cy="226.15" rx="20.5" ry="0.19"/><path class="cls-5" d="M69.48,167.16l-1.75-.65a11.4,11.4,0,0,1,8.32,1.24Z"/><path class="cls-1" d="M118,21.7c-.54,3.84-3,6.75-5.28,9.49-5.93,7-13.17,12.22-22.28,14.44,2.7-2.24,5.17-4.65,6.49-8a3,3,0,0,1,2-1.66C106.81,33.24,113,28.21,118,21.7Z"/><path class="cls-1" d="M147.33,46.22c1-1.77-.78-1.5-1.44-1.71C137.79,42,129.56,40,121,40.25c.56-1.81,1.61-2.26,3.59-2,8.08.91,16.18,1.61,23.86,4.52,1.06.4,2.92.36,2.87,1.61s-1.92,1.36-3.09,1.77A3.66,3.66,0,0,1,147.33,46.22Z"/><path class="cls-16" d="M114.43,45.26c-.52-.63,0-1.08.27-1.58a36.26,36.26,0,0,0,5.16-21,3.72,3.72,0,0,1,.46-2.58c2.42,8.33,1.51,16.13-3.76,23.22C116,44.06,115.47,45,114.43,45.26Z"/><path class="cls-1" d="M159.81,70.9c-7.32-4.6-12.75-10.76-15.42-19.08-.28-.88-1.47-2.27.42-3,1.73,8.5,7.11,14.5,13.58,19.73.7.57,1.42,1.09,2.14,1.63C160.65,70.77,160.43,71,159.81,70.9Z"/><path class="cls-17" d="M89.25,42.61a38.28,38.28,0,0,0,5.32-16.73c.09-1-.06-2,.59-2.84a23.58,23.58,0,0,1-2.9,17.1C91.58,41.28,91,42.72,89.25,42.61Z"/><path class="cls-1" d="M159.81,70.9l.72-.73c1.1.2,1.77,1.51,3.07,1.21l3.55,1.25c-.5,1,.85,1.16,1,2.35A23.64,23.64,0,0,1,159.81,70.9Z"/><path class="cls-15" d="M209,83.34c-2,0-3.67,1-5.38,1.83-1-.54-1-.71.6-1.81,3.84-1.59,7.67-3.21,11.55-4.73A4.16,4.16,0,0,0,218,77.37c4,.31,7.88-1.05,11.85-1.39,13.35-1.15,26.47-.57,39,4.69a1.54,1.54,0,0,0,2.24-.67c.73-1.19,1.42-2.4,2.14-3.59,3-4.94,6.07-6.13,11.6-4.39,5.38,1.7,10,4.87,14.91,7.54,1.51.83,3,1.87,4.59.3,1.12,2.78,3.44,5,3.48,8.28L303.52,87c-1.88-.49-3.85-.77-2.3-3.61.71-1.31-.49-2.25-1.56-2.82-4.83-2.58-9.62-5.29-14.87-6.92s-9.57.82-11.3,6a2.85,2.85,0,0,0,1.24,3.6q7.95,5.55,15.89,11.13a2.74,2.74,0,0,0,3.32.32,16.07,16.07,0,0,1,5.53,7.75l0,.27c-1.62-.47-3.23-1-4.86-1.4-1.86-.47-3.78-.68-3.11-3.52.29-1.24-1-1.82-2-2.33-5.11-2.66-10.26-5.26-15.32-8-2-1.09-3.19-.67-4.41,1.19-3.65,5.56-3.2,9.52,1.8,13.91,3.47,3,7.52,5.16,11.51,7.4,2.05,1.16,3.1.55,3.76-1.46a55,55,0,0,1,7.92,8.3c-2.78-.16-5.56-.3-8.34-.5-.93-.06-2.46.12-2-1.41.88-2.74-1.06-3.14-2.74-4-4.82-2.56-9.89-4.64-14-8.49-3.25-3-3.63-6.46-2.34-10.33a31.29,31.29,0,0,1,2.46-5.77c1.5-2.58.56-3.77-1.95-4.6a77.11,77.11,0,0,0-18.33-4.12c-12.56-.93-24.9.14-36.75,4.75A12.89,12.89,0,0,0,209,83.34Z"/><path class="cls-18" d="M294.75,116.79c-3-2.46-6-4.88-7.92-8.3.18-.1.44-.32.5-.27C290.43,110.53,293.3,113,294.75,116.79Z"/><path class="cls-1" d="M33.56,74.08a6.39,6.39,0,0,1,2.28-2.31c3.43-2.69,3.44-2.69.28-5.9C29.31,59,24,51.14,21.13,41.76c-2-6.61-2.57-13.44-3.57-20.21,0-.12.24-.29.37-.44,4.72-1,4.32-.75,6.65,3.56s3.77,8-1.55,11.14a3.44,3.44,0,0,0-1.55,2.76c2-1.63,3.66-3.39,5.92-4.23,1.25-.47,2.25-.6,3.18.59A30.47,30.47,0,0,0,41.2,43.49c2.06,1,1.64,1.9.13,3.25-3,2.71-5.34,5.87-4.77,10.3.87.47,1.9.3,2.82.73a2.07,2.07,0,0,0,2.68-.49,2.3,2.3,0,0,0,.08-2.77,12,12,0,0,1-1.41-4.08,13.15,13.15,0,0,1,3.62-3.55c1.36.88,2.22,2.59,4.48,1.79,1.51-.54,1.68,1.61,2.64,2.34a56.43,56.43,0,0,1-9.72,15.45c-.64.69-1.59,1.3-1.13,2.51a.85.85,0,0,1-.11,1.31C38.26,71.66,36.38,73.73,33.56,74.08Z"/><path class="cls-19" d="M20.29,7.14A57,57,0,0,0,7.2,38.38a58.94,58.94,0,0,0,4.43,29.86A4.73,4.73,0,0,1,12,70.86c-1.28-.65-1.43-2.2-2.44-3A51.41,51.41,0,0,1,3,39.8c.37-6.21,1.12-12.34,4.24-17.9A60.17,60.17,0,0,1,20,5a1.81,1.81,0,0,1,1.56-.7C22,5.66,21.89,6.74,20.29,7.14Z"/><path class="cls-1" d="M56.28,40.24c1.26-.19,2.52-.44,3.78-.53.72-.05,1.85-.35,2,.67s-.11,2.12-1.33,2.32c-1.86.31-2.83,1.62-3.82,3a13.46,13.46,0,0,1-7.51-1c-.51-.25-1.27-.33-1.31-1s.66-.9,1.2-1.08C51.61,41.75,54,41,56.28,40.24Z"/><path class="cls-1" d="M40.73,50.43c1.68.76,2.38,2.41,3.13,3.86A3.69,3.69,0,0,1,43.28,59c-1.6,1.44-3.3,1.08-5,0a3.83,3.83,0,0,1-1.77-2A19.56,19.56,0,0,1,40.73,50.43Z"/><path class="cls-1" d="M54,48.1c1.85-.32,3-.13,2.08,2.26C53,58,48.87,64.83,42,69.7c-.93,0-1.19-.3-.63-1.11C47.76,63.1,52.25,56.46,54,48.1Z"/><path class="cls-1" d="M20.29,7.14c.39-.95,1.39-1.62,1.27-2.8.73,4.18.52,8.4.43,12.6,0,1.89-2.09,2.17-3.41,3C18.44,15.56,19.43,11.36,20.29,7.14Z"/><path class="cls-1" d="M51.47,51c-1.09.07-1.73-.87-2.65-1.25-1.13.71,1,2.3-.61,2.65-1.35.29-2-1-2.77-1.91a5.11,5.11,0,0,1-1.09-3.62c2.36-1.32,4.77-.22,6.92.37S51.07,49.73,51.47,51Z"/><path class="cls-1" d="M41.39,68.59,42,69.7a23.63,23.63,0,0,1-8.56,5.17c-.07,0-.17-.06-.26-.1l.36-.69c2.54-1.45,5.27-2.63,7.06-5.11Z"/><path class="cls-1" d="M70.69,163l-2.52.68A94.1,94.1,0,0,1,39,154.56c-2-2.34-4.81-3.62-7.14-5.55-1.51-1.25-1.15-1.77.53-2.09a22.51,22.51,0,0,0,6,3.5,13.69,13.69,0,0,1,9,4c1.75,1.63,4.65,1.47,6.54,3.18C59.26,160.15,65,161.4,70.69,163Z"/><path class="cls-1" d="M72.53,203.59l-.71,1.94c-4.68-9.7-5-19.64-1.66-29.78a2.29,2.29,0,0,1,.39,2C69.06,186.51,70.37,195.08,72.53,203.59Z"/><path class="cls-1" d="M63,182.28c-.19,4.06-.69,8.14.43,12.13.76,2.7,1.7,5.32,4.2,7-1.14,2.07-2.31.81-3.21-.12a12.12,12.12,0,0,1-3.15-7.56,34.3,34.3,0,0,1,1.13-13.29C63.8,180.65,63,181.58,63,182.28Z"/><path class="cls-1" d="M63,182.28l-.6-1.87c.81-3,1.23-6.09,3.5-8.46Q64.44,177.13,63,182.28Z"/><path class="cls-20" d="M307.85,88.14c-1.1-2.78-3.3-5.11-3.48-8.28l1.05-.08a23,23,0,0,0,3,6.07C309.15,88,309.15,88,307.85,88.14Z"/><path class="cls-21" d="M176.8,4.88c.53,1.45,1.07,2.9,1.61,4.34L177.84,11c-.35-.65-.71-1.3-1.07-2-.3-1.23-.68-2.44-.89-3.69C175.75,4.56,176.28,4.59,176.8,4.88Z"/><path class="cls-22" d="M299.47,102.45l-5.53-7.75c.05-.18.09-.37.13-.56,3.15,1.77,4.44,5,6.29,7.87C300.54,102.29,299.86,102.46,299.47,102.45Z"/><path class="cls-1" d="M187.47,102.5c.33-.35.89-.66,1-1.06,1.54-8.9,1.35-17.62-2.78-25.91.87-.92,1.44-2.8,2.59-2.61,1.45.23,1.4,2.23,1.74,3.5A57.3,57.3,0,0,1,191.5,101c-.19,1.13.06,2.76-1.12,3.22S188.42,103.15,187.47,102.5Z"/><path class="cls-15" d="M204.23,83.36c-.29.57-.87,1-.6,1.81v.59c-2.65.66-4.81,2.35-7.23,3.49-.64.3-1.34,1.39-2,.35s.29-1.67,1.09-2.11a49.57,49.57,0,0,0,6.9-4.13Z"/><path class="cls-1" d="M12.59,76.17c-1.16,4.1-3,8-3.94,12.14-1.16,5.3-.82,10.64-.83,16-1.58-2.13-1.46-4.75-1.65-7.14a58.21,58.21,0,0,1,2-21.76c.3-1,.23-2.53,1.48-2.65,1.09-.11,1.6,1.3,2.3,2.1A5.6,5.6,0,0,1,12.59,76.17Z"/><path class="cls-1" d="M8.39,106.7c.6,1-.11,1.69-.58,2.4A30.56,30.56,0,0,0,3.44,121l-1,1.32c-.17-4.58,1.68-8.53,3.83-12.39.48-.86,1-1.72,1.47-2.58Z"/><path class="cls-1" d="M13.78,119.88c-.95,5-2.84,9.82-3,15-.51.6-1.18.71-1.12-.21C10,129.46,10.11,124.16,13.78,119.88Z"/><path class="cls-13" d="M4.79,120.47c2-3,5.16-4,8.41-4.75-.7,2.69-2.69,3.67-5.24,4A27.48,27.48,0,0,0,4.79,120.47Z"/><path class="cls-1" d="M19.18,136.6l.57,13.34a22.86,22.86,0,0,1-1.1-13.26A3.23,3.23,0,0,0,19.18,136.6Z"/><path class="cls-23" d="M71.91,95.49c0,6-4.19,10.09-10.24,10a9.55,9.55,0,0,1-9.55-9.79,9.91,9.91,0,0,1,10.14-10C68.23,85.74,71.94,89.49,71.91,95.49Z"/><path class="cls-24" d="M134.12,132.43l-5.93,1.24c-1,.64-2.19.73-3.22,1.27a8.38,8.38,0,0,1-1.78.49,13,13,0,0,1-4.63-1.14c-10.26,1.49-20.58,1.32-30.89.89-1.49-.06-3-.22-4.45-.33-2.17-.15-4.21-.11-5.17,2.41-.19.52-.62.22-.87-.14-1.89-1-3.71-2.12-5.93-2.16s-3.45-2.64-5.93-2.17c21.41-.37,42.74.57,64-.95C131,131.78,132.73,130.6,134.12,132.43Z"/><path class="cls-15" d="M148,145.22c-.34,1,1.29,1.6.65,2.73-1.2.66-1.77-1.29-3-.66-.78.92.79,1.43.54,2.36-.67.69-1.21-.1-1.8-.25-1.79-.47-2.29-1.93-2.13-3.47.2-2,1.47-.26,2.19-.49a5,5,0,0,0,1.42-1c4.11-3.21,7.39-7.27,11.19-10.79.26-.24.61-.71.53-1-1-3.14,1.4-2.61,3.14-3.46,2.81-1.37,2.17,1.55,3.3,2.17,1.32.71-.29,1.48-.74,2-1.76,1.94-3.78,3.46-4.48,6.4-.25,1.08-3.08,2.35-5.12,2.75-.46.09-1-.25-1.35.29C150.71,145.54,150.72,145.55,148,145.22Z"/><path class="cls-15" d="M98.82,96.09c.23.83.35,1.3.5,1.76s.38.72-.1,1.23c-1.53-.79-3.63-2.06-1.89,1.79a4,4,0,0,1-3.53-2.22c-.67-1.34-1.24-2.66,1.25-2.13,1,.2,1.49-.41,2-1,3.52-3.47,7.41-6.57,10.53-10.44.19-.23.47-.4.63-.64.76-1.15-.92-2.83.81-3.77.26-.14.67-.41.79-.32,1.84,1.34,4.56.36,6.09,2.28-1.52,3-5.25,4.32-5.67,8.4-.2,1.85-1.62-.75-2.65-.56C107.12,93.69,102.33,97,98.82,96.09Z"/><path class="cls-25" d="M131.13,87.52c3.66-2,9.3-1.62,12,.9a9.79,9.79,0,0,1,2.3,11.21c-.46,1-.65,2.48-2.37,2.17-1.45-.81-2.56-2.08-4-2.92a2.79,2.79,0,0,1-.44-.74,3.79,3.79,0,0,1-.37-3c.25-3.74-1.42-5.59-5.19-5.64C131.69,89.52,130.73,89.21,131.13,87.52Z"/><path class="cls-26" d="M139.55,95.33a2.69,2.69,0,0,0,0,2.41c-.72,1.87-.79,3.65.63,5.28a1.29,1.29,0,0,1,0,1.88c-7.41,2.9-13.42-1.28-13.75-9.55.48-.52,1.17-.68,1.58-.19,1.05,1.3,2.61,1.33,4,1.88a4.23,4.23,0,0,0,4-.92C137,95.47,138,94.21,139.55,95.33Z"/><path class="cls-15" d="M138.07,157.55c-1.51-.5-4-.1-4.12-2.9-.09-2.57,2.91-5.58,5.09-5.44,1.07.07,3.4,3.22,3.33,4.51A4,4,0,0,1,138.07,157.55Z"/><path class="cls-15" d="M88.9,108.45c-1.2-.65-3.72.36-3.88-2.25-.14-2.15,3.76-6.43,5.39-6.3,1,.07,3.08,4,3,5.45C93.18,107.46,91.62,108.61,88.9,108.45Z"/><path class="cls-15" d="M53.91,157.6a67.32,67.32,0,0,1-15.58-7.18c2-2,4.66-1.8,7.07-1.92.8,0,3.18,1.08,2.46,3.05-.8,2.21.35,2.84,2,3.41S53.17,155.78,53.91,157.6Z"/><path class="cls-6" d="M132,98.82c-1.66.64-2.52-.63-3.48-1.52-.7-.65-1.08-1.64-2.1-2,.2-3.45,1.43-6.27,4.74-7.83a2.21,2.21,0,0,0,1.78.89c4.53.26,6.37,2.21,6.64,6.92-1.45.25-.92,3-3.05,2.38a2.22,2.22,0,0,1-.39-1.95c.34-1.67.17-3.21-1.57-4a2.55,2.55,0,0,0-3.25.61c-1.33,1.57-.76,3.13.32,4.58A1.78,1.78,0,0,1,132,98.82Z"/><path class="cls-27" d="M118.56,134.29a11.38,11.38,0,0,1,5-.55c.64,1.1-.71,2.22.14,3.59a6.86,6.86,0,0,0,1.49-3.73,2.74,2.74,0,0,1,3,.07c-.86,2.32-1.67,4.67-2.6,7-.39,1-.39,2.51-1.67,2.57-1.44.07-1.56-1.57-2.1-2.56C120.67,138.56,119.64,136.41,118.56,134.29Z"/><path class="cls-27" d="M69.61,134.29a11.38,11.38,0,0,1,5-.55c.64,1.1-.7,2.22.14,3.59a6.86,6.86,0,0,0,1.49-3.73,2.74,2.74,0,0,1,3,.07c-.86,2.32-1.67,4.67-2.6,7-.39,1-.39,2.51-1.66,2.57-1.45.07-1.57-1.57-2.11-2.56C71.72,138.56,70.69,136.41,69.61,134.29Z"/><path class="cls-28" d="M71.25,135c1.85-1.53,4-.72,5.86-.37,1.22.22-.29,1.65.07,2.53l-2,3.49C73.28,139.09,73.08,136.42,71.25,135Z"/><path class="cls-9" d="M134.12,132.43c-1.5-.87-3.17-.46-4.77-.59,1.58-1.19,4.27.45,5.12-1.34.65-1.37-.17-3.43-.31-5.18a13.49,13.49,0,0,1,.13-1.63l1,2.81c1.82,3.32,4.72,5.71,7.34,8.34C139.42,135.23,137.22,132.25,134.12,132.43Z"/><path class="cls-1" d="M142.58,134.84c-3.51-1.85-6.43-4.22-7.34-8.34V123a15.76,15.76,0,0,0,7.4,10.61C143.1,133.88,143.05,134.44,142.58,134.84Z"/><path class="cls-8" d="M125.49,73.18c4.23-2.59,8.77-2.8,13.47-1.66A124.47,124.47,0,0,0,125.49,73.18Z"/><path class="cls-29" d="M139.62,98.55c2.64-.5,3.95.4,3.44,3.25l-1.81,1.26c-1.58.74-2.38-.17-2.89-1.45S138.1,99.12,139.62,98.55Z"/><path class="cls-8" d="M60.31,71.11c4-1.45,7.62-.35,11.06,1.72Z"/><path class="cls-6" d="M139.62,98.55c-1.5,2.75-1.28,3.36,1.63,4.51,1.48,1.73-.71,1.24-1.11,1.84a14.61,14.61,0,0,0-1-1.42c-2.29-2.56-2.24-3.33.43-5.74Z"/><path class="cls-30" d="M60.62,88.64a4.57,4.57,0,1,1-4.78,4.67A4.67,4.67,0,0,1,60.62,88.64Z"/><path class="cls-31" d="M64,98.63a2.3,2.3,0,0,1,2.35,2.19,2,2,0,0,1-2.13,2.34,2.14,2.14,0,0,1-2.41-2.1C61.67,99.6,62.67,99,64,98.63Z"/><path class="cls-32" d="M125.17,133.6c1,.06,1.82.3,1.24,1.61-.25.55-.42,1.12-.65,1.67-.56,1.36-1.14,2.72-1.8,4.29-1.25-1-1.58-2.3-2.15-3.39-1.66-3.17-1.63-3.19,1.73-4Z"/><path class="cls-30" d="M132,98.82c-.4-.27-.82-.53-1.21-.83-2.26-1.76-2.76-4.4-1.24-6.52a4.82,4.82,0,0,1,6.37-1.23c2.2,1.38,2.72,4,1.27,6.5-.19.33-.44.64-.66,1A6.46,6.46,0,0,1,132,98.82Z"/></g></g></svg>