<svg width="211" height="154" viewBox="0 0 211 154" fill="none" xmlns="http://www.w3.org/2000/svg">
<g clip-path="url(#clip0_32_145)">
<path d="M129.236 11.6488C133.657 18.7526 134.85 26.447 133.352 34.6066C132.644 38.4755 131.204 42.1739 129.111 45.5038C128.862 45.8316 128.701 46.2166 128.642 46.6233C128.582 47.03 128.627 47.4451 128.77 47.8301C129.691 50.3422 130.308 52.9553 130.608 55.6139C130.727 56.8068 131.121 56.8784 132.177 56.3296C147.689 48.2058 163.845 46.661 180.591 51.8442C182.053 52.2975 182.739 52.0649 183.574 50.7706C186.629 45.9572 189.713 45.0744 194.963 47.2813C197.587 48.4182 200.106 49.7813 202.492 51.3551C203.495 51.9993 204.235 52.2021 204.98 51.033C205.499 50.2159 206.066 50.2457 206.543 51.1702C207.933 53.8722 209.347 56.5384 210.72 59.2463C210.916 59.6221 211.131 60.0635 210.857 60.4392C210.487 60.9343 209.998 60.6241 209.562 60.4392C207.009 59.4551 204.455 58.459 201.902 57.4569C200.947 57.0931 200.434 56.5622 201.263 55.6318C201.967 54.8444 201.508 54.4985 200.828 54.1943C197.732 52.8224 194.695 51.3014 191.282 50.7288C190.668 50.6028 190.033 50.6155 189.424 50.7662C188.815 50.9168 188.247 51.2016 187.762 51.5997C185.74 53.2579 185.788 54.1466 187.9 55.5661C190.96 57.6239 194.033 59.6638 197.057 61.7753C197.934 62.3718 198.453 62.4732 198.978 61.3995C199.503 60.3259 200.172 60.2066 200.917 61.322C202.671 63.9404 204.497 66.5172 206.287 69.1237C206.543 69.4935 206.991 69.8991 206.621 70.3942C206.251 70.8892 205.732 70.6327 205.285 70.5373C202.373 69.9408 199.474 69.2788 196.562 68.6644C195.369 68.402 195.071 67.7817 195.852 66.8154C196.634 65.8491 196.186 65.4137 195.256 64.9723C191.676 63.2585 188.096 61.5168 184.517 59.7473C183.634 59.3059 183.151 59.4849 182.632 60.302C180.746 63.2843 180.991 65.0021 183.789 67.209C186.432 69.2907 189.522 70.579 192.505 72.0583C193.436 72.5235 193.794 71.8853 194.176 71.259C194.886 70.0661 195.572 70.239 196.347 71.259C198.137 73.5613 199.963 75.8338 201.759 78.1302C202.033 78.4821 202.498 78.8579 202.206 79.3768C201.914 79.8958 201.371 79.6989 200.917 79.6452C198.078 79.2993 195.244 78.9355 192.41 78.5955C191.766 78.5179 191.062 78.3569 191.354 77.5636C191.873 76.1917 190.889 75.9174 190.059 75.4939C187.04 73.9431 183.986 72.4638 181.265 70.4001C176.385 66.708 175.896 63.9166 179.088 58.6558C180.341 56.604 180.347 56.5742 178.038 55.7928C162.234 50.4604 147.015 51.7071 132.362 59.795C131.897 59.9833 131.507 60.3184 131.251 60.7491C130.994 61.1799 130.886 61.6828 130.942 62.1809C131.007 64.98 130.692 67.7751 130.005 70.4896C129.886 70.9129 129.869 71.3584 129.955 71.7897C130.041 72.2209 130.228 72.6257 130.501 72.9708C132.627 76.0104 133.945 79.5408 134.331 83.2299C134.384 83.6833 134.563 84.2022 134.026 84.5124C133.579 84.7748 133.233 84.4348 132.887 84.232C131.628 83.4382 130.286 82.7861 128.884 82.2875C128.418 82.1384 127.834 81.6911 127.41 82.1265C126.987 82.5619 127.47 83.0093 127.601 83.4506C128.441 86.1307 128.706 88.9581 128.377 91.7474C128.311 92.2663 128.544 93.0119 127.673 93.167C126.479 91.5446 126.837 89.6717 126.778 87.8644C126.712 85.5561 126.151 83.4387 124.445 81.7567C123.969 80.8683 123.557 79.9474 123.21 79.0011C122.572 77.6232 122.93 77.1341 124.63 76.8299C125.227 76.9612 125.352 77.5218 125.692 77.9036C127.279 79.6929 129.182 80.856 131.658 80.7785C131.837 80.6115 132.094 80.4147 132.028 80.182C131.097 77.0387 130.047 73.9669 126.873 72.273C126.414 71.6765 125.954 71.08 125.555 70.4359C125.155 69.7917 124.773 69.2012 125.298 68.5093C125.823 67.8174 126.587 67.8592 127.333 68.229C127.49 68.3004 127.657 68.3486 127.828 68.3721C128.562 68.3721 129.087 68.1455 129.057 67.2389C128.949 63.511 129.51 59.7771 128.764 56.0552C128.46 54.5343 128.168 53.0014 127.828 51.4923C127.613 50.6096 127.154 50.0966 126.163 50.5917C125.077 51.6057 124.171 52.7926 123.055 53.7767C122.273 54.4627 121.438 55.2977 120.466 54.2539C119.493 53.2101 120.323 52.2737 121.17 51.5758C125.21 48.1905 128.272 43.7881 130.041 38.8235C131.944 33.8073 132.231 28.6181 131.461 23.3513C131.24 21.8244 131.133 20.2736 130.781 18.7645C130.545 17.4659 130.037 16.2319 129.289 15.1441C128.729 14.1122 128.055 13.128 127.941 11.9052C128.239 11.0523 128.711 11.2074 129.236 11.6488Z" fill="#0F0F0F"/>
<path d="M117.691 144.999C115.156 147.284 112.072 148.262 108.79 148.65C101.846 149.455 95.2414 147.618 88.6131 145.966C87.0739 145.578 85.4094 144.427 84.0372 144.988C82.665 145.548 82.5636 147.57 81.7582 148.87C81.2929 149.616 80.9946 150.457 80.2906 151.059C80.0579 151.262 79.6104 151.656 80.1414 152.097C80.6724 152.539 81.4002 152.211 82.0267 152.3C82.3966 152.354 82.9454 152.121 83.017 152.712C83.0886 153.302 82.6412 153.535 82.1579 153.666C81.6943 153.739 81.2243 153.761 80.7559 153.732C78.8826 153.815 77.0033 153.547 75.1419 153.881C70.2557 154.048 65.3696 154.036 60.4834 153.881C58.616 153.535 56.7308 153.791 54.8515 153.732C53.8253 153.732 52.9662 153.672 53.706 152.258C54.1892 151.334 53.348 150.91 52.8529 150.374C50.1881 146.369 48.0675 142.029 46.5468 137.466C46.338 136.822 46.1172 136.172 46.69 135.593C47.6386 135.677 47.7281 136.536 48.086 137.15C48.2629 138.171 48.7676 139.107 49.5238 139.816C50.8662 142.798 52.4114 145.662 53.9864 148.519C54.2072 148.942 54.5264 149.306 54.9171 149.58C55.0013 149.667 55.1043 149.734 55.2182 149.775C55.3321 149.816 55.4538 149.83 55.5742 149.817C55.6945 149.804 55.8102 149.763 55.9125 149.699C56.0147 149.634 56.1008 149.546 56.164 149.443C56.8069 148.587 57.2825 147.618 57.566 146.586C57.6289 146.294 57.5969 145.99 57.4745 145.717C57.3522 145.444 57.1459 145.218 56.8859 145.071C56.17 144.534 55.8597 143.878 56.5637 143.121C57.0138 142.799 57.5639 142.649 58.1149 142.697C64.0332 142.584 69.9574 142.697 75.8757 142.333C77.1286 142.25 78.4888 142.375 78.4053 144.236C78.3475 144.463 78.2265 144.668 78.0565 144.828C77.8864 144.989 77.6743 145.098 77.4448 145.143C75.9473 145.548 76.0905 146.485 76.6513 147.576C77.5283 149.288 78.0951 149.616 79.2405 149.043C82.4025 143.24 85.8032 137.526 86.8591 130.869C87.587 126.318 87.3782 121.851 85.1887 117.652C84.9951 117.284 84.8218 116.905 84.6696 116.518C84.3176 115.594 84.2938 114.729 85.3318 114.24C86.3699 113.751 86.8532 114.425 87.3543 115.2C88.5833 117.121 89.2873 119.274 90.1524 121.362C90.4686 124.135 90.0689 126.897 89.7944 129.629C89.5617 131.949 89.4424 134.269 89.2873 136.589C89.2056 136.974 89.0495 137.338 88.8279 137.663C86.8233 140.15 87.0381 140.776 90.2299 141.6C95.1112 142.954 100.102 143.876 105.145 144.355C107.43 144.534 109.631 143.991 111.845 143.508C112.877 143.574 113.849 143.699 113.694 145.119C112.501 146.538 110.681 146.562 109.083 146.801C103.898 147.564 98.8687 146.497 93.8871 145.172C91.7274 144.934 89.7109 144.087 88.1776 143.836C89.8839 144.236 92.1212 145.113 94.5016 145.447C99.6682 146.538 104.835 147.689 110.168 146.64C112.094 146.216 113.934 145.467 115.609 144.427C116 144.134 116.45 143.931 116.928 143.83C117.477 144.021 117.817 144.337 117.691 144.999Z" fill="#0E0E0E"/>
<path d="M31.8287 107.506C27.6525 105.907 23.8939 103.468 20.2009 100.945C19.1688 100.241 18.3455 100.092 17.373 100.945C16.4006 101.798 15.273 102.525 14.3483 103.444C13.4235 104.363 12.8926 104.142 12.4332 103.026C11.0854 99.8269 10.5544 96.3424 10.888 92.8867C11.067 90.984 10.9297 90.9184 9.15784 91.7773C8.83568 91.9383 8.5314 92.1173 8.22117 92.2962C6.20466 93.4414 6.01971 93.3758 5.66175 91.0019C5.2196 88.3981 5.47063 85.7239 6.3896 83.2479C6.52085 82.902 6.87882 82.4248 6.44927 82.1206C6.23449 81.9655 5.76318 82.0848 5.43505 82.1802C4.23298 82.5338 3.09362 83.0731 2.05829 83.7787C0.799459 84.6496 0.369895 84.1485 0.369895 82.8184C0.275176 79.0992 1.40266 75.4515 3.57961 72.4341C3.89416 72.0872 4.11424 71.6652 4.21871 71.2088C4.32318 70.7523 4.30855 70.2767 4.17621 69.8276C2.15525 63.0034 2.43193 55.7045 4.96373 49.0528C5.17319 48.572 5.25628 48.0457 5.20512 47.5237C5.15396 47.0018 4.97025 46.5016 4.6714 46.0705C2.72494 42.9977 1.40691 39.5696 0.793496 35.9844C1.25288 35.7041 0.990371 34.9406 1.61084 34.7915C2.91143 34.9525 2.85773 36.0858 3.06655 36.9447C4.0569 41.0543 6.04955 44.6987 8.20925 48.2775C8.80585 49.3272 9.8678 49.8402 10.8761 50.3949C11.2638 50.9078 11.5562 51.4864 11.9738 51.9814C12.5286 52.6435 12.6718 53.3832 12.0156 54.0273C11.3593 54.6715 10.53 54.4687 9.832 53.8782C9.13398 53.2877 8.58511 52.6376 7.89305 52.0888C6.99815 51.3612 6.29416 51.5759 6.03165 52.6495C5.50665 54.7729 4.79669 56.8844 5.0234 59.1271C5.2859 61.7932 4.76088 64.4952 5.40521 67.1495C5.57226 67.8354 5.69756 68.2827 6.497 68.1575C7.23082 67.7638 7.99447 67.2508 8.74618 68.0203C9.39051 68.6823 9.24136 69.404 8.66862 70.0661C7.09723 70.853 5.80437 72.1018 4.96373 73.6449C4.01514 75.2851 2.95318 76.8419 2.33272 78.6611C2.09291 79.2279 2.05706 79.8603 2.23129 80.4505C2.27426 80.5629 2.34136 80.6645 2.42783 80.7481C2.51431 80.8318 2.61806 80.8955 2.73181 80.9347C2.84557 80.9739 2.96655 80.9878 3.08623 80.9752C3.2059 80.9627 3.32136 80.924 3.42449 80.8621C5.32765 79.8898 7.7618 79.7407 8.84761 77.4503C9.1403 77.2392 9.50121 77.1449 9.85979 77.1857C10.2184 77.2265 10.5488 77.3995 10.7866 77.671C11.5204 78.4344 11.0013 79.2158 10.7269 79.9793C7.85725 82.1802 7.4635 85.3474 7.27855 88.6518C7.23679 89.4749 7.27854 90.0416 8.27486 89.964C9.62915 89.6062 10.8164 88.7234 12.29 88.7711C13.4056 88.8248 14.2826 89.1111 14.1454 90.5008C12.5943 91.9204 12.4451 93.7575 12.7196 95.6662C12.8086 96.162 12.8306 96.6676 12.7852 97.1693C12.6315 97.7896 12.693 98.4437 12.9596 99.0245C13.2262 99.6053 13.6822 100.078 14.2528 100.366C14.9866 100.814 15.446 100.283 15.9949 99.9428C17.5103 99.0243 18.8288 97.8075 20.4396 97.0321C20.6112 97.0016 20.7806 96.9598 20.9467 96.9068C21.7879 96.6145 22.5754 96.6145 23.0825 97.4615C23.5896 98.3085 23.1243 98.8871 22.5515 99.4418C21.9788 99.9965 22.4978 100.42 22.9453 100.712C23.6134 101.181 24.3131 101.604 25.0394 101.977C25.8746 102.782 26.9485 103.17 27.9329 103.766C28.7085 104.291 29.4244 105.007 30.4983 104.565C31.4349 104.202 31.3574 103.372 31.3633 102.615C31.3633 100.307 31.3216 97.9924 31.4051 95.6841C31.4051 94.9087 31.2858 93.9424 32.473 93.7575C33.0696 94.014 33.1293 94.5568 33.1293 95.0996C33.1591 98.5411 33.1293 101.983 33.1293 105.418C33.1472 105.746 33.0899 106.073 32.9616 106.375C32.8334 106.677 32.6377 106.945 32.3895 107.16C32.2302 107.315 32.0387 107.433 31.8287 107.506Z" fill="#111111"/>
<path d="M88.3507 137.52C88.476 137.263 88.6013 137.007 88.7325 136.75C89.614 135.925 90.3716 134.977 90.9817 133.935C91.5901 129.897 91.4892 125.783 90.6834 121.779C90.1852 119.586 89.4863 117.444 88.5953 115.379C88.467 114.952 88.2371 114.563 87.9255 114.244C87.6138 113.925 87.2295 113.686 86.8055 113.548C85.4512 112.659 83.9299 112.898 82.4921 113.059C77.8684 113.572 73.2388 113.805 68.5793 113.9C64.8028 113.978 61.0442 113.697 57.2797 113.62C54.8575 113.566 52.4532 113.274 50.031 113.578C47.5611 112.844 45.4968 113.578 43.4684 115.105C40.8795 116.959 38.171 118.641 35.3605 120.139C35.2062 120.255 35.0247 120.329 34.8334 120.354C34.6422 120.379 34.4477 120.354 34.2688 120.282C34.0958 120.201 33.9448 120.08 33.8286 119.928C33.7123 119.777 33.6341 119.599 33.6006 119.411C33.6006 118.397 34.2807 117.825 35.0145 117.3C36.9475 115.91 38.9521 114.64 40.9209 113.309C41.3504 113.017 42.0186 112.761 41.953 112.188C41.8874 111.616 41.1416 111.592 40.6464 111.484C38.8394 111.119 37.0699 110.588 35.3605 109.898C33.5051 108.252 33.4932 107.768 35.277 106.975C41.1391 108.76 47.1583 109.98 53.2526 110.619C55.3228 110.858 57.399 111.097 59.4692 111.162C69.5279 111.466 79.5747 111.27 89.5141 109.462C94.5633 108.605 99.4712 107.059 104.101 104.87C105.02 104.428 105.891 103.593 107.084 104.213C107.181 104.266 107.265 104.339 107.331 104.427C107.397 104.515 107.444 104.616 107.467 104.723C107.491 104.831 107.491 104.942 107.469 105.049C107.446 105.157 107.4 105.258 107.335 105.347C107.09 105.782 106.625 105.854 106.213 106.009C105.801 106.164 105.575 106.492 105.7 106.975C105.938 107.894 105.342 108.168 104.638 108.371C103.935 108.849 103.102 109.1 102.252 109.093C99.1253 110.041 96.0468 111.132 92.8312 111.789C91.107 112.146 90.7967 112.898 91.4828 114.711C92.6164 117.694 93.6783 120.759 94.0363 123.962C94.4241 127.386 94.5852 130.851 93.7261 134.233C93.2428 136.154 92.5329 138.075 90.2121 138.486C89.4186 138.623 88.464 138.802 88.3507 137.52Z" fill="#0C0C0C"/>
<path d="M15.0999 1.41954C16.1738 1.07955 16.6928 0.948317 16.3289 2.55876C14.4437 10.8734 15.9829 18.353 22.1875 24.5502C22.6469 25.0095 23.166 25.4211 23.6552 25.8565C26.2206 28.1409 28.7681 29.1251 32.3059 27.3894C36.3747 25.3853 40.9686 24.7888 45.4968 24.5801C52.4173 24.2639 57.8822 21.5321 61.605 15.6332C62.1539 15.1858 62.6968 14.81 63.2397 15.6332C63.304 15.8149 63.3184 16.0106 63.2814 16.1998C59.5885 22.7609 53.8671 25.9102 46.4394 26.5245C41.6543 26.8874 36.9329 27.8431 32.3835 29.3696C31.9533 29.5492 31.5712 29.827 31.2678 30.1808C30.4684 30.6222 29.478 30.1271 28.6965 30.7057C25.3018 30.6043 23.0884 28.2901 20.8512 26.2442C19.306 24.8366 18.0471 23.9896 16.0784 25.3316C15.44 25.761 14.4974 26.0951 13.9604 24.9737C13.9095 24.7993 13.8943 24.6165 13.9158 24.4361C13.9374 24.2557 13.9951 24.0815 14.0857 23.924C14.3244 23.5005 14.7837 23.3275 15.0999 22.9517C16.5556 21.3353 16.6809 20.7568 15.6369 18.854C15.0685 17.887 14.6387 16.845 14.3601 15.7584C14.1931 15.0307 13.9544 14.3687 13.0118 14.4164C11.4428 13.8199 12.0394 13.1101 12.8746 12.3705C13.3981 12.1308 13.8068 11.6956 14.0131 11.1582C14.2194 10.6208 14.2069 10.0239 13.9783 9.49559C13.6024 8.26092 13.9187 6.90695 13.7098 5.61263C13.7993 4.90284 14.4138 4.41972 14.4735 3.68011C14.3377 3.2841 14.3249 2.85629 14.4367 2.45286C14.5485 2.04942 14.7797 1.68924 15.0999 1.41954Z" fill="#940000"/>
<path d="M104.089 107.452C105.336 107.768 105.252 106.128 106.201 106.009C105.575 106.707 106.064 107.345 106.308 107.995C108.223 113.005 111.63 116.793 115.973 119.829C117.499 120.868 118.9 122.078 120.149 123.437C125.746 129.652 124.552 140.091 117.692 144.999L116.964 144.26C116.552 143.395 117.298 143.067 117.757 142.661C122.005 138.743 123.329 130.643 120.006 126.241C118.838 124.668 117.459 123.263 115.908 122.065C113.748 120.425 111.731 118.552 109.423 117.151C108.98 116.256 108.418 115.425 107.752 114.681C106.058 112.6 105.151 110.118 104.173 107.685L104.089 107.452Z" fill="#151515"/>
<path d="M102.311 29.1669C102.46 28.8031 102.609 28.4333 102.765 28.0635C105.927 29.3459 107.806 27.1569 109.864 25.439C111.654 23.9419 112.847 21.9378 114.398 20.232C114.553 20.137 114.73 20.0867 114.911 20.0867C115.093 20.0867 115.27 20.137 115.424 20.232C116.707 21.1207 118.121 21.8424 119.171 23.0473C119.3 23.2818 119.34 23.5549 119.284 23.8167C118.801 25.0096 117.9 25.0752 116.97 24.5145C115.401 23.5721 114.219 23.9479 113.032 25.2184C111.576 26.7811 110.115 28.3617 108.217 29.4473C107.323 29.9543 107.221 30.6998 107.782 31.5647C108.631 32.8663 109.315 34.2689 109.816 35.7399C110.085 36.5153 110.067 37.1893 109.285 37.5711C108.504 37.9528 107.919 37.5293 107.567 36.7957C106.938 35.5611 106.159 34.4091 105.246 33.366C104.982 33.0016 104.631 32.7091 104.224 32.5153C103.818 32.3216 103.369 32.2326 102.92 32.2566C100.879 32.3759 100.366 33.2169 101.357 34.9884C102.803 37.4503 104.473 39.7743 106.344 41.9312C107.084 42.8139 108.295 43.8279 106.666 45.0328C104.823 44.9195 104.178 43.2434 103.087 42.2115C102.508 41.6294 101.974 41.0054 101.488 40.3446C100.635 39.0801 100.122 37.5591 98.7076 36.7301C98.1394 35.4968 97.6473 34.2299 97.234 32.9366C96.8283 31.7436 97.234 31.0279 98.3676 30.5507C99.6443 29.9662 101.07 29.8171 102.311 29.1669Z" fill="#0C0C0C"/>
<path d="M107.323 105.347L106.935 104.583C106.535 103.814 106.935 103.355 107.561 102.979C108.373 102.49 109.071 101.84 109.912 101.38C110.938 100.826 111.666 100.229 111.457 98.7499C111.248 97.2707 112.37 97.0083 113.623 97.2648C115.693 98.2131 117.519 99.6506 119.69 100.354C119.852 100.266 119.991 100.142 120.096 99.9906C121.987 98.3563 121.373 96.1792 121.379 94.1452C121.379 93.012 120.293 92.7734 119.708 92.1173C118.897 90.0178 119.577 89.0336 121.796 89.1708C123.155 89.3133 124.502 89.5464 125.829 89.8686C126.587 89.9223 126.772 89.4869 126.826 88.8189C126.861 88.3298 126.623 87.6737 127.368 87.441C128.019 89.308 127.541 91.2405 127.685 93.1372C126.653 92.6958 125.638 92.2008 124.582 91.8191C122.966 91.2226 122.757 91.4135 123.085 93.0657C123.726 96.5465 123.195 100.142 121.575 103.289C120.979 104.482 120.418 104.732 119.601 103.51C119.356 103.17 119.083 102.853 118.783 102.561C116.319 99.9429 115.878 99.9071 112.925 101.893C111.105 103.122 109.423 104.524 107.323 105.347Z" fill="#141414"/>
<path d="M115.174 20.6196L114.398 20.2319C115.156 18.0608 116.343 16.0567 116.874 13.8021C117.821 9.8627 117.795 5.752 116.797 1.82518C116.648 1.22872 116.325 0.632258 116.904 0.178948C117.483 -0.274362 117.996 0.310182 118.467 0.602448C122.97 3.26915 126.685 7.08051 129.236 11.6489C128.878 11.5892 128.55 11.6131 128.407 12.0246C127.327 12.2871 127.213 11.291 126.79 10.7423C124.863 8.22521 123.007 5.64253 120.144 4.06788C118.694 3.94262 119.452 4.84328 119.547 5.3801C120.036 7.76594 120.83 10.1518 120.651 12.633C118.694 14.5059 118.229 17.1483 117.125 19.4685C116.743 20.3095 116.361 21.1326 115.174 20.6196Z" fill="#141414"/>
<path d="M35.1099 123.545C34.9488 123.986 34.913 124.63 34.5968 124.839C32.6698 126.092 33.0815 128 33.0695 129.796C33.0258 136.631 32.994 143.469 32.9741 150.308C32.9741 150.72 32.9741 151.137 32.9741 151.555C32.9741 151.972 32.8965 152.33 32.4312 152.3C31.9658 152.27 31.9181 151.877 31.9121 151.501C31.9121 151.024 31.9121 150.547 31.9121 150.075C31.942 142.703 31.9539 135.331 32.0195 127.959C32.0195 126.933 31.9718 126.062 30.8263 125.716C30.5996 125.215 30.892 124.893 31.2141 124.583C31.7597 124.353 32.2227 123.963 32.5422 123.465C32.8617 122.966 33.0227 122.383 33.0039 121.791C33.0417 121.571 33.1261 121.361 33.2517 121.176C33.3772 120.991 33.5409 120.834 33.7318 120.718C34.1328 120.629 34.5483 120.627 34.9499 120.714C35.3515 120.8 35.7297 120.972 36.0585 121.219C36.8818 121.851 36.9236 122.412 35.9034 122.877C35.5664 122.995 35.2843 123.233 35.1099 123.545Z" fill="#0C0C0C"/>
<path d="M35.11 123.545C34.9191 122.775 36.7149 122.793 35.82 121.755C35.5277 121.004 36.0288 120.747 36.5896 120.515C37.9771 119.923 39.2634 119.118 40.4019 118.129C42.7215 117.205 44.9811 116.138 47.1673 114.932C48.098 114.413 49.0168 113.864 49.864 114.932C50.7112 116 49.8998 116.799 49.2674 117.58C49.0022 117.819 48.7586 118.08 48.5395 118.362C46.1233 122.704 46.1531 127.368 46.7497 132.08C46.7643 132.197 46.7643 132.315 46.7497 132.432C46.5767 134.001 46.4633 134.108 45.5088 133.559C45.2165 132.45 44.8167 131.358 45.127 130.189C44.8615 128.036 44.8615 125.859 45.127 123.706C44.948 121.678 46.1292 119.936 46.5469 117.634L35.11 123.545Z" fill="#151515"/>
<path d="M1.5571 34.8034C1.21704 35.1434 2.1895 36.3304 0.79345 35.9964C-0.996354 27.6459 0.196837 19.7428 4.65941 12.3944C5.35147 11.6429 5.72136 12.1201 6.05546 12.7523C6.32393 13.5933 5.84666 14.2614 5.5066 14.9354C2.67639 20.4908 1.52582 26.75 2.19545 32.9485C2.26704 33.6404 2.35654 34.374 1.5571 34.8034Z" fill="#0F0F0F"/>
<path d="M31.5364 124.976L30.7966 125.716C28.5534 123.855 28.6488 121.946 31.1367 120.425C31.608 120.133 32.0972 120.008 32.1031 119.346C32.1031 115.558 32.3179 111.777 32.0495 108.013C32.0049 107.838 31.9302 107.673 31.8287 107.524L31.96 107.428C32.4203 107 32.9901 106.707 33.6066 106.581C34.4597 106.581 35.2055 106.695 35.1041 107.828C34.7163 107.9 34.2986 108.013 34.9251 108.365C35.3725 108.621 35.9453 108.663 36.1779 109.224C33.8751 110.184 34.1137 112.206 34.2151 114.103C34.2986 115.803 34.0123 117.479 34.0003 119.173L34.3941 119.978C34.6924 120.479 34.3941 120.777 34.0302 121.052L33.6841 122.101C32.2165 122.489 31.2679 123.264 31.5364 124.976Z" fill="#0F0F0F"/>
<path d="M52.8529 150.38C53.6822 150.743 54.3325 151.286 54.0461 152.276C53.7598 153.368 54.3444 153.469 55.1618 153.529C56.9516 153.66 58.7414 153.201 60.4596 153.887C54.3504 153.982 48.2591 153.63 42.0127 153.35C42.4422 152.384 43.1283 152.396 43.8025 152.366C46.529 152.246 49.2554 152.145 51.9819 152.014C52.495 152.014 53.1751 152.246 53.4674 151.733C53.7598 151.221 52.9484 150.898 52.8529 150.38Z" fill="#222222"/>
<path d="M75.142 153.881C76.8482 153.207 78.6381 153.69 80.3801 153.511C81.108 153.439 81.9313 153.696 82.5637 152.837C81.8597 152.193 80.7739 152.718 80.1415 152.097C84.915 151.906 89.696 152.153 94.4241 152.837C88.0314 153.662 81.5863 154.01 75.142 153.881Z" fill="#252525"/>
<path d="M5.48871 12.8597C5.46892 12.772 5.43115 12.6893 5.37779 12.617C5.32444 12.5446 5.25667 12.4841 5.17874 12.4392C5.10081 12.3944 5.01441 12.3662 4.92503 12.3564C4.83564 12.3467 4.74521 12.3555 4.65942 12.3825C7.10111 7.86394 10.7055 4.07924 15.0999 1.41956C14.7659 2.11741 15.6488 2.76756 15.1715 3.47138C12.3496 6.00037 9.57542 8.55916 7.41572 11.7204C6.9802 12.3646 6.59839 13.2652 5.48871 12.8597Z" fill="#1F1F1F"/>
<path d="M45.4789 133.541C46.3797 133.541 46.1232 132.814 46.2485 132.349C47.388 133.291 47.7161 134.388 46.9047 135.707C46.6117 136.255 46.4872 136.877 46.5468 137.496C45.9798 136.244 45.6192 134.909 45.4789 133.541Z" fill="#161616"/>
<path d="M63.0011 15.6511H61.6349C61.9293 14.9433 62.38 14.3111 62.9534 13.8021L63.6335 14.8996C64.1764 15.3052 64.2301 15.8778 63.7648 16.2476C63.1682 16.6592 63.2159 15.8897 63.0011 15.6511Z" fill="#1F1F1F"/>
<path d="M45.103 123.688C45.103 125.847 45.103 128.008 45.103 130.171C44.6556 128.033 44.6556 125.826 45.103 123.688Z" fill="#161616"/>
<path d="M63.0011 15.6512C64.0094 16.0746 63.5261 15.2396 63.6335 14.8996C64.4807 13.9632 64.5702 14.7207 64.7014 15.3827C64.2182 17.2318 64.7969 19.1166 64.4031 21.0133C63.9316 23.6965 62.6876 26.1839 60.8235 28.1708C60.8653 28.8627 60.4297 29.3638 59.9584 29.9602C61.1994 30.4791 61.784 29.4234 62.6073 29.2146C63.8629 28.3434 65.2165 27.6228 66.6404 27.0674C72.493 24.5563 76.6752 20.2857 79.4136 14.5417C79.6231 14.0108 79.8682 13.4947 80.1474 12.9969C80.571 12.3229 80.9409 12.4422 81.1438 13.1818C81.0174 13.3502 80.9349 13.5475 80.9036 13.7557C80.8724 13.9639 80.8934 14.1766 80.9648 14.3747C81.7501 18.4721 81.2716 22.7113 79.5926 26.5306C78.8886 27.8488 78.2562 29.2027 77.5761 30.5328C77.3315 31.2367 75.7863 31.6303 76.6155 32.4117C77.3315 33.0976 77.9221 31.8152 78.4948 31.35C78.952 30.9011 79.3747 30.4187 79.7596 29.9066C80.2356 29.1986 80.87 28.6111 81.6125 28.1908C82.3549 27.7705 83.1852 27.5288 84.0373 27.4849C89.9171 26.9374 95.8473 27.3993 101.571 28.8508L102.293 29.1789C103.021 29.3101 103.188 29.6381 102.454 29.9722C101.385 30.4538 100.28 30.8526 99.1492 31.1651C98.0574 31.4693 97.6517 31.8987 98.1827 33.032C98.7137 34.1653 99.0179 35.221 99.4296 36.3244C99.8472 37.923 101.118 39.0264 101.816 40.452C103.606 42.7961 105.581 44.9314 108.194 46.4166C108.235 46.4166 108.253 46.5537 108.289 46.5537C108.528 46.5537 108.289 46.3808 108.379 46.3032C108.405 46.1381 108.473 45.9822 108.575 45.8499C110.3 45.6471 111.338 44.5616 112.233 43.1718C114.709 39.3485 117.173 35.5312 118.348 31.0518C120.454 27.0435 121.092 22.7013 121.361 18.2517C121.54 15.3648 121.85 12.4482 121.361 9.54938C121.396 8.42207 121.361 7.24106 122.655 6.69829C124.785 7.47368 125.734 9.40624 126.939 11.0823C127.565 12.5734 127.494 14.4821 129.409 15.2038C129.539 15.3 129.65 15.4193 129.737 15.5557C130.25 16.516 130.286 17.7209 131.234 18.4545C132.851 23.0473 133.024 27.819 132.428 32.5489C131.528 40.3254 127.615 47.4393 121.528 52.3633C121.104 52.7152 120.334 53.1566 120.883 53.765C121.432 54.3734 121.927 53.592 122.327 53.2281C123.52 52.1485 124.66 51.0212 125.823 49.9118C127.356 49.8283 127.661 50.9974 127.917 52.0889C129.088 56.732 129.491 61.5353 129.111 66.3085C129.091 67.28 128.935 68.2439 128.645 69.1715C128.466 69.6248 128.198 69.8753 127.703 69.5831C127.106 69.3445 126.599 68.247 126.008 68.8614C125.513 69.3803 126.408 70.0543 126.79 70.5553C127.081 70.912 127.392 71.2526 127.72 71.5752C128.77 73.5853 130.411 75.2435 131.169 77.4146C131.622 78.7208 132.535 79.9257 132.105 81.4407C131.378 81.9298 131.097 81.1425 130.614 80.9218C128.518 80.0741 126.568 78.9049 124.833 77.4563C123.783 77.4563 123.365 77.8023 124.075 78.7686C124.567 79.5467 124.952 80.3872 125.221 81.2677C126.199 83.916 127.106 86.5822 126.79 89.481C126.73 90.0238 126.867 90.6262 126.306 91.002C124.737 90.6679 123.18 90.2445 121.599 90.0357C120.114 89.8329 119.869 90.316 120.549 91.7356C121.742 93.9246 121.522 96.2806 121.307 98.6068C121.272 99.4142 121.144 100.215 120.925 100.993C120.925 101.356 120.895 101.72 120.883 102.09C119.404 101.267 118.384 99.8236 116.803 99.1078C115.723 98.6307 114.709 97.9745 113.456 98.0998C113.026 98.1594 112.447 97.6883 112.209 98.3444C112.066 98.738 112.447 98.9408 112.805 99.1138C113.945 99.5731 113.402 100.026 112.805 100.45C110.868 101.822 108.927 103.186 106.983 104.542C102.947 106.459 98.763 108.049 94.4718 109.295C89.5618 110.631 84.5265 110.977 79.5568 111.681C75.3806 112.278 71.1387 112.051 66.9208 112.105C56.1044 112.23 45.4431 111.138 35.116 107.798L33.3262 107.053C32.8668 106.713 32.9562 106.218 32.9562 105.752C32.9562 102.132 32.9861 98.5173 32.9562 94.9028C32.9562 93.519 33.4395 92.8987 34.8714 92.9762C35.9273 93.0299 36.8819 92.517 37.8544 92.1173C38.1484 92.041 38.406 91.8633 38.5818 91.6156C38.7575 91.3679 38.8401 91.066 38.8149 90.7634C38.26 87.4649 38.4271 84.1367 38.3913 80.8144C38.3627 80.3407 38.2621 79.8741 38.093 79.4306C37.5501 77.6055 36.0765 76.9016 34.4239 76.5974C33.1889 76.3708 32.6758 75.7385 32.7892 74.5933C33.0398 72.0345 32.9861 69.4697 32.998 67.4358C33.1412 69.6069 32.8668 72.3029 32.8608 75.0049C32.8608 75.828 32.5923 76.4245 31.59 76.5616C30.6336 76.7331 29.7317 77.1298 28.959 77.7188C27.6644 78.6433 26.7456 79.7468 27.1692 81.4288C27.8553 84.2799 27.4317 87.113 27.0559 89.9283C26.9664 90.5964 26.8351 91.0854 27.378 91.5447C28.4293 92.3755 29.7096 92.8646 31.0471 92.9464C31.6437 93.0299 32.2403 93.0895 32.306 93.859C32.306 97.3483 32.306 100.844 32.306 104.339C32.306 106.206 32.0196 106.349 30.1821 105.645C29.8838 104.703 28.9471 104.607 28.2431 104.202C27.211 103.677 26.3101 102.943 25.3019 102.412C24.3294 101.679 23.2734 101.064 22.3666 100.259C21.9788 99.913 21.4418 99.585 21.6089 98.905C21.9012 98.5173 22.8797 98.6068 22.6172 97.9567C22.301 97.1693 21.6507 97.7837 21.1435 97.9567C20.9228 98.0282 20.7021 98.076 20.4754 98.1416C18.2142 98.243 16.6094 99.6506 14.9389 100.921C14.6048 101.172 14.3721 101.559 13.9963 101.738C13.2863 102.084 13.1909 101.619 13.2028 101.058C12.9403 98.3921 12.457 95.7378 12.8806 93.0418C12.9432 92.182 13.2426 91.3562 13.7457 90.656C13.4593 89.2364 12.4033 89.5108 11.5204 89.7553C10.3272 90.0774 9.18765 90.5844 8.03024 91.0139C6.71175 89.8627 7.37995 88.4014 7.43364 87.0593C7.57683 84.3932 8.7223 82.0133 9.82005 79.6334C9.9334 79.0966 10.8283 78.7805 10.3689 78.1244C10.0348 77.6412 9.51579 78.0051 9.08624 78.1244C6.9075 79.4283 4.61514 80.5322 2.23725 81.4228C1.58695 79.7706 2.42817 78.4047 3.08443 77.003C4.41954 74.3314 6.07429 71.8318 8.01235 69.5592C8.18536 69.1834 8.91322 68.7838 8.33452 68.4259C7.57683 67.9488 7.18307 68.9508 6.57453 69.1894C4.95178 68.408 5.32168 66.7022 5.24412 65.4973C4.99355 61.5905 4.84439 57.63 6.15095 53.8306C6.53278 52.7331 6.66403 51.2896 8.37031 51.2837C9.11606 51.9636 9.84988 52.6555 10.6076 53.3236C10.876 53.5621 11.234 53.8067 11.5562 53.5323C12.0096 53.1566 11.6576 52.7867 11.3951 52.4646C10.9894 51.9636 10.5658 51.4686 10.1482 50.9735C5.34555 44.4124 2.63101 37.0462 2.91141 28.9045C3.19181 20.7628 6.25238 13.3965 11.4309 7.0323C11.9082 6.43584 12.4749 5.71415 13.3698 6.19728C14.1394 6.62077 13.9664 7.4737 13.8054 8.1298C13.4295 9.48377 13.8352 10.8556 13.5727 12.1977C13.556 12.4021 13.5098 12.603 13.4354 12.7941C13.6085 13.152 11.9678 13.3906 13.3758 13.832C13.5309 14.0109 13.3758 13.7365 13.525 13.9274C14.4079 15.0905 15.3744 22.8266 14.8136 24.2044L14.4497 24.9201C17.8801 27.1449 18.5901 31.2605 20.9109 34.2905C23.2317 37.3205 25.5166 40.2551 28.4579 42.7066C28.9567 43.0321 29.3292 43.5182 29.5139 44.0844C29.5497 45.1878 28.44 45.3131 28.0701 45.8201C28.367 45.5877 28.6756 45.3707 28.9948 45.17C31.5483 43.8995 33.1352 41.6628 34.8356 39.4976C35.5873 38.5313 36.3032 37.7083 35.8378 36.3961C36.1361 34.9645 37.5501 33.7895 36.7984 32.1254C36.5717 31.5289 36.8759 30.8847 36.7984 30.2644C37.1205 28.8866 38.3853 28.7494 39.4055 28.4273C41.2729 27.8309 43.2417 27.634 45.1508 27.2344C48.9571 26.3815 52.9066 25.8506 56.2893 23.769C59.2723 21.914 61.8318 19.4864 63.0727 16.015C62.9892 15.8599 62.9951 15.7406 63.0011 15.6512Z" fill="#FE0000"/>
<path d="M208.083 58.5186C206.526 57.9222 204.986 57.3257 203.417 56.7889C202.612 56.5085 202.564 56.097 202.97 55.4528C203.501 54.6118 203.25 53.9676 202.373 53.5919C198.996 52.1365 195.727 50.4127 192.052 49.7507C188.789 49.1542 186.348 50.4366 184.929 53.4487C184.83 53.5975 184.764 53.7653 184.736 53.9412C184.707 54.1172 184.715 54.2972 184.761 54.4696C184.807 54.6419 184.888 54.8027 185 54.9413C185.113 55.0799 185.253 55.1933 185.412 55.2739L197.66 63.517C198.418 64.0299 199.002 63.6542 199.563 63.1472C199.677 63.0935 199.832 63.0338 199.897 63.1054C201.616 64.9365 203.262 66.8154 204.199 69.1953C202.29 68.7479 200.392 68.241 198.471 67.8592C197.445 67.6564 196.843 67.4238 197.547 66.2726C198.173 65.2527 197.487 64.7158 196.688 64.3281C192.571 62.336 188.425 60.3975 184.32 58.3635C183.222 57.8208 182.62 58.0773 181.975 59.0495C179.291 63.0995 179.822 66.0281 183.855 68.7539C186.325 70.424 189.051 71.6169 191.664 73.0305C193.209 73.8656 194.206 73.6926 194.928 72.1C196.049 73.5256 197.111 74.9988 198.37 76.317C198.817 76.7823 199.408 77.3131 199.175 78.1064C197.386 78.2913 195.649 77.6769 193.878 77.5457C193.466 77.5159 192.959 77.2952 192.917 76.8538C192.78 75.2135 191.461 74.8855 190.304 74.2771C187.224 72.7194 184.263 70.9371 181.444 68.9447C177.93 66.3621 177.358 64.0061 179.541 60.2424C180.108 59.2642 180.734 58.3337 181.301 57.3496C181.868 56.3654 181.57 55.7988 180.544 55.4051C175.545 53.4759 170.313 52.2144 164.984 51.6534C158.34 51.0097 151.635 51.5571 145.183 53.2698C144.716 53.3615 144.244 53.4232 143.769 53.4547C143.56 53.0431 143.912 52.9298 144.139 52.7509C147.874 51.2776 151.799 50.7169 155.755 50.2278C162.83 49.357 169.757 50.2279 176.636 51.7906C178.26 52.1931 179.854 52.7052 181.409 53.3235C182.566 53.7589 183.24 53.4726 183.944 52.4645C184.648 51.4565 184.863 49.9773 186.008 49.1781C187.202 49.0946 188.067 48.2178 189.158 48.0388C190.553 47.7346 192.006 47.8509 193.335 48.3728C194.528 48.9275 195.9 49.1065 197.022 49.8759C198.352 50.4426 199.551 51.3074 200.971 51.6653C201.371 51.9158 201.771 52.1604 202.164 52.4228C203.22 53.1326 204.252 53.9438 205.225 52.2856C205.374 52.0351 205.762 52.1305 206.018 52.3333C205.535 53.6098 206.764 54.242 207.092 55.2202C207.265 56.4012 208.649 57.1468 208.083 58.5186Z" fill="#940000"/>
<path d="M127.685 69.583C128.227 69.2967 128.281 68.7957 128.395 68.241C129.164 63.3023 128.609 58.4412 127.547 53.6099C127.284 52.2661 126.719 50.9997 125.895 49.9058C127.267 48.2596 127.225 48.2775 128.18 50.0788C128.774 51.314 129.109 52.6578 129.164 54.0274C129.474 57.5584 130.357 61.0596 129.552 64.6563C129.206 66.1653 129.993 67.7519 129.087 69.3445C128.514 70.3644 128.233 70.0006 127.685 69.583Z" fill="#940000"/>
<path d="M126.623 11.3089C125.662 9.68053 124.183 8.50553 122.983 7.08595C121.868 6.78772 121.116 5.74389 119.923 5.60671C119.195 4.6643 118.986 3.86507 120.519 3.54895C123.329 5.30851 125.352 7.83151 127.273 10.4619C127.655 10.9868 128.043 11.5057 128.43 12.0246C128.904 12.9869 129.377 13.9472 129.85 14.9055C130.137 15.3529 130.065 15.6272 129.48 15.6392H129.427C127.995 14.5119 127.404 12.8477 126.623 11.3089Z" fill="#9D9D9D"/>
<path d="M131.992 81.3631C131.239 78.6485 130.065 76.0684 128.514 73.7165C128.12 73.12 127.219 72.5653 127.696 71.5812C130.68 74.2235 132.111 77.6889 132.982 81.4526C133.078 81.8582 133.412 82.6455 132.356 82.4308C132.212 82.2966 132.103 82.129 132.04 81.9427C131.976 81.7564 131.96 81.5573 131.992 81.3631Z" fill="#959595"/>
<path d="M131.992 81.3631L132.362 82.4308C131.268 81.7327 130.054 81.2415 128.782 80.9814C126.706 80.5698 125.549 79.2815 124.797 77.4563C127.601 78.0408 129.785 79.7288 131.992 81.3631Z" fill="#940000"/>
<path d="M144.139 52.7927L143.769 53.4965C139.593 55.0473 135.452 56.6399 131.455 58.5963C135.241 55.8134 139.558 53.8381 144.139 52.7927Z" fill="#940000"/>
<path d="M126.289 91.0019C126.528 88.1036 126.137 85.1877 125.143 82.4546C124.988 82.055 124.863 81.6613 125.203 81.2617C126.814 83.0034 126.957 85.2699 127.368 87.4351C127.368 88.4371 127.416 89.4332 127.368 90.4174C127.357 91.1928 127.058 91.6103 126.289 91.0019Z" fill="#969696"/>
<path d="M193.43 48.8679C191.604 48.3465 189.654 48.473 187.912 49.2258C187.315 49.4763 186.617 49.9535 185.979 49.2258C188.711 46.9056 191.384 46.6849 194.498 48.5279C194.373 49.3391 193.866 48.9992 193.43 48.8679Z" fill="#B3B3B3"/>
<path d="M199.175 78.1482C198.352 76.7823 197.123 75.7624 196.133 74.5277C195.536 73.8179 194.743 73.2035 194.939 72.112C195.703 71.9689 195.936 72.613 196.282 73.0425C197.475 74.5018 198.64 75.9731 199.778 77.4563C199.969 77.7009 200.345 78.0528 199.838 78.2973C199.676 78.3749 199.396 78.2079 199.175 78.1482Z" fill="#9F9F9F"/>
<path d="M204.199 69.1954L199.563 63.1473C199.718 62.5985 200.088 62.1631 200.518 62.7536C201.932 64.704 203.25 66.72 204.581 68.7182C204.718 68.9448 204.473 69.1596 204.199 69.1954Z" fill="#949494"/>
<path d="M208.083 58.5187C207.969 57.29 206.985 56.449 206.651 55.3158C206.651 55.0175 206.698 54.7193 207.039 54.5642C207.635 55.6498 208.232 56.7174 208.828 57.8269C209.204 58.644 209.007 59.0078 208.083 58.5187Z" fill="#727272"/>
<path d="M129.457 15.6511L129.826 14.9175C130.539 15.9947 131.041 17.1968 131.306 18.4605C131.211 18.7587 131.181 19.3074 130.757 18.6692C130.133 17.7566 129.691 16.7317 129.457 15.6511Z" fill="#FE0000"/>
<path d="M193.43 48.8679L194.498 48.522C195.876 48.522 196.843 49.5061 198.024 49.9773C197.916 50.8124 197.427 50.4128 197.022 50.2935L193.43 48.8679Z" fill="#888888"/>
<path d="M197.022 50.2936L198.024 49.9774C199.068 50.4231 200.046 51.0112 200.929 51.725C199.384 51.9099 198.227 51.0332 197.022 50.2936Z" fill="#606060"/>
<path d="M207.039 54.5642L206.669 55.3157C206.311 54.7849 205.935 54.26 205.601 53.7113C205.267 53.1625 205.082 52.6018 205.994 52.3931L207.039 54.5642Z" fill="#919191"/>
<path d="M47.9728 117.741C47.9728 117.443 48.0612 117.152 48.2269 116.905C48.3926 116.658 48.6281 116.465 48.9035 116.351C49.2853 116.173 49.7208 115.91 49.4166 115.421C49.1123 114.932 48.5992 115.111 48.1696 115.373C45.8216 116.751 43.3607 117.926 40.8136 118.886C39.4665 119.571 38.0397 120.086 36.5658 120.419C35.8976 120.622 35.1458 120.658 35.0862 119.602C38.5405 117.306 42.0187 115.045 45.4253 112.689C46.7676 111.759 48.0802 112.576 49.3927 112.457C53.74 113.135 58.122 113.569 62.5179 113.757C68.5157 113.969 74.5207 113.814 80.4995 113.292C82.6711 113.125 84.8129 112.761 86.9607 112.421C87.3067 112.367 87.6527 112.206 87.9928 112.421C89.8672 115.4 91.1137 118.731 91.6559 122.209C92.3599 126.318 92.7477 130.47 91.5605 134.585C90.242 135.182 89.6692 134.806 89.5141 133.327C89.4065 132.509 89.4065 131.681 89.5141 130.863C89.9704 127.699 89.8103 124.477 89.0428 121.374C88.4694 119.501 87.6848 117.7 86.7041 116.006C86.4058 115.546 86.2686 114.586 85.5527 114.938C84.8368 115.29 85.3976 116.089 85.6243 116.644C85.9882 117.527 86.4595 118.356 86.8175 119.244C88.6371 123.927 88.303 128.68 87.1874 133.44C85.7913 139.405 82.5697 144.606 79.7597 149.962C78.2085 150.558 77.7611 149.252 77.2599 148.352C76.55 147.093 76.4903 145.757 77.606 144.6C78.0773 143.24 77.1048 143.288 76.2576 143.21C74.2232 143.019 72.2306 143.538 70.2141 143.532C66.4078 143.532 62.6014 143.532 58.7951 143.532C58.0227 143.435 57.2385 143.559 56.534 143.89C57.5423 145.548 57.232 147.212 56.5042 148.841C56.1164 149.723 55.5138 150.433 54.3803 150.332C52.7396 148.936 52.1609 146.866 51.093 145.107C50.1742 143.592 49.4583 141.952 48.6529 140.365C48.5441 138.849 48.1043 137.375 47.3642 136.047C46.8691 132.468 46.171 128.889 46.4634 125.215C46.6836 123.326 47.0425 121.456 47.5372 119.62C47.7043 119.006 48.0802 118.421 47.9728 117.741Z" fill="#FE0000"/>
<path d="M109.81 116.757C113.036 119.069 116.118 121.575 119.04 124.26C122.971 127.839 122.93 133.583 121.528 137.794C120.657 140.413 118.909 142.405 116.964 144.26C112.054 147.588 106.637 148.262 100.909 147.367C98.6034 147.093 96.3204 146.652 94.078 146.049C93.2309 145.894 92.4135 145.596 91.5485 145.512C91.2024 145.477 90.7788 145.512 90.8683 144.987C90.8828 144.9 90.9145 144.815 90.9617 144.74C91.0089 144.664 91.0706 144.599 91.1433 144.547C91.216 144.495 91.2982 144.459 91.3852 144.439C91.4721 144.42 91.5621 144.417 91.6499 144.433C92.2465 144.486 92.8431 144.29 93.3741 144.6C97.9082 145.351 102.371 146.658 107.042 146.389C109.244 146.27 111.403 146.019 113.384 144.958C114.088 143.431 115.77 143.043 116.862 141.91C121.331 137.21 122.882 129.462 116.463 124.016C114.321 122.197 111.845 120.795 109.966 118.648C109.614 118.248 109.077 118.022 109.053 117.389C109.148 117.049 109.256 116.638 109.81 116.757Z" fill="#FE0000"/>
<path d="M109.458 117.461C111.934 119.942 114.894 121.851 117.519 124.177C124.373 130.261 121.158 140.693 114.816 144.242C114.345 144.504 113.861 144.731 113.384 144.97C112.901 144.081 112.101 144.731 111.469 144.576C114.679 143.216 117.31 141.206 118.909 138.015C121.14 133.547 120.472 129.002 117.023 125.376C115.817 124.147 114.478 123.055 113.032 122.119C109.189 119.482 106.176 115.806 104.346 111.52C103.779 110.256 103.498 108.794 102.317 107.852C102.818 107.321 103.725 108.603 104.107 107.458C105.897 110.285 106.827 113.626 109.172 116.137C109.53 116.53 109.065 117.085 109.458 117.461Z" fill="#151515"/>
<path d="M47.9727 117.741C49.2614 117.365 48.4082 118.224 48.3366 118.457C46.5886 124.302 46.8093 130.177 47.9667 136.076C48.2054 136.601 48.4977 137.132 47.6804 137.43C47.2883 136.919 47.0281 136.319 46.9227 135.683C46.8426 134.543 46.6222 133.417 46.2664 132.331C45.4789 127.308 45.6161 122.417 47.9727 117.741Z" fill="#940000"/>
<path d="M89.0785 121.392C90.224 124.159 90.1465 127.082 90.1524 129.993C90.1524 130.947 90.1524 131.901 90.1823 132.85C90.2121 133.798 90.5044 134.502 91.5783 134.603C90.8862 135.659 90.4149 136.989 88.7325 136.75C88.3027 136.11 88.138 135.327 88.2731 134.567C89.4754 130.283 89.7499 125.791 89.0785 121.392Z" fill="#940000"/>
<path d="M77.6298 144.606C77.5463 146.717 77.6895 148.733 79.7835 149.974C78.6619 151.167 77.8088 151.071 76.884 149.646C76.2099 148.602 75.6133 147.534 75.0047 146.461C74.253 145.131 74.4797 144.725 76.0369 144.63C76.5678 144.594 77.0988 144.612 77.6298 144.606Z" fill="#940000"/>
<path d="M54.4041 150.344C56.3251 148.596 56.349 146.216 56.5578 143.902C56.7089 144.082 56.8858 144.239 57.0828 144.367C59.2306 145.292 59.2485 145.292 58.2402 147.528C57.8763 148.328 57.399 149.073 56.9635 149.837C56.3251 150.994 55.4779 151.286 54.4041 150.344Z" fill="#940000"/>
<path d="M93.374 144.6C92.7178 144.659 92.0198 144.51 91.1726 145.005L94.078 146.049C91.0055 146.007 88.3566 144.212 85.3438 143.908C84.9799 143.872 84.6279 143.616 84.7472 143.186C84.9441 142.59 85.481 142.673 85.9404 142.787C88.4262 143.383 90.9041 143.987 93.374 144.6Z" fill="#940000"/>
<path d="M47.6625 137.43C47.8896 137.017 47.9893 136.546 47.9488 136.076C48.4798 137.46 49.3329 138.79 48.6767 140.377C48.1567 139.467 47.8126 138.467 47.6625 137.43Z" fill="#940000"/>
<path d="M13.2744 12.3467C12.475 10.5215 13.2207 8.63673 13.1551 6.38211C11.2535 8.38548 9.63743 10.6415 8.35245 13.0863C2.54155 23.5005 2.3029 34.1175 7.28453 44.9015C8.22716 46.9354 9.15189 48.9753 10.0826 51.0093C6.01377 47.2277 3.6572 42.4679 2.18956 37.2012C1.96285 36.4019 1.76598 35.6027 1.55717 34.8153C0.356956 27.2668 1.74237 19.5343 5.48877 12.8716C7.87517 9.54335 10.3033 6.25087 13.7099 3.86503C14.1276 3.5668 14.4795 2.7914 15.1716 3.48329L14.6824 5.5053C14.208 7.12027 14.0222 8.80626 14.1335 10.4858C14.1574 10.843 14.0912 11.2006 13.9411 11.5257C13.7911 11.8508 13.5618 12.1331 13.2744 12.3467Z" fill="#C2C2C2"/>
<path d="M32.2464 93.8768C31.0532 93.6263 29.86 93.3758 28.6668 93.1372C27.9565 93.041 27.3131 92.6679 26.877 92.0993C26.877 91.0854 27.7182 91.306 28.2849 91.1271C29.6452 91.5983 30.8622 91.7832 31.8645 90.3279C32.3478 89.6419 33.2307 89.6718 33.8035 90.5128C34.0118 90.8713 34.3099 91.1694 34.6686 91.3776C34.9609 91.4313 35.2652 91.3776 35.5456 91.3776C35.826 91.3776 36.2853 91.3776 36.3032 90.9184C36.3032 90.5426 35.987 90.4293 35.7066 90.4233C35.1299 90.3412 34.5624 90.2034 34.0123 90.0117C33.6849 89.8428 33.3218 89.7546 32.9533 89.7546C32.5849 89.7546 32.2218 89.8428 31.8944 90.0117C30.73 90.5126 29.4488 90.6778 28.1954 90.4889C27.5272 90.2205 27.2409 89.7851 27.5451 89.0753C28.0153 88.591 28.5811 88.2099 29.2067 87.9563C29.8322 87.7027 30.5037 87.582 31.1784 87.602C32.4074 87.602 33.6543 87.5066 34.8774 87.5483C36.4524 87.602 36.8104 86.8923 36.7507 85.5204C36.6231 84.2289 36.6935 82.9255 36.9595 81.6553C37.1683 80.9455 37.0848 80.1701 37.4487 79.4961C37.7172 78.9951 37.9081 78.3688 38.6897 78.8281C38.9811 79.4153 39.103 80.0722 39.0416 80.7248C39.1132 83.8622 38.8388 86.9996 39.328 90.131C39.6442 92.159 38.0931 92.7316 36.5479 93.1849C33.3202 94.1333 33.3202 94.1333 33.3202 97.6166C33.3202 100.758 33.3202 103.899 33.3202 107.041C33.2486 108.693 32.4373 107.393 31.9481 107.387C33.0577 102.919 32.7356 98.398 32.2464 93.8768Z" fill="#0C0C0C"/>
<path d="M8.3047 51.3195C6.66405 53.3713 6.43137 55.9122 6.06148 58.3338C5.46085 61.9565 5.61317 65.664 6.50893 69.2252C5.78704 69.8217 5.25009 69.8753 5.04725 68.7779C4.83215 67.974 4.66876 67.1571 4.55805 66.3323C4.28958 61.2266 3.40661 56.0732 5.56631 51.1226C6.42541 49.1424 6.43136 49.1424 7.86321 50.7588C8.00043 50.9377 8.15555 51.1346 8.3047 51.3195Z" fill="#940000"/>
<path d="M7.94669 69.595C8.1376 70.3584 7.52906 70.7879 7.19496 71.3008C5.16055 74.474 2.98296 77.5756 2.17755 81.3631C2.04033 81.6375 1.7838 81.894 1.53322 81.6793C1.45782 81.6154 1.39724 81.5359 1.35569 81.4463C1.31413 81.3567 1.2926 81.2591 1.2926 81.1603C1.2926 81.0616 1.31413 80.964 1.35569 80.8743C1.39724 80.7847 1.45782 80.7053 1.53322 80.6414C1.86732 75.8936 4.49833 72.5176 7.94669 69.595Z" fill="#A8A8A8"/>
<path d="M9.75443 79.6394C10.0468 80.1345 9.75443 80.5639 9.56949 80.9755C8.2152 84.1964 7.9348 87.5842 7.9527 91.0198C6.50296 91.8072 6.68193 90.5725 6.6163 89.8687C6.26893 86.1783 7.3972 82.5005 9.75443 79.6394Z" fill="#A1A1A1"/>
<path d="M13.6681 90.6619C13.1312 94.3599 13.2983 98.0758 13.34 101.792C13.4193 101.877 13.4633 101.989 13.4633 102.105C13.4633 102.221 13.4193 102.333 13.34 102.418C12.2661 99.1972 11.5979 95.9286 12.2244 92.5168C12.4093 91.6579 12.7016 90.9064 13.6681 90.6619Z" fill="#940000"/>
<path d="M1.54515 80.6652C1.67043 80.9873 1.49145 81.5659 2.17754 81.3869C4.30144 79.9853 6.25233 78.2138 9.02056 78.184C8.77739 78.7882 8.38786 79.3226 7.88697 79.739C7.38607 80.1554 6.7895 80.4409 6.15091 80.5698C5.03299 80.9373 3.94414 81.3879 2.89347 81.9178C2.42812 82.1206 1.9568 82.6097 1.45566 82.1325C0.954514 81.6554 1.24088 81.1066 1.54515 80.6652Z" fill="#940000"/>
<path d="M13.3699 102.418C13.3699 102.209 13.3699 102.001 13.3699 101.792C14.811 100.171 16.6195 98.9198 18.6438 98.1416C19.2404 97.9328 19.837 97.5451 20.4336 98.1416C17.737 99.0422 15.7563 101.046 13.3699 102.418Z" fill="#8F8F8F"/>
<path d="M21.5313 98.905L25.4033 102.138C25.4033 102.788 25.0334 102.621 24.6695 102.502L21.2211 100.295C20.0458 99.5432 20.529 99.1555 21.5313 98.905Z" fill="#940000"/>
<path d="M24.6694 102.502L25.4033 102.138C26.5189 102.472 27.2766 103.396 28.2908 103.891C28.2908 104.488 27.9985 104.488 27.5868 104.249L24.6694 102.502Z" fill="#940000"/>
<path d="M27.5868 104.249L28.2908 103.891C29.077 104.113 29.7976 104.523 30.3908 105.084C30.9099 105.514 30.4743 105.603 30.1045 105.681L27.5868 104.249Z" fill="#940000"/>
<path d="M88.0107 112.439C80.026 114.289 71.809 114.932 63.6336 114.347C59.2485 114.031 54.8575 113.96 50.5739 112.856C50.1802 112.755 49.7924 112.594 49.3807 112.457C54.5831 112.767 59.7855 113.22 64.9878 113.351C68.9493 113.447 72.9226 113.202 76.8841 112.975C80.0162 112.797 83.1364 112.409 86.2626 112.123C86.8642 112.036 87.4777 112.147 88.0107 112.439Z" fill="#1F1F1F"/>
<path d="M35.0981 119.602C37.1206 120.252 38.9103 119.071 40.8254 118.886C39.4413 120.336 37.2458 120.407 35.82 121.744C35.0205 122.018 34.5611 121.439 34.0302 121.034L34.3941 119.96L35.0981 119.602Z" fill="#940000"/>
<path d="M79.4315 14.5477C79.7656 16.516 78.6082 18.0012 77.582 19.379C73.7996 24.4311 68.991 28.0218 62.6252 29.1908C63.538 27.7414 64.4568 26.298 65.3517 24.8367C65.6343 24.2447 66.1311 23.7821 66.7418 23.5423C71.5743 22.0213 75.3985 19.057 78.6321 15.2396C78.8788 14.9871 79.1462 14.7557 79.4315 14.5477Z" fill="#940000"/>
<path d="M101.589 28.8388C96.6793 28.7076 91.7931 27.8844 86.8712 28.1588C84.4311 28.296 81.8359 28.0873 79.7776 29.8945C80.4219 28.63 81.0841 27.3775 81.6986 26.1011C81.8743 25.6896 82.1876 25.3521 82.5849 25.1464C82.9823 24.9407 83.4388 24.8797 83.8762 24.9737C89.0726 25.4688 94.1199 26.8586 99.2745 27.5803C100.161 27.7419 100.972 28.1829 101.589 28.8388Z" fill="#940000"/>
<path d="M79.0318 26.6499C80.225 22.5283 81.2452 18.3948 80.5651 14.0466C80.5114 13.6768 80.2429 12.9611 81.1617 13.1877C82.0864 16.8023 82.3907 20.399 81.2512 24.0493C80.7417 25.6206 79.9954 27.105 79.0378 28.4512C78.5784 28.0873 78.5784 28.0873 79.0318 26.6499Z" fill="#B7B7B7"/>
<path d="M60.8414 28.1231C63.0034 24.4088 64.1091 20.1746 64.0392 15.8778C64.0392 15.4662 64.2063 15.1859 64.7014 15.3529C65.8946 19.7846 65.4651 23.8644 62.1539 27.3298C61.79 27.7115 61.45 28.1768 60.8414 28.1231Z" fill="#AEAEAE"/>
<path d="M79.0318 26.6498C79.1272 27.2462 78.7215 27.8427 79.0318 28.4392C78.9602 29.4114 78.0713 29.8229 77.588 30.5089C77.5582 29.0416 78.4471 27.9023 79.0318 26.6498Z" fill="#8D8D8D"/>
<path d="M29.0426 44.2156C24.753 41.1737 21.6507 37.0581 18.8288 32.7397C17.7068 31.0638 16.7212 29.3006 15.8816 27.467C15.5892 26.8169 15.446 25.7671 14.2469 25.8923C13.9545 25.9222 13.9367 25.7731 14.3841 24.9142C15.5415 25.2005 16.2574 24.3177 17.027 23.7809C18.1785 22.9697 18.96 23.1188 19.9146 24.1328C22.4084 26.7632 25.2005 29.0118 28.6667 30.2763C29.2633 31.0875 28.4997 31.5349 28.0701 31.9226C27.0854 32.8969 26.2778 34.0352 25.6837 35.2866C26.2803 33.5986 27.8076 32.2566 29.1321 30.7773C29.8062 30.0318 30.7071 30.3598 31.4648 30.4791C32.658 30.664 33.7796 30.9443 34.9549 31.0756C36.1302 31.2068 36.518 31.8629 36.0765 33.032C35.289 35.1077 34.0242 37.0163 33.8333 39.3067C32.9444 40.7561 31.9301 42.1339 31.1009 43.631C30.6296 43.8935 30.367 44.4661 29.7704 44.5556C29.6308 44.561 29.4919 44.533 29.3653 44.4738C29.2387 44.4147 29.128 44.3261 29.0426 44.2156Z" fill="#940000"/>
<path d="M62.9892 15.9731C62.9892 19.0807 60.8176 20.888 58.7832 22.6595C54.9232 26.0235 50.0668 27.0792 45.2344 28.1052C43.4446 28.4869 41.613 28.7791 39.8232 29.2026C38.8627 29.4293 37.8186 29.6202 37.2578 30.6163C37.055 30.9205 36.8163 31.2127 36.4226 31.165C34.5134 30.9443 32.5208 31.1054 30.8324 29.9005C30.9704 29.6066 31.1721 29.3471 31.4229 29.1408C31.6736 28.9344 31.9671 28.7865 32.2822 28.7076C35.0733 27.5217 38.0176 26.7346 41.0283 26.3694C45.0315 25.8624 49.0347 25.272 52.9962 24.4906C55.7763 23.9419 57.8107 21.9855 59.7019 19.9933C60.8832 18.7169 61.8974 17.3092 62.9892 15.9731Z" fill="#940000"/>
<path d="M30.8323 29.9005L37.2577 30.6163C37.9915 31.0994 37.4904 31.5647 37.2577 32.0299C37.3293 34.0698 36.1063 35.6086 35.1577 37.2191C34.6983 38.0004 34.5014 39.1516 33.2366 39.1874C32.5565 38.591 33.2008 38.078 33.4335 37.6128C34.1857 36.1238 34.8355 34.5854 35.3784 33.0081C35.6111 32.34 35.635 31.8629 34.7818 31.7138C33.6662 31.5348 32.5625 31.2962 31.4528 31.0696C31.0172 30.9762 30.5644 31.0042 30.1436 31.1504C29.7228 31.2966 29.3502 31.5554 29.0664 31.8987C27.6703 33.4375 26.1908 34.9227 25.4868 36.9507C25.3555 37.3324 25.278 37.7678 24.8305 37.9528C24.5083 36.1634 25.3436 34.4992 28.7323 30.2763C28.8039 29.9602 28.0044 29.2683 29.0664 29.3935C29.6678 29.5145 30.2584 29.684 30.8323 29.9005Z" fill="#0A0A0A"/>
<path d="M14.7479 24.1983C13.7879 20.8247 13.304 17.3334 13.3101 13.8259C14.1036 13.5157 14.9508 13.3428 15.0462 14.5059C15.2192 16.6054 16.3707 18.3053 17.2358 20.1007C17.7906 21.2518 17.7369 21.89 16.6392 22.5939C15.9669 23.0774 15.3345 23.6139 14.7479 24.1983Z" fill="#940000"/>
<path d="M13.2744 12.3468C13.6383 10.0444 13.7696 7.68838 14.6824 5.49341C14.6227 7.16946 14.2409 8.82765 14.6824 10.5216C14.9628 11.6072 14.1455 12.2215 13.3758 12.7881C13.3699 12.6688 13.3102 12.4959 13.2744 12.3468Z" fill="#940000"/>
<path d="M109.458 117.461C107.335 114.306 105.348 111.073 104.089 107.458C104.316 107.643 104.632 107.78 104.745 108.019C106.218 111.05 107.909 113.971 109.804 116.757C109.691 116.99 109.572 117.222 109.458 117.461Z" fill="#940000"/>
<path d="M108.748 45.9692V46.3926C107.508 46.4344 106.702 45.9154 106.505 44.6032C107.048 43.6012 106.219 43.0286 105.718 42.462C103.488 39.93 101.531 37.1712 99.877 34.2308C98.9403 32.5906 99.0656 32.2923 100.861 31.7973C104.363 30.831 104.572 30.9145 106.827 33.8371C107.603 34.8511 108.229 35.9605 108.987 37.0163C108.883 34.9923 108.053 33.0737 106.648 31.6124C105.581 30.485 105.789 29.7752 106.965 29.143C109.524 27.7652 111.511 25.7372 113.372 23.5721C114.38 22.3792 115.46 22.7967 116.594 23.2739C117.31 23.5781 117.918 24.4668 118.843 23.751C120.806 24.252 119.607 25.2839 119.249 26.1726C117.896 31.8263 115.272 37.0974 111.576 41.5851C110.407 42.9391 109.112 44.1499 108.748 45.9692Z" fill="#940000"/>
<path d="M118.401 25.9758C118.401 25.5762 118.372 25.1109 118.807 24.938C119.941 24.5026 119.058 24.1387 118.807 23.745V23.1188C118.492 22.5462 118.377 21.8852 118.479 21.2399C118.873 19.3761 119.039 17.4714 118.974 15.5676C118.885 14.1122 119.881 13.3308 120.681 12.4063C120.925 11.2134 120.561 10.0921 120.346 8.94688C120.191 8.10587 119.857 7.19925 120.842 6.56104C121.641 6.56104 121.719 7.074 121.79 7.68835C121.862 8.30271 121.647 8.95882 121.969 9.55528C123.133 16.4265 122.232 23.1068 120.084 29.6619C119.845 30.3836 119.487 31.0636 119.165 31.7615C117.817 31.1173 118.503 30.0973 118.73 29.2026C118.968 28.0932 119.481 26.9838 118.401 25.9758Z" fill="#BBBBBB"/>
<path d="M121.134 12.8417C119.941 13.3428 119.839 14.3269 119.833 15.4841C119.833 18.0727 119.762 20.6673 118.783 23.1247C117.435 22.5283 115.884 22.1644 115.174 20.6196C116.54 19.6593 116.695 18.0489 117.268 16.671C117.942 15.0487 118.646 13.468 120.173 12.4362C120.663 12.1677 120.961 12.3586 121.134 12.8417Z" fill="#940000"/>
<path d="M106.493 44.6271C107.168 45.3071 107.77 46.0765 108.737 46.4165C108.975 46.9294 109.661 47.1442 109.697 47.9673C106.462 46.1948 103.684 43.6932 101.583 40.6606C101.351 40.261 101.303 39.9568 101.917 39.9866C103.457 41.5315 104.507 43.5237 106.493 44.6271Z" fill="#940000"/>
<path d="M101.917 39.9628C101.804 40.1835 101.697 40.4101 101.583 40.6368C100.873 39.1993 99.197 38.251 99.4475 36.3423C100.449 37.4178 101.281 38.6384 101.917 39.9628Z" fill="#940000"/>
<path d="M120.907 101.022C120.991 97.9219 120.865 94.8193 120.531 91.7356C121.778 92.0577 121.844 93.1671 121.915 94.1214C122.094 96.4655 122.136 98.8454 120.907 101.022Z" fill="#940000"/>
<path d="M113.438 98.1415C114.703 97.4735 115.776 98.237 116.785 98.738C118.41 99.4978 119.815 100.66 120.865 102.114C120.364 102.585 120.006 102.227 119.672 101.881C117.95 100.12 115.802 98.8326 113.438 98.1415Z" fill="#828282"/>
<path d="M121.134 12.8418L120.173 12.4362C119.416 11.1598 119.666 9.67458 119.362 8.30272C118.915 6.31054 118.658 4.28259 118.306 2.16516C119.356 2.36796 119.857 3.06582 120.496 3.54895C119.821 4.14541 119.774 4.69413 120.496 5.27269C121.259 5.559 121.408 6.01829 120.901 6.6744C120.933 7.7889 121.114 8.89417 121.438 9.9609C121.641 10.951 121.784 11.9411 121.134 12.8418Z" fill="#BDBDBD"/>
<path d="M31.5364 124.976C30.7369 124.195 29.8003 123.455 30.7727 122.185C31.7452 120.914 32.6878 121.451 33.6841 122.083C34.1376 124.088 33.7199 124.642 31.5364 124.976Z" fill="#940000"/>
<path d="M118.402 25.9759C119.851 25.6359 120.496 26.2443 120.138 27.6639C119.78 29.0834 119.046 30.3062 119.141 31.7854C117.65 36.6465 114.965 40.8576 112.078 44.9851C111.925 45.1732 111.788 45.3726 111.666 45.5815C110.902 47.2277 109.918 47.2456 108.749 45.9931C107.609 45.0328 107.693 44.3349 108.814 43.2016C112.888 39.1768 115.876 34.1865 117.501 28.6957C117.775 27.7653 118.097 26.8765 118.402 25.9759Z" fill="#C2C2C2"/>
<path d="M88.3507 89.2126C87.5933 89.6321 86.7104 89.7655 85.8628 89.5883C85.2615 90.2737 84.4374 90.7249 83.5359 90.8624C82.6344 90.9999 81.7133 90.8148 80.9349 90.3399C74.3311 91.0494 67.6792 91.1991 61.0502 90.7872C57.9777 90.5844 54.9111 90.4055 51.8625 89.9701C50.2338 91.3956 48.802 90.3459 47.3403 89.6301L44.584 89.0336V88.5922C59.0575 89.2424 73.537 89.7315 87.9987 88.5266C88.6251 88.5028 88.6132 88.7951 88.3507 89.2126Z" fill="#0A0A0A"/>
<path d="M98.3736 66.7201C97.8128 68.5094 96.8583 69.9648 94.794 70.2988C94.2571 70.102 93.6545 70.102 93.2608 69.5473C92.9048 69.0811 92.4421 68.7073 91.9116 68.4572C91.3811 68.207 90.7983 68.0879 90.2121 68.1098C88.6431 68.0323 88.4223 67.6446 88.7326 65.9506C89.1382 65.1872 89.8482 65.4794 90.4687 65.4317C92.0139 65.3065 92.8968 64.4058 92.7656 63.1115C92.7055 62.5802 92.438 62.094 92.0213 61.7589C91.6045 61.4238 91.0722 61.2668 90.5403 61.3221C89.2755 61.4354 88.4939 62.5746 88.6789 64.03C88.7624 64.6265 89.2397 65.2229 88.7982 65.8969C88.2732 67.2509 87.1098 66.6306 86.1851 66.7499C84.4967 63.1055 86.728 58.9959 90.8505 58.1489C92.1928 58.984 93.9826 59.0377 94.9611 60.5348C95.2773 61.0239 95.8619 61.3698 95.844 62.0199C95.8142 64.0658 97.2341 65.3124 98.3736 66.7201Z" fill="#0F0F0F"/>
<path d="M28.3266 92.0875C27.8374 92.0159 27.3482 91.7952 26.865 92.0875C26.0357 91.4075 26.1371 90.5188 26.3519 89.63C27.0275 86.7844 27.0845 83.827 26.5189 80.9575C26.2027 79.3172 27.4019 77.3787 29.5556 76.7107C31.5423 76.0725 32.3418 75.142 32.4193 72.9769C32.5028 70.591 32.485 68.2052 32.6102 65.8193C32.6401 65.2229 32.4551 64.5489 33.0696 63.7496C33.3256 64.906 33.4101 66.0937 33.3202 67.2747C33.356 69.5412 33.356 71.8038 33.3202 74.0624C33.3202 75.1718 33.6961 75.8518 34.8475 76.0904C35.6337 76.2689 36.3769 76.6011 37.0343 77.0679C37.6916 77.5347 38.2501 78.1268 38.6777 78.8102C37.7649 79.7228 38.7791 81.1066 37.8902 82.0252C37.7059 81.9302 37.5441 81.797 37.4155 81.6345C37.2868 81.472 37.1944 81.2839 37.1444 81.0828C35.9512 77.3608 34.7998 77.6352 31.5543 78.3211C31.2679 78.3808 30.9934 78.5239 30.7071 78.6015C30.3191 78.6854 29.9604 78.8712 29.6679 79.1395C29.3754 79.4078 29.1595 79.7491 29.0426 80.1284C28.7681 82.216 28.3445 84.3036 28.4817 86.4032C28.5553 87.3405 28.3739 88.2803 27.9568 89.123C27.9246 89.2074 27.9111 89.2976 27.9172 89.3877C27.9232 89.4777 27.9486 89.5653 27.9916 89.6446C28.0347 89.7239 28.0944 89.793 28.1666 89.8471C28.2389 89.9012 28.3219 89.9391 28.4102 89.9581C28.7204 90.7156 28.9829 91.4015 28.3266 92.0875Z" fill="#121212"/>
<path d="M47.6148 67.4298C47.3524 68.1315 46.9221 68.7582 46.3615 69.2552C45.801 69.7522 45.1272 70.1043 44.3991 70.2809C42.5795 69.5354 40.9448 68.4617 39.0297 67.8176C38.0217 67.5034 37.136 66.8844 36.4949 66.0457C35.8537 65.2071 35.4887 64.1902 35.4501 63.1353C36.7328 58.8766 39.8888 56.9679 43.719 58.131C43.6321 58.3508 43.6051 58.5898 43.6407 58.8235C43.6763 59.0572 43.7733 59.2772 43.9218 59.4611C44.6914 60.332 44.3573 61.0537 43.6533 61.7396C42.9195 62.187 42.4601 61.5428 41.8635 61.3161C40.4556 60.7495 39.2266 61.1849 38.797 62.4255C38.705 62.6902 38.6663 62.9705 38.6832 63.2502C38.7001 63.5299 38.7721 63.8035 38.8952 64.0552C39.0184 64.3069 39.1901 64.5318 39.4006 64.7169C39.611 64.9019 39.856 65.0435 40.1215 65.1335C41.255 65.4854 42.3348 64.8173 42.7286 63.3978C42.9195 62.6999 43.0627 62.0259 43.7428 61.6084C44.936 61.1312 45.7534 61.5726 45.819 62.8789C45.8667 63.9883 46.0338 65.1275 45.6758 66.225C45.5863 66.4039 45.4491 66.553 45.3716 66.7141C46.5349 65.7061 47.0241 66.732 47.6148 67.4298Z" fill="#0D0D0D"/>
<path d="M47.6147 67.4298C46.9286 67.7876 46.0278 66.6186 45.4491 67.734C45.3197 67.6776 45.2055 67.5916 45.1155 67.4829C45.0255 67.3743 44.9622 67.246 44.9309 67.1085C44.8995 66.9709 44.901 66.828 44.935 66.6911C44.9691 66.5542 45.0348 66.4272 45.1269 66.3203C45.1687 65.2885 44.6317 64.3341 44.93 63.2187C44.9764 63.0322 44.9769 62.8373 44.9317 62.6505C44.8865 62.4637 44.7967 62.2906 44.6702 62.146C44.5437 62.0013 44.384 61.8893 44.2049 61.8196C44.0258 61.7499 43.8324 61.7245 43.6414 61.7455C44.1902 59.9084 42.3348 59.6161 41.5294 58.5485C42.1797 57.8685 42.9911 58.2383 43.6951 58.119C47.7699 59.0197 49.7625 64.2268 47.6147 67.4298Z" fill="#040404"/>
<path d="M35.4441 63.1353C36.6373 64.018 37.1444 65.4853 38.3853 66.38C39.0778 67.0003 39.9575 67.3718 40.8851 67.4357C42.2513 67.4357 43.9934 68.8792 44.411 70.2809C41.8754 71.5752 39.5189 71.0443 37.5561 69.243C35.8199 67.6624 34.5551 65.712 35.4441 63.1353Z" fill="#040404"/>
<path d="M98.3736 66.72C96.8642 66.6067 95.134 64.871 95.1102 63.4335C95.0744 61.2206 93.4218 59.6639 91.1547 59.5327C89.705 59.4492 90.4805 58.7095 90.8683 58.1429C92.3455 58.0723 93.8241 58.2518 95.2414 58.6738C96.9179 59.139 97.7054 60.5884 98.3736 62.0736C98.836 63.5879 98.836 65.2057 98.3736 66.72Z" fill="#020202"/>
<path d="M86.2029 66.7438C86.3103 65.6105 86.5787 64.8769 87.7958 65.9684C88.0583 66.207 88.4521 66.0758 88.7802 65.9684C89.0308 66.7915 89.2515 67.2806 90.4567 67.1613C92.6402 66.9705 93.9527 68.4557 94.8238 70.3286C91.5246 72.1239 87.6407 70.5254 86.2029 66.7438Z" fill="#040404"/>
<path d="M80.9349 90.3398L85.8629 89.5883C86.6563 90.477 85.7793 91.2047 85.6123 91.9741C85.4751 92.5706 85.2364 93.167 85.0455 93.7993C85.1017 94.2663 85.0251 94.7396 84.8248 95.1651C84.7114 95.523 84.5324 95.8332 84.1208 95.8391C83.5242 95.8391 83.2856 95.5111 83.3273 94.9385C82.5279 93.4115 81.7304 91.8786 80.9349 90.3398Z" fill="#EEEEEE"/>
<path d="M47.3403 89.6122L51.8626 89.9522C52.2802 90.2564 53.0558 90.2504 52.6024 91.1809C51.9043 92.5408 51.3256 93.9544 50.4964 95.7796L47.3403 89.6122Z" fill="#F0F0F0"/>
<path d="M33.2248 39.1874C34.8299 36.9603 36.1788 34.5593 37.2459 32.0299C38.0632 32.358 37.7888 32.9365 37.58 33.5031C37.228 34.4396 36.87 35.376 36.518 36.3065C35.7305 39.1218 33.7498 41.0782 31.7452 43.0227C31.3097 43.4402 30.9219 43.6191 30.4148 43.1897L33.2248 39.1874Z" fill="#940000"/>
<path d="M30.4148 43.1897C32.0793 42.629 32.9682 41.1736 33.9944 39.927C34.9251 38.7997 35.6828 37.5412 36.512 36.3125C36.6413 36.7648 36.6544 37.2424 36.5502 37.7011C36.4459 38.1599 36.2276 38.5849 35.9154 38.9369C34.2569 40.9887 32.7475 43.1718 30.6892 44.9015C30.2 45.3071 29.8301 45.9215 29.0426 45.653C28.6846 44.8657 29.5497 44.645 29.7525 44.1142L30.4148 43.1897Z" fill="#940000"/>
<path d="M88.3507 89.2126L88.0106 88.5147C88.3321 88.3799 88.6658 88.2761 89.007 88.2046C91.3218 87.9183 91.2979 87.9302 90.9698 85.5085C90.9165 84.6007 90.9165 83.6905 90.9698 82.7827C91.3576 83.8862 91.1249 84.7033 91.626 85.2879C92.3062 85.1387 92.3658 85.7531 92.5567 86.1169C93.1085 87.3193 93.9122 88.3893 94.9133 89.2543C95.2772 89.5347 95.5099 89.8508 95.2295 90.2862C95.1701 90.2847 95.1116 90.2726 95.0565 90.2504C92.9982 88.6877 90.6894 88.8547 88.3507 89.2126Z" fill="#1F1F1F"/>
<path d="M95.2116 90.2861C93.8692 88.7234 92.3061 87.3038 91.632 85.2878V82.7528C92.4314 84.0054 92.5985 85.4309 93.3561 86.6238C93.9961 87.6802 94.8019 88.6267 95.7426 89.4272C96.7568 90.2861 95.7008 90.1728 95.2116 90.2861Z" fill="#9B9B9B"/>
<path d="M40.4436 47.5676C43.3371 46.0168 45.9144 47.1859 48.4798 48.51C45.8229 48.0316 43.1391 47.7169 40.4436 47.5676Z" fill="#181818"/>
<path d="M85.7137 48.868C86.9479 48.1233 88.3286 47.6546 89.7612 47.494C91.1937 47.3333 92.644 47.4847 94.0125 47.9375C91.2204 48.033 88.482 48.4982 85.7137 48.868Z" fill="#181818"/>
<path d="M120.895 6.70418C120.758 6.23297 120.627 5.76775 120.49 5.30251C122.083 4.86113 122.232 6.40596 122.983 7.09189C122.112 7.68835 122.011 8.63672 121.945 9.58509C121.599 8.61087 121.249 7.65056 120.895 6.70418Z" fill="#FE0000"/>
<path d="M126.623 11.3088C127.813 12.5673 128.756 14.0383 129.403 15.6451C127.321 14.9353 126.826 13.2175 126.623 11.3088Z" fill="#FE0000"/>
<path d="M83.3274 94.9803C85.2007 96.5609 84.3595 94.0558 85.0456 93.8411C85.186 94.0672 85.2673 94.3251 85.2819 94.5909C85.2964 94.8567 85.2439 95.1219 85.1291 95.362C84.9263 95.9585 84.9799 97.0321 84.0135 96.8293C83.1722 96.6325 82.9336 95.8153 83.3274 94.9803Z" fill="#242424"/>
<path d="M29.7466 44.0963C29.6733 44.6699 29.4254 45.2071 29.0366 45.6352L26.1312 47.6989L25.9701 47.4961L29.0426 44.2156L29.7466 44.0963Z" fill="#940000"/>
<path d="M98.3737 66.72V62.0736C99.1552 63.6184 99.37 65.1573 98.3737 66.72Z" fill="#0F0F0F"/>
<path d="M113.342 49.8581C112.227 50.0192 111.737 49.548 111.093 48.7368C112.233 48.6175 112.716 49.0887 113.342 49.8581Z" fill="#940000"/>
<path d="M27.9747 89.1648C27.4795 88.0495 28.0999 86.952 28.0343 85.8306C28.0303 84.4066 27.9186 82.985 27.7002 81.5779C27.5153 80.7249 27.3124 79.7885 28.2968 79.192C29.49 80.1702 28.8934 81.5779 29.15 82.8125C29.2547 83.6952 29.2787 84.5857 29.2216 85.4728C29.2753 86.5881 29.848 87.0176 30.9636 86.9579C33.3202 86.8327 34.4597 85.765 34.5432 83.4448C34.5731 82.8483 34.5432 82.2519 34.5432 81.6554C34.4955 78.9833 34.0302 78.5121 31.3037 78.4823C30.7071 78.4823 30.2358 78.4047 30.0329 77.7784C33.7796 75.5119 37.7589 77.6889 37.8723 82.067C37.6399 83.3438 37.5916 84.6474 37.7291 85.938C37.8245 88.8726 37.8544 88.8368 35.0563 88.4252C32.6724 88.0243 30.2242 88.2799 27.9747 89.1648Z" fill="#CDCDCD"/>
<path d="M28.3267 92.0874C27.3781 91.3418 27.211 90.638 28.4281 89.9998C30.4028 89.5584 32.3716 89.0991 34.3941 89.5405C34.4869 89.6709 34.5865 89.7963 34.6924 89.9163C35.4739 90.6499 35.0026 91.3716 34.6924 92.0993C34.5969 92.2305 34.5015 92.3498 34.4001 92.4751C33.2069 92.666 33.4157 91.7832 33.362 91.1092C33.362 90.8706 33.3083 90.5843 33.0398 90.5605C32.7713 90.5366 32.4432 90.7036 32.4432 90.7812C32.473 93.4891 30.5818 92.2663 29.329 92.2962C28.9883 92.2631 28.6522 92.1931 28.3267 92.0874Z" fill="#D0D0D0"/>
<path d="M34.406 92.4751V92.1053C34.925 91.3717 35.4799 90.644 34.406 89.9163V89.5405C35.7364 89.6717 37.8305 89.6777 37.8245 90.9183C37.8305 92.4155 35.7484 92.2842 34.406 92.4751Z" fill="#9E9E9E"/>
<path d="M88.7802 65.9446C87.0322 63.5588 87.4021 61.1729 89.6871 60.4154C90.272 60.1811 90.9161 60.1381 91.527 60.2924C92.1379 60.4467 92.6842 60.7904 93.0877 61.2743C93.5261 61.7278 93.806 62.311 93.8855 62.9367C93.9651 63.5623 93.8401 64.1969 93.5292 64.7457C93.2795 65.3253 92.8415 65.8037 92.2861 66.1036C91.7307 66.4034 91.0903 66.5071 90.4686 66.3979C89.8923 66.2826 89.3243 66.1292 88.7683 65.9386L88.7802 65.9446Z" fill="#FAFAFA"/>
<path d="M95.1639 68.5511C94.442 68.4378 93.8931 68.0739 93.917 67.3045C93.9259 67.0015 94.0499 66.7132 94.2638 66.4982C94.4777 66.2833 94.7654 66.1578 95.0684 66.1474C95.2317 66.138 95.3951 66.1641 95.5473 66.2238C95.6996 66.2835 95.8371 66.3755 95.9505 66.4933C96.0638 66.6112 96.1503 66.7522 96.204 66.9066C96.2578 67.061 96.2774 67.2253 96.2616 67.388C96.2552 67.6834 96.1394 67.9658 95.9366 68.1807C95.7338 68.3956 95.4585 68.5276 95.1639 68.5511Z" fill="#D1D1D1"/>
<path d="M30.0747 77.7784C30.3104 77.7666 30.5454 77.7427 30.7787 77.7068C34.5969 76.997 35.4322 77.6591 35.4739 81.4824C35.4739 81.6613 35.4739 81.8403 35.4739 82.0133C35.6887 87.8645 33.9765 87.2502 29.3647 88.1985C28.8159 88.3119 28.3326 88.127 28.3863 87.5126C28.6309 84.7271 27.8315 81.9596 28.2909 79.1622C28.7177 78.5179 29.3444 78.0317 30.0747 77.7784Z" fill="#FDFDFD"/>
<path d="M43.6413 61.7456C44.041 64.6742 42.5316 66.7081 40.2467 66.2727C39.5877 66.1859 38.9741 65.8898 38.4961 65.4281C38.0181 64.9664 37.7011 64.3634 37.5918 63.7079C37.4497 63.0605 37.5274 62.3841 37.8126 61.7857C38.0978 61.1873 38.5743 60.701 39.1668 60.4035C39.7354 60.0631 40.4012 59.9217 41.0591 60.0016C41.7171 60.0816 42.3296 60.3783 42.8001 60.8449C43.1008 61.1316 43.3837 61.4364 43.6473 61.7575L43.6413 61.7456Z" fill="#F9F9F9"/>
<path d="M45.1269 66.3502L45.4491 67.7638C44.8525 68.2648 44.2559 68.7897 43.4564 68.0918C43.2486 67.9224 43.1153 67.6783 43.0852 67.4119C43.0551 67.1454 43.1305 66.8778 43.2953 66.6663C43.7965 65.8134 44.4468 66.0281 45.1269 66.3502Z" fill="#E9E9E9"/>
<path d="M34.4179 89.9164C35.0802 90.0059 35.7066 90.1729 35.7066 91.0019C35.7066 91.831 35.11 92.0099 34.4239 92.1054C33.529 91.4016 34.7759 90.6441 34.4179 89.9164Z" fill="#D6D6D6"/>
</g>
<defs>
<clipPath id="clip0_32_145">
<rect width="211" height="154" fill="white"/>
</clipPath>
</defs>
</svg>
