<svg xmlns="http://www.w3.org/2000/svg" viewBox="0 0 182.43 307.94"><defs><style>.cls-1{fill:#0c0c0c;}.cls-2{fill:#0b0b0b;}.cls-3{fill:#161616;}.cls-4{fill:#141414;}.cls-5{fill:#c90000;}.cls-6{fill:#0e0e0e;}.cls-7{fill:#191919;}.cls-8{fill:#202020;}.cls-9{fill:#111;}.cls-10{fill:#1b1b1b;}.cls-11{fill:#292929;}.cls-12{fill:#353535;}.cls-13{fill:#010101;}.cls-14{fill:#212121;}.cls-15{fill:#ce0000;}.cls-16{fill:#a50202;}.cls-17{fill:#c5c5c5;}.cls-18{fill:#bbb;}.cls-19{fill:#b5b5b5;}.cls-20{fill:#9b9b9b;}.cls-21{fill:#fe0000;}.cls-22{fill:#070707;}.cls-23{fill:#b0b0b0;}.cls-24{fill:#969696;}.cls-25{fill:#7f0404;}.cls-26{fill:#a9a9a9;}.cls-27{fill:#8f8f8f;}.cls-28{fill:#b9b9b9;}.cls-29{fill:#b1b1b1;}.cls-30{fill:#a7a7a7;}.cls-31{fill:#868686;}.cls-32{fill:#030303;}.cls-33{fill:#020202;}.cls-34{fill:#0d0d0d;}.cls-35{fill:#f8f8f8;}.cls-36{fill:#ebebeb;}.cls-37{fill:#e5e5e5;}.cls-38{fill:#232323;}.cls-39{fill:#930202;}.cls-40{fill:#fff;}.cls-41{fill:none;stroke:#191919;stroke-miterlimit:10;stroke-width:4px;}</style></defs><g id="Capa_2" data-name="Capa 2"><g id="Capa_1-2" data-name="Capa 1"><path class="cls-1" d="M89.5,31.64a9.23,9.23,0,0,1,.37,6.16c-.74,3.24.76,2.51,2.56,1.85a29.09,29.09,0,0,0,15.71-13.57c.46-.81.57-2.16,1.85-2.07s1.34,1.36,1.7,2.23a21.86,21.86,0,0,1,1.54,12.89c-.54,2.68.65,3,2.64,3.26A150.57,150.57,0,0,1,135,45.7a23.55,23.55,0,0,1,5.83,2.21c2.09,1.21,3.63.71,5.43-.5a31,31,0,0,0,12.6-34.65c-.25-.89-1.23-2-.23-2.75s2,.38,2.86,1A44.84,44.84,0,0,1,175.91,71a4.67,4.67,0,0,0-.22,4.42c3.77,10.29,4.49,20.73,1.16,31.3-1,.63-.07,2.2-1.3,2.74a1.77,1.77,0,0,1-.94.08c-2-.73-3.06-2.55-4.11-4.17-1.24-1.91-.13-3.08,3.27-3.71a2.34,2.34,0,0,0,2.09-2.75c-.44-5.7-.08-11.47-1.76-17.06-.56-1.88-1.3-2.87-3.29-1.68-1,.28-1.24,1.26-1.93,1.82-1,.8-2,1-2.95.13a2.06,2.06,0,0,1-.23-3c1-1.27,1.92-2.54,3-3.76a41.59,41.59,0,0,0,1.8-51.25,35,35,0,0,1-3.62-5.2,2.79,2.79,0,0,0-2.55-1.75,2.34,2.34,0,0,0-1,.28c-1.1,3.25.3,6,1.48,8.88.36.85,1.44,1.45.95,2.61-1.27,1.26-3.22,1.53-4,3.64-1.18,3.19-2.57,6.06.83,8.76a4.89,4.89,0,0,1,1.18,2.36,1.83,1.83,0,0,1-.08.84c-1,1.57-2.1.88-3.28.16-3.31-2-3.62-2-6.3.77a35,35,0,0,1-5,4.16c-2.17,1.51-2.26,3-.8,5a8,8,0,0,1,1.47,3.85c.18,1.34-.18,2.38-1.77,2.51-1.12-.25-1.43-1.39-2.22-2a17.22,17.22,0,0,0-3.06-4,2.59,2.59,0,0,0-3.54-.22c-1.13.89-.59,2,.07,2.92,1.09,1.44,1.41,3.24,2.39,4.74s.57,2.68-1.35,3c-1.75-.59-2.48-2.6-4.32-3.07a4.48,4.48,0,0,1-1.07-2,11.78,11.78,0,0,0-2.27-6.08c-1.35-3.14,1.79-3.19,3.07-4.49a1.76,1.76,0,0,0-1.5-1.32,78.72,78.72,0,0,0-18.26-2.53c-3.63-.1-4.74,2.64-5.76,5.41-1.51,1.29-2.84,2.78-4.38,4-1,.86-2.14,1.11-3.22.16s-.81-1.91-.22-3c1-1.83,2.36-3.44,3.51-5.17,4.43-1.89,4.31-6.18,4.8-9.88.21-1.58,1-3.94-1.19-5.2-1.68,0-2.06,1.73-3.17,2.46-1.87.64-3.1,2.15-4.5,3.38a18.53,18.53,0,0,1-7.42,4.39c-4.43,1.15-6.78,4.53-9.25,7.86a3.33,3.33,0,0,1-1.28,1.22c-1.07.44-2.12,1.24-3.34.57a2.11,2.11,0,0,1-1-3.22,10,10,0,0,1,2.13-2.8c1.74-.3,2.56-1.36,3.35-3a21.49,21.49,0,0,0,2.34-10.67,3.27,3.27,0,0,1,.32-1.71C88.9,29.62,88.9,31.32,89.5,31.64Z"/><path class="cls-2" d="M167.74,133.07c-.88.12-1,.28-.64,1.31,1.88,5.41.89,10.6-1.72,15.55-1.09,2.07-2.27,2.41-3.53.07a12.57,12.57,0,0,0-1.29-1.64c-1.71-2.24-3.38-2.58-6-.92a86.35,86.35,0,0,1-16.06,7.88,3.65,3.65,0,0,0-2.57,3.19c-1.24,6.4-1.19,12.82-1.14,19.3.15,18.19-6.09,34.13-17.86,47.9-4.35,5.1-9.83,9-14.87,13.37A76.55,76.55,0,0,0,96,244.82c-4.31,4.64-5.6,10.19-4.47,16.35.84,4.58,2.42,9.05,1.43,13.85a13.74,13.74,0,0,1-16.69,10.81c-.49-.12-1-.18-1.05-.81s.56-1,1.13-1.19l5.81-2.32c.48-.34,1,.06,1.47,0A11.6,11.6,0,0,0,86.47,280a5.11,5.11,0,0,0,2.34-2.79c2.6-3.84,1.36-8,.56-11.89a34.56,34.56,0,0,1-.31-14.49c1.22-5.63,5.09-9.59,9.2-13.27,3.63-3.24,7.53-6.18,11.2-9.4,7.92-6.93,13.26-15.52,17.18-25.14A77.42,77.42,0,0,0,132,181.34a3.74,3.74,0,0,1-2,2.74,2,2,0,0,1-2.47-1.38c-.29-1.4.24-2.68.55-4,3.77-7.18,3.77-15.14,4.7-22.9.4-3.33-1.3-6-3.38-8.39-.4-1.42-.17-2.61,1.36-3.14s2.51.33,3.28,1.43c1,1.37,1.79,2.86,3.26,3.79,2.33,1,3.24.62,3.32-1.66.12-3.92-1.86-7-4.56-9.5-1.43-1.36-3.27.07-4.91-.25a2.79,2.79,0,0,1-.85-.26,2,2,0,0,1-.78-1.07c.59-2.85,3-4.27,5.93-3.55,4.22,1,8.44,6.33,9.23,11.49.17,1.15-.58,2.77,1.17,3.31,1.08.34,5.19-2.3,5.56-3.44,1.15-3.47,2.4-3.92,5.84-2.61,2,.76,3.36,2.86,5.73,2.83,2.72-2,3.05-8.53.49-10.94a4.83,4.83,0,0,1-1.23-1.24c-.21-3.87,1.46-4.6,5.75-2.53a2.58,2.58,0,0,1,1.36,1.55C169.3,132.65,168.89,133.26,167.74,133.07Z"/><path class="cls-1" d="M78.68,259.39a11.37,11.37,0,0,1-.76-5.87c.47-7.23-2.19-13.21-6.93-18.49-3.4-3.78-6.59-7.75-9.89-11.61a49.45,49.45,0,0,1-12.39-32.89c0-10.05-2.27-19.73-3.19-29.6-.37-3.85-1.92-5.45-5.22-6.65a95.62,95.62,0,0,1-13.65-6.75c-.92-.52-1.76-1.38-3-1.13-.62-.11-1.25-.18-1.56-.86.3-2.38,2.47-2.93,4-4.11a9.2,9.2,0,0,1,3-.13c1.68.17,2.56,1,2.29,2.78-.13.86-.69,1.78.4,2.38,1.48.8,2.87,2,4.58,2,1.1,0,.73-1.22.79-1.94a17.4,17.4,0,0,1,4.75-11.28c4.18-4.23,9.28-3.78,12.6,1.15,1.32,2,2.76,3.9,2.9,6.41-1,2.57-.28,5.24-.53,7.84a36.28,36.28,0,0,0,.48,4.65,1.82,1.82,0,0,1-.73,1.38,2.81,2.81,0,0,1-3-.74c-.82-2.15-.63-4.39-.71-6.61-.26-4-.32-8.12-3.92-11-1.2-2.06-2.77-1.85-4-.27a16.17,16.17,0,0,0-3.29,7.25c-.28,1.72.15,3,2.24,2.93,1.73-.33,2.52-1.7,3.4-3,1-1.47,2.16-2.29,3.79-.79,1,2.38-.42,4.31-1.36,6.23a12.52,12.52,0,0,0-1.06,8.08c.66,3.45.28,7,.83,10.44.41,2.52,2.37,4.37,2.51,6.91.43,1.23,1,2.37,1.56,3.56.41,1,.79,2,.09,2.85C51,185.7,52,189.38,52.18,192.86c.67,12.32,6.18,22.48,14.16,31.58,4,4.57,8.22,9,11.44,14.19a20.19,20.19,0,0,1,3.24,8.9A14.2,14.2,0,0,0,80,257C80.19,258,80.34,259.26,78.68,259.39Z"/><path class="cls-2" d="M89.5,31.64c-.55.27-.55.27-1.24-1-1.28.45-1.76,1.65-2.47,2.64-4.46,5-9.14,9.75-16,11.28a108.39,108.39,0,0,1-13.28,1.93,25.12,25.12,0,0,0-8.86,2.35c.87,1.26,2.25,1.83,2.84,3.06A2.35,2.35,0,0,1,50.12,54c-.61,1.32-1,2.7-1.56,4.07-2.46,5.79-6.58,10.34-11,14.65a5.29,5.29,0,0,1-3.09,1.66c-2.76-1.45-1.05-3.07.08-4.23A50.32,50.32,0,0,0,42,60.5a27.77,27.77,0,0,0,1.85-3.75c.34-.85.64-1.78-.23-2.46a2.3,2.3,0,0,0-2.79.15,8.71,8.71,0,0,0-2.35,2.67c-.57.82-1.13,1.64-1.77,2.41a1.85,1.85,0,0,1-2.38.65,2,2,0,0,1-1-2.29A12,12,0,0,1,35,54.08c.9-1.64.79-3.1-.86-4.16a35.82,35.82,0,0,1-6.29-5.49c-1.52-1.59-3.09-2-5-.76-1,.63-2.23,1.29-3.18-.06-.77-1.11-.07-2,.64-2.94,3.1-3.94,1.82-8.83-2.82-11a1.76,1.76,0,0,1-.82-.84,1.57,1.57,0,0,1,0-.91c2.92-2.73,2.69-6.63,3.59-10.06a10.79,10.79,0,0,0,.62-4.25c-.14-1.1.54-1.93,1-2.85.91-.83,2-1.71,3.15-.92s.05,2-.29,3c-4.85,13.64.32,27.79,12.84,34.95,1.11.63,2.15,1.45,3.55.48,5.78-4,12.5-4.91,19.24-5.74,2.07-.26,4.12-.68,6.19-.95,7.83-1,13.61-5.1,17.87-11.66.83-1.28,1.29-3.93,3.18-3.25C89.16,27.27,89.46,29.7,89.5,31.64Z"/><path class="cls-3" d="M21.76,10.8c.49.8,1,1.6,0,2.43-.74,1-.86,2.52-2.15,3.22-.28.11-.55.22-.83.35a8.43,8.43,0,0,0-4,2.86C6.06,30.13,1.64,41.87,4.15,55.71,5,60.56,7.07,65,9.21,69.34c.54,1.08,1.36,2.09,1.11,3.44-.69,1.19-1.57,1.78-2.93,1,.26-1.45-.73-2.43-1.38-3.51A43.43,43.43,0,0,1,20.93,11.11,4.57,4.57,0,0,1,21.76,10.8Z"/><path class="cls-4" d="M13.56,133.72c-.23.18-.44.45-.7.52-1.47.42-2.68,2.59-4.17,1.54s-1-3.29-1-5a29.79,29.79,0,0,1,2-10.1c-2.8.52-4.73,1.88-6.72,3.09-.74.45-1.42,1.28-2.39.66-.79-.5-.61-1.42-.57-2.18.3-5.27,1.62-10.17,5.12-14.29.91-.26,1.39.21,1.71,1-.08,2.43-2.07,4-2.69,6.23-.26.93-.94,1.79.17,2.58a3,3,0,0,0,1.4.36c3.2.21,5.1-1.83,6.94-4,2.59.29,3.13,1,2.53,3.2a21.93,21.93,0,0,1-1.63,4.35c-2,2.42-3.29,5.06-2.85,8.35.1.79.07,1.48.88,1.86S13.57,132.43,13.56,133.72Z"/><path class="cls-5" d="M6.23,109.05l-1.05-1.11c1.73-2.65-.55-5.13-.33-7.72.74-1.92.44-3.94.33-5.89A54,54,0,0,1,7.09,77.55c.3-1.11.56-2.15,1.77-2.42,1.39-.31,2.21.55,2.79,1.69-.22,4.53-1.25,9-1,13.59.1,1.67.15,3.35.36,5-.1.61-.2,1.22-.25,1.83a3.3,3.3,0,0,1-1.49,3.3c.43.85,1.13.32,1.65.52,2.51,1.47,2.83,2.84,1.15,4.9-.5.61-1.17,1.07-1.72,1.65C8.92,107.91,8,109.69,6.23,109.05Z"/><path class="cls-6" d="M11,77.31c-1.93-2.55-2.7-.89-3.17,1A64.65,64.65,0,0,0,6.23,95.93c0,1.57.2,3.22-1.38,4.29A47.64,47.64,0,0,1,7.39,73.76l2.27-1.18c1.55,0,2.6,1.11,3.94,1.59C14.9,75.52,16,77,17.23,78.43a2.27,2.27,0,0,1,0,3.42c-1.12,1.07-2.32.77-3.43-.17C12.39,80.51,11.19,79.24,11,77.31Z"/><path class="cls-7" d="M78.68,259.39c1-1.75-.12-3.48-.08-5.23a37.71,37.71,0,0,1,.66-7.35c2.23.13,1.85,1.94,2,3.27.24,2.81-.2,5.69,1,8.39-.37,2.54.79,4.61,2,6.72,1.47,2.68,3.43,5.15,3.76,8.35,0,3,.62,6.28-2.52,8.35-.76.5-1.34,1.64-2.55.89l-.68-1.27c3.73-3.22,4.21-5.92,1.92-10.54C82.18,267.16,79.65,263.64,78.68,259.39Z"/><path class="cls-8" d="M78,306.14a176.18,176.18,0,0,1,17.95,0c5.2.6,10.41.08,15.61.3.8,0,2.08-.76,2.34.88-10.73.95-21.48.48-32.23.52-5.95,0-11.93.38-17.87-.41.65-1.16,1.77-.66,2.69-.7,3.67-.16,7.36.2,11-.2A2.21,2.21,0,0,0,78,306.14Z"/><path class="cls-6" d="M13.56,133.72,11,133.16a1.82,1.82,0,0,1,.49-1.5,8.17,8.17,0,0,1,5.67-2.26c2.2,0,3.43.95,2.72,3.38-3.23,2.65-2,6.2-1.68,9.44a12.58,12.58,0,0,0,1.63,4.44l.45.82a1.75,1.75,0,0,1-.31,1.73c-1.7,1.47-2.61,1-3.33-1.06A28.21,28.21,0,0,1,15,135.62C15.12,134.52,15.45,133.29,13.56,133.72Z"/><path class="cls-9" d="M177.71,122.35c-1.47-.23-2.58-1.5-4.41-1.45.95,4.42,2.53,8.79,1.08,13.35-1.77.06-1.43-1.32-1.48-2.3a14.27,14.27,0,0,0-1-5.82c-.78-1.85-1.42-3.78-3.21-5a20.35,20.35,0,0,0-1.5-3.21c-.79-1.2-1.39-2.55-.12-3.75s2.55-.6,3.7.36a5.24,5.24,0,0,0,4.52,3.61,9.49,9.49,0,0,1,3.11.86,11.87,11.87,0,0,1,2.19,1c.57.92,1.4,1.93.34,2.87S178.8,122.53,177.71,122.35Z"/><path class="cls-10" d="M177.71,122.35c1.26,0,3.64,1.23,2-1.87-.2-.22-.39-.44-.57-.68a44.61,44.61,0,0,0-3.1-7.94c-.43-.82-1.16-1.67-.52-2.73,0-1,.15-2,1.29-2.4,1.3,2.77,2.7,5.51,3.89,8.33a19.68,19.68,0,0,1,1.59,7c0,.86.4,1.88-.57,2.43s-1.48-.3-2.12-.7S178.35,122.82,177.71,122.35Z"/><path class="cls-8" d="M172.65,125.25c1.3,1.11,1.06,2.65,1.13,4.1.08,1.65-.3,3.35.6,4.9.12,1.11.11,2.38-.9,2.89s-1.52-.88-2.25-1.43l-3.49-2.64,1.22-1.19c.46-1,1.52-1,2.3-1.4,1.74-1.11.22-2.61.48-3.88A1.39,1.39,0,0,1,172.65,125.25Z"/><path class="cls-11" d="M78,306.14v.57c-3.8.66-7.62.12-11.43.3-1.16.05-2.37-.21-3.47.39a17.72,17.72,0,0,1-6.71-.48A162.46,162.46,0,0,1,78,306.14Z"/><path class="cls-12" d="M113.94,307.32c-4.38-1.2-8.86-.36-13.29-.62-1.56-.1-3.18.26-4.66-.56a177.75,177.75,0,0,1,22.49.72A7.87,7.87,0,0,1,113.94,307.32Z"/><path class="cls-13" d="M63.14,307.4c3.23-1.29,6.6-.37,9.89-.64,1.66-.14,3.34,0,5-.05.29,0,.78,0,.85.1.35.71-.36.39-.53.39-3.66,0-7.32,0-11,0-1.18,0-2.36.13-3.54.19Z"/><path class="cls-14" d="M20,149.21l-.73-1.28c0-1.88.73-3,2.85-2.39l1.54.86Z"/><path class="cls-15" d="M179.73,119.83l0,.65-1.8-.6c-2.22-2.08-5.61-2-7.77-4.2-.74-.35-1.48-1.47-2.28-.68s.14,1.6.73,2.19c.87.88,1,2.08,1.58,3.1a15.18,15.18,0,0,1,.83,2.87,20.69,20.69,0,0,0,.21,2.36c.66,4.11.5,4.37-3.43,5.66a28.4,28.4,0,0,0-2.85-.74c-1.77-.29-2.19.46-1.37,2,2.31,4.86,1.76,9.8.41,14.76-.13.49-.38.93-1,.85-2.3-2-4.42-4.33-7.53-5.16-.85-.23-1.92-.64-2.49.22s.57,1,1.05,1.38c.81.67.1,1-.38,1.28-3.05,1.66-6.1,3.32-9.19,4.89-1.59.8-1.61-.14-1.39-1.37.86-4.92-.9-9-4.22-12.48-2.89-3-5.55-3-8.81-.22-.16,1.83-1.85,3-2.11,4.79-2.19,2.44-2.5,5.49-3,8.54-.69,4.12-1.69,8.18-5.85,10.42-5.93,1.76-12.07,2.37-18.18,3a103.21,103.21,0,0,1-20.57,0,141.22,141.22,0,0,1-17.85-2.77,3,3,0,0,1-2.24-1.73,7.65,7.65,0,0,0-3.77-3.61c-.81-1.33-.52-2.8-.56-4.23,1.77-3,.9-6,0-9-.86-1.57-1.58-3.22-2.58-4.7-3-4.39-7.43-4.6-10.93-.6s-4.44,9.21-2.3,15.53c-4.71-2.24-8.92-4.08-12.76-6.63.58-1.54,2.48-.79,2.87-2.36-1-1-2.42-.38-3.6-.64a15.6,15.6,0,0,0-6.49,3.72c-.68.67-1.51,1.26-1.62-.45a50.68,50.68,0,0,1-.6-10.29,4,4,0,0,1,.92-3.14c.73-1.85-.6-1.82-1.7-1.72a17.35,17.35,0,0,0-5.36,1.73c-2-2.74-.85-5.72-.53-8.6a6.29,6.29,0,0,1,1-2.77c.62-1.54,1.24-3.09,1.84-4.64.48-1.23,0-1.68-1.23-1.39-2.07,2-4.93,2.56-7.19,4.18-.94.52-1.75,1.52-3,.8.89-5.12,3.65-9.32,6.62-13.41.56-.53,1.13-1.05,1.67-1.6,1.23-1.25,1.3-2.34-.48-3.13-1.82-1.17.46-2.93-.6-4.2v-1.8l.29-.3c2,1,3.18-.57,4.74-1.29,2.84-1.31,5-3.56,7.77-5A8.51,8.51,0,0,0,26.89,85c.29-.74.53-1.59,1.29-1.92a3.29,3.29,0,0,0,2.27-3.93c-.24-1.73,1.59-2.35,2.42-3.53a5.74,5.74,0,0,1,1.63-1.27A33.14,33.14,0,0,0,46.38,61.07a13,13,0,0,1,1.35-2.3c.49-1.71,1.74-3.27,1.12-5.23l1.06-1.33c-1.28-1.68-.82-2.68,1.17-3.19,2.8-.73,5.7-.83,8.54-1.28C68.9,46.3,77.19,43,83.38,35.5a27.26,27.26,0,0,0,1.84-3.06c1-.61.4-3.95,3-1.8,0,.63-.08,1.26-.11,1.89-.76.93-.58,2.07-.8,3.13-.86,4.09-1.6,8.3-5.13,11.18-.16.56-.35,1.1-.49,1.66-.22.9-2,1.33-1.19,2.33s1.86-.43,2.87-.45c6.13-3.87,12.74-7,18.08-12.11a21.82,21.82,0,0,0,4.06-4.63l4.36-5.85c1.75,7.21,1.43,14.09-3.16,20.3-.31,2.12-2.17,3.27-3.11,5-.28.5-.93,1-.43,1.57.67.73,1.28,0,1.77-.42,1.41-1.24,2.77-2.55,4.15-3.83,2.65-3.32,5.91-4.42,10.28-4.23,5.75.25,11.24,1.52,16.8,2.65,1,.21,2.51.43,2.25,2.19-1.14.29-2.29.56-3.42.88s-1.92.69-1.33,2A23.3,23.3,0,0,0,136.09,60l.58,1.72A14,14,0,0,1,138.59,64c1.28,4,.26,6.49-3.32,8.55-1.84,1.06-3.86,2-4.8,4,1.13-1.45,2.31-3,4.61-2.72.91.1,1.56-.71,2.18-1.38,2.25-2.45,4.89-3.09,7.93-1.52q.65.09,1.29.12l.88,0a2.15,2.15,0,0,1,1.35.55c2.14,1.87,4,1.19,5.7-.64a52.23,52.23,0,0,0,9.84-15.17,46.55,46.55,0,0,0,4.27-17.27,41.87,41.87,0,0,0-3.94-19.34c-.49-1-1.82-2.16-.43-3.5,4,1.89,6.14,5.63,8.51,9,10.71,15.14,9.45,37.42-2.71,51.47q-1.47,1.69-2.88,3.43c-.43.52-1.17,1.13-.44,1.77s1.22-.24,1.73-.65,1.21-1,1.82-1.54c1.42-.28,1.92.79,2.42,1.74A21.48,21.48,0,0,1,175,87a55.49,55.49,0,0,1,.6,14.33c-.09,1.19,0,2.68-1.78,3-.62-.65-1.36-1.56-2.21-.74s.18,1.46.74,1.9c1.23,1,1.76,2.38,2.7,3.53A36.71,36.71,0,0,1,179.73,119.83Z"/><path class="cls-16" d="M146.9,72h-.68a13.19,13.19,0,0,1-5.68-5.34c-.34-.61-.82-1.16-.22-1.86,1.24-1,.39-1.92-.17-2.84-1.2-1.93-2.42-3.86-3.6-5.8-1-1.64-.38-2.46,1.34-3,4.37-1.45,6.19-.45,9,5.09.06,1.39.15,2.73-1.55,3.37a.94.94,0,0,0-.31,1.66c.67.63,1.22,0,1.68-.49s.42-1.75,1.38-2.14c1-3.05-.95-5.15-2.51-7.26-1.25-1.69-1.16-2.48.71-3.64,2.77-1.72,5.69-3.49,7.54-6.24,1.7-2.55,3.38-2.52,5.75-1.13,1.16.69,1.87,2.16,3.48,2.1,1.06-.23,1.43.56,1.87,1.25,0,4.7-2.52,8.5-4.8,12.25C156.7,63.49,151.86,67.81,146.9,72Z"/><path class="cls-17" d="M146.9,72c-.3-1.77.85-2.67,2-3.65a43.76,43.76,0,0,0,14.72-21.94c.25-4.14.78-8.27,1.19-12.38a27.53,27.53,0,0,0-1.63-12.1,40.55,40.55,0,0,1-1.32-5.74c0-.87-1-1.54-.46-2.54,1.34.15,1.8,1.42,2.71,2.09,2.45,5.55,5.16,11,5.56,17.22C170.77,49.06,165,62.5,153.57,73.7c-1.8,1.77-3.54,2.14-5.11-.38A7.13,7.13,0,0,0,146.9,72Z"/><path class="cls-16" d="M105.55,33.64c-.1,2.06-1.52,3.44-2.76,4.78-5.36,5.75-11.51,10.27-19.38,12a30.62,30.62,0,0,0,4.24-5.69,4.52,4.52,0,0,1,2.92-2.35A36.59,36.59,0,0,0,105.55,33.64Z"/><path class="cls-16" d="M163,43.82c-.51-.6-.91-1.42-1.56-1.76-4.23-2.29-3.63-5.35-1.57-8.74a4.5,4.5,0,0,0,.74-1.92c.28-3.36,2.06-3.78,4.76-2.57,2.22,3.7.12,7.29-.38,10.9C164.79,41.19,165.16,43.21,163,43.82Z"/><path class="cls-16" d="M173.77,104.29a5.61,5.61,0,0,0,1.14-3.63c-.38-7.43-.7-14.88-4.73-21.5.95-1.1,1.68-3,3.2-2.72s1.34,2.26,1.72,3.55a47.46,47.46,0,0,1,.78,22.93C175.69,103.86,175.74,105.8,173.77,104.29Z"/><path class="cls-16" d="M138.46,51c-1.47-2.18-3.93-1.52-6-2.12a42.78,42.78,0,0,0-10.26-1.53,21.84,21.84,0,0,0-13.11,3c2.94-6.55,2.92-6.43,9.83-5.54a94,94,0,0,1,18.93,3.93C138.85,49.11,141.14,49.55,138.46,51Z"/><path class="cls-16" d="M163,43.82c1.78-4.84,3.66-9.66,2.37-15-4.67-3.26-3.37-8.17-3.47-12.68,5.68,9.78,5.75,19.88,1.76,30.22-.22-.65-.44-1.3-.65-1.95C163,44.22,163,44,163,43.82Z"/><path class="cls-16" d="M148,60.59c1.05.65,1.72,1.39.56,2.53-.63.62-1.15,1.49-1.9,1.81-1,.44-1.53,2.24-2.89,1.47a2.58,2.58,0,0,1-1.07-3.34c.31-.93-1.37-1.57-.59-2.69.53-.74,1.29-1.63,2.16-1,1.67,1.13,2-.14,2.53-1.13Z"/><path class="cls-18" d="M82.22,46.84a51.42,51.42,0,0,0,4.72-14.56c.3-2.09.74.32,1.21.25a18.47,18.47,0,0,1-2.9,12.4C84.51,46,83.78,47.08,82.22,46.84Z"/><path class="cls-19" d="M106.75,48.09a38.27,38.27,0,0,0,3.16-20.3c3.18,6.62,2,13-1.23,19.16A2,2,0,0,1,106.75,48.09Z"/><path class="cls-16" d="M140.32,64.76c1.35,2.91,4.53,4.31,5.9,7.2l-1.1,0a10.79,10.79,0,0,1-7.28-7.7c-.28-.88-1.36-1.39-1.17-2.49C138.72,61.73,138.94,63.94,140.32,64.76Z"/><path class="cls-20" d="M179.73,119.83A79.68,79.68,0,0,1,175,109a5.12,5.12,0,0,0,.56.15C177.74,112.39,179.77,115.7,179.73,119.83Z"/><path class="cls-16" d="M136.09,60a6.48,6.48,0,0,1-2.38-6.09A12.75,12.75,0,0,1,136.09,60Z"/><path class="cls-15" d="M80.39,259.41c-1.1-2.07-.37-4.3-.55-6.44s.4-4.18-.58-6.16c-.47-5.4-3.83-9.28-7-13.21-3.55-4.41-7.32-8.64-10.89-13-7.59-9.34-10.86-20.17-10.87-32.1v-6.6c.65-.28,1.24,1.24,2,.25.49-.67,0-1.34-.28-2a9.91,9.91,0,0,1-1.09-3.39,3,3,0,0,1-.37-1.76c2.28-1.91,2.79-4.2,2.12-7.12a8.65,8.65,0,0,1,1.89-8.08c1.76-.69,2.34.52,2.57,1.82a17,17,0,0,0,1.24,3.94c-.38-.75-1.17-2,.34-3.12,2-.67,3.88.37,5.75.71,18.24,3.36,36.41,3.77,54.53-.81,1.14-.29,2.48-.87,3.61.2a2.29,2.29,0,0,1,.42,1.56c2.08-6,2.48-12.33,3.65-18.54.56-3,.86-6.35,3.89-8.29l.76.11c5.83-.36,10.43,5.59,8.91,11.44-.59,2.25-2.15,2.74-4.15,2.66-1.74-1.45-2.36-3.67-3.72-5.37-.43-.53-.95-1.16-1.74-.66-.51.32-.23.89-.09,1.36,3,9.88,1,19.62-.79,29.37,0,1.34-.7,2-2.1,1.81a2.19,2.19,0,0,0-2.62,1.79c-.69,2.12-2.93,3.08-4.13,5-2.36,3.67-6.71,5.19-9.43,8.15,2.05-2.52,5.86-2.58,8.34-5,1.61-1.58,3.71-2.64,4.81-4.78.76-1.5,1.86-2.42,3.51-.94a1.7,1.7,0,0,0,1.77,1.13c2.11.11,1.61,1.85,1.42,2.83-2.4,12.45-6.55,24.18-15,33.95-3.45,4-7.66,7.23-11.54,10.8a155,155,0,0,0-11.55,11.66c-4.29,4.9-5.5,10.59-4.81,16.94.44,4.1,1.48,8.12,1.58,12.27a14.36,14.36,0,0,1-.77,6.24A4,4,0,0,1,87,280.92c.3-3,1.21-6,.39-9.08A61.1,61.1,0,0,0,80.39,259.41Z"/><path class="cls-21" d="M89.42,278a107,107,0,0,0-1.51-17.54c-1.44-8.62,1-15.71,7-21.81,5.65-5.76,11.61-11.19,17.63-16.56,5.29-4.73,8.86-10.78,11.75-17.15a86.24,86.24,0,0,0,5.93-18.46c.22-1.08.56-2.14-.16-3.17.31-2.21,2.07-3.82,2.13-6.13l.8.1c0,1.8.16,3.62,0,5.41a76.2,76.2,0,0,1-13.18,36.43c-3.94,5.69-9.06,10.3-14.39,14.64-3.25,2.64-6.55,5.2-9.56,8.12C89.75,247.77,88.23,255,89.9,263c.67,3.23,1.5,6.39,1.33,9.74A8.1,8.1,0,0,1,89.42,278Z"/><path class="cls-22" d="M58.85,163.59c.7,1.65,1.43,3.28,2.1,4.93.23.55.41,1.26-.25,1.58s-1-.38-1.34-.87c-1.83-2.88-2.53-6.25-4-9.26-1.84-.21-2.09-1.5-2.05-3a1.57,1.57,0,0,1,.9-1.17l2.34.59c2.42-.12,3.59,2,5.38,3a124.47,124.47,0,0,0,57.45,0c4.87-2,4.77-6.59,5.34-10.73.41-2.95.81-5.86,2.43-8.44A8.21,8.21,0,0,1,130,136.6l.69.68c-2.9,5.73-3.57,12-4.34,18.21A36.14,36.14,0,0,1,123,166.91c-.36.74-.68,2.08-1.77,1.55s-.13-1.57.13-2.35.64-1.68,1-2.52c.27-2.39-1.37-1.32-2.34-1.23-3,.28-5.92,1-8.86,1.61-16.47,3.14-32.77,1.76-49.06-1.25C60.92,162.51,59.38,161.36,58.85,163.59Z"/><path class="cls-15" d="M128.29,182.15c-1,.09-2,.49-2.09,1.41-.49,3.38-3.46,4.18-5.7,5.69-1.68,1.13-2.52,3.89-5.35,2.89.34,2.45-4.43,1.3-2.82,4.53a5.48,5.48,0,0,1-3.42-1.6c-.67-.71-1.48-1.51-1-2.62s1.35-.93,2.26-.54a1.33,1.33,0,0,0,1.57-.55c2.94-3.27,6.73-5.66,9.37-9.26,1.1-1.5,3.53-2.27,2-4.9-.21-.35.83-1.37,1.43-1.25,1.69.32,3.83-.77,5,1.42a1.42,1.42,0,0,1,0,1.79Z"/><path class="cls-21" d="M129.5,179.16c0-.6,0-1.2,0-1.79a227.55,227.55,0,0,0,1.22-30.55c3.93,4.05,4.12,8.8,3.05,14.05C132.5,167,131.64,173.23,129.5,179.16Z"/><path class="cls-23" d="M136.25,151.49c3.45-2.07,4.16-3.63,3.32-7.29a7.52,7.52,0,0,0-6.92-6.2c-.51,0-1,0-1.16-.61,2.43-1.7,4.48-1,6.24,1.07,2.29,2.7,4.09,5.65,3.83,9.36C141.33,151.2,139.23,152.58,136.25,151.49Z"/><path class="cls-16" d="M163,148.06c2.12-4.09,1-8.44,1-12.7a24.15,24.15,0,0,0-.38-2.91c1.57.58,1.72,2,2,3.36a19.09,19.09,0,0,1-.87,10.76C164.47,147.35,164.3,148.41,163,148.06Z"/><path class="cls-16" d="M167.82,131.18c.32-.47.52-1.18,1-1.38,1.83-.85,2-2.15,1.36-3.84a4.93,4.93,0,0,1,.07-3.15c2.3,1.66,1.61,4.38,2.32,6.61a7,7,0,0,1,0,2.37,1.45,1.45,0,0,1-.69,1.31L169,131.88Z"/><path class="cls-24" d="M87.71,271.24c1.3,3.35.5,6.53-.76,9.68-.79.82-1.55,1.68-2.38,2.47s-1.52.64-1.74-.61c4.43-1.88,4.57-5.63,4.2-9.62C87.62,272.65,86.88,271.67,87.71,271.24Z"/><path class="cls-15" d="M54.15,157c.38,1,.77,2,1.16,3-1.67,4-.79,8.19-.65,12.33.13,3.42-.33,3.66-3.56,2.67-1.82-2.5-1.69-5.44-1.84-8.29a70,70,0,0,1,1.48-19.63,3.08,3.08,0,0,0-.26-2.59c-1.94.34-1.92,2.37-3,3.45a10,10,0,0,1-2.92,2.5c-2.34.63-2.92-1.13-3.41-2.7-1-3.34,2.24-9.54,5.52-10.93a3.14,3.14,0,0,1,3.32.47c4.16,2.78,3.86,7.16,4,11.36-1.92,1.41-1.15,3.45-.89,5.14A10.05,10.05,0,0,0,54.15,157Z"/><path class="cls-25" d="M50.48,144.46c1.25,4.17.51,8.4.44,12.62-.08,5.11-1.28,10.18-.42,15.32a6.67,6.67,0,0,0,.6,2.57c0,.6,0,1.2,0,1.8-2.41-4.24-2.7-9-3.51-13.7-.26-1.55-.42-3.13-.53-4.71-.21-3.15-.63-6.28,2-8.9A6.05,6.05,0,0,0,50.48,144.46Z"/><path class="cls-26" d="M50,137.25a8.59,8.59,0,0,0-8.38,8.91c.05,2.08.8,3.64,3,4.25-1.83,1.41-2.85.29-3.6-1.25-1.86-3.8,1.67-12,5.69-13.3C48.12,135.4,49.43,135.49,50,137.25Z"/><path class="cls-15" d="M54.15,157c-1.56-2-2.9-4.13-2.43-6.93.25-1.53.82-2.12,2.33-1.47q0,3.6.11,7.2C54.16,156.21,54.15,156.61,54.15,157Z"/><path class="cls-15" d="M61.88,159.4c-1.9-.81-4.44-.46-5.38-3l0-1.16c1.89-1.29,3.19-1,4,1.31A23.14,23.14,0,0,0,61.88,159.4Z"/><path class="cls-15" d="M55.91,142c2.31,2.62,1.94,5.89,2.24,9.07-.79.06-1.51-.66-2.24-.09Z"/><path class="cls-27" d="M18.86,146.92c2.19-2.14,4.29-4.44,7.75-4.29-1.11,1.57-3.32,1.44-4.49,2.91a7,7,0,0,0-2.85,2.39L19,148C18.41,147.7,18.46,147.33,18.86,146.92Z"/><path class="cls-5" d="M11,77.31c1,1,2,1.92,3.08,2.84.64.56,1.36,1.63,2.24.88s-.14-1.58-.67-2.22c-1.08-1.3-2.22-2.55-3.34-3.82A44.35,44.35,0,0,1,5.18,45.93C6.11,36.82,8.61,28.34,14,20.84c1.36-1.91,2.57-4.07,4.85-5.16l.6-.15a2.29,2.29,0,0,1,.75,2.64c-.84,3.43-1.17,7-3.13,10.09v.58c1.4,2.58,1,5.48,1.22,8.2a50.38,50.38,0,0,0,5.46,18c2.41,4.9,4.86,9.84,8.41,14.07,1.61,1.91,1.52,4,1.12,6.19C32.12,77,30.07,77.81,29,79.53c-.14.14-.36.24-.43.4-3.2,7-9.1,11.25-15.13,15.47-1.25.88-2.57-.88-3.55.51h0C8.9,89.63,8.4,83.37,11,77.31Z"/><path class="cls-16" d="M32.65,75c.54-2.07-.6-3.48-1.74-5-8.15-11.15-14-23.24-14.48-37.37A6.31,6.31,0,0,1,17,28.84c3.9-1.07,3.84-1.05,5,2.74.69,2.17,2.22,4.25,2.27,6.4s-3,2.85-3.89,4.92c.21.1.32.19.38.16,5.21-2.47,5.23-2.49,9.48,1.82a17.84,17.84,0,0,0,4.92,3.85c3,1.41,3.2,3.16,1.35,5.71-1,1.33-1.91,2.77-1.44,4.89.95-1.4,1.89-2.8,2.87-4.18.81-1.14,1.61-2.47,3-2.85a5.3,5.3,0,0,1,5.1.84c1.23,1.18-.12,2.61-.64,3.82A41.71,41.71,0,0,1,36,70.66c-.83.8-2.37,1.43-1.61,3.13a.83.83,0,0,1-.3,1C33.65,75.07,33.19,75.38,32.65,75Z"/><path class="cls-16" d="M85.22,32.44c-1.74,5.41-5.67,8.9-10.31,11.74-6,3.67-12.65,5.06-19.54,5.64-1.38.11-2.74.42-4.12.56-1.17.13-1.51.77-1.34,1.83-1.85-1.53-4.35-1.22-7-2.37a20.55,20.55,0,0,1,7.21-3.67c4.4-1.37,9-1.49,13.51-2C72.48,43.17,79.83,39.67,85.22,32.44Z"/><path class="cls-16" d="M17,28.26c-.28-3.34.94-6.41,1.8-9.54a11.22,11.22,0,0,0,.58-3.19c.46-1.12,1.5-1.64,2.39-2.3-.41,3.8-.84,7.6-1.22,11.4C20.35,26.82,18.3,27.15,17,28.26Z"/><path class="cls-16" d="M33.84,74.47l.58-.68A41.47,41.47,0,0,0,47.63,57.71c1,0,.87.49.53,1.1-3,6.58-7.06,12.24-13.32,16.1C34.21,75.45,33.86,75.33,33.84,74.47Z"/><path class="cls-16" d="M48.16,58.81l-.53-1.1c.4-1.39.81-2.78,1.22-4.17C50.4,55.53,48.77,57.1,48.16,58.81Z"/><path class="cls-17" d="M18.8,15.68C13.41,23.41,9,31.53,7.31,41A49.56,49.56,0,0,0,10.5,69.36c.76,1.82,1.24,3.75,1.85,5.63-1.9.31-1.44-2-2.69-2.41C2.76,62,.07,50.59,3.17,38.13c2.15-8.69,7-15.75,13.47-21.76A2.34,2.34,0,0,1,18.8,15.68Z"/><path class="cls-23" d="M9.24,106.65c-.05,2.13-1.65,3.53-2.49,5.28-1.33,2.73-2.75,5.42-4.13,8.13-1.34-1.36,0-2.59.27-3.81.6-2.62,2.23-4.79,3.34-7.2C7.47,108.55,7.76,106.86,9.24,106.65Z"/><path class="cls-28" d="M12.21,121.11a59.24,59.24,0,0,0-.45,11.37l-.73.68c-.45,0-1.18.37-1.22-.32C9.55,128.73,9.53,124.64,12.21,121.11Z"/><path class="cls-16" d="M5.63,119.26c1.61-2.74,4.47-3.34,7.19-4.18C11.38,118.13,8.59,118.84,5.63,119.26Z"/><path class="cls-5" d="M9.83,97.72c.81,1.31.54,2.78.6,4.2-.56,1-1.13,2.21-2.6,1.58-.81-.34-1.33-4.76-.74-5.32s1,0,1.48.33C9.59,99.18,9.73,98.49,9.83,97.72Z"/><path class="cls-29" d="M87.71,271.24c-.23.64-.46,1.28-.68,1.92-1.66-4.85-4.88-9-6.64-13.75.18-.39.52-.81.81-.28C83.37,263.17,86.66,266.6,87.71,271.24Z"/><path class="cls-16" d="M18.86,146.92c0,.36.08.71.13,1.07-2.09-4.22-2.2-8.73-1.85-13.29a2.41,2.41,0,0,1,1.68-2.23Q18.83,139.69,18.86,146.92Z"/><path class="cls-16" d="M170.18,115.68c2.95.74,6,1.37,7.77,4.2C175.23,118.72,171.61,119.23,170.18,115.68Z"/><path class="cls-30" d="M172,131.77a27.51,27.51,0,0,0-1.82-9c.14-.84-.69-1.68,0-2.52,1.67,1.24,1.56,3.35,2.44,5l0,1.63C172.59,128.53,173.8,130.35,172,131.77Z"/><path class="cls-31" d="M172,131.77c.88-1.54.43-3.26.66-4.89a11.62,11.62,0,0,1,.41,5.7c-.06.67-.36,1.51-1.25.52Z"/><path class="cls-32" d="M124.11,88.07c4.69-.37,8.74.52,10.66,5.52a9.45,9.45,0,0,1-6.08,12.4,9,9,0,0,1-11.77-6.47,1,1,0,0,1-.28-.8c.16-1.34-.69-3.25.43-3.89,1.44-.83,1.22,1.62,2.29,2.07.46.19,1,.16,1.43.33,1.57.65,3.16,1,4.33-.6s.51-2.8-.73-3.92a6.42,6.42,0,0,0-4.52-.76c-1.1.22-1.81-.09-1.14-1.41s2.1-1.47,3-2.4A1.62,1.62,0,0,1,124.11,88.07Z"/><path class="cls-33" d="M49.86,91.71c1.71-3.49,5-4.16,8.27-4a8.73,8.73,0,0,1,8,6.18A9.17,9.17,0,0,1,64,104.09c-2.9,2.82-6.44,3.33-10.21,1.87a8.07,8.07,0,0,1-5.63-8.23c1.08-.57,2.07-.06,3.08.26,1.92.94,3.66,1.13,4.84-1.12.77-4.5,0-5.29-4.58-4.42C50.76,92.58,49.9,93.07,49.86,91.71Z"/><path class="cls-15" d="M82.17,130c-2,2.3-5,3.63-5.79,7.14C76,139,73.32,138.82,72,140c-.47.41-1.48.17-1.69,1-.75,3.08-2.65,3-4.82,1.7-1,1.11.48,2,.07,2.87-1,.42-1.54-1.06-2.52-.56-.76,1.15.86,1.7.6,3A5.23,5.23,0,0,1,60,145.5c-.86-1.44-1.19-2.48,1.24-2.69,3.24-.27,4.58-3.52,7-5.18,1.81-1.24,3-3.32,4.6-4.95,1-1.06,2.31-1.87,1.51-3.73-.29-.67.5-1.19,1-1.7,1.15-1.22,2.27,2.26,3.95-.26.86-1.3,2.09,1.43,3,2.49A.35.35,0,0,1,82.17,130Z"/><path class="cls-15" d="M9.84,95.91c.19-1.3.18-3,2.22-1.66,1,.65,1.45,0,2-.5,3.13-2.81,6.39-5.5,9-8.81a5.53,5.53,0,0,1,2.19-2c.86-.33,1.4-.66.77-1.71C25,79.4,26.11,78.54,27.7,78c1.33,0,2.35-.74,3.47-1.28.8-.39,1.49-1.37,2.56-.59-.73,1.35-2.83,2.18-.83,4.43.68.77-1.51,2.48-2.7,3.46-.65.54-1.89.55-1.92,1.64-.08,4.08-3.79,4.23-6.17,5.81-.37.24-1.1.09-1.09.75,0,3.52-2.52,2.15-4.27,2.27-.87,1,1,1.49.05,2.79-.47.15-5.82-3.71-1.34,1.88C12.74,99,11.6,96.9,9.84,95.91Z"/><path class="cls-22" d="M82.17,130c0-.19.06-.38.07-.56,1.94-3.44,4.58-5.63,8.84-5.49,5.42.19,9.38,4.18,9,9.36a9.16,9.16,0,1,1-18.21-1.85C82,131,82.07,130.53,82.17,130Z"/><path class="cls-15" d="M137.84,64.22a58.92,58.92,0,0,0,7.28,7.7c-3.2-1.19-5.6-.2-7.38,2.66a2.63,2.63,0,0,1-1.81.91c-1.13.26-4-1.3-2.29,2.11.18.35-.43.73-.83.56-1.74-.75-1.88-.08-1.32,1.38a1,1,0,0,1-.34.71,5.44,5.44,0,0,1-3.72-2.64c-.85-1.37.19-1.59,1.28-2.21a33.06,33.06,0,0,0,8.5-7C138.45,67,137.6,65.61,137.84,64.22Z"/><path class="cls-15" d="M124.11,88.07l-2.39.07c-2-1.78-3.18-6.3-1.7-7.24s3.09-2.26,4.57-1.54a5.8,5.8,0,0,1,2.92,4.58C127.9,86.72,125.28,86.74,124.11,88.07Z"/><path class="cls-21" d="M127.1,140.23a76.36,76.36,0,0,0-2.42,13.14c-.54,4.79-.56,4.79-5.35,6,3.13-3.22,4.43-7.17,4.87-11.57C124.48,145.1,124.68,142.2,127.1,140.23Z"/><path class="cls-34" d="M120.57,98.76c-.57,1.15-1.27.74-1.75,0-.59-.87-1-1.86-1.9-3.58v4.31a8.34,8.34,0,0,1,1.81-9c1.81.76,3.46-.73,5.29-.32,1,.22,2.1,0,1.88,1.53C122,92.49,120.1,94.71,120.57,98.76Z"/><path class="cls-4" d="M50.6,99.48c-1.15-.11-1.76-1-2.47-1.75,0-2.17-.08-4.37,1.73-6,1,.24,1.63-.58,2.46-.8a4.36,4.36,0,0,1,5.18,1.81c1,1.65,1.82,3.68.07,5.55-1.08-.45-1.16-1.52-1.52-2.43-.53-1.34-1.47-2.18-3-1.84a2.53,2.53,0,0,0-2,2.65C51.05,97.61,51.43,98.65,50.6,99.48Z"/><path class="cls-4" d="M67.57,76.79c-4.08-1.32-8.17-2.25-12.6-1.6C57.68,72.6,64,73.38,67.57,76.79Z"/><path class="cls-3" d="M117.46,76c2.79-2.24,5.76-2.78,9-1.25Z"/><path class="cls-16" d="M33.73,76.08c-2.1.32-3.62,2.54-6,1.87A23.1,23.1,0,0,0,32.65,75l1.19-.54,1,.44Z"/><path class="cls-21" d="M58.85,163.59c-1.3-3,.43-2.67,2.39-2.27,10.62,2.19,21.32,3.77,32.2,3.44a139,139,0,0,0,26.23-3.44c1.67-.38,4.07-1.16,2.66,2.27-.65-1.11-1.56-.56-2.38-.33-12.12,3.35-24.53,3.86-37,3.22A115,115,0,0,1,62,163.78C61,163.53,59.94,163,58.85,163.59Z"/><path class="cls-15" d="M103.93,204.24c-1.49-.47-3.86-.19-4-2.82s2.9-6,5.07-5.4a4.94,4.94,0,0,1,3.39,4.45C108.56,202.35,106.25,204.26,103.93,204.24Z"/><path class="cls-35" d="M120.57,98.76c-1.66-1.85-2.44-3.83-.72-6s3.81-2,6.05-1c1.63,1.85,2.51,3.84.75,6S122.83,99.89,120.57,98.76Z"/><path class="cls-36" d="M132.57,100.47c-.11,1.13-.73,1.73-1.72,1.72a1.66,1.66,0,0,1,.09-3.32A1.57,1.57,0,0,1,132.57,100.47Z"/><path class="cls-35" d="M50.6,99.48c-1.65-3.12-1.51-5.15.53-6.64a4,4,0,0,1,5.23.18c1.78,1.41,1.45,3.35,1.21,5.25C55.6,100.69,53.3,101.24,50.6,99.48Z"/><path class="cls-37" d="M60.72,100.61c-1-2.42-.06-3.26,2.36-2.89.93.6,1.46,1.38.69,2.41A2.07,2.07,0,0,1,60.72,100.61Z"/><path class="cls-38" d="M60.72,100.61c3,.17,3.24-.13,2.36-2.89,1.27.36,2,1.13,1.2,2.38A2.18,2.18,0,0,1,60.72,100.61Z"/><path class="cls-39" d="M84.38,130.85c1.56.56,1.3,3.08,3.12,2.59,1.1-.3,1-1.83,1.32-2.84.74-2,.08-5.29,4-4.59,3.12.57,5.88,4.48,5.41,7.6-.62,4.11-4.39,7.1-8.24,6.53C85.67,139.5,83.47,135.94,84.38,130.85Z"/><path class="cls-40" d="M85.27,129.67A5.47,5.47,0,0,1,87,132.5a8.25,8.25,0,0,0,1.7-5.62c0-.13,0-.28-.16-.32a.3.3,0,0,0-.24,0A4.79,4.79,0,0,0,87,127.75l-1.6,1.88"/><ellipse class="cls-41" cx="94.48" cy="6.13" rx="30.57" ry="4.13"/></g></g></svg>