<svg width="197" height="175" viewBox="0 0 197 175" fill="none" xmlns="http://www.w3.org/2000/svg">
<g clip-path="url(#clip0_32_255)">
<path d="M21.4786 84.2016C22.3702 84.2832 22.5856 85.1069 23.024 85.6857C30.4414 95.4377 40.8538 102.494 52.6676 105.773C54.3169 106.241 55.2902 106.411 55.0227 104.081C54.7553 101.751 55.5577 99.2951 56.464 96.8315C54.7711 96.7457 53.1087 97.3053 51.8132 98.3972C51.3526 98.746 50.9142 99.2877 50.2604 98.8944C49.6066 98.5011 49.8667 97.8258 49.9112 97.2693C50.1842 93.5633 51.3215 89.9725 53.2322 86.7839C53.5201 86.3201 53.7078 85.8013 53.7833 85.2607C53.8588 84.7202 53.8204 84.1699 53.6706 83.645C51.6868 75.6806 52.2294 67.2973 55.2233 59.6542C55.4192 59.1886 55.5005 58.6828 55.4605 58.1793C55.4204 57.6757 55.2601 57.1892 54.993 56.7602C54.0866 55.0164 52.8533 53.4061 52.5561 51.3803C52.5814 51.2147 52.6558 51.0604 52.7697 50.9374C52.8836 50.8144 53.0317 50.7283 53.1951 50.6902C54.5918 50.6902 54.8073 51.9071 55.201 52.7828C56.1891 55.0089 57.1327 57.1757 59.2427 58.5782C60.4017 60.3666 61.4195 62.244 62.9574 63.7727C63.6558 64.4554 63.9381 65.3162 63.0763 66.0879C62.2145 66.8597 61.5904 66.3699 60.892 65.8653C59.6884 65.0267 59.1164 63.5278 57.7345 62.897C56.4418 62.7264 56.2857 63.7727 56.0926 64.5741C54.7963 69.6612 54.4314 74.9405 55.0153 80.1574C55.1044 80.8994 55.2902 81.2111 56.0034 81.2185C56.9395 81.0033 57.9722 80.6545 58.574 81.7379C58.7874 82.1715 58.8577 82.6614 58.775 83.1373C58.6922 83.6133 58.4606 84.0508 58.1134 84.3871C57.8409 84.7384 57.5927 85.1078 57.3704 85.4928C54.2724 87.5334 53.2545 90.754 52.4595 94.1081C52.4422 94.2505 52.4643 94.3949 52.5232 94.5257C52.5821 94.6565 52.6757 94.7686 52.7939 94.8501C52.9648 94.9021 53.1208 94.9689 53.2842 95.0283C56.0257 95.1025 57.8534 93.648 59.3244 91.548C61.3972 91.3551 62.1105 92.1713 61.4418 93.9745C61.1948 94.5024 60.8882 95.0003 60.528 95.4586C57.2962 97.5735 57.1179 100.972 56.9618 104.289C56.895 105.862 57.5042 105.929 59.4507 104.63C60.5503 104.222 61.6275 103.77 62.7345 103.391C64.5473 102.768 65.3051 103.517 65.0674 105.617C63.21 107.205 62.3036 111.168 63.4403 113.446C63.8707 114.29 64.1426 115.206 64.2427 116.147C64.317 116.563 64.421 116.964 64.9336 117.045C66.0258 117.231 66.7019 116.585 67.4077 115.94C68.1135 115.294 68.8936 114.366 70.0228 114.055C72.9946 113.164 73.277 113.313 73.277 115.539C72.7495 116.689 73.5964 117.134 74.3468 117.602C77.6818 119.638 81.2452 121.274 84.9635 122.477C87.5935 123.917 90.5282 124.184 93.4034 124.703C94.2684 124.86 95.1222 125.073 95.9591 125.341C99.243 127.056 102.876 127.471 106.45 127.991C111.936 128.812 117.471 129.268 123.017 129.356C128.419 129.34 133.812 128.931 139.154 128.132C149.731 126.653 160.022 123.578 169.674 119.012C171.16 118.27 172.847 117.787 172.215 115.353C171.918 114.173 173.062 113.595 174.303 113.788C176.06 114.106 177.721 114.819 179.162 115.873C179.838 116.34 180.477 116.852 181.391 116.667C182.305 116.481 182.527 116.162 182.676 115.235C183.077 112.808 182.624 110.433 182.475 108.044C182.426 107.608 182.22 107.204 181.896 106.909C180.41 105.298 180.455 105.276 182.386 104.2C183.241 104.096 183.872 104.586 184.615 104.89C185.521 105.194 186.398 105.632 187.319 105.862C189.043 106.352 189.682 105.736 189.259 103.911C188.998 102.79 188.293 101.788 188.263 100.586C188.159 99.1022 187.208 98.1746 186.198 97.2544C185.941 96.4621 185.608 95.6966 185.202 94.9689C184.712 94.2714 184.4 93.5293 185.001 92.7427C185.116 92.5767 185.263 92.4352 185.434 92.3264C185.604 92.2177 185.794 92.1439 185.993 92.1094C186.193 92.0748 186.397 92.0803 186.594 92.1253C186.791 92.1703 186.977 92.2541 187.141 92.3717C188.36 95.0357 190.856 94.9986 193.204 95.1841C193.336 95.1376 193.461 95.0726 193.575 94.9911C193.709 92.2678 192.371 90.3681 190.232 88.9137C189.578 87.5257 188.783 86.2079 187.862 84.9807C186.554 83.3779 187.119 82.3613 189.348 82.0125C190.351 82.2574 190.596 81.6934 190.752 80.84C191.882 75.2957 191.627 69.5586 190.009 64.1363C189.741 63.3126 189.229 62.5038 189.831 61.6133C190.209 61.0345 190.648 60.6709 191.316 61.1532C194.615 68.6183 194.526 76.2244 192.059 83.8528C191.831 84.3772 191.751 84.9541 191.829 85.5206C191.906 86.0872 192.137 86.6217 192.498 87.0659C194.949 90.4349 196.086 94.3233 196.584 98.4121C196.658 99.0428 196.926 99.8368 196.198 100.237C195.47 100.638 195.046 99.8294 194.608 99.4064C193.279 97.9866 191.519 97.0427 189.6 96.7201C189.117 97.5512 189.756 98.1449 189.979 98.7682C191.035 101.703 191.366 104.85 190.945 107.94C190.774 109.231 190.291 109.691 189.058 108.853C187.825 108.014 186.346 106.545 185.209 107.146C184.184 107.68 185.209 109.662 185.209 111.012C185.221 113.98 184.525 116.907 183.181 119.553C182.49 120.896 181.807 121.238 180.469 120.14C177.163 117.438 177.111 117.498 173.3 119.954C179.987 124.31 182.319 130.343 180.232 138.016C179.838 138.454 179.964 139.329 179.147 139.389C178.605 139.433 178.501 138.973 178.404 138.55C178.411 138.318 178.441 138.086 178.493 137.86C179.147 136.098 179.416 134.218 179.282 132.344C179.147 130.47 178.612 128.646 177.713 126.996C176.925 125.292 175.756 123.792 174.296 122.611C175.938 123.953 177.233 125.671 178.07 127.619C179.337 130.337 179.634 133.407 178.909 136.316C178.411 137.504 178.798 139.166 177.074 139.685C176.83 139.669 176.595 139.586 176.396 139.444C176.197 139.303 176.041 139.109 175.945 138.884C175.202 137.4 176.071 136.005 176.205 134.573C176.606 130.469 175.596 126.944 172.104 124.436C171.431 123.906 170.626 123.57 169.776 123.466C168.926 123.361 168.063 123.491 167.282 123.842C164.615 124.948 161.918 125.965 159.177 126.87C158.342 127.087 157.61 127.587 157.104 128.284C156.599 128.981 156.352 129.832 156.405 130.692C156.39 133.804 155.796 136.887 154.652 139.782C154.321 140.61 154.157 141.495 154.169 142.386C154.183 145.863 153.935 149.336 153.426 152.775C153.233 154.319 153.916 154.682 155.224 154.259C157.454 153.455 159.637 152.526 161.762 151.477C162.966 151.15 164.117 151.002 164.972 152.219C165.12 153.176 164.496 153.525 163.768 153.926C162.172 154.888 160.472 155.667 158.701 156.248C156.747 156.367 155.128 157.525 153.649 157.91C154.882 157.532 156.331 156.656 157.966 156.337C159.139 156.107 159.347 156.471 158.85 157.614C156.717 158.816 154.347 159.417 152.067 160.255C150.477 160.834 148.842 161.309 147.252 161.903C143.857 163.164 140.491 164.47 139.31 168.455C138.79 170.191 136.925 171.216 136.702 173.138C135.335 174.332 134.095 173.961 132.921 172.826C132.817 172.627 132.792 172.395 132.853 172.179C132.914 171.962 133.055 171.777 133.248 171.661C136.219 170.221 137.208 167.208 138.731 164.671C139.303 163.706 139.8 162.682 140.915 162.281C147.772 159.84 150.477 154.697 150.462 147.759C150.506 146.542 150.179 146.178 148.976 146.92C146.528 148.332 144.17 149.896 141.918 151.603C136.769 153.206 131.695 154.979 126.13 154.794C122.891 154.682 119.681 154.408 116.821 153.057C113.203 151.358 109.823 151.67 106.323 153.057C103.515 153.057 100.759 152.315 97.9205 152.486C96.6055 152.568 95.8848 152.879 96.4346 154.341C97.0324 156.132 98.038 157.759 99.3723 159.096C100.707 160.432 102.333 161.441 104.124 162.044C105.647 162.578 106.442 163.758 107.096 165.123C108.233 167.438 109.377 169.769 111.739 171.156C111.894 171.242 112.029 171.359 112.137 171.499C112.244 171.64 112.321 171.801 112.363 171.972C112.245 173.234 111.19 173.508 110.268 173.813C109.837 173.954 109.191 173.887 109.399 173.071C107.498 170.711 105.873 168.141 104.555 165.413C104.387 165.082 104.151 164.791 103.861 164.56C103.571 164.328 103.236 164.161 102.876 164.069C97.928 162.37 95.2013 158.756 93.9606 153.829C93.3139 150.891 92.1681 148.085 90.5728 145.533C87.601 141.014 88.2548 135.715 88.6337 130.617C88.968 126.165 89.0572 126.165 84.9709 124.681C80.1644 122.937 75.506 120.811 71.0407 118.321C69.5548 117.505 68.4924 117.505 67.3259 118.641C66.687 119.256 65.9441 119.746 65.2605 120.325C63.4106 121.883 63.1952 121.809 62.4076 119.435C61.7051 117.479 61.314 115.426 61.2486 113.35C61.2486 111.866 60.5577 111.346 59.1461 111.161C49.1707 109.83 39.7051 105.961 31.657 99.9258C26.5802 96.3113 22.1772 91.8357 18.648 86.7023C18.5761 86.6092 18.5241 86.5023 18.4951 86.3882C18.4662 86.2742 18.4609 86.1555 18.4797 86.0394C18.4985 85.9232 18.541 85.8122 18.6044 85.7131C18.6679 85.614 18.751 85.5289 18.8486 85.4631C20.119 84.9437 20.5425 85.9529 21.122 86.7098C27.8468 95.4713 36.8373 102.234 47.1252 106.27C47.4107 106.349 47.7011 106.408 47.9944 106.449C49.3169 106.931 50.6765 107.317 51.8801 107.673C50.2976 107.28 48.6408 106.582 46.88 106.189C41.0999 103.629 35.5352 100.705 30.6541 96.6311C27.2546 93.8111 24.1842 90.6174 21.5009 87.1105C20.8769 86.2942 19.807 85.5076 20.758 84.261C20.8529 84.1697 20.9764 84.1139 21.1077 84.1031C21.239 84.0923 21.37 84.1271 21.4786 84.2016Z" fill="#070707"/>
<path d="M150.506 34.4465C154.656 34.6801 158.748 35.5201 162.654 36.9398C163.251 37.2071 163.912 37.3002 164.56 37.2083C165.208 37.1164 165.817 36.8432 166.316 36.4203C175.744 29.4821 179.585 20.2657 177.713 8.69698C177.602 8.00687 177.111 7.1609 177.914 6.67856C178.575 6.27784 179.154 6.96054 179.704 7.28705C195.165 16.4886 201.413 37.0214 193.672 53.1241C193.5 53.4482 193.312 53.7628 193.107 54.0665C192.969 54.1971 192.792 54.2793 192.603 54.3007C192.414 54.3222 192.223 54.2816 192.059 54.1852C191.864 54.0371 191.713 53.8386 191.623 53.611C191.533 53.3834 191.506 53.1355 191.547 52.8941C191.585 52.1593 191.772 51.4398 192.097 50.7792C196.629 38.8469 195.108 27.7308 187.535 17.431C185.821 15.0304 183.717 12.9334 181.309 11.2274C181.061 11.2307 180.822 11.3199 180.633 11.4797C180.388 13.6557 180.255 15.8426 180.232 18.0321C180.172 19.0487 180.722 19.4346 181.472 19.7759C181.731 19.9667 181.909 20.2474 181.97 20.5625C181.97 20.9484 181.97 21.4085 181.599 21.542C178.783 22.6403 178.486 25.4898 177.282 27.7011C176.725 28.7178 177.141 29.5192 177.966 30.2241C178.917 31.033 179.957 31.8047 180.113 33.1924C179.37 34.8769 178.501 34.068 177.535 33.4447C176.331 32.7026 175.068 32.0051 173.634 32.9549C171.703 34.8917 169.986 37.0511 167.587 38.4833C166.472 39.1511 166.554 39.9674 167.349 40.8505C169.054 42.9162 170.194 45.3887 170.655 48.0262C170.863 48.976 170.915 49.8887 169.83 50.2523C168.872 50.5566 168.389 49.8294 167.98 49.0502C166.933 47.0318 166.339 44.7388 164.459 43.2102C163.986 42.7403 163.448 42.3404 162.862 42.0229C162.501 41.8241 162.09 41.7351 161.68 41.7668C161.269 41.7984 160.877 41.9494 160.551 42.201C159.749 42.854 160.031 43.6851 160.402 44.4272C161.928 47.387 163.748 50.1862 165.833 52.7827C166.651 53.829 167.988 55.1945 165.885 56.4411C165.038 56.5821 164.518 56.0256 163.969 55.5432C159.903 52.0705 156.995 47.4419 155.633 42.2752C155.18 40.5981 155.744 39.7225 157.505 39.3738C158.211 39.2328 159.102 39.5222 159.422 38.5278C159.021 37.4963 158.07 37.7857 157.334 37.6893C153.025 37.3182 148.768 36.5316 144.474 36.0493C143.664 35.9603 142.839 35.8638 142.535 34.8991C142.505 34.6396 142.566 34.3779 142.705 34.1571C145.35 33.2295 147.899 34.5058 150.506 34.4465Z" fill="#070707"/>
<path d="M70.8326 30.7807C73.6113 33.3037 76.2933 35.9751 79.7034 37.6818C80.4464 38.0454 81.1002 38.5352 81.9843 38.0677C87.3781 35.2405 93.2845 34.58 99.2132 34.2684C107.386 33.8454 113.025 29.5711 117.542 23.2265C118.099 22.4399 118.478 21.0003 119.615 21.2081C120.751 21.4159 120.67 22.8481 120.996 23.7905C121.765 25.7319 121.989 27.8461 121.643 29.905C121.375 31.2111 121.821 31.4411 123.04 31.1368C129.317 29.5711 133.939 25.9869 136.769 20.1395C137.029 19.5904 136.948 18.6554 137.832 18.6554C138.575 18.6554 138.827 19.4865 139.132 20.0579C140.959 23.4714 141.933 27.0481 141.071 30.9439C139.927 31.0626 140.023 30.2018 139.956 29.5043C139.888 28.5637 139.699 27.6358 139.392 26.7439C139.186 26.2461 139.041 25.7254 138.961 25.1929C138.842 24.7848 138.693 24.4064 138.218 24.3693C137.899 24.4398 137.585 24.5366 137.282 24.6587C135.595 24.8887 134.942 26.4099 134.057 27.4636C131.487 30.5358 128.114 32.1312 124.399 33.222C122.837 33.6231 121.473 34.5745 120.558 35.9009C119.555 37.3182 118.084 38.4016 117.044 39.8338C116.197 40.3236 115.343 40.5016 114.644 39.6557C113.946 38.8097 114.347 37.9935 114.875 37.2218C115.101 36.7552 115.377 36.3147 115.699 35.9083C119.124 33.8454 120.818 29.0665 119.161 26.1428C117.334 26.447 116.873 27.9386 116.323 29.3485C115.622 30.0706 114.878 30.7495 114.094 31.3817C105.825 36.5762 96.2192 36.821 86.5609 38.461C88.0467 39.7447 89.8744 39.2698 90.4167 40.8801C90.4877 41.1586 90.4945 41.4495 90.4366 41.731C90.3787 42.0125 90.2576 42.2772 90.0824 42.5052C89.3395 44.0635 88.76 45.6961 88.0096 47.2544C87.3855 49.4806 85.3424 50.8089 84.2948 52.7605C82.3929 54.8308 80.7807 57.2574 77.7792 57.9549C76.2933 56.4708 77.7792 55.8104 78.5593 54.9421C81.203 51.8614 83.5441 48.5341 85.5504 45.006C85.9591 44.3084 86.5014 43.5218 85.7213 42.7798C84.9412 42.0377 83.9085 42.2529 83.0616 42.7798C81.4271 43.878 80.4018 45.5328 79.2725 47.0763C78.6485 47.9297 78.0912 48.9982 76.8431 48.2933C75.5949 47.5883 76.0407 46.5123 76.4047 45.518C76.9203 44.2126 77.629 42.9919 78.5073 41.8967C79.3468 40.8207 79.1834 39.9525 78.0095 39.3737C75.2383 38.0009 73.1061 35.849 70.9144 33.7563C70.5241 33.4963 70.224 33.1221 70.0551 32.6851C69.8861 32.248 69.8567 31.7694 69.9708 31.3149C70.0595 31.162 70.1845 31.0333 70.3348 30.9401C70.4851 30.847 70.6561 30.7922 70.8326 30.7807Z" fill="#070707"/>
<path d="M19.064 85.5818L18.6554 86.5761C14.1977 81.1072 11.4043 74.7848 9.40573 68.1211C6.16197 57.3614 5.99983 45.9093 8.93767 35.0623C9.30171 33.6747 9.15313 33.1923 7.60037 32.9549C3.53645 32.3167 1.87223 30.4912 1.27044 26.4099C0.468059 20.9855 1.50076 15.6426 2.01339 10.2775C2.10254 9.29059 2.65233 8.18489 0.839543 8.16263C-0.126289 8.16263 -0.141143 7.42059 0.334344 6.74532C1.76823 4.67497 3.2021 2.61203 4.65828 0.563946C5.14863 -0.12617 5.78015 -0.267156 6.18134 0.615895C7.16946 2.84208 8.10557 5.06827 9.03425 7.35381C9.39087 8.22944 8.93023 8.72662 8.09813 8.55595C6.5528 8.24428 6.41909 9.15703 6.25564 10.285C5.51269 14.9599 4.60627 19.6127 4.91088 24.3841C5.09662 27.2039 6.27048 28.4728 8.67763 28.7622C9.97036 28.9255 10.691 28.6509 11.0031 27.1965C11.8129 23.4862 12.801 19.8872 13.7148 16.2362C14.3538 16.0285 13.7148 14.9896 14.4949 14.9599C15.275 14.9302 15.2379 15.6278 15.3642 16.1695C14.825 20.5574 13.9659 24.9001 12.7936 29.163C12.6856 29.7041 12.3804 30.1858 11.937 30.5149C11.4936 30.8439 10.9437 30.9968 10.3938 30.9439C5.07433 31.0181 3.33584 29.4598 3.03866 24.1021C2.82757 18.1017 3.49077 12.1025 5.00747 6.29267C5.09531 6.09339 5.12313 5.87285 5.0875 5.65804C5.05188 5.44323 4.95436 5.24346 4.80688 5.08311C3.57359 5.187 3.49928 5.35765 4.14565 6.68594C4.88859 9.29799 3.77417 11.7913 3.61072 14.344C3.34326 18.3437 2.34771 22.3063 3.35812 26.3357C4.19022 29.623 5.41609 30.6619 8.86337 30.7881C11.8797 30.9142 12.3552 31.634 11.5157 34.6839C7.40472 49.6488 8.84108 64.0719 15.8248 77.9534C16.7535 79.8011 17.8827 81.5153 18.7966 83.3482C19.1532 84.0828 19.7698 84.7507 19.064 85.5818Z" fill="#080808"/>
<path d="M21.4786 84.2015L20.9139 84.246C19.4281 84.6764 18.9303 83.504 18.3805 82.6209C12.7712 73.4936 9.54684 63.6984 9.53198 52.8569C9.53198 46.49 10.1486 40.3087 12.162 34.2683C12.905 31.9457 13.4102 31.5746 15.8768 31.8714C17.6434 32.0962 19.4288 32.136 21.2037 31.9902C22.285 31.9575 23.3273 31.5796 24.1777 30.9118C25.0281 30.244 25.6418 29.3216 25.9288 28.2799C27.4147 23.9982 26.8352 19.62 26.8575 15.2716C26.8575 13.4832 27.2959 11.7097 26.9541 9.97324C26.1369 10.3814 26.9541 10.8563 26.8427 11.2793C26.8427 16.2511 27.3702 21.2303 26.4638 26.165C25.5945 30.8697 22.9199 32.6729 18.1873 31.8047C13.2839 30.9142 12.905 30.3873 13.7297 25.5268C14.2274 22.5586 14.9109 19.5904 15.4013 16.6221C15.4105 16.2574 15.5147 15.9013 15.7036 15.589C15.8925 15.2767 16.1596 15.019 16.4785 14.8412C17.8307 15.5832 16.9912 16.7631 16.9837 17.7649C16.5974 20.9186 16.2408 24.0798 15.795 27.2188C15.6019 28.4506 15.9139 29.0294 17.1398 29.1704C18.2393 29.2891 19.3686 29.5339 20.4385 29.5933C21.2982 29.7092 22.1702 29.4992 22.8825 29.0047C23.5949 28.5102 24.096 27.7671 24.2869 26.9219C25.5722 22.4696 25.0299 17.9652 24.9036 13.4684C24.9036 13.2309 24.6881 12.8228 24.5024 12.7783C22.0878 12.192 23.1205 10.9379 23.8634 9.72097C24.1383 9.27573 24.3761 8.81564 24.6064 8.36298C26.8352 4.42265 26.3375 4.46717 29.391 7.99195C30.1636 8.88243 30.9264 9.78777 31.6792 10.7079C32.4593 11.6578 32.4222 12.4592 30.9958 12.3182C28.9898 12.1327 28.9229 13.2235 28.9526 14.7373C29.1311 18.6523 28.967 22.5754 28.4623 26.4618C27.4593 32.851 24.9184 34.9139 18.5514 34.4909C14.3612 34.2164 14.376 34.2164 13.3879 38.3942C9.59142 54.4969 12.4221 69.4494 21.1888 83.3853C21.317 83.6451 21.4142 83.9191 21.4786 84.2015Z" fill="#090909"/>
<path d="M70.8326 30.7806L70.3423 31.3668C69.8371 32.2425 69.5399 33.3927 68.1134 33.0958C67.4968 32.8435 67.0808 32.3537 67.3111 31.723C67.9277 30.0534 67.1402 28.7177 66.427 27.3449C66.1755 26.8948 65.9594 26.4258 65.7806 25.9424C65.2011 24.1688 64.8222 22.284 63.0094 21.2377C63.6186 18.4624 63.47 15.65 63.3586 12.8376C63.3586 12.5482 63.3586 12.9415 63.2471 12.6743C63.2471 12.6224 63.002 12.7189 62.8905 12.8598C61.4566 13.9284 59.6587 14.5592 58.9678 16.4217C54.0255 23.8598 51.7788 32.7625 52.6007 41.6518C52.7634 44.0841 53.0986 46.5019 53.6037 48.8868C53.7746 49.6289 53.7894 50.371 53.0019 50.831L52.5487 51.3802C49.6697 44.2219 49.1721 36.3285 51.1297 28.8661C53.1167 20.4478 57.9339 12.9647 64.7776 7.66543C65.268 7.27955 65.7657 6.47812 66.4641 6.96046C67.1625 7.4428 66.6276 8.1849 66.5013 8.80823C65.727 12.1656 65.6257 15.6429 66.2033 19.0396C66.781 22.4363 68.0261 25.6852 69.8668 28.599C70.2403 29.3023 70.563 30.0314 70.8326 30.7806Z" fill="#090909"/>
<path d="M109.421 172.959L112.148 171.765C111.881 170.518 113.04 170.399 113.634 169.85C113.872 169.721 114.146 169.673 114.414 169.713C114.682 169.753 114.93 169.88 115.12 170.073C115.506 170.496 115.484 171.119 115.863 171.557C120.007 172.992 124.519 172.958 128.641 171.46C129.065 170.37 127.549 169.449 128.374 168.344C128.428 168.179 128.517 168.027 128.634 167.899C128.75 167.771 128.893 167.668 129.052 167.598C129.211 167.528 129.383 167.492 129.557 167.493C129.73 167.494 129.902 167.531 130.06 167.602C130.88 168.096 131.574 168.772 132.089 169.578C132.604 170.383 132.927 171.297 133.032 172.247C134.176 172.87 135.484 172.781 136.695 173.108C139.622 172.811 142.416 173.954 145.343 173.738C142.274 175.49 101.368 175.482 97.6902 173.738C101.574 173.176 105.497 172.915 109.421 172.959Z" fill="#050505"/>
<path d="M16.9689 17.7575C16.85 16.8077 17.0209 15.8133 16.4711 14.9377C15.3121 12.9044 16.7534 11.0938 16.9763 9.21643C16.8798 9.45389 16.8723 9.67648 16.7757 9.89168C16.3597 11.45 16.1294 13.0306 15.8248 14.6038C15.6984 15.2642 15.9139 16.2956 14.7029 16.2808C14.4206 14.7967 14.0268 16.2808 13.6851 16.2363C13.8931 15.2271 14.0788 14.2105 14.3092 13.2087C14.5915 12.014 15.3047 10.7822 13.2467 10.3369C12.2512 10.1217 12.697 9.32773 13.1724 8.79345C14.4949 7.30933 15.8272 5.82521 17.1695 4.34109C17.9496 3.4803 18.5365 3.59902 18.856 4.74921C19.272 6.32238 19.6881 7.89553 20.1413 9.46127C20.5127 10.7599 20.9957 12.0437 18.7371 11.7765C17.9124 11.6801 17.8753 12.3998 17.7713 12.9861C17.5113 14.5666 17.2364 16.1621 16.9689 17.7575Z" fill="#121212"/>
<path d="M177.119 139.344C177.914 138.454 178.107 137.311 178.456 136.235C179.6 136.576 179.073 137.326 178.887 137.994C178.887 138.135 178.887 138.283 178.887 138.424C178.642 143.255 175.514 146.416 172.297 149.436C170.01 151.468 167.43 153.147 164.645 154.415L163.731 154.875C162.649 155.549 161.468 156.05 160.232 156.36C159.563 156.575 158.701 156.916 158.396 155.773C160.388 154.408 162.943 154.052 164.704 152.263C166.747 150.371 169.288 149.154 171.316 147.18C173.701 144.858 175.143 141.934 177.119 139.344Z" fill="#FE0000"/>
<path d="M140.112 26.0612C141.145 27.5453 140.112 29.4375 141.071 30.9365C140.655 32.7026 141.375 33.3185 143.159 33.4372C145.618 33.6005 148.062 34.0977 150.506 34.4464C148.766 34.5646 147.017 34.4523 145.306 34.1125C144.446 33.9234 143.546 34.0665 142.787 34.5132C141.42 35.5818 139.778 36.4203 139.533 38.4239C138.604 39.908 136.561 40.4571 136.182 42.379C135.363 42.9982 134.447 43.4771 133.471 43.7964C133.287 43.8828 133.088 43.9322 132.885 43.9417C132.681 43.9513 132.479 43.9207 132.287 43.8518C132.096 43.7828 131.921 43.6769 131.77 43.5401C131.62 43.4032 131.499 43.2382 131.413 43.0543C131.232 42.7295 131.18 42.3489 131.266 41.9875C131.353 41.6261 131.572 41.3104 131.881 41.1027C133.248 40.0638 134.109 38.6242 135.179 37.3108C138.723 35.9231 138.701 32.569 139.414 29.623C139.726 28.4432 139.057 27.0926 140.112 26.0612Z" fill="#121212"/>
<path d="M164.637 154.438C165.603 152.953 167.2 152.211 168.634 151.336C173.236 148.698 176.702 144.457 178.367 139.426C178.507 139.084 178.678 138.756 178.88 138.446C179.704 139.463 179.741 138.031 180.239 138.008C178.753 144.412 174.66 148.902 169.362 152.419C167.951 153.362 166.628 154.801 164.637 154.438Z" fill="#171717"/>
<path d="M192.186 54.0072H193.107C192.813 54.8286 192.424 55.613 191.948 56.3447C190.722 57.8288 190.351 59.3723 191.324 61.1235C191.12 61.1945 190.935 61.3108 190.783 61.4639C190.631 61.6169 190.516 61.8025 190.447 62.0066C189.56 62.4387 188.706 62.9347 187.891 63.4907C186.725 64.2328 186.019 65.4868 185.001 66.3921C183.612 67.624 182.869 67.4756 181.814 65.7985C181.881 63.8617 183.835 63.5055 184.831 62.3628C186.658 60.2553 188.657 58.3334 189.935 55.7881C190.358 54.9496 190.536 53.4655 192.186 54.0072Z" fill="#141414"/>
<path d="M158.389 155.766C159.533 156.508 160.41 155.499 161.413 155.298C162.156 155.15 162.951 155.031 163.723 154.898C162.654 156.797 160.536 156.76 158.857 157.539C158.471 155.847 157.371 156.998 156.807 157.183C154.56 158 152.262 158.666 149.927 159.179C152.698 157.896 155.328 156.308 158.389 155.766Z" fill="#940000"/>
<path d="M191.368 88.0751C190.232 86.769 189.704 85.1068 188.397 83.8527C187.609 83.1107 188.196 82.71 189.14 82.94C190.767 83.0736 190.781 81.6637 190.848 80.7807C191.319 75.2593 190.734 69.699 189.125 64.396C188.872 63.55 188.694 62.4146 187.334 62.526C186.272 63.6094 185.224 64.7076 184.147 65.7836C183.53 66.3995 182.914 66.585 182.431 65.6129C182.223 65.4682 181.979 65.3834 181.726 65.3676C181.473 65.3519 181.221 65.406 180.997 65.5239C183.716 64.0398 185.611 61.6948 187.594 59.4687C188.642 58.2888 190.001 57.1386 190.358 55.5209C190.466 54.9533 190.693 54.415 191.025 53.9417C191.357 53.4684 191.785 53.0709 192.282 52.7753C192.719 52.0927 193.099 51.3754 193.419 50.6308C198.134 36.9769 195.682 24.7551 186.064 13.9655C184.645 12.385 183.181 10.7747 181.012 10.144C180.871 10.24 180.751 10.364 180.66 10.5083C180.57 10.6526 180.51 10.814 180.484 10.9825C180.419 11.776 180.549 12.5733 180.863 13.3051C181.863 15.7915 182.251 18.4815 181.992 21.1487C181.928 21.3607 181.893 21.5803 181.888 21.8017C182.449 23.1736 182.717 24.6469 182.676 26.1279C182.973 36.3571 179.568 46.3503 173.084 54.2743C170.937 56.9753 170.729 57.0347 167.802 55.6471C167.171 55.5432 166.628 56.211 165.974 55.84C161.516 52.3664 158.279 47.5664 156.732 42.1342C156.398 40.9246 156.732 40.5091 157.765 40.2493C159.074 39.9978 160.342 39.5657 161.532 38.9655C161.428 37.8896 160.506 38.0825 159.867 37.9786C156.343 37.3466 152.749 37.1943 149.184 37.526C144.459 38.0083 139.748 38.7578 135.714 41.6147C134.503 41.9338 133.582 43.3363 131.747 42.6462C133.552 41.3253 135.209 40.2122 135.699 38.1938C137.861 35.9676 138.849 33.1478 139.488 30.187C139.6 28.3047 139.503 26.4157 139.199 24.5548C139.057 23.7385 139.332 22.0985 137.475 22.6031L136.955 23.835C132.912 29.6743 127.223 34.1815 120.61 36.7839C119.174 37.3513 117.815 38.0994 116.568 39.0101C116.138 39.1807 115.692 39.7522 115.253 39.3143C114.815 38.8765 115.461 38.4536 115.692 38.0677C115.922 37.6818 116.286 37.2737 116.583 36.8804C118.663 34 119.814 30.5544 119.882 27.0035C119.696 26.3431 119.949 25.371 118.99 25.2152C118.3 25.1113 118.173 25.9572 117.854 26.4025C117.184 27.278 116.422 28.0791 115.58 28.7919C114.837 29.1926 114.362 29.9941 113.456 30.1276C111.16 32.8436 108.054 34.2164 104.785 35.3221C100.714 36.7171 96.5609 37.8376 92.4524 39.1065C91.338 39.4553 90.1047 39.7299 89.8818 41.2066L89.0571 42.1713C89.384 44.1451 88.2473 45.6589 87.4375 47.2766C86.4889 49.1839 85.3032 50.9641 83.9085 52.5749C82.0952 54.7317 80.0356 56.6692 77.7717 58.3482C77.8525 58.2532 77.905 58.1375 77.9234 58.0142C77.9418 57.8909 77.9253 57.765 77.8757 57.6506C77.7123 56.5449 78.9084 56.2555 79.2205 55.4244C79.7183 54.1778 78.9976 53.265 78.2844 52.4562C75.5355 49.2505 73.5072 45.5848 71.3972 41.9635C70.6543 40.7243 70.3125 39.2104 68.9678 38.3793C67.2293 37.7115 65.7508 37.8599 64.4432 39.4108C63.1357 40.9617 60.7285 41.1398 59.1609 42.3197C58.8934 42.7501 58.7151 43.2176 58.2248 43.3066C58.4715 42.9215 58.7892 42.5865 59.1609 42.3197C59.2425 42.1519 59.3579 42.0027 59.4997 41.8814C59.6416 41.7601 59.807 41.6693 59.9856 41.6147C63.0168 40.7762 64.4432 38.2532 65.9291 35.8118C66.4566 34.7729 66.3823 33.5337 67.2293 32.569C67.4623 32.2738 67.584 31.9062 67.5731 31.5305C67.5622 31.1548 67.4195 30.7948 67.1699 30.5135C66.4269 29.5563 66.2635 28.3689 65.9886 27.2262C65.476 25.1113 65.0673 22.9519 63.6111 21.2155C64.0123 20.5402 64.9262 20.1098 64.7701 19.1748C64.2352 16.0656 64.4953 12.9341 64.6661 9.59485C63.4785 10.008 62.474 10.8249 61.8281 11.9026C61.0851 13.8765 59.2426 15.1306 58.3659 17.0228C57.2664 19.1303 55.9291 21.2526 55.1861 23.5827C52.7905 30.9821 52.1995 38.846 53.4625 46.5197C54.2426 51.1724 56.3748 55.2464 58.4031 59.3871C59.4283 61.6949 61.3749 63.3794 62.779 65.4349C60.8028 64.8264 59.889 63.0157 58.3214 61.9917C56.5754 62.0807 56.516 63.6242 56.2262 64.715C54.783 69.8584 54.4063 75.2419 55.1193 80.5358C55.2307 81.2778 55.3124 82.0199 56.0851 82.48C56.6497 82.2944 57.0138 81.4782 57.8013 81.8863C57.8013 83.0291 57.0584 83.7637 56.5383 84.632C54.5658 87.4044 53.148 90.5313 52.3629 93.8409C52.1995 94.531 51.7834 95.2434 52.6081 95.8074H52.9721C55.2792 94.784 57.5132 93.6038 59.6587 92.2752C60.2382 92.1119 60.9811 91.8076 60.6542 92.8985C60.3782 93.5692 60.0399 94.2127 59.6438 94.8204C58.0019 97.7887 56.7835 100.831 57.1178 104.289C57.311 106.285 57.7567 106.515 59.5992 105.551C60.8164 105.343 61.9911 104.937 63.0762 104.348C63.7672 103.963 64.7033 103.525 64.5101 105.091C64.2233 105.302 63.9831 105.569 63.8041 105.877C63.6252 106.184 63.5115 106.526 63.47 106.879C62.8905 110.137 62.5339 113.387 63.1802 116.674C63.0859 117.444 63.2395 118.224 63.6186 118.9C64.6587 118.967 65.2308 118.121 66.0183 117.683C67.4225 116.941 68.3512 115.279 70.2085 115.286C70.7831 114.969 71.3789 114.691 71.9916 114.455C73.0094 114.144 72.6751 114.811 72.5265 115.301C72.8311 117.149 74.5028 117.639 75.7881 118.366C78.8267 120.102 82.0883 121.423 85.2607 122.9C88.6423 124.255 92.0946 125.426 95.6025 126.41C97.1329 126.929 98.5743 127.79 100.179 128.02C109.607 129.386 119.005 130.603 128.612 130.12C143.809 129.469 158.699 125.629 172.312 118.848C173.345 118.329 174.92 118.158 175.187 117.008C175.454 115.858 173.478 116.162 173.092 115.131C173.092 115.071 173.092 114.99 173.129 114.849C173.486 114.53 173.872 114.715 174.325 114.797C176.502 115.249 178.218 116.489 179.949 117.765C180.455 118.143 180.915 119.605 182.03 118.448C182.285 117.914 182.438 117.338 182.483 116.748C182.847 113.038 183.501 109.328 181.324 105.825C180.581 104.668 181.74 104.868 182.446 105.083L184.778 105.454C185.733 105.464 186.67 105.703 187.513 106.152C188.694 106.679 189.192 106.233 189.296 104.935C189.284 103.717 189.147 102.503 188.887 101.313C188.636 99.6689 188.135 98.0724 187.401 96.5791C187.084 95.7082 186.616 94.8995 186.019 94.1897C185.729 93.9003 185.358 93.5144 185.729 93.084C186.101 92.6536 186.517 92.9875 186.903 93.1359C188.85 94.8575 191.695 94.8575 193.59 96.631H194.021C194.764 95.9261 194.385 95.1914 194.169 94.4049C193.481 92.1951 192.541 90.0714 191.368 88.0751ZM77.4746 58.5856L77.8014 58.3259C77.7022 58.424 77.5926 58.5111 77.4746 58.5856Z" fill="#FE0000"/>
<path d="M59.1832 42.2603C58.9157 42.6906 58.7374 43.1582 58.2471 43.2472C58.4938 42.862 58.8115 42.5271 59.1832 42.2603Z" fill="#333333"/>
<path d="M77.7643 58.3259C77.6651 58.424 77.5555 58.5111 77.4374 58.5856L77.7643 58.3259Z" fill="#333333"/>
<path d="M133.047 172.202C131.561 171.223 130.818 169.694 129.942 168.218C129.199 167.223 127.772 166.533 128.404 164.938C128.745 164.077 128.121 164.648 127.98 164.633C124.199 164.196 120.395 164.589 116.606 164.47C115.93 164.47 115.796 164.99 115.662 165.494C114.406 167.72 113.812 170.451 111.242 171.765C108.753 171.29 107.973 169.078 107.066 167.253C106.04 164.907 104.148 163.046 101.784 162.058C100.185 161.447 98.777 160.422 97.7051 159.088C96.6333 157.754 95.9358 156.159 95.6842 154.467C96.0482 152.649 97.5713 152.82 98.8789 152.59C101.204 152.182 103.597 152.323 105.907 151.796C109.83 150.438 113.5 150.312 117.586 152.018C125.016 155.18 132.49 153.592 139.815 151.083C140.514 150.846 141.227 150.653 141.933 150.438C144.121 149.563 146.253 148.552 148.315 147.41C149.578 146.757 150.751 146.186 151.695 147.818C151.45 149.488 151.205 151.158 150.952 152.827C150.387 156.456 148.835 159.602 145.328 161.042C141.413 162.652 139.184 165.583 137.416 169.204C136.554 170.874 135.469 172.573 133.047 172.202Z" fill="#FE0000"/>
<path d="M100.573 132.665C99.1389 133.408 97.497 133.712 96.3008 134.892C95.1047 136.072 94.4509 137.452 94.9264 139.084C95.1454 139.885 95.6267 140.589 96.2934 141.084C96.96 141.579 97.7736 141.836 98.604 141.815C103.433 141.904 108.374 142.846 112.943 140.331C113.554 140.076 114.192 139.892 114.845 139.782C117.987 139.351 120.833 137.808 123.953 137.296C126.73 136.541 129.551 135.958 132.401 135.552C134.667 135.426 136.933 135.76 139.184 135.367C139.843 135.243 140.524 135.379 141.086 135.745C141.829 137.474 140.41 138.172 139.407 138.877C135.973 141.225 132.123 142.9 128.062 143.811C127.625 143.845 127.2 143.977 126.821 144.197C120.632 145.414 114.897 148.137 108.79 149.629C106.424 150.216 103.991 150.495 101.553 150.46C95.7139 150.364 91.3454 146.75 90.0824 140.991C89.2428 137.177 89.5623 133.363 89.8966 129.541C90.1189 129.155 90.1929 128.702 90.1047 128.265C90.1047 127.382 90.4464 126.989 91.3082 127.293C94.0836 128.206 96.9121 128.949 99.7778 129.519C101.509 129.935 100.744 131.508 100.573 132.665Z" fill="#FE0000"/>
<path d="M14.703 16.2808C15.223 14.0546 16.4415 11.9398 15.5053 9.55034C15.015 8.80828 15.6391 8.49661 15.9957 8.06622C16.5678 7.41321 17.2958 6.86404 17.333 5.89194C18.8189 7.15344 18.9601 9.51321 17.6748 10.6337C16.3895 11.7542 16.6495 13.4313 16.4712 14.9228C15.7827 19.2268 15.0893 23.5282 14.3909 27.8272C14.2349 28.7919 14.3909 29.6379 15.4682 29.957C17.3107 30.4987 19.1829 31.0997 21.1295 30.8474C23.076 30.5951 24.6287 29.6972 25.3123 27.7085C26.9616 22.8703 26.0998 17.8911 26.1592 12.9638C26.1592 11.9398 25.0596 11.873 24.5321 11.3016C26.1815 10.4853 25.914 8.33333 27.229 7.33897C27.7491 7.9623 28.2469 8.60791 28.7892 9.20897C29.5991 10.0994 30.7803 10.9009 28.5366 11.5687C27.3925 11.9101 27.66 13.1419 27.6228 14.0769C27.4668 18.1285 27.9869 22.2396 27.1548 26.2393C26.9319 27.3227 26.657 28.3986 26.3672 29.4672C25.7134 31.8641 24.0047 32.9846 21.6421 33.1181C19.6477 33.3016 17.6381 33.2318 15.6614 32.9104C14.2943 32.6284 13.6331 33.1478 13.2319 34.4539C9.17046 47.1836 9.66952 60.928 14.6435 73.3304C16.174 77.2559 18.0314 81.0552 20.914 84.2312C22.5485 88.2161 25.9363 90.7614 28.8041 93.7073C33.4104 98.4343 39.1162 101.603 45.0152 104.43C45.7582 104.779 46.4565 105.172 47.1698 105.558C47.5487 105.892 48.1356 105.914 48.4253 106.345C48.7151 106.775 48.6334 107.012 48.0613 106.923C40.8547 104.749 34.6883 100.749 28.9156 96.0374C25.1562 92.9727 22.3776 89.0324 19.0641 85.567C11.9169 74.7255 7.91983 62.897 8.06842 49.8368C8.07353 44.4283 8.93099 39.0543 10.6093 33.9121C11.1219 32.428 10.7728 31.9531 9.23486 31.8195C4.35369 31.3965 3.25414 30.3354 2.46662 25.5417C1.82768 21.6162 2.63005 17.7278 2.89008 13.8246C2.98363 12.2731 3.17471 10.7291 3.46216 9.20155C3.73705 7.80647 2.7192 7.44287 1.89453 6.8418C3.61074 5.64708 4.32398 3.7177 5.38639 2.04065C5.8173 2.98307 6.28536 3.90326 6.66427 4.86051C7.04317 5.81777 7.99414 7.01249 5.92132 7.4132C5.33439 7.52451 5.30467 8.37788 5.17837 8.94927C4.36113 13.9062 3.36557 18.8558 3.5736 23.924C3.74448 27.946 5.7653 29.9867 9.38346 30.0386C10.7802 30.0386 11.6123 29.6008 11.9318 28.176C12.8382 24.206 13.7817 20.2434 14.703 16.2808Z" fill="#FE0000"/>
<path d="M126.895 152.612C124.17 152.504 121.468 152.066 118.849 151.306C118.262 149.963 119.161 149.303 120.083 148.65C122.103 147.165 124.496 146.698 126.814 145.993C130.046 144.984 133.463 144.813 136.635 143.463C140.308 141.877 143.47 139.309 145.774 136.042C147.096 134.239 146.13 132.02 146.413 130.009C148.3 129.074 150.387 128.933 152.408 128.569C154.08 128.265 154.399 129.022 153.983 131.79C153.887 133.741 154.176 135.76 153.084 137.556C152.044 137.942 151.948 139.04 151.487 139.782C148.59 144.746 143.902 147.366 138.857 149.547C137.104 150.218 135.319 150.8 133.508 151.291C131.316 151.825 129.08 152.056 126.895 152.612Z" fill="#FE0000"/>
<path d="M143.277 134.892C135.662 133.044 128.233 134.06 120.989 136.658C117.809 137.8 115.179 137.808 112.311 135.767C109.948 133.932 107.089 132.846 104.102 132.651C103.545 131.285 104.295 131.003 105.461 130.706C106.628 130.41 107.861 130.981 109.005 130.447C111.602 131.01 114.254 131.277 116.91 131.241C124.34 131.478 131.836 131.552 139.243 130.395C142.252 130.157 144.072 131.404 144.288 133.793C144.384 134.639 144.459 135.329 143.277 134.892Z" fill="#FE0000"/>
<path d="M59.1906 16.7186C52.6378 29.9569 52.1029 43.3883 57.831 57.0422C58.0796 57.8121 58.2635 58.6014 58.3808 59.4019C56.2114 57.2722 55.3199 54.3484 53.7225 51.8625C53.4997 51.4989 53.2471 51.1205 52.9796 50.8088C52.1898 47.6417 51.6605 44.4153 51.3971 41.1621C50.7582 31.8269 52.9573 23.3526 58.6631 15.7984C59.4655 15.7688 59.5175 16.1621 59.1906 16.7186Z" fill="#CBCBCB"/>
<path d="M189.102 82.9474C190.388 81.5078 190.061 79.7268 189.964 78.0795C189.667 72.796 189.392 67.4977 187.334 62.4962C189.199 60.1142 189.303 60.0993 190.447 62.0287C192.935 68.5021 193.22 75.6136 191.257 82.2647C190.863 83.6375 190.462 84.758 189.102 82.9474Z" fill="#940000"/>
<path d="M58.3066 62.0066C55.8925 68.5475 55.127 75.5812 56.0777 82.4874C54.8519 84.3351 54.7033 82.7843 54.5324 81.9457C53.7495 77.8151 53.5842 73.5914 54.042 69.4123C54.2254 66.984 54.7584 64.5947 55.6245 62.3182C55.9143 61.5762 55.8251 60.4556 56.7612 60.3518C57.6973 60.2479 57.8682 61.361 58.3066 62.0066Z" fill="#940000"/>
<path d="M96.9918 139.811L96.1375 139.292C96.6872 136.116 98.5818 134.587 102.646 134.365C104.174 134.17 105.726 134.348 107.17 134.884C107.98 135.099 108.946 134.884 109.511 135.775C109.674 136.91 108.983 137.563 108.121 138.001C104.637 139.975 100.996 141.043 96.9918 139.811Z" fill="#FE0000"/>
<path d="M96.9918 139.812C101.695 140.101 105.773 138.476 109.51 135.775C110.915 136.086 111.97 137.073 113.225 137.689C113.79 137.971 114.369 138.52 113.411 138.914C108.047 141.118 102.594 141.867 96.9918 139.812Z" fill="#940000"/>
<path d="M126.821 144.219C130.031 142.616 133.255 141.021 136.479 139.403C138.314 138.619 139.908 137.365 141.101 135.767C141.844 136.057 142.965 135.886 143.233 136.68C143.567 137.674 142.49 138.164 141.858 138.736C137.653 142.706 132.378 143.908 126.821 144.219Z" fill="#940000"/>
<path d="M161.992 152.701C164.503 151.217 167.193 149.956 169.466 148.063C172.568 145.444 175.02 142.142 176.628 138.417L177.119 139.389C175.893 144.182 172.394 147.247 168.775 150.186C167.594 151.143 166.346 152.145 164.697 152.278C163.723 151.959 162.914 152.775 161.992 152.701Z" fill="#171717"/>
<path d="M126.814 146.023C124.919 147.121 123.025 148.249 121.115 149.317C120.192 149.774 119.409 150.471 118.849 151.336L114.815 149.852C118.782 148.071 122.349 145.54 126.814 146.023Z" fill="#940000"/>
<path d="M72.5191 115.301C76.6247 118.023 80.9341 120.424 85.4092 122.484C85.4092 123.286 84.9412 123.13 84.4509 122.959C79.7662 121.272 75.2329 119.192 70.8995 116.741C71.1001 115.717 72.0362 115.776 72.5191 115.301Z" fill="#C3C3C3"/>
<path d="M182.022 118.47C181.97 114.352 181.888 110.233 180.975 106.174C180.67 104.831 181.279 104.549 182.46 105.113C182.148 105.209 181.435 105.425 181.829 105.647C184.377 107.131 183.761 109.617 183.857 111.784C184.072 114.161 183.42 116.535 182.022 118.47Z" fill="#940000"/>
<path d="M138.872 149.154C144.607 146.698 149.37 143.151 152.245 137.415C152.601 136.673 152.988 136.383 153.114 137.563C150.804 143.923 145.685 147.21 139.793 149.577C139.295 149.8 138.835 149.993 138.872 149.154Z" fill="#B8B8B8"/>
<path d="M151.695 147.796C149.11 147.306 147.185 149.184 144.882 149.74C143.901 149.97 142.988 150.482 141.91 150.416C145.023 148.115 148.671 146.527 151.405 143.077C151.918 144.924 151.673 146.371 151.695 147.796Z" fill="#940000"/>
<path d="M59.6438 94.8204C59.1386 97.9074 57.5636 100.757 57.7048 103.992C57.7642 105.402 58.0391 106.144 59.5993 105.551C59.5496 105.765 59.4542 105.966 59.3196 106.14C59.185 106.315 59.0143 106.458 58.8192 106.56C56.9024 107.947 56.5903 107.866 56.3823 105.528C56.0554 101.588 56.4789 97.7887 59.6438 94.8204Z" fill="#B3B3B3"/>
<path d="M105.907 151.774C102.564 152.902 98.9681 153.08 95.6842 154.445C95.5954 154.327 95.5229 154.197 95.4688 154.059C95.1196 152.887 94.1463 151.499 94.9339 150.549C95.5282 149.807 96.7467 151.054 97.7274 151.291C100.439 151.959 103.173 151.736 105.907 151.774Z" fill="#940000"/>
<path d="M100.573 132.666C100.788 130.87 100.112 130.024 98.188 129.86C96.2812 129.712 94.4191 129.209 92.6976 128.376C91.2117 127.634 90.231 127.812 89.8967 129.593C89.9635 126.492 90.0898 126.425 93.0839 127.308C94.7853 127.805 96.5163 128.176 98.2474 128.554C101.108 129.156 101.464 129.764 100.573 132.666Z" fill="#940000"/>
<path d="M143.277 134.892C144.31 133.14 142.653 132.472 141.851 131.515C141.517 131.166 141.116 130.888 140.671 130.697C140.227 130.505 139.749 130.405 139.266 130.402C140.078 130.044 140.965 129.886 141.851 129.942C142.824 129.898 144.08 129.044 144.704 130.172C145.447 131.471 145.202 133.044 144.882 134.476C144.689 135.374 143.939 135.255 143.277 134.892Z" fill="#940000"/>
<path d="M56.5235 84.6467C55.5279 87.0139 54.4729 89.3662 53.5517 91.7631C53.0613 93.0617 52.4744 94.3677 52.5858 95.8221C52.3035 96.2229 52.0881 96.8907 51.5012 96.6904C50.9142 96.49 51.2857 95.9483 51.3748 95.5254C52.2738 91.5108 53.1951 87.5111 56.5235 84.6467Z" fill="#B0B0B0"/>
<path d="M107.192 134.892C105.37 134.803 103.544 134.862 101.732 135.07C99.1389 135.545 97.0661 136.643 96.1597 139.299C95.9454 138.83 95.8741 138.309 95.9547 137.799C96.0353 137.29 96.2642 136.815 96.6129 136.435C98.6783 133.704 104.176 132.896 107.192 134.892Z" fill="#B9B9B9"/>
<path d="M48.0613 106.938C48.0613 106.285 47.3926 106.077 47.1697 105.573C49.4432 106.159 51.724 106.723 53.9826 107.354C54.5695 107.517 55.5205 107.695 55.2159 108.556C54.9113 109.417 54.0643 108.942 53.4774 108.756C51.6646 108.178 49.7403 107.925 48.0613 106.938Z" fill="#940000"/>
<path d="M109.028 130.439C107.497 131.404 105.179 130.625 104.124 132.665C102.943 132.665 101.821 132.547 101.977 130.944C102.155 129.207 103.396 129.69 104.466 129.846C105.989 130.068 107.505 130.269 109.028 130.439Z" fill="#940000"/>
<path d="M153.998 131.797C153.827 129.029 153.76 128.97 150.982 129.512C149.491 129.868 147.961 130.038 146.428 130.016C148.352 127.887 151.16 128.347 153.575 127.664C154.243 127.471 154.362 128.406 154.392 128.985C154.534 129.941 154.397 130.917 153.998 131.797Z" fill="#940000"/>
<path d="M184.771 105.484C184.474 104.104 185.514 105.068 185.655 105.098C188.627 105.603 188.627 105.617 188.627 102.612C188.627 102.174 188.627 101.729 188.627 101.291C188.627 100.853 188.278 100.223 189.169 100.23C189.422 102.159 190.239 103.985 190.016 105.996C189.883 107.153 189.623 107.606 188.404 106.968C187.186 106.33 185.945 105.951 184.771 105.484Z" fill="#AEAEAE"/>
<path d="M52.9573 95.7999C54.562 93.4327 56.9469 92.5571 59.6438 92.2603C59.0521 93.4847 58.0844 94.4885 56.8816 95.1252C55.6789 95.7619 54.304 95.9983 52.9573 95.7999Z" fill="#940000"/>
<path d="M64.5027 105.105C63.4329 108.89 63.3065 112.793 63.1728 116.689C61.9098 113.394 62.2739 110.055 62.8756 106.716C62.9547 106.316 63.152 105.948 63.442 105.661C63.732 105.374 64.1015 105.181 64.5027 105.105Z" fill="#940000"/>
<path d="M111.242 171.765C113.054 169.88 113.834 167.446 114.808 165.086C114.905 164.907 115.043 164.754 115.211 164.637C115.378 164.521 115.57 164.445 115.772 164.415C115.974 164.386 116.179 164.403 116.373 164.467C116.567 164.531 116.743 164.639 116.888 164.782C117.631 165.376 117.259 166.103 116.888 166.748C116.144 168.148 115.134 169.391 113.916 170.407L112.155 171.742L111.242 171.765Z" fill="#940000"/>
<path d="M178.887 138.016C178.922 137.4 178.772 136.787 178.456 136.257C179.123 133.267 178.797 130.141 177.527 127.352C177.26 126.84 177.171 126.425 177.988 126.469C179.927 130.187 180.484 134.016 178.887 138.016Z" fill="#FE0000"/>
<path d="M193.999 96.6904C193.783 94.1452 192.743 91.8744 191.695 89.6037C191.48 89.1362 190.744 88.7355 191.368 88.0751C193.909 90.5165 194.526 93.7815 195.15 97.0317C195.202 97.3211 195.15 97.7071 194.779 97.6699C194.266 97.618 194.214 97.0466 193.999 96.6904Z" fill="#A5A5A5"/>
<path d="M57.415 109.454C58.0316 108.304 58.9009 108.022 59.6438 107.517C60.045 107.228 60.4982 106.775 61.0257 107.079C61.5532 107.384 61.4046 108.133 61.3675 108.704C61.3303 109.276 60.9886 109.907 60.2902 109.884C59.3248 109.792 58.365 109.649 57.415 109.454Z" fill="#940000"/>
<path d="M84.4509 122.959L85.4093 122.484L95.5951 126.41C91.7409 125.77 87.9918 124.609 84.4509 122.959Z" fill="#C3C3C3"/>
<path d="M186.859 93.1656C189.459 93.6406 191.807 94.583 193.545 96.6607C192.238 96.2303 190.945 95.7183 189.615 95.3844C189.009 95.2672 188.441 95.0038 187.961 94.6171C187.48 94.2303 187.102 93.732 186.859 93.1656Z" fill="#940000"/>
<path d="M123.76 137.622C120.788 138.416 118.032 139.952 114.845 139.804C117.57 138.676 120.386 137.78 123.262 137.125C123.426 137.296 123.738 137.318 123.76 137.622Z" fill="#B8B8B8"/>
<path d="M123.76 137.622L123.262 137.125C126.063 136.383 128.835 135.507 131.762 135.411C131.925 135.537 132.208 135.537 132.2 135.841L123.76 137.622Z" fill="#B8B8B8"/>
<path d="M177.988 126.462L177.527 127.345C176.312 124.599 174.143 122.385 171.42 121.112C174.504 121.868 176.45 123.924 177.988 126.462Z" fill="#940000"/>
<path d="M126.895 152.612C128.916 151.276 131.353 151.536 133.537 150.935C133.783 151.224 134.317 150.935 134.488 151.402C132.056 152.277 129.48 152.688 126.895 152.612Z" fill="#B8B8B8"/>
<path d="M63.6112 118.9C65.1491 117.832 66.6796 116.733 68.2398 115.695C68.8193 115.316 69.4062 114.745 70.2011 115.286C68.3141 116.177 66.7985 117.602 65.1268 118.804C64.6959 119.115 64.1833 120.05 63.6112 118.9Z" fill="#858585"/>
<path d="M134.488 151.403L133.537 150.935L138.872 149.154L139.763 149.577C138.117 150.47 136.335 151.087 134.488 151.403Z" fill="#B8B8B8"/>
<path d="M189.125 100.23L188.582 101.291C188.203 99.7254 187.334 98.2784 187.356 96.6088C188.32 97.5947 188.94 98.8645 189.125 100.23Z" fill="#9E9E9E"/>
<path d="M132.2 135.842L131.762 135.411C134.233 135.192 136.72 135.192 139.191 135.411C136.91 136.272 134.526 135.574 132.2 135.842Z" fill="#B8B8B8"/>
<path d="M167.304 56.2926C166.673 56.6414 166.301 56.2926 165.974 55.8103C166.42 54.5636 165.432 53.8957 164.808 53.1537C162.615 50.5545 160.763 47.6869 159.295 44.62C158.82 43.6034 157.431 42.3122 158.954 41.3327C160.477 40.3531 162.223 39.6779 163.887 41.162C165.551 42.6461 167.334 44.1302 168.055 46.4974C168.405 47.5246 168.922 48.4873 169.585 49.3469C169.08 45.837 168.203 42.4977 165.076 40.3012C164.281 39.7447 163.627 39.151 164.927 38.6167C168.248 37.2365 170.447 34.4686 173.099 32.2424C174.853 32.3389 176.561 32.5244 177.966 33.7859C178.983 34.7135 178.597 36.2347 179.548 37.1623C179.206 40.9616 177.148 44.0857 175.343 47.2766C173.304 50.7958 170.569 53.8635 167.304 56.2926Z" fill="#940000"/>
<path d="M161.532 38.9284C157.163 38.038 152.757 38.4387 148.374 38.691C143.991 38.9433 139.994 40.8801 135.744 41.5776C136.46 40.1482 137.535 38.9286 138.864 38.038C140.179 36.962 141.026 35.2775 142.891 34.9065C148.972 35.1868 155.007 36.0945 160.9 37.615C162.282 38.0009 162.26 38.0825 161.532 38.9284Z" fill="#940000"/>
<path d="M182.423 21.2304C182.416 21.3762 182.416 21.5223 182.423 21.6682C182.141 24.4435 182.342 27.2782 181.68 30.0089C181.406 31.0998 181.576 32.4355 180.336 33.133C180.115 33.2043 179.883 33.232 179.652 33.2146C178.738 32.0466 177.579 31.0919 176.257 30.4171C175.306 29.8754 174.934 29.2817 175.573 28.3022C176.733 26.4162 177.679 24.4078 178.397 22.3138C178.991 20.6887 180.625 21.4678 181.569 20.7332C182.067 20.4957 182.297 20.7703 182.423 21.2304Z" fill="#940000"/>
<path d="M182.431 65.5833C181.168 66.1472 181.443 67.149 181.844 68.1137C180.804 68.559 180.395 67.713 179.793 67.4162C179.431 67.2212 179.149 66.9063 178.994 66.5258C178.84 66.1452 178.823 65.7227 178.946 65.331C179.14 64.1585 179.89 65.2493 180.269 65.0267C181.243 64.5316 182.15 63.9131 182.966 63.1864C185.098 61.0122 187.097 58.7341 189.184 56.5079C189.398 56.2664 189.56 55.9839 189.661 55.6777C189.762 55.3716 189.799 55.048 189.771 54.7269C189.771 53.1463 190.477 52.1743 192.282 52.7531C192.282 53.1835 192.215 53.6139 192.186 54.0368C190.209 56.263 189.177 59.1051 187.052 61.1829C185.529 62.6596 183.976 64.114 182.431 65.5833Z" fill="#FE0000"/>
<path d="M178.463 37.6818C178.137 35.374 177.498 33.4001 174.563 33.4372C173.894 33.4372 173.449 32.8065 173.077 32.2499C173.917 30.4986 175.098 31.0997 176.391 31.6859C177.475 32.1757 178.099 33.6376 179.615 33.222L179.868 33.0959C181.487 34.5058 180.744 36.8136 178.463 37.6818Z" fill="#940000"/>
<path d="M182.423 21.2304L181.539 20.7332L181.153 20.2435C179.986 19.2788 180.254 17.8763 180.195 16.6519C180.135 15.4275 180.195 14.166 180.195 12.9416C180.135 12.1476 179.778 11.22 181.056 11.0197C182.056 13.9347 182.761 16.9428 183.159 19.9986C183.203 20.5106 183.716 21.4382 182.423 21.2304Z" fill="#BEBEBE"/>
<path d="M180.633 12.756C180.536 15.2716 181.51 17.713 181.153 20.2434C179.667 20.095 178.924 19.4049 179.288 17.7946C179.972 14.908 179.288 11.9991 179.37 9.1051C181.257 9.81748 180.001 11.6133 180.633 12.756Z" fill="#940000"/>
<path d="M142.854 34.9065C142.533 35.746 141.988 36.4817 141.278 37.0337C140.568 37.5858 139.721 37.9331 138.827 38.038C139.295 35.8934 139.882 33.8899 142.809 34.5132L142.854 34.9065Z" fill="#940000"/>
<path d="M180.633 12.756L179.37 9.10511C180.469 8.54857 180.514 9.69133 181.012 10.1143C181.012 10.4111 181.012 10.7005 181.012 10.9974L180.633 12.756Z" fill="#989898"/>
<path d="M79.2428 55.3799C74.9189 50.3858 71.583 44.7462 68.5444 38.921C68.3279 38.8194 68.1505 38.6501 68.0391 38.4387C67.8683 35.0326 68.0392 34.8322 71.635 33.1626C74.2692 35.7646 77.3012 37.9313 80.6173 39.5814C81.9471 40.2122 81.2785 40.7316 80.6173 41.3253C78.7446 42.9003 77.5306 45.1189 77.2146 47.5437C78.9233 45.9706 80.0155 43.9002 81.7391 42.3493C82.449 41.6644 83.3589 41.2232 84.3368 41.0898C85.3147 40.9564 86.3097 41.1376 87.1775 41.6072C88.2399 42.1786 87.9204 43.0024 87.5564 43.685C85.1641 47.8628 82.8387 52.0777 79.2428 55.3799Z" fill="#940000"/>
<path d="M113.478 30.0535C112.735 32.109 110.811 32.9253 109.139 33.9641C104.889 36.6059 100.157 38.0381 95.3796 39.3515C93.5297 39.8635 91.7243 40.5462 89.9041 41.1547C88.4182 40.2939 86.6277 40.3236 85.0155 39.819C84.5475 39.6706 83.8565 39.6854 83.8417 39.0324C83.8268 38.3794 84.5029 38.2903 84.9635 38.1419C88.3487 36.8593 91.9074 36.0913 95.5208 35.8638C102.036 35.4557 108.262 34.3574 113.478 30.0535Z" fill="#940000"/>
<path d="M136.955 23.7607C135.573 28.547 131.754 31.2481 128.04 34.0457C124.63 36.5124 120.71 38.1835 116.568 38.9359C117.898 37.1772 119.726 35.8044 120.595 33.6821C120.755 33.3868 120.986 33.1362 121.268 32.9534C121.549 32.7706 121.873 32.6614 122.207 32.6358C127.331 31.616 131.955 28.8868 135.32 24.8961C135.815 24.4507 136.365 24.0692 136.955 23.7607Z" fill="#940000"/>
<path d="M135.699 38.1196L138.835 30.4838C139.318 28.9997 138.916 27.5155 139.065 26.0314C139.117 25.5565 138.738 24.8219 139.674 24.7477L140.113 26.0685C140.306 29.5339 140.075 32.9252 138.24 36.0047C137.653 36.9991 137.096 38.0677 135.699 38.1196Z" fill="#B6B6B6"/>
<path d="M71.635 33.1627C71.592 33.4856 71.4786 33.7953 71.3027 34.0696C71.1269 34.344 70.8928 34.5765 70.6172 34.7507C69.0644 35.5447 68.6781 36.9324 68.5295 38.461C66.1966 37.8302 66.3749 35.7747 65.996 34.0086C66.0438 33.7786 66.1365 33.5603 66.2688 33.3661C66.401 33.1719 66.5703 33.0056 66.767 32.8768C66.9636 32.7479 67.1837 32.659 67.4147 32.6151C67.6458 32.5712 67.8832 32.5732 68.1134 32.621C68.8564 32.1535 69.4136 31.4485 70.3423 31.3224L71.635 33.1627Z" fill="#940000"/>
<path d="M116.606 36.8062C117.594 33.5337 118.953 30.3651 119.31 26.9145C119.845 26.4618 118.901 25.3414 120.097 25.1781C121.264 29.5563 119.823 34.3574 116.606 36.8062Z" fill="#BEBEBE"/>
<path d="M120.097 25.1781C119.83 25.7569 119.57 26.3357 119.31 26.922C119.236 26.5732 119.31 26.1057 119.065 25.9053C118.82 25.705 118.626 26.0983 118.47 26.306C117.727 27.3227 117.141 28.599 115.603 28.7177C116.399 26.9493 117.475 25.3206 118.79 23.8943C119.979 22.5215 119.652 24.6735 120.097 25.1781Z" fill="#A8A8A8"/>
<path d="M77.014 58.5189L77.8981 57.5987C80.0165 56.0342 81.9728 54.2617 83.7376 52.3078C84.1017 52.2411 84.3172 52.3078 84.1834 52.7605C82.3181 55.1898 80.0579 57.2893 77.4969 58.9715C76.9991 59.1422 76.9174 58.927 77.014 58.5189Z" fill="#B2B2B2"/>
<path d="M139.674 24.7403C138.783 26.5658 139.823 28.6732 138.835 30.4839C138.835 28.5842 138.835 26.6845 138.775 24.7923C138.775 23.8573 138.693 22.8258 137.475 22.5661C137.772 21.6163 138.114 20.9039 138.872 22.299C139.337 23.034 139.613 23.8728 139.674 24.7403Z" fill="#969696"/>
<path d="M84.1611 52.7604L83.7153 52.3078L87.2741 46.9798C87.6678 46.8759 87.8833 46.9798 87.7198 47.4176C86.7094 49.3099 85.8253 51.2837 84.1611 52.7604Z" fill="#888888"/>
<path d="M87.7421 47.4176L87.2963 46.9798C88.0892 45.4393 88.6881 43.8067 89.0794 42.1193C90.1567 44.2712 88.4999 45.7331 87.7421 47.4176Z" fill="#6E6E6E"/>
<path d="M5.36406 2.06287C4.65826 3.99964 4.50966 6.33711 1.87219 6.86397C2.89003 5.14239 3.78158 3.33921 5.36406 2.06287Z" fill="#A2A2A2"/>
<path d="M27.229 7.35376C26.4861 8.77109 26.8278 10.9453 24.5321 11.3163C25.3568 9.94352 25.3494 7.99935 27.229 7.35376Z" fill="#A1A1A1"/>
<path d="M68.1134 32.6655L66.3081 34.0383C66.3081 34.9214 65.9143 35.426 64.9708 35.3666C64.9708 35.2998 64.8667 35.1959 64.889 35.1737C67.5711 32.2054 65.1936 29.2965 64.6364 26.4396C64.3541 24.9555 64.8965 22.989 62.9054 22.0466C62.6379 21.913 63.3214 21.4158 63.6483 21.1561C64.1924 21.1802 64.7114 21.3914 65.1176 21.7538C65.5237 22.1161 65.7921 22.6076 65.8772 23.1448C66.134 24.0663 66.4851 24.9591 66.9247 25.8089C67.9648 27.9905 69.7256 30.0312 68.1134 32.6655Z" fill="#940000"/>
<path d="M59.1907 16.7186L58.6929 15.7836C59.3764 14.1659 60.8474 13.1864 61.8652 11.8433C61.8058 13.9359 60.0228 15.0564 59.1907 16.7186Z" fill="#A1A1A1"/>
<path d="M129.02 168.722C127.794 165.472 125.566 164.485 122.059 164.767C119.503 164.975 117.757 165.427 116.784 167.943C116.406 168.988 115.745 169.908 114.875 170.6C114.74 170.488 114.579 170.413 114.407 170.383C114.235 170.353 114.058 170.369 113.894 170.429C114.379 169.204 115.056 168.065 115.9 167.053C116.97 165.568 116.561 164.975 114.808 165.108C113.745 164.685 113.53 164.121 114.808 163.884C116.058 163.743 117.318 163.705 118.574 163.773C122.289 163.773 126.004 163.773 129.681 163.773C130.424 163.773 131.294 163.498 132.089 164.255C131.234 164.997 129.86 164.448 129.295 165.338C128.664 166.377 129.949 167.201 129.942 168.225C129.849 168.182 129.748 168.162 129.647 168.165C129.545 168.168 129.446 168.195 129.356 168.243C129.267 168.291 129.19 168.36 129.132 168.443C129.073 168.526 129.035 168.622 129.02 168.722Z" fill="#070707"/>
<path d="M113.797 171.765C113.433 172.67 114.005 172.722 114.659 172.722H130.083C130.67 172.722 131.361 172.781 131.034 171.809C132.185 172.551 131.777 173.034 130.729 173.041C125.172 173.1 119.585 173.041 114.057 173.041C113.634 173.041 113.077 173.041 113.047 172.432C113.025 172.039 113.448 171.906 113.797 171.765Z" fill="#070707"/>
<path d="M17.333 5.90674C18.0759 7.78415 15.7282 8.13294 15.5053 9.55028C14.4652 9.55028 14.6732 9.04565 15.119 8.50395C15.8471 7.62832 16.5975 6.76753 17.333 5.90674Z" fill="#A5A5A5"/>
<path d="M178.463 37.6818C178.991 36.1977 179.949 34.8026 179.875 33.0959C180.693 29.8817 181.176 26.5918 181.316 23.2785C181.316 22.5364 180.997 21.4678 182.423 21.6756C182.817 21.9509 183.136 22.3209 183.349 22.7515C183.562 23.1821 183.662 23.6594 183.642 24.1392C184.385 37.0733 180.536 48.3081 171.465 57.6804C170.544 58.6376 169.86 58.8157 168.954 57.7397C168.446 57.2137 167.894 56.7321 167.304 56.3001C166.48 55.1203 167.639 54.7344 168.211 54.2075C173.099 49.7571 176.649 44.0347 178.463 37.6818Z" fill="#CCCCCC"/>
<path d="M157.98 77.4043C158.012 78.4068 157.839 79.4052 157.473 80.3392C157.107 81.2732 156.556 82.1234 155.851 82.8384C155.147 83.5535 154.305 84.1186 153.376 84.4996C152.448 84.8805 151.451 85.0695 150.447 85.0549C146.383 85.0549 143.233 81.6711 143.255 77.3152C143.232 76.3509 143.405 75.3919 143.763 74.4963C144.122 73.6008 144.659 72.7873 145.342 72.1052C146.025 71.4231 146.839 70.8867 147.736 70.5284C148.633 70.1701 149.593 69.9974 150.558 70.0208C151.542 69.9779 152.524 70.1394 153.442 70.4949C154.36 70.8504 155.194 71.3922 155.891 72.0861C156.589 72.78 157.135 73.611 157.494 74.5264C157.854 75.4418 158.019 76.4217 157.98 77.4043Z" fill="#030303"/>
<path d="M102.787 76.2689C102.861 78.4951 102.839 80.6619 101.219 82.517C98.812 85.2849 95.8625 85.6189 92.5564 84.7432C90.5133 85.2478 89.7852 84.7432 89.4881 82.4725C85.7287 76.677 89.8892 70.9409 94.3766 70.2656C96.2146 70.0704 98.0666 70.4711 99.659 71.4084C100.543 71.5197 101.308 71.7943 101.479 72.8257C101.182 74.1837 100.03 74.9332 99.1984 75.883C98.3663 76.8329 97.3559 76.3728 96.442 75.883C96.078 75.6307 95.8997 75.2152 95.5951 74.9035C94.8001 74.1169 93.8863 73.7385 92.8536 74.3544C91.8209 74.9703 91.8878 75.883 92.1107 76.8551C92.237 77.3449 92.5787 77.7679 92.5416 78.3022C92.6422 79.1268 93.0117 79.8955 93.5931 80.4896C94.1745 81.0837 94.9354 81.4701 95.7585 81.5895C97.0141 81.5895 97.3559 80.7436 97.5119 79.7195C97.8165 75.9647 100.023 74.5325 102.787 76.2689Z" fill="#040404"/>
<path d="M68.5592 38.921C66.4344 38.4239 65.1417 40.0712 64.0272 41.2066C62.7865 42.4755 61.7984 43.2324 60.1713 42.3345C59.7924 43.2992 61.1372 43.7667 60.5725 44.4791C60.0079 45.1914 59.4655 43.9151 58.7746 44.249C58.1877 44.8204 59.5176 45.8074 58.5369 46.1561C57.5562 46.5049 57.103 45.5551 56.5532 45.0059C56.2425 44.7365 56.0178 44.382 55.9068 43.9863C55.7959 43.5906 55.8037 43.1711 55.9291 42.7798C55.9781 42.6861 56.0489 42.6055 56.1355 42.5448C56.2221 42.4841 56.322 42.4451 56.4269 42.431C59.5919 42.8614 60.4759 39.6705 62.5859 38.409C63.6631 37.6443 64.4963 36.5853 64.9856 35.3592L66.3229 34.0309C67.5637 35.2627 67.6454 37.0733 68.5518 38.4832C68.5592 38.6317 68.5592 38.7726 68.5592 38.921Z" fill="#FE0000"/>
<path d="M106.628 71.3045C105.885 71.8982 105.253 72.4251 105.194 73.3675C105.045 75.8163 103.864 75.5046 102.378 74.4583C101.1 74.5251 101.286 73.4194 100.989 72.7145L99.659 71.3787C100.309 71.3958 100.958 71.3004 101.576 71.0968C102.475 70.5996 104.451 70.6812 103.218 68.6628C103.163 68.5637 103.13 68.4542 103.121 68.3415C103.112 68.2288 103.127 68.1155 103.165 68.009C103.203 67.9025 103.263 67.8051 103.341 67.7234C103.419 67.6417 103.514 67.5775 103.619 67.5349C104.822 67.0896 106.219 66.8522 107.334 67.4458C108.753 68.2398 108.485 69.7833 106.628 71.3045Z" fill="#FE0000"/>
<path d="M100.989 72.7145C101.598 73.1626 102.078 73.7644 102.378 74.4583C102.512 75.0594 102.646 75.653 102.787 76.2541C101.996 76.3325 101.214 76.4891 100.454 76.7216C99.9933 76.9071 98.1657 76.4544 99.5104 78.1018C99.6219 78.2428 98.7675 79.1852 98.3514 79.7566C97.3261 80.4987 96.7466 81.6786 95.7437 82.4429C93.0245 82.1609 92.0735 81.1814 91.7318 78.3244C91.8122 78.1605 91.934 78.0203 92.0851 77.9175C92.2362 77.8148 92.4114 77.753 92.5936 77.7382C93.3528 77.8204 94.1176 77.6456 94.7656 77.242C95.4135 76.8383 95.9071 76.2291 96.1671 75.512C96.249 75.3489 96.3725 75.2103 96.5251 75.11C96.6777 75.0097 96.854 74.9513 97.0364 74.9407C97.6753 75.564 98.3291 75.8014 98.7452 74.77C99.1612 73.7385 100.127 73.3007 100.989 72.7145Z" fill="#040404"/>
<path d="M178.865 70.9038C178.619 72.618 177.832 73.8721 176.041 73.7236C174.793 73.6049 172.75 73.8498 172.765 72.0392C172.765 70.9928 172.186 69.4791 173.137 68.7222C174.031 67.9746 175.183 67.6069 176.346 67.6981C177.817 68.0098 178.649 69.3752 178.865 70.9038Z" fill="#FE0000"/>
<path d="M92.5564 84.7136C91.9174 86.9991 90.5282 88.32 88.9085 87.9489C87.6901 87.6744 85.9367 87.6002 86.011 85.8786C86.1002 84.298 86.0927 82.1164 88.8491 82.569C89.0679 82.5652 89.2842 82.5225 89.488 82.4429L92.5564 84.7136Z" fill="#FE0000"/>
<path d="M115.974 105.632C121.366 104.649 126.872 104.459 132.319 105.068C126.903 106.226 121.442 106.115 115.974 105.632Z" fill="#121212"/>
<path d="M152.171 59.4686C149.34 59.7877 146.472 59.7209 143.693 60.4556C146.316 58.5039 149.228 58.7711 152.171 59.4686Z" fill="#141414"/>
<path d="M101.799 60.3962C98.864 60.1068 96.1597 58.9121 93.2622 59.6541C94.5716 58.8315 96.1142 58.4588 97.6553 58.5927C99.1963 58.7267 100.651 59.36 101.799 60.3962Z" fill="#191919"/>
<path d="M77.0139 58.5188L77.4746 58.9714C76.422 60.0109 75.0227 60.6265 73.5444 60.7005L77.0139 58.5188Z" fill="#8F8F8F"/>
<path d="M148.946 78.4951C148.088 78.509 147.26 78.1823 146.643 77.5869C146.026 76.9915 145.671 76.1758 145.655 75.319C145.667 74.5017 145.992 73.72 146.562 73.1338C147.133 72.5476 147.906 72.2011 148.723 72.1653C149.147 72.1392 149.572 72.1972 149.973 72.3359C150.374 72.4746 150.744 72.6913 151.061 72.9734C151.378 73.2555 151.636 73.5976 151.82 73.9798C152.004 74.362 152.111 74.7768 152.133 75.2003C152.138 76.0563 151.807 76.8801 151.211 77.4956C150.616 78.1112 149.803 78.4699 148.946 78.4951Z" fill="#F8F8F8"/>
<path d="M152.884 82.71C152.659 82.7271 152.432 82.6989 152.218 82.627C152.004 82.5552 151.807 82.4411 151.638 82.2916C151.469 82.1422 151.331 81.9603 151.234 81.7568C151.137 81.5533 151.081 81.3324 151.071 81.1071C151.03 80.8666 151.045 80.6199 151.115 80.3861C151.185 80.1523 151.307 79.9376 151.473 79.7584C151.638 79.5793 151.843 79.4404 152.071 79.3526C152.299 79.2648 152.544 79.2304 152.787 79.252C153.011 79.2355 153.236 79.2673 153.447 79.3453C153.658 79.4233 153.849 79.5455 154.008 79.7039C154.168 79.8622 154.291 80.0529 154.37 80.263C154.449 80.4731 154.482 80.6977 154.466 80.9216C154.482 81.1433 154.454 81.366 154.383 81.5767C154.312 81.7873 154.199 81.9816 154.052 82.1482C153.904 82.3147 153.725 82.4503 153.524 82.5467C153.324 82.6432 153.106 82.6987 152.884 82.71Z" fill="#EDEDED"/>
<path d="M97.0364 74.9109C96.8506 78.4802 95.1493 79.5785 91.7317 78.3244C90.1864 76.0982 90.2458 74.295 91.962 73.13C93.6783 71.965 95.4985 72.5586 97.0364 74.9109Z" fill="#F8F8F8"/>
<path d="M95.7436 82.4429C95.2013 79.957 95.8922 79.2446 98.3514 79.7566C98.9532 80.6768 99.2875 81.6266 98.3514 82.5096C97.4153 83.3927 96.598 82.9475 95.7436 82.4429Z" fill="#E8E8E8"/>
</g>
<defs>
<clipPath id="clip0_32_255">
<rect width="197" height="175" fill="white"/>
</clipPath>
</defs>
</svg>
