<svg width="498" height="171" viewBox="0 0 498 171" fill="none" xmlns="http://www.w3.org/2000/svg">
<path d="M176.51 36.1866C175.479 38.8298 172.655 42.8411 170.623 45.843C168.559 48.8946 167.453 54.42 164.602 56.4067C164.73 55.0793 164.273 53.4894 164.425 52.1678C162.969 54.0991 162.864 56.5088 160.811 58.4868C158.814 60.4093 155.35 61.4712 153.006 63.067C148.639 66.031 142.816 71.396 145.748 77.146C149.489 70.6112 162.838 67.3409 167.854 64.018C178.05 57.2498 176.801 46.9195 176.51 36.1866Z" fill="#FF673E"/>
<path d="M94.7506 81.452C93.8073 87.8702 89.376 90.8225 86.0162 95.747C83.2969 99.7466 81.9198 106.054 86.4675 108.741L91.1433 118.114C91.8013 118.762 92.9426 111.597 92.9426 109.736C92.9426 106.191 91.0065 103.425 90.7735 100.091C90.3543 93.8711 94.7622 88.0365 94.7506 81.452Z" fill="#FF673E"/>
<path d="M151.335 131.852C151.431 131.645 151.527 131.438 151.626 131.225C151.516 131.428 151.419 131.637 151.335 131.852Z" fill="#FFCC4D"/>
<path d="M138.181 63.0786C135.231 66.0631 134.728 67.6589 133.406 69.9198C131.604 72.9947 131.892 75.4977 131.706 78.9402C131.415 84.3169 131.292 91.9369 127.874 96.2167C133.793 90.0903 139.153 88.3399 139.619 78.9402C140.003 71.2151 139.977 63.4375 145.375 57.3111L138.181 63.0786Z" fill="#FF9B50"/>
<path d="M205.68 47.1471C206.281 46.1697 206.809 45.1487 207.258 44.0926C206.629 45.0538 206.1 46.0774 205.68 47.1471Z" fill="#FF673E"/>
<path d="M495.999 133.856C494.625 129.352 482.315 115.267 484.895 112.382C478.947 118.666 471.036 115.109 463.859 116.527C456.208 118.041 453.3 127.919 446.172 129.924C448.024 125.968 448.21 120.588 446.589 116.524C444.626 111.588 441.002 109.814 441.217 104.079C437.691 107.174 434.183 110.237 430.736 113.476C432.028 101.873 430.855 91.1667 424.549 80.9444C419.859 73.3418 412.723 67.3846 416.298 57.9587C409.421 62.8657 401.202 65.0683 393.798 69.4209C385.789 74.1324 382.735 87.0329 373.243 88.5878C373.808 86.7499 373.534 84.7544 374.204 83.0741C363.493 93.8915 359.408 107.212 343.471 112.574C337.357 114.631 332.244 116.075 327.458 119.576C324.837 114.52 321.734 110.138 317.43 106.069C313.782 102.62 303.831 97.9 309.226 91.9749C304.961 93.664 302.725 98.215 299.464 101.237C295.196 105.193 291.201 104.881 286.837 108.364C280.857 113.14 280.239 112.209 279.078 104.989C278.74 102.883 278.839 99.8196 278.236 97.7774C277.701 95.957 275.718 93.3723 275.372 92.4212C271.776 102.731 261.475 104.899 252.825 107.883C243.707 111.019 241.596 122.974 232.736 125.125C232.008 120.541 235.901 118.348 236.859 114.505C237.659 111.296 236.984 105.462 236.515 102.116C235.709 96.3538 229.298 84.3373 234.404 79.4682C228.829 84.136 226.768 92.0332 221.14 96.4646C215.963 100.549 210.385 101.608 206.248 107.235C207.703 102.256 211.666 97.4624 213.008 92.5262C214.228 88.0423 212.504 80.005 211.439 75.6786C209.133 66.311 201.971 56.7159 205.694 47.1529C201.377 54.1924 194.386 56.9726 187.559 61.8329C182.822 65.2083 179.698 67.8368 177.619 73.2747C176.126 77.184 175.354 80.6293 171.826 83.3191C171.642 79.9525 167.749 76.1366 169.38 72.9392C164.384 81.2741 158.899 86.9599 149.777 91.0617C141.488 94.7872 130.334 98.3171 126.04 106.923C121.941 115.141 122.581 133.62 108.961 131.843C109.338 129.013 109.442 126.154 109.273 123.304C103.898 129.431 91.8041 130.306 89.6904 138.982C90.0281 131.172 91.9788 126.011 87.9028 118.35C84.5866 112.122 81.3694 108.382 81.0783 101.299C78.688 113.727 61.9646 115.01 52.4062 118.82C46.6474 121.11 43.1682 124.582 39.9481 129.994C37.5607 134.002 37.7645 139.233 32.6899 140.522C33.5953 135.936 32.3055 132.441 30.7828 128.109C33.1964 135.548 13.7712 144.755 8.51602 148.74C0.97825 154.455 0 162.534 0 170.37H479.695C498.867 163.63 498.037 140.54 495.999 133.856Z" fill="#FF673E"/>
<path d="M221.125 64.6161L220.945 64.4352C220.948 64.5899 221.003 64.6511 221.125 64.6161Z" fill="#FF673E"/>
<path d="M233.118 29.1909C232.535 41.8755 210.918 47.2229 219.207 62.6936L220.954 64.444C220.936 63.9451 221.454 62.574 222.214 61.3662C223.061 60.0213 224.214 58.8981 225.332 57.7749C227.37 55.7328 230.154 54.2246 231.805 51.7769C236.183 45.2625 233.112 36.5134 233.118 29.1909Z" fill="#FF673E"/>
<path d="M251.824 73.266C251.958 69.9636 253.361 65.1791 252.889 62.7286C251.608 73.7765 233.729 79.1765 239.354 91.5314L239.831 103.07C240.469 95.992 248.202 92.0536 251 85.3088C252.534 81.6008 251.664 77.2423 251.824 73.266Z" fill="#FF673E"/>
<path d="M443.727 30.1769C440.646 36.563 439.537 40.8106 433.604 45.986C429.527 49.5422 420.135 57.9675 423.492 64.4965C424.671 66.7924 427.146 74.1558 427.146 74.1558C428.558 65.4884 435.406 60.736 440.83 54.1458C446.213 47.5905 443.593 38.2171 443.727 30.1769Z" fill="#FF673E"/>
<path d="M416.146 29.3893C416.472 28.2701 416.674 27.1187 416.749 25.9556C416.335 27.0521 416.13 28.2169 416.146 29.3893Z" fill="#FF673E"/>
<path d="M416.146 29.3893C414.624 34.6405 410.577 38.5964 406.279 42.138C402.25 45.4754 397.883 49.5364 398.025 55.0239L396.945 64.3973C396.916 64.8378 396.945 65.2871 396.928 65.7305C400.451 58.1804 405.901 54.1078 411.436 47.9143C414.057 44.9523 415.746 41.2803 416.292 37.3594C416.641 34.9468 416.1 32.0265 416.146 29.3893Z" fill="#FF673E"/>
<path d="M427.163 25.9556C426.537 29.1442 428.963 37.7241 428.963 37.7241C431.17 34.1095 433.248 32.0936 434.369 27.9919C435.26 24.7361 436.244 21.5358 437.863 18.528C439.543 15.4181 440.574 13.1572 441.109 9.6068C441.415 7.56467 441.517 5.19579 441.983 3.03404C438.271 10.2136 429.327 15.0126 427.163 25.9556Z" fill="#FF673E"/>
<path d="M441.98 3.03403C442.491 2.08774 442.839 1.06209 443.011 0C442.527 0.958092 442.18 1.97938 441.98 3.03403Z" fill="#FF673E"/>
<path d="M293.702 72.7992C292.217 78.4822 286.619 80.1509 282.994 84.2964C278.702 89.2005 282.411 93.6319 281.829 99.0056V105.856C281.804 106.3 281.804 106.745 281.829 107.189C282.918 100.441 289.783 97.6899 292.36 91.8757C293.775 88.6812 292.456 85.3671 292.261 82.0617C292.069 78.8118 292.974 75.8887 293.702 72.7992Z" fill="#FF673E"/>
<path d="M215.314 113.569C215.195 113.683 215.084 113.799 214.976 113.913C215.093 113.799 215.203 113.686 215.314 113.569Z" fill="#FF9B50"/>
<path d="M263.373 120.556C263.408 120.381 263.437 120.206 263.464 120.022C263.44 120.203 263.411 120.372 263.373 120.556Z" fill="#FF9B50"/>
<path d="M282.234 126.79C282.444 126.56 282.65 126.326 282.839 126.084C282.61 126.294 282.406 126.531 282.234 126.79Z" fill="#FF9B50"/>
<path d="M472.544 141.902C472.544 141.902 461.256 152.483 455.279 151.582C455.314 148.904 456.621 146.914 456.313 144.058C455.995 141.085 453.148 138.46 455.53 135.834C449.707 140.794 444.449 143.921 436.858 145.803C429.938 147.518 427.035 149.271 422.831 155.138C422.997 149.645 427.431 144.569 427.524 138.684C427.615 133.103 423.533 128.993 423.137 123.943C420.58 125.959 417.963 127.916 414.999 129.267C415.191 127.278 415.803 125.183 416.309 123.31C413.893 127.056 409.727 126.443 406.218 127.791C400.189 130.125 398.515 136.543 394.112 140.735C394.657 137.494 397.726 133.891 399.353 130.945C401.422 127.208 403.119 123.275 404.419 119.205C405.916 114.571 406.672 109.729 406.658 104.858C406.658 100.657 406.259 97.7191 404.419 93.9616C403.645 92.3804 402.419 90.1165 402.524 88.159C398.564 94.1453 388.368 97.722 382.554 100.009C375.342 102.848 372.111 104.834 368.265 111.235C367.624 109.365 366.809 106.366 366.366 105.082C364.66 119.824 346.469 123.841 334.727 127.747C325.833 130.705 319.757 134.612 313.913 141.876C313.232 137.97 313.165 134.273 311.963 130.37C310.798 126.539 308.213 123.406 308.364 119.304C306.556 123.52 302.608 126.434 300.262 130.37C298.605 133.15 297.516 140.756 294.838 141.858C294.753 140.376 294.773 138.851 294.794 137.348C292.465 140.969 291.926 144.819 289.09 148.393C287.411 150.483 285.538 152.407 283.495 154.14C282.973 152.031 282.379 149.925 281.905 147.664C281.031 143.58 281.631 139.933 281.806 136.158C281.94 133.241 280.577 129.261 282.234 126.796C280.076 129.13 276.877 130.758 275.08 133.605C273.403 136.266 272.638 139.335 270.824 141.87C272.451 136.978 272.827 134.655 268.873 130.452C265.572 126.951 262.672 125.378 263.385 120.559C262.678 124.176 260.107 125.772 257.021 127.488C252.892 129.784 250.272 133.389 246.487 136.035C243.238 138.317 239.639 138.244 236.568 140.823C233.767 143.157 231.941 146.754 229.731 149.715C229.487 146.027 230.849 142.842 230.459 139.379C230.011 135.405 227.527 131.613 225.064 128.547C222.153 124.938 209.846 119.453 214.976 113.913C208.28 120.483 195.813 118.645 193.158 129.328C192.177 123.966 189.14 119.76 189.719 113.767C190.147 109.345 192.698 105.462 193.597 101.167C195.292 93.0572 191.897 84.3577 190.447 76.7639C189.507 82.0151 189.603 85.4021 185.771 89.6322C181.835 93.9791 177.328 96.8089 172.46 100.006C168.78 102.419 163.985 105.858 162.477 110.182C160.905 114.683 162.905 119.517 159.938 123.771C159.6 119.938 160.811 116.857 159.146 112.703C157.784 109.286 154.531 106.897 155.943 103.107C152.939 107.708 146.842 109.456 144.405 114.126C141.494 119.69 142.658 126.379 138.582 131.441C133.703 137.506 125.955 138.253 120.657 143.337C115.762 148.023 116.4 153.63 114.161 159.465C114.56 154.566 107.788 148.67 104.108 146.336C99.9765 143.696 95.2308 143.609 98.3868 137.742C94.7126 142.118 90.3192 144.032 86.1267 147.661C81.9342 151.29 78.9441 157.44 73.9423 159.914C73.7443 156.244 72.0702 152.976 72.0149 149.525C69.5489 151.063 66.9227 153.563 65.5864 156.235C66.4598 147.148 58.5989 139.002 60.8815 130.501C55.1634 138.961 47.3723 145.808 37.6509 149.505C30.8701 152.084 23.0208 150.867 18.5488 157.309C18.971 153.828 20.5694 150.342 20.6509 146.722C19.233 152.372 10.8189 154.919 7.40378 159.249C5.76463 161.326 7.30773 170.043 10.9296 170.384H463.859C463.859 170.384 483.646 163.893 472.544 141.902Z" fill="#FF9B50"/>
<path d="M402.524 88.1561C403.033 87.3971 403.437 86.5728 403.726 85.7055C403.362 86.0034 403.066 86.3765 402.858 86.7994C402.651 87.2223 402.537 87.685 402.524 88.1561Z" fill="#FF9B50"/>
<path d="M254.502 142.448C254.633 142.381 254.764 142.311 254.895 142.246C254.754 142.292 254.622 142.36 254.502 142.448Z" fill="#FFCC4D"/>
<path d="M385.611 116.947C385.992 116.845 386.377 116.749 386.776 116.656C386.379 116.713 385.988 116.811 385.611 116.947Z" fill="#FFCC4D"/>
<path d="M339.441 137.955C339.983 137.943 340.527 137.938 341.074 137.938C340.535 137.831 339.979 137.837 339.441 137.955Z" fill="#FFCC4D"/>
<path d="M460.287 157.758C457.859 160.258 454.062 162.717 450.604 163.117C451.704 160.783 453.771 158.82 449.104 158.829C446.137 158.829 443.104 160.241 439.884 160.313C441.488 157.069 441.782 153.536 444.667 150.896C435.77 150.587 428.829 158.563 420.33 159.94C418.77 160.191 417.241 160.401 415.733 160.614C415.58 160.493 415.436 160.36 415.302 160.217C411.555 156.194 416.385 148.63 416.309 144.172C415.049 146.109 412.929 146.972 411.249 148.53C409.051 150.572 407.654 153.318 405.31 155.205C403.398 156.71 401.269 157.915 398.995 158.779C399.743 156.445 400.742 154.126 400.992 152.795C401.697 149.099 400.922 143.44 404.014 140.864C396.692 146.407 386.231 146.191 377.878 149.831C375.347 150.908 373.061 152.49 371.161 154.482C370.798 151.701 371.977 148.309 374.603 144.732C378.839 138.956 381.881 133.459 382.574 126.399C382.9 123.024 381.864 118.292 385.611 116.944C380.676 118.263 376.294 120.827 371.636 123.234C363.795 127.289 355.079 130.924 348.825 137.313C346.402 139.787 344.166 142.2 340.09 140.814C337.91 140.073 337.808 138.358 339.444 137.946C335.019 138.037 330.817 138.568 326.785 140.715C322.709 142.888 320.776 147.425 316.653 149.759C313.285 151.64 309.552 152.052 307.628 155.552C305.444 154.339 306.646 151.929 306.198 149.84C305.689 147.471 304.16 145.062 303.409 142.757C300.171 145.593 299.368 150.485 296.465 153.761C294.226 153.469 294.616 151.241 295.062 149.513C290.814 151.319 290.348 156.591 287.311 159.491C284.662 162.02 278.481 163.759 274.987 162.466C269.514 160.424 269.706 149.735 272.076 145.569C270.565 145.782 269.91 146.888 268.792 148.011C265.88 150.928 263.03 153.846 259.324 155.996C255.087 158.438 252.045 160.436 247.346 161.329C247.721 157.828 251.771 154.35 252.773 150.64C253.355 148.452 252.863 143.638 254.502 142.454C249.099 145.178 244.196 149.327 239.112 152.451C233.816 155.704 228.261 154.873 224.625 160.868C222.878 158.187 217.995 155.121 217.422 152.67C218.42 156.051 217.867 158.076 216.63 161.329C210.391 157.288 212.088 151.41 212.391 145.152C212.682 139.361 210.967 135.017 208.417 130.139C209.043 137.048 204.748 144.388 198.398 146.9C198.745 146.024 198.69 145.038 199.027 144.108C195.394 146.191 193.656 146.249 189.387 146.876C183.809 147.696 181.235 150.686 178.199 155.138C178.263 151.095 179.148 147.88 179.654 144.073C180.269 139.446 178.816 134.352 177.407 130.014C175.776 124.99 173.182 114.596 176.99 109.884C170.277 115.089 171.482 126.084 166.343 132.899C161.394 139.443 152.659 142.993 152.951 152.705C149.192 149.327 149.891 146.164 150.586 141.561C151.029 138.629 150.223 134.696 151.326 131.869C147.777 139.399 141.61 141.149 134.148 145.076C126.5 149.093 121.309 151.716 117.87 159.584C116.659 162.358 116.726 163.184 113.826 163.911C111.925 164.383 109.168 164.363 107.348 164.631C103.892 165.136 94.9281 166.857 96.8409 161.06C95.3153 161.79 93.8508 163.292 93.0385 164.605C90.7967 160.672 92.2554 155.614 94.634 151.999C88.488 153.02 84.9709 158.96 79.6575 161.667C75.4708 163.8 69.9478 163.304 65.6825 164.946C65.7524 163.143 66.1163 159.228 67.0101 158.018C63.1728 161.084 53.7164 161.518 51.5794 165.585C51.7774 164.471 53.7514 160.535 52.3422 159.64C50.9796 158.764 47.8323 162.224 46.9735 162.799C46.5571 160.346 47.7421 158.201 47.6576 155.745C46.3562 156.912 45.2965 158.053 43.7359 158.726C44.0271 156.416 45.3838 153.183 46.1554 151.529C41.2845 154.558 38.4895 157.384 32.5297 158.502C26.8203 159.572 24.6309 161.819 20.7209 165.325C20.913 164.421 20.6976 163.353 20.9625 162.493C17.6696 163.951 17.1397 168.587 20.2987 170.399L457.399 170.378C462.075 167.513 466.456 155.958 466.337 152.419C463.624 152.95 462.13 155.859 460.287 157.758Z" fill="#FFCC4D"/>
<path d="M234.923 53.4631C234.548 54.3701 234.314 55.3294 234.23 56.3075C234.615 55.404 234.85 54.443 234.923 53.4631Z" fill="#FF9B50"/>
<path d="M234.172 62.4835C234.375 60.2751 234.038 58.3292 234.23 56.3075C231.95 61.6346 224.878 63.773 221.419 67.2242C218.569 70.0657 217.244 77.6478 218.068 83.6138L218.805 90.1165C220.124 82.1201 225.187 77.6857 229.848 72.2595C232.25 69.4559 233.805 66.4423 234.172 62.4835Z" fill="#FF9B50"/>
<path d="M353.046 79.5295C350.636 84.2789 345.887 91.0092 341.188 94.5946C337.214 97.6287 332.975 102.501 333.636 108.014L333.994 112.341C333.857 112.574 333.362 112.662 333.717 112.834C336.798 107.679 341.727 104.111 346.137 100.082C348.842 97.6112 350.796 94.7493 351.282 91.0734C351.591 88.6637 352.417 81.7846 353.046 79.5295Z" fill="#FF9B50"/>
</svg>
