<svg width="153" height="155" viewBox="0 0 153 155" fill="none" xmlns="http://www.w3.org/2000/svg">
<g clip-path="url(#clip0_5_1721)">
<path d="M84.4458 70.643C79.8904 69.7937 75.182 70.5159 71.0894 72.6917C63.2211 74.9435 58.2221 84.8289 57.4466 92.7193C56.2535 104.785 67.2477 113.416 78.2061 114.174C89.1645 114.933 99.1803 107.246 101.924 96.8526C105.074 84.9006 96.1738 72.7336 84.4458 70.643Z" fill="#46057F"/>
<path d="M69.3773 99.6778C67.7787 98.2359 66.5352 96.443 65.7444 94.4395C65.0584 92.8088 65.0942 90.9214 64.1516 89.4341C64.1313 89.4005 64.1036 89.3719 64.0707 89.3504C64.0379 89.3289 64.0006 89.3151 63.9617 89.3099C63.9228 89.3047 63.8832 89.3084 63.8458 89.3205C63.8085 89.3327 63.7744 89.3532 63.746 89.3803C59.6895 92.8208 63.4119 99.9525 66.1978 102.855C70.1767 107.001 75.8617 108.279 80.9919 105.902C81.0708 105.854 81.1339 105.783 81.1738 105.7C81.2136 105.617 81.2284 105.523 81.2164 105.432C81.2044 105.34 81.1662 105.254 81.1062 105.184C81.0462 105.113 80.9671 105.062 80.8785 105.036C76.9891 103.859 72.5091 102.3 69.3773 99.6778Z" fill="white"/>
<path d="M85.6807 104.02C84.7522 104.297 83.8562 104.674 83.0082 105.143C82.9515 105.178 82.9045 105.227 82.8719 105.285C82.8394 105.343 82.8223 105.408 82.8223 105.475C82.8223 105.541 82.8394 105.607 82.8719 105.665C82.9045 105.723 82.9515 105.772 83.0082 105.806C83.5268 106.089 84.1156 106.217 84.7046 106.175C85.2936 106.132 85.8581 105.921 86.3309 105.567C87.0766 105.054 86.6292 103.662 85.6807 104.02Z" fill="white"/>
<path d="M91.6222 84.5303C89.773 79.9012 85.0603 77.3985 80.2343 78.8559C75.5217 80.2775 73.1833 84.9484 73.9945 89.6073C74.8058 94.2663 79.5006 97.3424 84.0164 97.2887C88.3711 97.2349 91.6938 93.7048 92.1651 89.5237C92.4516 87.8411 92.2636 86.1118 91.6222 84.5303Z" fill="white"/>
<path d="M133.326 69.538C119.236 57.8249 92.5767 50.4661 82.531 49.3611C61.3718 47.0376 36.8541 57.126 23.2948 74.5374C0.351938 104.002 10.2246 100.765 25.9732 115.154C39.5564 127.59 60.5724 134.513 76.7863 136.352C94.6287 138.377 122.833 127.351 135.068 109.969C143.247 98.3877 152.964 85.8623 133.326 69.538ZM114.273 110.919C103.965 120.422 90.4112 123.845 76.7863 123.176C53.6168 122.035 38.8644 103.572 18.5344 96.4524C39.0553 79.6204 53.1336 62.8541 82.531 64.4071C94.408 65.0402 105.695 70.3443 115.502 76.6877C121.58 80.6179 126.884 88.568 133.929 91.0229C126.311 96.2016 121.228 104.516 114.273 110.919Z" fill="#231F20"/>
<path d="M78.8742 39.2607C85.3109 37.3194 85.0961 30.5938 85.0782 24.9791C85.0782 20.9772 85.2751 16.7842 84.595 12.83C83.8792 8.69071 82.018 5.38167 80.807 1.42753C80.4073 0.0955463 78.5879 -0.549572 77.5738 0.573356C71.2922 7.52596 69.1685 12.8897 69.4608 22.4645C69.5861 27.4042 70.0455 41.9127 78.8742 39.2607Z" fill="#231F20"/>
<path d="M149.91 41.6678C148.717 42.3069 147.738 43.4597 146.474 43.9017C145.006 44.4393 143.581 45.3531 142.149 45.8429C138.343 47.151 134.06 51.5591 132.783 55.2982C131.053 60.3693 136.362 64.652 141.027 63.553C144.607 62.7048 149.6 57.8248 150.316 53.9961C150.954 50.5855 152.201 47.3362 152.946 43.9734C153.037 43.5805 153.013 43.1696 152.876 42.7904C152.738 42.4111 152.495 42.0796 152.174 41.8359C151.853 41.5922 151.468 41.4467 151.067 41.4168C150.665 41.387 150.263 41.4742 149.91 41.6678Z" fill="#231F20"/>
<path d="M36.1382 47.2048C41.7159 50.7887 48.1346 44.9112 46.7507 39.0397C44.7642 30.5938 36.9316 25.9827 31.4017 20.1172C30.4115 19.0659 28.3057 19.5199 28.0194 21.0072C26.2596 30.337 27.4586 41.5902 36.1382 47.2048Z" fill="#231F20"/>
<path d="M18.3495 59.3002C16.1244 55.1191 12.6228 51.4636 8.04136 50.8603C6.98129 50.535 5.88092 50.3601 4.77235 50.3407C3.57927 50.3407 2.54129 49.9106 1.30049 50.2271C0.930575 50.3337 0.604837 50.557 0.371645 50.8637C0.138453 51.1703 0.0102093 51.5441 0.00598145 51.9295C0.010006 52.8536 0.134335 53.7732 0.375832 54.6651C0.411624 54.8503 0.340046 55.9672 0.530938 54.7308C0.41247 55.4633 0.384449 56.2075 0.44745 56.9468C0.0716312 61.982 4.39055 66.868 8.52456 69.1377C14.9314 72.6618 21.7677 65.6734 18.3495 59.3002Z" fill="#231F20"/>
<path d="M116.009 44.6901C121.903 37.0028 123.233 27.4759 124.253 18.0326C124.474 15.9778 121.688 15.6971 120.721 17.0768C115.818 24.119 108.546 28.2046 103.243 34.8227C95.8636 44.0212 108.856 54.014 116.009 44.6901Z" fill="#231F20"/>
<path d="M124.897 132.762C93.9845 150.616 65.8995 142.917 33.1615 138.084C32.726 138.019 32.2846 138.538 32.6903 138.903C57.7031 161.636 104.692 160.406 126.15 134.387C126.872 133.515 126.001 132.147 124.897 132.762Z" fill="#231F20"/>
</g>
<defs>
<clipPath id="clip0_5_1721">
<rect width="153" height="155" fill="white"/>
</clipPath>
</defs>
</svg>
