<svg width="239" height="129" viewBox="0 0 239 129" fill="none" xmlns="http://www.w3.org/2000/svg">
<g clip-path="url(#clip0_5_839)">
<path d="M22.9465 68.0157V105.743C22.9465 112.427 19.5355 115.769 12.7136 115.769C9.33708 115.769 6.75302 114.839 4.9614 112.978C3.16978 111.118 2.27398 108.465 2.27398 105.019V27.7043C2.27398 24.3278 3.16978 21.7437 4.9614 19.9521C6.75302 18.0916 9.33708 17.1613 12.7136 17.1613C19.5355 17.1613 22.9465 20.4345 22.9465 26.9808V60.1601H15.1943V27.0841C15.1943 25.0169 14.3674 23.9833 12.7136 23.9833C10.9909 23.9833 10.1295 25.0169 10.1295 27.0841V105.743C10.1295 107.879 10.9909 108.947 12.7136 108.947C14.3674 108.947 15.1943 107.879 15.1943 105.743V68.0157H22.9465ZM27.408 27.7043C27.408 20.6757 30.8879 17.1613 37.8476 17.1613C44.8074 17.1613 48.2873 20.6757 48.2873 27.7043V105.019C48.2873 108.465 47.3915 111.118 45.5998 112.978C43.8082 114.839 41.2242 115.769 37.8476 115.769C34.4711 115.769 31.8871 114.839 30.0955 112.978C28.3038 111.118 27.408 108.465 27.408 105.019V27.7043ZM40.4317 105.743V27.0841C40.4317 25.0169 39.5704 23.9833 37.8476 23.9833C36.1249 23.9833 35.2636 25.0169 35.2636 27.0841V105.743C35.2636 107.879 36.1249 108.947 37.8476 108.947C38.6056 108.947 39.2258 108.672 39.7082 108.12C40.1905 107.5 40.4317 106.708 40.4317 105.743ZM68.0392 77.4217L66.9022 44.449V17.5748H73.8275V115.252H66.4888L59.6668 51.9945H59.0467L60.0803 85.1739V115.252H53.155V17.5748H60.8038L67.419 77.4217H68.0392ZM93.9856 24.5001H86.6469V61.1938H93.5722V68.1191H86.6469V115.252H78.8947V17.5748H93.9856V24.5001ZM104.715 108.327H112.261V115.252H96.9629V17.5748H112.054V24.5001H104.715V61.0904H111.64V67.9123H104.715V108.327ZM135.994 53.4416H128.346V26.6707C128.346 24.8791 127.484 23.9833 125.762 23.9833C124.108 23.9833 123.281 24.8102 123.281 26.464V52.9248C123.281 55.6811 124.28 57.6794 126.278 58.9198L129.793 60.7803C132.067 62.0896 133.72 63.5367 134.754 65.1216C135.788 66.6375 136.304 68.8771 136.304 71.8401V105.743C136.304 108.913 135.374 111.394 133.514 113.185C131.722 114.908 129.241 115.769 126.072 115.769C122.833 115.769 120.249 114.942 118.319 113.288C116.459 111.566 115.529 109.223 115.529 106.26V73.9074H123.281V105.95C123.281 107.948 124.177 108.947 125.968 108.947C127.622 108.947 128.449 107.983 128.449 106.053V74.1141C128.449 71.151 127.415 69.0493 125.348 67.809L121.627 65.8451C119.422 64.6047 117.837 63.1921 116.872 61.6072C115.908 59.9534 115.425 57.645 115.425 54.6819V26.5673C115.425 23.6732 116.321 21.3992 118.113 19.7454C119.904 18.0227 122.523 17.1613 125.968 17.1613C132.652 17.1613 135.994 20.1933 135.994 26.2572V53.4416ZM153.9 115.252L152.97 89.8252H147.285L146.355 115.252H138.499L144.081 17.5748H156.174L161.963 115.252H153.9ZM147.595 82.8999H152.66L151.11 41.0381L150.489 26.464H149.766L149.146 41.0381L147.595 82.8999ZM179.78 77.4217L178.643 44.449V17.5748H185.568V115.252H178.229L171.407 51.9945H170.787L171.821 85.1739V115.252H164.896V17.5748H172.544L179.16 77.4217H179.78ZM190.325 27.7043C190.325 20.6757 193.805 17.1613 200.765 17.1613C207.725 17.1613 211.204 20.6757 211.204 27.7043V105.019C211.204 108.465 210.309 111.118 208.517 112.978C206.725 114.839 204.141 115.769 200.765 115.769C197.388 115.769 194.804 114.839 193.013 112.978C191.221 111.118 190.325 108.465 190.325 105.019V27.7043ZM203.349 105.743V27.0841C203.349 25.0169 202.487 23.9833 200.765 23.9833C199.042 23.9833 198.181 25.0169 198.181 27.0841V105.743C198.181 107.879 199.042 108.947 200.765 108.947C201.523 108.947 202.143 108.672 202.625 108.12C203.108 107.5 203.349 106.708 203.349 105.743ZM236.228 53.4416H228.579V26.6707C228.579 24.8791 227.718 23.9833 225.995 23.9833C224.341 23.9833 223.514 24.8102 223.514 26.464V52.9248C223.514 55.6811 224.513 57.6794 226.512 58.9198L230.026 60.7803C232.3 62.0896 233.954 63.5367 234.987 65.1216C236.021 66.6375 236.538 68.8771 236.538 71.8401V105.743C236.538 108.913 235.608 111.394 233.747 113.185C231.955 114.908 229.475 115.769 226.305 115.769C223.066 115.769 220.482 114.942 218.553 113.288C216.692 111.566 215.762 109.223 215.762 106.26V73.9074H223.514V105.95C223.514 107.948 224.41 108.947 226.202 108.947C227.855 108.947 228.682 107.983 228.682 106.053V74.1141C228.682 71.151 227.649 69.0493 225.581 67.809L221.86 65.8451C219.655 64.6047 218.07 63.1921 217.106 61.6072C216.141 59.9534 215.659 57.645 215.659 54.6819V26.5673C215.659 23.6732 216.554 21.3992 218.346 19.7454C220.138 18.0227 222.756 17.1613 226.202 17.1613C232.886 17.1613 236.228 20.1933 236.228 26.2572V53.4416Z" fill="#2D2D2D"/>
<path d="M46.9847 22.1797C46.8889 22.1031 46.8793 21.4992 46.8601 21.365C46.8218 21.0213 46.8026 20.6757 46.8026 20.3299C46.7986 19.6637 46.8628 18.9989 46.9943 18.3458C47.2052 17.3107 47.5598 15.7196 48.7483 15.4033C48.5662 15.4512 48.2403 15.3266 48.039 15.3362C47.7515 15.3455 47.4657 15.3841 47.186 15.4512C46.6325 15.5892 46.1005 15.8021 45.6045 16.0838C44.6378 16.5505 43.7717 17.2017 43.0549 18.0008C42.9423 18.1456 42.8626 18.3132 42.8212 18.492C42.7798 18.6707 42.7778 18.8563 42.8153 19.0359C44.0901 19.9177 45.7099 21.2692 46.9847 22.1797Z" fill="#2D2D2D"/>
<path d="M29.5499 22.1797C29.6458 22.1031 29.6554 21.4992 29.6746 21.365C29.7128 21.0213 29.732 20.6757 29.7321 20.3299C29.7361 19.6637 29.6718 18.9989 29.5404 18.3458C29.3391 17.3107 28.9749 15.7196 27.7959 15.4033C27.9685 15.4512 28.3039 15.3266 28.4956 15.3362C28.7863 15.3455 29.0753 15.3841 29.3583 15.4512C29.9081 15.591 30.4368 15.8037 30.9302 16.0838C31.8984 16.5479 32.765 17.1995 33.4797 18.0008C33.5918 18.1461 33.6719 18.3134 33.7148 18.4917C33.7578 18.6701 33.7626 18.8556 33.7289 19.0359C32.4541 19.9177 30.8247 21.2692 29.5499 22.1797Z" fill="#2D2D2D"/>
<path d="M200.591 16.9076C206.562 16.9076 211.402 16.3411 211.402 15.6424C211.402 14.9436 206.562 14.3772 200.591 14.3772C194.62 14.3772 189.779 14.9436 189.779 15.6424C189.779 16.3411 194.62 16.9076 200.591 16.9076Z" stroke="#2D2D2D" stroke-width="0.95848" stroke-miterlimit="10"/>
</g>
<defs>
<clipPath id="clip0_5_839">
<rect width="238.556" height="128.149" fill="white"/>
</clipPath>
</defs>
</svg>
